<?xml version="1.0" encoding="utf-8"?>
<!-- Generator: Adobe Illustrator 15.1.0, SVG Export Plug-In . SVG Version: 6.00 Build 0)  -->
<!DOCTYPE svg PUBLIC "-//W3C//DTD SVG 1.1//EN" "http://www.w3.org/Graphics/SVG/1.1/DTD/svg11.dtd">
<svg version="1.1" id="Layer_1" xmlns="http://www.w3.org/2000/svg" xmlns:xlink="http://www.w3.org/1999/xlink" x="0px" y="0px"
	 width="300px" height="300px" viewBox="0 0 300 300" enable-background="new 0 0 300 300" xml:space="preserve">
<g>
	<g>
		<path d="M150.001,115.481c-19.178,0-34.521,15.554-34.521,34.519c0,19.178,15.343,34.521,34.521,34.521
			c18.964,0,34.519-15.343,34.519-34.521C184.52,131.035,168.965,115.481,150.001,115.481z M150.001,0C67.158,0,0,67.157,0,150
			s67.158,150,150.001,150S300,232.843,300,150S232.844,0,150.001,0z M241.413,152.131c0,0-39.633,59.238-91.412,59.238
			s-91.414-59.238-91.414-59.238c-0.852-1.278-0.852-2.982,0-4.262c0,0,39.635-59.237,91.414-59.237s90.987,58.598,90.987,58.598
			l0.425,0.639C242.267,149.148,242.267,150.853,241.413,152.131z"/>
	</g>
</g>
</svg>
