<?xml version="1.0" encoding="utf-8"?>
<!-- Generator: Adobe Illustrator 15.1.0, SVG Export Plug-In . SVG Version: 6.00 Build 0)  -->
<!DOCTYPE svg PUBLIC "-//W3C//DTD SVG 1.1//EN" "http://www.w3.org/Graphics/SVG/1.1/DTD/svg11.dtd">
<svg version="1.1" id="Layer_1" xmlns="http://www.w3.org/2000/svg" xmlns:xlink="http://www.w3.org/1999/xlink" x="0px" y="0px"
	 width="300px" height="300px" viewBox="0 0 300 300" enable-background="new 0 0 300 300" xml:space="preserve">
<g>
	<g>
		<path d="M169.178,150h-15.342c-11.506,0-19.178-5.753-19.178-13.424c0-5.328,4.263-9.589,9.59-9.589
			c7.67,0,7.883,7.671,13.424,7.671c4.26,0,7.67-3.41,7.67-7.671c0-7.458-3.621-11.293-7.244-14.916
			c2.131-4.049,7.031-14.703,7.244-30.045c0-1.917-1.277-3.622-3.195-3.835c-4.049-0.639-8.098-1.064-12.146-1.064
			c-32.389,1.064-53.698,16.407-53.698,42.19c0,23.013,19.178,42.19,42.191,42.19h0.639c-0.427,1.918-0.639,3.836-0.639,5.754
			c0,11.721,8.097,21.734,19.178,24.293v27.486c0,2.131,1.705,3.836,3.836,3.836c11.504,0,34.518-19.178,34.518-46.027
			C196.025,161.934,184.094,150,169.178,150z M150.001,0C67.158,0,0,67.157,0,150c0,82.844,67.158,150,150.001,150
			S300,232.844,300,150C300,67.157,232.844,0,150.001,0z M150.001,242.053c-50.928,0-92.053-41.125-92.053-92.053
			c0-50.927,41.125-92.052,92.053-92.052c50.927,0,92.052,41.125,92.052,92.052C242.053,200.928,200.928,242.053,150.001,242.053z"
			/>
	</g>
</g>
</svg>
