<?xml version="1.0" standalone="no"?>
<!DOCTYPE svg PUBLIC "-//W3C//DTD SVG 1.1//EN" "http://www.w3.org/Graphics/SVG/1.1/DTD/svg11.dtd" >
<svg xmlns="http://www.w3.org/2000/svg">
<metadata></metadata>
<defs>
<font id="amarelinha_boldbold" horiz-adv-x="505" >
<font-face units-per-em="2048" ascent="1638" descent="-410" />
<missing-glyph horiz-adv-x="624" />
<glyph horiz-adv-x="2048" />
<glyph horiz-adv-x="2048" />
<glyph unicode="&#xd;" horiz-adv-x="681" />
<glyph unicode=" "  horiz-adv-x="624" />
<glyph unicode="&#x09;" horiz-adv-x="624" />
<glyph unicode="&#xa0;" horiz-adv-x="624" />
<glyph unicode="!" horiz-adv-x="231" d="M25 -82q0 22 10 45q3 23 18 33q11 14 31 14q45 0 45 -88v-12q-6 -94 -57 -94h-6q-2 1 -6 2t-5 2t-4.5 3.5t-5.5 4.5q-7 3 -10 16q-1 4 -6 27q-1 10 -2 21t-1.5 17t-0.5 9zM29 154v131q0 226 4 546q1 61 8 373q1 35 2 74t1.5 59.5t0.5 30.5q0 30 -4 53q0 14 -1 32.5 t-1 21.5q0 59 37 59q63 -12 63 -154v-166q0 -247 -2 -448q-2 -203 -2 -428v-113q-3 -157 -55 -157h-2q-25 3 -37 18q-9 18 -12 68z" />
<glyph unicode="&#x22;" horiz-adv-x="296" d="M-4 1305v16q2 6 2 14v2q4 36 4 70q0 20 -2 45v66v4q9 40 41 43h8q38 0 47 -49l-2 -64v-55q2 -27 2 -56q0 -107 -45 -110q-34 -3 -49 45q-1 1 -2 4.5t-2 5.5v4v2q-2 2 -2 13zM143 1311q0 19 4 37q0 8 1.5 27.5t1.5 31.5q0 7 -3 45v66v4q9 40 41 43h9q38 0 47 -49l-2 -64 v-55q2 -27 2 -56q0 -114 -45 -114q-32 3 -49 47q-7 21 -7 37z" />
<glyph unicode="#" horiz-adv-x="813" d="M-43 670q0 41 57 53h2q2 2 4 2q17 0 60 -6q44 -6 98 -6l33 137q-213 3 -248 16q-2 6 -2 23q0 34 27 43q21 8 82 8h24h6q6 0 17.5 -0.5t26.5 -1t37.5 -1t47.5 -1.5q73 326 99 414q15 30 45 30h2q20 0 31 -16q14 -11 14 -33v-12l-43 -137q-1 -2 -2 -7t-3.5 -15t-4.5 -19 l-23 -97l-25 -108q33 0 60 -2h61l95 360q22 31 47 31h2q43 -6 43 -45q0 -3 -90 -346q53 -2 190 -2h4q43 -12 43 -47q0 -34 -47 -49l-72 2q-18 7 -139 10l-35 -133q72 0 123 2h98h27q43 -12 43 -49q0 -11 -2 -15q-4 -8 -4 -10q-1 -1 -2.5 -3.5t-2.5 -3.5t-3 -1q0 -2 -8 -6 q-4 -2 -9 -2l-8 -4l-8 -2q-45 2 -268 2l-80 -308q-21 -76 -49 -159q-18 -49 -27 -58q-8 -8 -22 -8q-43 0 -43 57l124 476h-112q-20 -91 -68 -299q-25 -99 -45 -156q-14 -47 -24 -57q-6 -9 -21 -9q-19 0 -33 17q-12 15 -12 41q0 14 2 18q0 6 2 8q4 4 4 15q3 3 8 18 q21 65 97 406q-99 3 -156 10q-45 12 -45 35zM270 713q86 0 113 2l35 133h-58q-29 2 -61 2z" />
<glyph unicode="$" horiz-adv-x="581" d="M20 1309v4q0 101 93 205q29 37 90 43v8v20q0 49 37 49q22 0 34 -24q12 -28 17 -60q78 -18 123 -63t45 -76q0 -33 -33 -33q-14 0 -37 13q-41 30 -88 53v-145q0 -95 -2 -191v-235q28 -28 57 -70q6 -11 22.5 -38t22.5 -38q4 -8 8.5 -16.5t6.5 -12t2 -4.5q30 -34 51 -129 q20 -94 20 -211q0 -224 -47 -295q-48 -70 -153 -90q-12 -61 -49 -61q-41 0 -47 57q-108 12 -136 84q-20 56 -20 283q0 52 4 84q3 19 27 29l6 -3q53 0 53 -61v-31q0 -116 4 -190q6 -54 16 -70q13 -16 43 -22v53q0 71 2 315.5t3 403.5q-96 107 -125 186q-30 92 -50 279z M129 1339q0 -31 8 -104v-18q0 -7 1 -19t1 -18l8 -41q6 -26 19 -54q6 -15 31 -63q3 203 6 303q4 132 4 152v10q-78 -31 -78 -148zM297 51q53 15 72 60q15 47 18 200v43q0 219 -90 365v-217v-346v-105z" />
<glyph unicode="%" horiz-adv-x="1073" d="M18 1133v22q0 57 7 111q1 11 8 77q3 31 22 62l23 45q5 5 37 45l37 47q26 39 67 39h8q72 -12 125 -80q56 -72 76 -145q23 -87 23 -152q-2 -97 -9 -217q-6 -43 -30 -96q-20 -50 -56 -78q-30 -27 -92 -27q-106 0 -174 105q-69 103 -72 242zM25 37q0 31 18 61l600 977 q206 317 254 408q20 39 47 39q35 0 35 -56q0 -42 -33 -98l-82 -137l-635 -1030l-51 -86q-58 -117 -112 -117h-15q-26 14 -26 39zM113 1219q0 -134 34 -232q30 -110 109 -110q33 0 41 14q53 71 53 373q0 71 -41 139q-41 69 -76 72h-4q-35 -9 -73 -78q-40 -65 -43 -178z M537 356q3 116 26 201q22 82 60 133q35 47 65 68q29 21 53 24h19q56 0 102 -32q47 -41 66 -93q25 -71 30 -118q11 -56 11 -133q0 -31 -2 -62v-70q-1 -8 -4 -31t-5 -38q-3 -44 -12 -68q-6 -26 -20 -57q-14 -32 -33 -51q-21 -17 -47 -29q-27 -12 -64 -12q-90 0 -168 90 q-77 92 -77 278zM631 420q0 -113 33 -232q37 -110 110 -110q33 0 41 14q53 71 53 373q0 82 -28 145q-24 70 -68 70q-45 0 -92 -74q-49 -73 -49 -186z" />
<glyph unicode="&#x26;" horiz-adv-x="716" d="M12 358q0 61 2 88q3 47 11 82q9 38 12 64t20 59q5 14 12.5 29.5t8.5 17.5q2 11 24 47q23 33 25 37q1 3 29 43q8 10 14.5 19t9.5 13t4 5q-24 85 -57 174q-11 37 -26 84t-19 60q-17 49 -25 96q-12 52 -12 96q0 95 57 152q62 53 177 53q101 0 155 -82q53 -86 53 -170l-8 -55 q-11 -50 -12 -51l-14 -52q-11 -35 -31 -73l-45 -95l-74 -143l225 -477q29 155 29 184q0 17 21 35t40 18q33 0 33 -59q0 -50 -53 -332l20 -57l66 -109q21 -52 21 -59q0 -18 -13 -31q-12 -12 -28 -12q-19 0 -33 14t-37 56q-29 52 -29 53l-16 22q-77 -135 -275 -135 q-153 0 -208 90q-54 88 -54 301zM115 340q1 -18 1.5 -40.5t1 -37t1.5 -24.5q4 -44 10 -72q9 -39 25 -55t45 -29q30 -10 71 -10q176 0 226 139l-258 571q-41 -53 -58 -86q-24 -39 -43 -118q-22 -90 -22 -195v-43zM143 1339q0 -21 103 -381l37 74l32 64q6 10 23 49 q12 29 20 55q9 31 13 55q8 47 10 72q0 59 -25 98q-20 35 -43 45q-25 7 -39 7q-61 0 -94 -39q-37 -40 -37 -99z" />
<glyph unicode="'" horiz-adv-x="180" d="M12 1305v16q2 6 2 14v2q4 36 4 70q0 20 -2 45v66v4q9 40 41 43h9q38 0 47 -49l-2 -64v-55q2 -27 2 -56q0 -88 -29 -104l-6 -6h-12q-5 0 -9 2h-8q-2 1 -5 3t-5 3l-10 10q0 1 -9 15q-2 6 -6 22v4v2q-2 2 -2 13z" />
<glyph unicode="(" horiz-adv-x="374" d="M27 395v72q0 319 10 704v74q0 73 2 98q3 37 12 87q8 44 31 77q27 30 57 45q41 21 94 21q29 0 46 -17q16 -16 16 -36q0 -23 -19 -39q-20 -17 -53 -17q-37 0 -49 -10q-14 -6 -29 -61q-11 -37 -18 -156q0 -26 -1 -125.5t-1 -171.5q0 -192 2 -264l-2 -590v-8q0 -70 18 -105 q14 -33 60 -39q26 -6 26 -30q0 -23 -20 -43q-22 -19 -49 -19q-35 0 -74 33q-43 37 -49 137q-10 82 -10 383z" />
<glyph unicode=")" horiz-adv-x="364" d="M-12 1534q0 39 65 39q53 0 94 -21q40 -18 58 -45q23 -29 31 -77q9 -50 12 -87q2 -23 2 -98v-74q12 -313 12 -704v-145q0 -318 -29 -398q-24 -84 -147 -84q-57 0 -57 33q0 18 20 41q23 20 37 20q44 6 61 39q17 39 17 105v8l-4 590q4 144 4 264q0 257 -12 371 q-9 109 -27 131q-14 22 -59 22q-31 0 -54 23q-24 21 -24 47z" />
<glyph unicode="*" horiz-adv-x="401" d="M18 1419q0 44 60 47q-17 24 -17 41v15q15 24 33 24t39 -18q9 29 39 39h10q36 0 45 -39v-4v-6q21 8 33 8q19 0 31 -15q12 -12 12 -30q0 -12 -8 -25h2q2 -2 16 -2q4 -1 11 -2t10 -2q9 -3 14 -10q6 -9 6 -23q0 -34 -49 -49l-26 2l18 -22q2 -8 5 -16.5t4 -12t1 -4.5 q0 -19 -12 -31q-15 -12 -33 -12q-23 0 -41 18q0 -46 -35 -55h-4l-4 2h-8q-4 4 -10 4q-3 3 -13 8q-1 2 -4 6.5t-4 6.5q-4 12 -8 20q0 4 -1 14t-1 15q-28 -25 -47 -25q-39 3 -39 41q0 21 23 51q-48 3 -48 41z" />
<glyph unicode="+" horiz-adv-x="290" d="M-76 618l2 9q1 2 1.5 5.5t1 5.5t1.5 3q8 8 11 10q12 4 20 6q6 2 25 2q15 3 24 3l58 6l-9 63v2q0 92 52 92q30 -9 36 -18q6 -17 11 -66l6 -63h10q2 0 11 1t16 1q10 4 22 4h19q55 0 55 -33q0 -52 -45 -61q-22 -5 -80 -8q0 -15 4 -27q0 -7 1 -17t1 -12v-22q0 -51 -39 -51 q-16 0 -24 2q-14 7 -15 8l-10 12q-2 5 -6 19q-2 8 -2 20q0 15 -2 29t-2 30l-62 -4h-6q-86 0 -86 49z" />
<glyph unicode="," horiz-adv-x="239" d="M23 -102q0 1 1 7.5t1 12.5q5 12 14 72l24 139q18 37 48 37q19 0 32 -16q15 -15 15 -39v-15l-13 -73q-3 -15 -6 -39q-4 -26 -8 -37l-6 -33q0 -2 -8 -33q-1 -4 -11 -24q-3 -3 -8.5 -9t-7.5 -8q-16 -4 -20 -4l-9 2q-11 4 -12 6q-3 0 -12 9q-7 7 -10 16q-4 16 -4 29z" />
<glyph unicode="-" horiz-adv-x="401" d="M4 625v6l4 8v6q1 1 2 3t2 3l4 4q2 2 5 4t4 3t4.5 2t5.5 2q4 2 14 2q3 1 9.5 2t9.5 2h22l129 4q28 4 47 4q16 4 37 4h19q55 0 55 -33q0 -18 -2 -24q-4 -15 -10 -21q-7 -7 -13 -10q-12 -4 -24 -6q-4 -1 -13 -2t-12 -2q-21 0 -37 -2q-7 -1 -22 -2t-21 -2l-127 -11 q-92 6 -92 56z" />
<glyph unicode="." horiz-adv-x="137" d="M4 86q0 22 10 45q3 22 19 33q11 14 30 14q46 0 46 -88v-12q-6 -94 -58 -94h-6q-2 1 -5.5 2t-4.5 2t-4.5 3.5t-5.5 4.5q-8 4 -11 16q-2 4 -6 27q-1 10 -2 21t-1.5 17t-0.5 9z" />
<glyph unicode="/" horiz-adv-x="641" d="M37 -66q0 24 6 54l315 1116q9 31 66 203q47 142 55 180q17 58 17 98q0 11 16 27q17 14 37 14q35 0 35 -55q0 -39 -11 -92l-45 -160l-333 -1184l-27 -96v-8q-34 -112 -78 -121h-4h-4q-2 -2 -4 -2h-2q-39 0 -39 26z" />
<glyph unicode="0" horiz-adv-x="555" d="M8 420q0 37 4 49l31 852v10q0 88 45 148q45 63 115 63q19 0 37 -6q45 -13 71 -29q25 -10 49 -30q5 -6 13.5 -15.5t11.5 -11.5q7 -9 14 -27l7 -14q35 -49 65 -291q27 -263 27 -475q0 -155 -21 -324q-22 -179 -53 -247q-1 -1 -2.5 -3.5t-5 -7t-6.5 -8.5q-6 -16 -13 -16 q0 -5 -12 -17q-1 -2 -2.5 -3.5l-3 -3l-2.5 -2.5t-3 -2l-1 -1q-1 -1 -3.5 -2t-6.5 -2.5t-7 -3.5q-5 -5 -20 -10q-4 -1 -29 -6q-18 -4 -37 -9q-9 0 -45 -4h-2h-8q-6 -2 -12 -2q-50 0 -97 23q-43 18 -59 61q-10 24 -22 156q-17 127 -17 211zM111 465q0 -52 4 -166q0 -7 8 -135 q6 -54 8 -58q15 -34 90 -34q166 0 166 293q0 20 -2 32v27v121q2 59 2 137v20q0 715 -151 736q-13 0 -19 2t-14 2q-33 0 -49 -29q-14 -24 -23 -131l-20 -801v-16z" />
<glyph unicode="1" horiz-adv-x="241" d="M31 82v127q0 213 4 577l8 424q1 44 2 83.5t1.5 58t0.5 20.5q0 46 -2 62q-1 7 -1.5 15.5t-1 14t-1.5 9.5q-2 8 -2 16q0 7 6 22q16 23 33 23q63 -15 63 -150v-159q0 -259 -2 -492q-2 -236 -2 -473v-108q-3 -81 -14 -115q-9 -37 -41 -37h-2q-27 3 -35 20q-11 14 -14 62z" />
<glyph unicode="2" horiz-adv-x="522" d="M8 74q0 26 17 182q13 121 26 170q15 49 55 113q42 67 74 92q30 30 45 51q38 48 72 104q45 72 70 168q28 103 28 209v41q-1 17 -2 48.5t-2 45.5q-1 8 -1.5 18t-1 16t-1.5 9t-3.5 13.5t-4.5 17.5l-5 20l-3 13q-7 27 -45 41q-43 16 -86 16q-75 0 -90 -35t-15 -262v-30 q0 -66 -53 -66l-14 2q-1 2 -11 12q-2 2 -4.5 6t-3.5 5q0 12 -2 26t-2 62q0 232 21 297q27 88 167 88q59 0 123 -25q60 -22 97 -72q45 -62 45 -294q0 -104 -21 -199q-21 -92 -39 -137q-18 -46 -30 -58q-1 -1 -3 -4.5t-6.5 -10.5t-9.5 -15q-13 -29 -41 -68q-19 -35 -59 -78 q-110 -119 -142 -213q-27 -104 -30 -266v-39l106 4h53q72 0 117 -10q37 -9 37 -41q0 -30 -41 -41q-45 -7 -147 -10h-31h-18q-19 0 -35 -2h-39q-111 0 -111 86z" />
<glyph unicode="3" horiz-adv-x="466" d="M12 1487q0 21 8 29q25 22 54 22q62 0 153 -6t129 -6h29h4q66 0 66 -51q0 -43 -49 -189l-123 -373l-9 -18q144 -37 144 -217q0 -50 -8 -107q0 -77 2 -110t2 -78q0 -41 2 -64t2 -169q0 -105 -45 -150q-45 -42 -164 -45h-12q-78 0 -119 35q-24 20 -29 30q-13 13 -16 37 q-2 5 -3.5 11.5t-2.5 12.5t-2 9t-5 45q-4 48 -4 49v2q0 72 54 72q10 0 16 -4q8 0 29 -21q16 -16 16 -45v-14q0 -77 21 -98q23 -23 61 -23h33q69 0 69 113v12q0 1 -0.5 10.5t-1.5 29t-2 40.5q-4 94 -4 209v72v75q0 98 -8 144q-13 33 -41 41h-12q-20 4 -29 4q-5 2 -29 8 q-11 2 -26 12q-10 13 -10 23q0 17 34 123l82 252q47 143 68 213q-6 -2 -29 -2q-237 6 -258 14q-37 9 -37 41z" />
<glyph unicode="4" horiz-adv-x="550" d="M16 1348v82q0 62 9 86q9 26 34 26q5 0 7 -2q11 -2 24 -18q7 -18 16 -95q9 -79 9 -233v-217q0 -46 10 -53q2 0 4 -2q35 -15 117 -15q67 0 104 11q2 8 2 40q0 16 -4 78q-4 66 -4 97q0 59 2 73q-2 51 -2 174v13q-1 18 -2 39.5t-1.5 33t-0.5 17.5q0 96 47 102h2q29 -3 41 -41 t12 -147v-162v-6q15 -704 15 -963q0 -224 -25 -282q-9 -25 -31 -25q-1 1 -4.5 2t-5.5 2t-5 2t-5 2q0 1 -2.5 3.5t-3.5 4.5q-1 1 -6 15q-9 34 -9 143v100q2 37 2 64q0 287 -6 530q-38 -14 -116 -14q-200 0 -215 88q-9 43 -9 447z" />
<glyph unicode="5" horiz-adv-x="483" d="M20 186v4q0 74 50 74q23 0 41 -18q16 -22 16 -51v-9q0 -39 4 -67q3 -26 33 -47q26 -23 82 -23q44 0 57 29q16 24 16 88v12v6v17q-1 3 -2 13t-2 15v45q-1 10 -2 32.5t-2 33.5v90v115q0 193 -6 272q-50 -4 -72 -4l-120 -2q-20 -4 -27 -4q-28 0 -47 29v8v338q0 341 10 358 l4 4q3 3 13 8q8 4 22 4q13 5 49 5q23 2 82 2q97 0 158 -11q51 -9 51 -45q0 -30 -31 -39q-24 -8 -114 -8h-27q-95 0 -125 -6v-33v-65q2 -37 2 -90q0 -158 2 -209l-2 -144l98 5q20 2 66 2h18q95 -9 95 -101v-172v-149q2 -59 2 -117q0 -41 2 -64t2 -170q0 -102 -45 -147 q-45 -42 -162 -45h-12q-76 0 -117 35q-33 29 -49 78z" />
<glyph unicode="6" horiz-adv-x="514" d="M25 1208q0 168 28 238q19 45 66 65q48 23 100 23q95 0 148 -47q55 -43 55 -94q0 -22 -12 -37t-31 -15q-30 0 -51 37q-41 66 -90 66q-65 0 -82 -39q-28 -61 -37 -397q0 -103 -2 -181q3 3 8 13q1 1 3.5 4t4.5 5t4 3l15 12q15 11 22 13q16 4 27 4q21 0 45 -9q16 -5 57 -34 q33 -30 57 -76q29 -49 46 -135q20 -84 20 -205v-62q-1 -14 -1.5 -30.5t-1 -27.5t-1.5 -19q0 -25 -6 -78q-6 -48 -19 -78q-14 -36 -32 -61q-18 -34 -50 -50q-40 -14 -75 -14q-116 0 -162 64q-42 62 -45 188l-4 119q-4 226 -4 835zM123 438q0 -151 14 -225q15 -74 35 -98 q23 -23 59 -23q33 0 52 19q16 16 28 86q15 67 15 200v13q0 41 -2 61q0 31 -5 51l-4 39q-4 26 -8 39q-3 24 -8 31q0 5 -10 35q-4 10 -7 21t-3 13q-21 74 -64 74h-2q-10 0 -37 -35q-36 -48 -45 -106q-8 -52 -8 -195z" />
<glyph unicode="7" horiz-adv-x="466" d="M27 43q0 28 10 80l33 135q4 21 18 85.5t21 100.5q2 2 55 224l115 467q60 254 71 311h-28q-41 0 -76 -2t-74 -2q-98 0 -113 12q-12 9 -12 27q0 49 57 49q52 0 113 -2q63 -2 154 -2h26q54 0 54 -47q0 -18 -35 -187q-129 -623 -168 -753q-2 -4 -23 -84l-41 -185l-41 -176 q-12 -41 -34 -69q-22 -31 -46 -31q-36 0 -36 49z" />
<glyph unicode="8" horiz-adv-x="595" d="M14 1260q0 88 43 161q50 75 99 95q36 20 98 20q250 0 250 -242q0 -23 -4 -77q-2 -14 -6.5 -37.5t-6.5 -32.5q-3 -10 -9 -31t-9 -31q-7 -21 -23 -53l-24 -43q-7 -16 -21 -35l-20 -26l-12 -19l-7 -6q-1 -1 -2 -2.5t-3.5 -5t-4.5 -6.5q-9 -18 -10 -21q15 -30 20 -39 q20 -17 56 -88q31 -66 41 -114q2 -7 18 -68q3 -13 9.5 -36t11 -42t8.5 -35q12 -59 12 -88q0 -213 -55 -301q-53 -90 -209 -90h-14q-207 0 -207 355q0 71 4 100q0 28 4 74q0 30 12 65q3 10 8.5 28t6.5 25q2 12 26 54q9 16 20.5 33.5t12.5 19.5q18 30 45 70l53 77 q-40 59 -94 113q-117 159 -117 279zM117 1284q0 -138 129 -301l39 -49q32 37 51 70q14 20 33 90q20 60 32 178v53q0 61 -24 88t-117 27q-69 0 -106 -43t-37 -113zM131 299q0 -227 129 -227h14q41 11 58 18q24 9 41 29l24 33q7 7 13 49q4 54 4 57q0 39 2 82v43 q0 157 -135 418q-1 0 -35 -41q-42 -45 -58 -84q-20 -34 -28 -66q0 -4 -3.5 -26.5t-4.5 -38.5q-5 -31 -9 -53q0 -11 -6 -82q-6 -70 -6 -111z" />
<glyph unicode="9" horiz-adv-x="524" d="M23 1116q0 27 2 64v77q0 4 3 30.5t5 45.5q6 52 18 78q13 28 31 59q20 33 53 50q35 14 74 14q117 0 160 -64q44 -61 47 -188l4 -119q4 -226 4 -835q0 -166 -29 -238q-18 -43 -63 -65q-54 -23 -103 -23q-78 0 -139 43q-63 42 -63 94q0 22 12 37q12 12 31 12q31 0 51 -36 q31 -61 90 -64h6q67 0 88 55q23 64 23 219q0 15 -0.5 42t-1.5 77t-2 90q-5 265 -5 275q-43 -55 -120 -55q-70 0 -121 69q-52 66 -55 256zM123 1130q0 -229 78 -229h12q32 0 72 19q41 21 41 118v66q0 21 2 35v35q0 270 -111 270q-33 0 -49 -19q-18 -15 -33 -84 q-12 -67 -12 -198v-13z" />
<glyph unicode=":" horiz-adv-x="174" d="M18 90q0 23 9 41q3 23 18 33q11 14 31 14q47 0 47 -88v-12q-6 -94 -57 -94h-7q-2 1 -5.5 2t-4.5 2t-4.5 3.5t-5.5 4.5q-7 3 -10 16q-1 4 -6 27q-1 13 -2 25t-2 18.5t-1 7.5zM18 610q0 23 9 41q3 17 14 33q17 14 33 14h4q31 -6 37 -18q8 -11 8 -51v-31v-4q0 -70 -49 -70 h-4q-2 -2 -9 -2q-2 2 -8 2l-8 4l-6 2q-1 1 -3 2.5t-3 2.5t-2 3t-2 3l-4 8q-2 2 -2 10q-1 13 -2 25t-2 18.5t-1 7.5z" />
<glyph unicode=";" horiz-adv-x="231" d="M27 -129q0 1 1 7.5t1 12.5q3 6 16 72q2 14 25 139q18 37 45 37q20 0 32 -12q15 -15 15 -35v-10l-12 -64q-5 -23 -7 -47q-2 -10 -4.5 -26t-3.5 -19q-1 -6 -3 -20t-3 -17q-3 -21 -10 -32q-3 -10 -10 -25q-6 -11 -15 -16q-12 -6 -20 -6l-8 2q-12 4 -13 4q-2 2 -6 5t-6 5 q-7 7 -10 18q-4 12 -4 27zM61 606q0 19 11 45q3 17 14 33q14 14 31 14h4q30 -6 39 -18q6 -12 6 -51v-31v-4q0 -70 -49 -70h-2q-2 -2 -11 -2q-2 2 -8 2l-8 4l-6 2q-1 1 -3 2.5t-3 2.5t-2 3t-2 3l-4 8q-2 2 -2 10q-1 11 -2 21.5t-2 17t-1 8.5z" />
<glyph unicode="&#x3c;" horiz-adv-x="892" d="M-25 680q0 26 27 35q81 23 104 26q35 10 93 17q75 13 88 16q44 8 229 66q181 53 246 59q18 6 43 6q26 0 43 -10q18 -9 18 -27q0 -28 -59 -49l-129 -35l-275 -71l-178 -47q232 -51 432 -91q117 -22 129 -28q22 -9 25 -33v-2q-14 -39 -66 -39q-9 0 -49 4q-5 1 -59 10 l-109 21l-157 29q-79 18 -101 24l-137 35l-106 29q-18 5 -35 22q-17 14 -17 33z" />
<glyph unicode="=" horiz-adv-x="526" d="M18 283q0 8 2 16q3 6 25 25q25 14 61 14q43 0 74 -2h58h92l45 4q12 4 22 4q4 2 12 4t9 2h2h6q68 0 68 -45q0 -14 -2 -22q-1 -2 -3.5 -7.5t-3.5 -7.5q-4 -7 -12 -10l-14 -8q-5 0 -21 -4q-5 -1 -14.5 -2t-13.5 -2h-33q-6 -1 -19 -2t-18 -2l-227 -11q-95 6 -95 56zM31 616 q0 5 4 17q4 11 31 26q28 19 71 19l201 6q3 0 8 0.5t15.5 1.5t19.5 2q40 4 47 4q66 0 66 -45q0 -16 -2 -20q-2 -6 -7 -17q-4 -7 -12 -10l-14 -6q-1 -1 -21 -6q-12 -2 -28 -2q-3 -1 -7.5 -1.5t-12 -1t-13.5 -1.5q-27 0 -37 -2l-227 -11h-4q-78 0 -78 47z" />
<glyph unicode="&#x3e;" horiz-adv-x="819" d="M-20 797q4 6 10 18q3 12 6 12q1 1 12 9q5 0 37 8h4q18 0 62 -13q29 -12 116 -28q355 -60 570 -109q51 -9 51 -51q0 -26 -33 -35q-424 -127 -516 -149q-59 -15 -102 -27q-46 -13 -62 -18q-7 -3 -17.5 -8t-13.5 -7l-16 -8q-2 -2 -10 -2q-5 0 -21 8q-12 12 -12 31 q0 25 14 39q19 19 29 25q27 11 47 16q9 3 17.5 6t15 5t8.5 3h2q66 11 424 121l-211 41l-223 43q-92 18 -102 18q-86 9 -86 52z" />
<glyph unicode="?" horiz-adv-x="501" d="M18 1450v12v15q0 50 33 79q37 29 70 29q3 0 35 -4q9 -2 71 -22q42 -13 86 -43q40 -24 76 -72q36 -45 49 -107q10 -43 13 -102q4 -86 4 -113l2 -45q0 -386 -133 -551q-79 -95 -107 -149q-27 -62 -27 -125v-90q-12 -78 -53 -78l-6 2q-10 0 -12 4q-1 0 -13 8q-3 3 -12 21 q-8 16 -14 37v4q0 92 6 151q2 43 8 72q1 5 12 27q5 5 9 10l4 4q20 45 180 246q49 64 49 420v16q0 284 -80 328q-74 39 -121 39q-27 0 -32 -5q6 -91 6 -315v-37q-9 -61 -60 -61q-3 3 -12 6t-12 6q-5 2 -8 16q-9 41 -9 183v110v54q-2 8 -2 20zM80 -78q0 25 8 41q3 23 18 33 q11 14 31 14q47 0 47 -88v-12q-6 -94 -57 -94h-6q-2 1 -5.5 2t-4.5 2t-5 3.5t-6 4.5q-7 3 -10 16q-2 4 -6 27q-1 13 -2 25.5t-1.5 18t-0.5 7.5z" />
<glyph unicode="@" horiz-adv-x="823" d="M8 430l2 31q0 6 0.5 19.5t1.5 38t2 46.5q1 17 3 64.5t4 105t4 117.5q9 210 18 469v10q0 89 72 152q74 59 174 59q11 0 88 -6l78 -4q57 -9 86 -16q21 -6 71 -27q41 -17 64 -43q24 -32 45 -70q31 -51 39 -110q1 -6 9 -63t13 -93q16 -102 19 -217q4 -164 4 -283q0 -23 2 -41 v-45q0 -72 -14 -127q-14 -54 -60 -102q-48 -45 -117 -45h-2q-103 0 -112 108q-49 -43 -109 -43q-198 0 -198 498q0 45 2 72v47v10q3 86 69 143q69 60 164 60q51 0 92 -23q6 31 33 31q29 0 41 -27q14 -32 14 -77v-136v-10q2 -6 2 -16q0 -19 -2 -39q0 -61 -2 -127 q-2 -63 -2 -268v-80v-17l2 -2q0 -1 8 -6h19q12 0 20 8l9 9q2 2 4.5 5.5t3.5 4.5q2 2 8 24q4 13 8 47q1 11 2 39.5t2 42.5q2 33 2 121q0 53 -1 139.5t-1 120.5q-7 132 -14 197q-3 29 -21 139q-8 52 -34 96q-16 31 -41 60q-19 22 -58 31q-41 9 -67 12q-18 2 -84 2 q-213 0 -228 -166l-34 -799v-16q0 -64 4 -146q1 -20 4 -54.5t4 -47.5q6 -44 22 -70q15 -27 31 -43q17 -17 49 -22q18 -4 62 -8q16 -2 82 -2q281 0 325 145q0 21 43 21q45 0 45 -41v-11q-16 -75 -49 -116q-28 -43 -94 -66q-59 -21 -117 -27t-149 -6q-97 0 -150 9 q-57 10 -100 32q-51 22 -70 74q-24 57 -33 135q-12 79 -12 209zM291 897q0 -196 12 -295q12 -93 35 -123q20 -28 68 -28q37 0 61 49q30 53 33 164q10 232 10 268q0 78 -16 100q-15 21 -70 21q-72 0 -102 -49q-31 -48 -31 -107z" />
<glyph unicode="A" horiz-adv-x="489" d="M0 59v23q3 16 6 53q1 11 4 40.5t4 47.5l19 228q24 276 45 475q20 220 28 266q2 24 7 59.5t6 48.5q4 54 4 72q5 42 16 86q11 52 25 76q13 22 33 22q17 0 32 -18q55 -74 76 -283q3 -29 49 -280q48 -262 56 -361q1 -17 16 -151q10 -94 14 -184q3 -85 15 -158q14 -69 14 -88 q0 -47 -41 -47q-47 0 -59 71q-16 64 -19 172q-3 102 -12 129q-68 -10 -154 -10h-63l-6 -72q-13 -139 -23 -221q-9 -41 -45 -41q-47 0 -47 45zM121 424h61q68 0 146 10l-2 35q-12 167 -64 455q-43 256 -57 354q-24 -205 -37 -330l-31 -338l-12 -137z" />
<glyph unicode="B" horiz-adv-x="495" d="M31 1436q0 52 10 82q12 28 25 34q12 4 28 4h10q57 0 119 -16q59 -15 105 -67q49 -52 49 -130q0 -104 -70 -223q-71 -120 -127 -149q40 -47 78 -111q31 -49 61 -110l23 -45q111 -193 111 -365q0 -15 -2 -21v-14q0 -103 -13 -147q-13 -43 -51 -84q-37 -42 -141 -74 q-117 -27 -166 -29h-2q-41 0 -41 49l4 25q2 18 2 98q0 97 -6 463q-1 105 -2 202t-1.5 143.5t-0.5 54.5v84v71v150q-2 57 -2 125zM125 1464q0 -59 2 -129q0 -131 2 -192l2 -88q28 21 72 82q49 68 63 123q10 58 10 98q0 61 -32 80q-33 23 -119 26zM133 879q0 -51 6 -265 q6 -220 6 -342q0 -150 -6 -202h2q29 0 97 24q66 21 94 62q16 22 16 155q0 68 -4 97q0 38 -16 88q-4 17 -10.5 39.5t-8.5 29.5q-6 25 -33 74q-33 61 -38 68l-50 84z" />
<glyph unicode="C" horiz-adv-x="518" d="M6 606q0 65 10 215q10 108 37 305q26 161 78 287q55 119 123 119q83 0 123 -98q44 -104 74 -314q12 -88 12 -143q0 -98 -53 -98q-5 0 -9 2q-10 0 -12 4q-1 0 -12 14q-6 12 -12 33q0 64 -29 285q-30 208 -82 208q-25 0 -78 -213q-51 -206 -61 -309q-14 -118 -14 -233 q0 -169 30 -330q44 -228 76 -248q8 -8 37 -8q61 0 90 33q33 37 35 71q2 31 16 70q14 33 47 33q25 0 25 -47v-15q-9 -104 -27 -139q-20 -36 -78 -70q-63 -38 -129 -38q-98 0 -127 75q-21 52 -57 240q-33 174 -33 309z" />
<glyph unicode="D" horiz-adv-x="507" d="M35 1323q0 28 2 53v54v79q14 39 65 39q9 0 11 -2h2q90 -6 139 -18q49 -8 100 -41q48 -31 68 -90q20 -53 20 -152v-20q9 -612 9 -731q0 -288 -11 -338q-2 0 -2 -2q-28 -94 -61 -117q-36 -25 -107 -25h-20q-47 0 -76 -2t-57 -2q-42 0 -56 17q-16 13 -16 65v37q1 8 2 28.5 t2 30.5v168q2 88 2 338q0 372 -14 588v16q-2 10 -2 27zM127 1448q20 -229 20 -866q0 -313 -8 -488h23q61 0 108 8q82 12 82 174v11l-8 383q4 222 4 321v121q-2 53 -2 154q0 182 -209 182h-10z" />
<glyph unicode="E" horiz-adv-x="491" d="M27 1309v100q0 114 10 143q6 35 41 35q17 0 57 -16q41 -18 82 -23q98 -9 152 -24q50 -14 69 -27q15 -15 15 -31q0 -13 -11 -24q-7 -7 -16 -10l-8 -2h-10q-59 0 -150 16q-80 9 -137 24v-40q0 -18 1 -77t1 -100q2 -42 4 -111t2 -81q2 -55 2 -86l2 -94l60 -4 q163 -12 163 -64q0 -41 -53 -41q-23 0 -84 6q-55 8 -82 8h-4q-6 -50 -6 -131q0 -195 18 -444l9 -100h120q87 0 144 -11q45 -9 45 -43v-4q-1 -2 -2 -6t-2 -6q-4 -4 -4 -8l-13 -13q-4 -2 -16 -6q-68 -18 -252 -18q-90 0 -104 14q-12 21 -15 56q-1 13 -2 47t-2 51 q-4 83 -10 125q-14 95 -14 1020z" />
<glyph unicode="F" horiz-adv-x="444" d="M31 61q0 2 0.5 31.5t1 82t0.5 112.5q4 137 4 354q0 884 12 899l4 4q3 3 13 8q8 4 22 4q13 5 49 5q23 2 82 2q97 0 158 -11q51 -9 51 -45q0 -30 -31 -39q-24 -8 -114 -8h-27q-95 0 -125 -6q-4 -62 -4 -188q0 -156 2 -207l2 -146l100 5q18 2 74 2q84 0 84 -43q0 -15 -2 -21 t-6 -14t-12 -11q-7 -5 -17 -8q-2 -1 -4.5 -1.5t-7 -1t-8.5 -1.5t-13 -2t-12 -2h-33q-7 -1 -19.5 -2t-18.5 -2l-101 -8l-2 -160q-1 -49 -2 -161.5t-2 -170.5q-3 -202 -10 -264q-6 -53 -39 -53q-32 3 -39 14q-10 7 -10 53z" />
<glyph unicode="G" horiz-adv-x="520" d="M25 469q0 318 10 700v33q0 208 31 281q19 45 65 65q45 25 100 25q66 0 125 -35q11 -7 26 -17t19 -12q17 -10 37 -63q23 -54 23 -131q0 -27 -15 -45q-14 -17 -30 -17q-32 0 -56 37q-4 100 -8 148q-45 26 -131 26q-55 0 -67 -30q-15 -42 -23 -172q-3 -43 -6 -72 q0 -17 -6 -158q-4 -192 -4 -254v-104l8 -447v-8q0 -97 27 -121q28 -22 98 -22q61 0 88 6q-14 71 -14 289q0 267 20 434h-33q-18 0 -30 -2q-14 -2 -33 -2h-8q-74 9 -74 43q0 29 29 41q26 13 102 16q83 6 119 6q41 0 41 -53q0 -24 -19 -33q-20 -207 -20 -438q0 -110 10 -223 q3 -30 5.5 -56t3.5 -37t1 -12q0 -36 -33 -53q-52 -30 -192 -33h-12q-74 0 -115 35q-45 33 -51 80l-2 12l2 -8q-8 65 -8 381z" />
<glyph unicode="H" horiz-adv-x="530" d="M25 86v45q2 23 2 49v111q0 61 10 303q12 218 12 563q0 138 -4 195q0 32 -2 76t-2 55q-4 33 -4 59q0 23 4 31q13 22 35 22q23 0 35 -24q26 -48 32 -172q9 -123 9 -369v-166q-2 -96 -2 -202l94 4q31 2 104 2h4q4 176 4 467q0 74 -2 88l-6 116q0 19 -4 37q0 15 -4 51 q-2 18 -2 50q0 77 29 106q23 10 28 10q19 0 35 -28q21 -47 21 -252v-31v-227q2 -117 2 -236v-45q-7 -502 -7 -641v-33v-16q3 -12 3 -21q0 -63 -43 -63h-5q-47 6 -47 166q0 56 -1 132t-1 95q-4 53 -4 109v65q-13 0 -29 2t-49 2l-131 -8q-6 -181 -8 -223l-12 -229 q-6 -100 -8 -103q-6 -31 -35 -31q-19 0 -35 25q-16 29 -16 84z" />
<glyph unicode="I" horiz-adv-x="221" d="M39 82v127v362q0 383 6 580q1 58 2 111.5t1.5 79t0.5 30.5q0 36 -4 82l-4 35q0 9 8 22q16 23 31 23q63 -15 63 -150l-2 -159q0 -259 -2 -492q-2 -236 -2 -473l2 -98v-10q-3 -78 -12 -115t-45 -37q-31 10 -33 20q-7 11 -10 62z" />
<glyph unicode="J" horiz-adv-x="493" d="M-8 213q0 55 16 82q11 35 37 35q1 -1 3 -2.5t6 -3.5t7 -5q15 -5 21 -26q0 -4 1 -30.5t1 -49.5q0 -133 88 -133q56 0 147 39q11 60 11 301q0 188 -6 534q-9 350 -9 392v12q-2 23 -2 82q0 60 11 76q5 18 32 28h6q7 0 13 -4q10 0 10 -4l8 -8q4 -7 8 -21q0 -2 5 -32 q3 -24 6 -54q3 -33 6 -75q14 -235 14 -803q0 -424 -18 -471q-14 -39 -88 -60q-74 -18 -133 -18q-119 0 -154 53q-47 77 -47 166z" />
<glyph unicode="K" horiz-adv-x="514" d="M27 1198v41q0 152 8 215q9 77 18 86q6 14 27 14h2q26 -11 29 -14t16 -74q8 -94 8 -217q0 -201 -8 -352q2 2 20 23t27 30l31 37q4 7 16 25.5t17 27.5l34 66q24 46 37 84q34 97 35 102q24 79 35 127q9 51 45 51q10 0 14 -4q9 0 23 -24q12 -24 12 -66q0 -18 -8 -49 q-129 -395 -248 -477l-53 -43q21 -30 98 -213l137 -352q64 -168 64 -170q8 -21 8 -41q0 -37 -35 -37q-40 9 -74 67q-15 23 -30 68q-18 52 -19 57q-2 13 -22 64l-62 156l-94 251q5 -186 10 -284q9 -172 9 -230q0 -143 -43 -143h-9q-12 0 -28 4q-10 10 -15 25q-6 18 -6 45 l-4 73v7q-16 651 -22 1044z" />
<glyph unicode="L" d="M37 362v515q2 236 2 469v131q6 104 53 104q29 0 35 -20q10 -30 10 -291q0 -6 1 -64.5t1 -111.5q4 -94 4 -242v-72l-2 -692l82 2h45q219 0 219 -59q0 -39 -69 -39q-9 0 -123 4q-85 6 -107 6q-12 0 -22 -2h-23h-24q-75 0 -78 35q-4 62 -4 327z" />
<glyph unicode="M" horiz-adv-x="806" d="M25 1534v8l4 8q3 8 16 15q9 6 35 6q6 0 14 -2h10l9 -6l63 -205q53 -115 98 -320q33 -161 52 -235q16 -96 22 -135q17 -113 62 -293q0 12 2 14l227 1215q9 18 47 18q62 0 62 -27v-20q0 -29 -7 -481q-2 -289 -10 -738q-6 -346 -6 -352v-18q-3 -28 -14 -39q-12 -15 -43 -15 q-5 0 -9 2h-12l-10 5q-4 2 -10 8q0 2 -1 7.5t-1 8.5q0 15 2 25v37v110q2 55 2 217q0 92 2 123q0 59 2 86q1 11 1.5 36t1.5 66.5t3 81.5q0 55 2.5 186.5t3.5 192.5q-43 -271 -45 -297q-8 -40 -22 -131l-43 -217l-21 -106q-5 -26 -22 -166q-17 -142 -29 -178q-11 -11 -35 -11 q-4 2 -14 2h-8q-2 0 -7 5q-1 1 -3 4t-3 4l-4 20q-30 120 -145 639q-112 509 -125 549q7 -124 10 -344q3 -239 12 -322q9 -95 9 -350q0 -83 -3 -129q0 -51 -2 -63q-3 -25 -4 -25q-4 -4 -8 -4q-16 -4 -70 -4q-7 2 -10 12q0 44 -2 103q-2 123 -10 401q-16 718 -16 1018z" />
<glyph unicode="N" horiz-adv-x="538" d="M23 66v6q0 13 6 96q6 51 16 299q8 196 8 563q0 86 -8 270q-10 115 -10 152q0 61 33 61q23 -3 32 -18q41 -50 105 -274q67 -222 82 -373q11 -94 71 -420q-10 257 -10 432v133v142q2 61 2 127q0 40 -2 71v64q0 114 47 114q1 -1 11 -4q8 0 12 -4q6 -6 12 -18q8 -16 8 -41 q4 -18 4 -74v-145q-2 -78 -2 -205q0 -304 11 -569q2 -82 4 -158.5t3 -113.5t1 -44q0 -80 -10 -110q-9 -31 -39 -31q-5 0 -9 2l-8 4q-4 0 -6 2q-1 1 -2.5 2t-2.5 2t-1 2l-8 12q-1 2 -4 9t-4 12l-4 9q-4 10 -5 16q-36 128 -65 270q-37 157 -37 194q0 28 -18 105 q-21 95 -29 164q-13 112 -60 323q3 -44 3 -182q0 -205 -11 -559q-12 -286 -33 -332l-4 -6q-4 -8 -8 -10q0 -4 -8 -8q-1 -1 -4.5 -4t-5.5 -5q-2 0 -7 -1t-8 -1h-10q-28 12 -28 52z" />
<glyph unicode="O" horiz-adv-x="532" d="M16 641q0 203 37 391q35 195 68 283q41 103 51 117l33 55l8 10q8 12 10 14q2 5 15 13q12 4 20 4q61 -9 111 -98q42 -86 96 -293q18 -73 18 -516q0 -252 -10 -379q-9 -113 -31 -156q-23 -41 -75 -66q-63 -38 -129 -38q-98 0 -127 75q-22 52 -62 260q-33 213 -33 324z M113 684q0 -6 1 -22t1 -27q6 -23 12 -103q6 -38 18 -180q18 -219 76 -256q11 -8 35 -8q70 0 88 27q32 43 35 311v133v350q0 197 -14 252q-56 240 -107 240q-37 0 -78 -152q-42 -160 -51 -309l-8 -125q-3 -61 -6 -88q-2 -18 -2 -43z" />
<glyph unicode="P" horiz-adv-x="491" d="M45 78v14v133v162q2 49 2 78v84v5q0 4 0.5 12t0.5 19v27t0.5 34t0.5 42v49q1 20 6 398q2 141 2 278q0 64 -4 96l-2 25q0 51 41 51h2q62 -3 164 -33q99 -26 143 -73q40 -43 52 -86q12 -41 12 -148q0 -6 2 -12v-23q0 -165 -115 -381q-118 -217 -174 -264q-27 -22 -33 -26 l-2 -115q-2 -39 -2 -113q0 -69 -2 -94v-72v-55v-41q-1 -5 -2 -15.5t-2 -13.5q0 -14 -2 -20q-1 -2 -2 -6.5t-2 -5.5t-3 -4t-3 -4q-11 -11 -27 -11q-17 0 -33 23q-16 26 -16 76zM147 690q230 345 230 578q0 91 -31 133q-27 40 -94 61q-70 25 -96 25h-2q6 -52 6 -203 q0 -126 -6 -334q-7 -250 -7 -260z" />
<glyph unicode="Q" horiz-adv-x="534" d="M18 874v31q0 106 2 176v123q3 138 70 242q70 104 176 104q17 0 41 -4q20 -3 35 -12q22 -13 25 -16q15 -15 18 -21q12 -12 12 -18q4 -4 11 -21l6 -12q19 -43 20 -49q6 -15 15 -152q8 -123 8 -387q0 -673 -76 -801q47 -47 47 -82q-9 -30 -18 -36l-13 -7h-10q-38 8 -82 68 q-76 -31 -131 -31q-59 0 -82 33q-74 95 -74 872zM115 1116q0 -232 10 -629q9 -348 29 -407q25 -19 61 -19q23 0 41 9l-14 18l-35 43q-12 12 -12 31q0 20 14 28q15 11 29 11q21 0 43 -19l36 -47q14 31 19 64q6 38 12 227q4 254 4 555v174q0 131 -4 168q0 40 -12 90 q-10 32 -25 41q-15 6 -45 6q-42 0 -57 -12q-38 -25 -66 -115q-28 -92 -28 -217z" />
<glyph unicode="R" horiz-adv-x="466" d="M31 1483q0 35 2 45q3 14 12 20q5 8 27 8h12h10l6 -2q51 0 127 -49q74 -48 115 -98q41 -52 57 -109q15 -52 15 -155q0 -89 -6 -127q-5 -39 -33 -105q-88 -187 -193 -256q9 -12 11 -14q32 -38 122 -293q83 -229 117 -303q19 -40 19 -74q0 -49 -35 -49q-19 0 -37 21 q-20 24 -62 127q-53 136 -96 258q-55 147 -76 198v-20q-3 -424 -10 -459q-3 -41 -41 -41q-19 0 -33 14q-13 13 -16 35q-10 273 -10 979q0 165 -2 269t-2 180zM127 1391q0 -254 14 -656q36 32 56 60q28 28 73 131q43 93 43 200q0 44 -2 58q0 5 -1 13.5t-3 24t-4 27.5 q-14 51 -29 76q-16 32 -55 68q-40 37 -92 61v-63z" />
<glyph unicode="S" horiz-adv-x="565" d="M18 1262q0 179 41 229q41 47 129 47q82 0 152 -33q70 -36 70 -71q0 -22 -15 -37q-17 -17 -39 -17q-6 0 -69 29t-123 29h-4q-41 -6 -41 -205v-59q12 -36 16 -46q3 -3 10.5 -12t10.5 -14q8 -4 43 -39q25 -25 65 -72q73 -83 109 -147q33 -49 53 -99q2 -7 10 -38t13 -52 q15 -68 20 -84q31 -95 31 -217q0 -151 -60 -239q-60 -81 -221 -115q-6 -2 -22 -2q-76 0 -115 96q-39 88 -39 219q0 87 18 142q17 59 50 59q16 0 34 -18q19 -16 19 -43v-37q0 -54 -4 -97q0 -25 -1 -54t-1 -34q0 -120 59 -120q20 0 72 22q35 18 71 76q33 53 33 143 q0 119 -37 258l-12 47q-6 32 -12 43q-1 5 -17 41q-10 30 -28 54q-9 15 -49 65l-58 58l-86 90q-46 52 -55 73q-21 47 -21 181z" />
<glyph unicode="T" horiz-adv-x="489" d="M0 1487q0 35 37 41q31 10 188 10q149 0 193 -6q42 -6 51 -33v-10q-4 -23 -10 -27q-4 -8 -41 -18q-33 -8 -109 -8v-813v-119q-3 -430 -8 -471q-6 -41 -39 -41q-43 0 -49 33q-1 7 -4 303q-1 95 -2 302t-2 314q-3 343 -6 492h-62q-10 1 -22 1.5t-20 1t-13 1.5q-6 1 -41 6 q-24 7 -33 16q-8 8 -8 25zM205 25v10v-10z" />
<glyph unicode="U" horiz-adv-x="538" d="M33 1182q0 240 4 276q0 18 16 31q15 12 33 12l12 -6q3 -1 13 -6l4 -16q20 -109 20 -916q0 -233 2 -274q2 -37 2 -115v-35v-14q25 -18 82 -29q65 -12 111 -12h10q4 2 10 2q17 139 17 842q0 201 -4 233v51v154q0 151 45 151h4q29 -3 41 -45q12 -40 12 -166v-73 q-9 -236 -21 -1004q-1 -5 -1.5 -13t-1 -21t-1.5 -23v-64q-4 -27 -14 -45q-11 -22 -35 -32q-44 -23 -135 -23q-101 0 -160 27q-54 31 -57 61q-8 76 -8 1092z" />
<glyph unicode="V" horiz-adv-x="512" d="M-2 1440q0 43 37 43q30 -3 45 -21q17 -14 26 -53q16 -73 17 -78q2 -26 16 -127q12 -86 27 -162q8 -54 27 -202q25 -192 34 -236l23 -135l12 111q26 227 43 323l41 230q37 204 60 303q18 63 51 63q17 0 26 -12q13 -16 13 -33q0 -34 -29 -188l-61 -365q-8 -57 -25 -161 t-21 -140q-9 -78 -24 -178q-14 -89 -21 -156q-8 -55 -8 -127q0 -77 -8 -123q-13 -32 -37 -32q-31 0 -39 32q-10 23 -37 238q-25 200 -47 278q-4 16 -61 422q-52 395 -74 455q-6 18 -6 31z" />
<glyph unicode="W" horiz-adv-x="886" d="M20 127v104q0 97 15 349q13 213 16 585v45q0 87 -2 142q-2 53 -2 104q0 63 10 96q13 27 47 27q28 -9 31 -29q15 -82 15 -573q0 -237 -15 -354q-11 -108 -14 -285q0 -74 -2 -105l-4 -69v-29q0 -24 61 -45q64 -18 129 -18q49 0 72 10q1 3 2 10.5t2 11.5l2 46l4 59 q6 433 25 485q10 29 37 29q8 -4 14 -6q2 -1 5.5 -2t4.5 -2q7 -7 8 -11q21 -34 21 -69q0 -39 -13 -219q-12 -159 -12 -226q0 -61 10 -94q61 -24 181 -24q28 0 34 6q7 7 7 41v49q0 264 -9 375q-8 93 -8 282v385q0 154 -4 174q-6 15 -6 45q0 53 12 109q6 25 29 25q27 0 39 -31 q22 -61 22 -324q2 -210 13 -585q10 -352 10 -420v-58q-2 -27 -2 -57q-3 -41 -17 -55q-19 -19 -55 -35q-55 -25 -123 -25q-107 0 -168 43q-36 -45 -116 -45q-136 0 -263 68q-40 21 -43 90z" />
<glyph unicode="X" d="M0 1479q0 30 41 30q59 0 80 -67q12 -45 18 -58q9 -27 11 -36q17 -96 104 -394l41 211l43 224q18 89 18 100v2q9 86 52 86q6 -4 18 -10q12 -3 12 -6q2 -1 3 -3t2 -5t3 -5q0 -1 9 -37v-4q0 -32 -49 -278q-43 -233 -91 -430q3 -9 60 -273q13 -59 26 -100q17 -53 19 -64 l18 -67q2 -14 19 -59q14 -37 24 -80q14 -65 15 -88q6 -18 6 -39q0 -58 -41 -58q-1 1 -10 4q-2 1 -5 2t-5 2t-3 1q-1 2 -4.5 7t-5.5 9q-2 3 -7 14t-7 15l-15 47v4q0 24 -65 243q-67 222 -78 299q-10 -45 -10 -51l-94 -469v-16q-4 -15 -5 -16q0 -9 -4 -17q0 -6 -6 -12t-12 -8 q-9 -3 -21 -6q-45 15 -45 63q0 17 7 57q12 60 24 119q28 137 35 182q4 28 84 330q-41 148 -79 282.5t-59 208.5t-26 91q-19 69 -41 106q-4 12 -4 17z" />
<glyph unicode="Y" horiz-adv-x="403" d="M8 1499q0 51 41 51q4 0 6 -2h6q8 -4 9 -4q2 -2 5.5 -4.5t4.5 -3.5q6 -6 10 -12q8 -11 10 -21l80 -563q5 -30 10 -45q13 56 35 233q16 153 54 345l6 26q15 111 53 111q4 -4 14 -4q3 -2 9 -4.5t8 -4.5q5 0 8 -16q6 -12 6 -37q0 -3 -0.5 -9.5t-1.5 -18.5t-2 -23 q-51 -314 -53 -342q-14 -112 -45 -258q-33 -156 -33 -248q0 -70 -2 -84q4 -36 4 -67q0 -5 -0.5 -20.5t-1.5 -46t-2 -60.5q-6 -108 -6 -205v-45q-3 -154 -56 -154h-2q-51 3 -51 123q0 56 10 258q3 51 5.5 100.5t4 73t1.5 29.5q0 74 -17 186q-12 78 -41 193q-25 109 -26 118 l-31 226q-8 65 -15.5 122.5t-10.5 81.5t-3 25z" />
<glyph unicode="Z" horiz-adv-x="434" d="M25 78q0 65 69 366q65 281 103 398q40 118 129 561q-28 4 -72 4h-64q-161 0 -161 55q0 49 57 49q9 0 147 -12q122 -8 152 -14q41 -9 41 -53q0 -35 -29 -170l-106 -447q-42 -157 -84 -340q-32 -139 -74 -354q16 -2 92 -2t103 -8q34 -8 34 -35q0 -18 -6 -27q-7 -10 -28 -16 q-10 -3 -41 -8q-9 -1 -64 -5q-16 -2 -67 -2q-131 0 -131 60z" />
<glyph unicode="[" horiz-adv-x="528" d="M37 70v213q0 385 2 491q0 53 -2 133v209q0 370 12 416q9 37 41 37h2q20 -4 45 -4q33 0 68 2q33 2 78 2q159 0 159 -66q0 -39 -71 -39q-25 0 -35 -2h-35q-40 0 -162 4l2 -26v-10q0 -3 -0.5 -16.5t-1.5 -41t-2 -57.5q-4 -132 -4 -174q0 -18 2 -43v-94v-132v-98 q0 -74 2 -176q2 -106 2 -242v-252q0 -106 2 -112l4 -33l105 4q18 2 78 2q114 0 114 -41q0 -10 -4 -26q-4 -11 -16 -17q-8 -7 -21 -12q-3 -1 -14 -3.5t-18 -4.5q-17 0 -41 -4q-20 -4 -49 -4q-9 -2 -19 -3t-21 -2t-16 -2q-2 0 -6.5 -0.5t-13 -1.5t-15.5 -2q-40 -4 -47 -4 q-67 0 -88 53q-16 46 -16 179z" />
<glyph unicode="\" horiz-adv-x="1038" d="M-16 1487q3 26 14 37l10 10h12q11 0 17 -6q4 -1 16 -17l17 -26q1 -3 7 -15.5t11 -21.5q5 -10 25 -45q9 -17 47 -74l90 -133q71 -110 78 -121l598 -977q20 -33 20 -61q0 -25 -26 -39h-15q-25 3 -43 18q-20 17 -41 54q-7 12 -28 43l-684 1118l-82 137q-43 70 -43 119z" />
<glyph unicode="]" horiz-adv-x="501" d="M-8 -78q3 18 10 25q6 9 31 12q21 6 71 6q55 0 78 -2l105 -4l6 33q2 8 2 112v187v31q-2 14 -2 34q0 21 1 102t1 140q4 102 4 176v98v132v94q2 25 2 43q0 42 -4 174q-1 30 -2 57.5t-1.5 41t-0.5 16.5v10l2 26q-122 -4 -164 -4q-78 0 -108 6q-31 6 -31 35q6 35 37 51 q30 15 116 15q47 0 80 -2q37 -2 72 -2q23 0 43 4h4q33 -3 41 -41q12 -52 12 -385q0 -13 -0.5 -58t-1.5 -133t-2 -178q4 -426 4 -491v-213q0 -130 -16 -183q-18 -49 -86 -49q-242 18 -277 39q-26 14 -26 45z" />
<glyph unicode="^" horiz-adv-x="385" d="M-8 1430q0 14 2 18q6 25 74 121l34 53q20 20 41 20q19 0 39 -20l37 -53l23 -31q4 -5 9 -12.5l8 -12t5 -6.5l17 -26q3 -5 7.5 -14.5t6.5 -12.5q0 -4 1 -11.5t1 -10.5q0 -19 -12 -31t-31 -12q-25 0 -49 24l-62 96l-61 -96q-15 -24 -49 -24q-41 0 -41 41z" />
<glyph unicode="_" horiz-adv-x="757" d="M2 -35q0 11 2 15q3 11 25 24q19 16 61 16h78q35 -2 74 -2q324 0 413 15h2h7q67 0 67 -45q0 -17 -2 -21q-2 -8 -6 -16q-4 -7 -12 -10l-15 -7q-1 -1 -20 -6q-12 -2 -29 -2q-3 -1 -7.5 -1.5t-12 -1t-13.5 -1.5q-26 0 -36 -2l-484 -10q-92 3 -92 55z" />
<glyph unicode="`" horiz-adv-x="249" d="M-31 1548q0 45 47 45q21 0 41 -20l35 -53q76 -107 76 -138q0 -18 -12 -30q-13 -13 -31 -13q-24 0 -49 25l-103 160q-4 12 -4 24z" />
<glyph unicode="a" d="M0 47v2l166 1409q18 62 57 62q15 0 31 -13q14 -11 14 -30q4 -67 54 -375l40 -260l15 -72l22 -123q11 -56 29 -172l23 -147l20 -111l12 -78q2 -11 6 -28t5 -21q4 -21 6 -31q1 -3 2 -9.5t2 -8.5q2 -2 2 -8v-10q-7 -7 -14 -19q-14 -14 -35 -14h-8q-38 3 -52 71 q-6 36 -20 140q-9 72 -33 75q-2 0 -8 3h-8q-2 0 -7 -1t-17.5 -2.5t-22.5 -3.5q-29 -4 -101 -8l-53 -2l-8 -65q-2 -15 -5 -35.5t-3 -22.5q-7 -39 -7 -43q-3 -23 -10 -37q-2 -8 -10 -24q-7 -15 -14 -17q-12 -4 -21 -4q-2 0 -22 4q-27 9 -27 29zM131 350h8q79 0 205 33 q-74 414 -121 758q0 -1 -35 -322q-35 -326 -55 -442q-2 -6 -2 -23v-4z" />
<glyph unicode="b" horiz-adv-x="491" d="M31 1393q0 90 14 118q11 35 49 35q37 0 43 2h17q124 0 180 -71q55 -70 55 -183q0 -138 -61 -254q-62 -111 -140 -168l25 -12h-8q70 -37 100 -72q131 -146 131 -454q0 -205 -49 -254q-42 -45 -143 -72q-94 -28 -164 -31h-2q-41 0 -41 50l4 26q2 16 2 97q0 147 -4 475 q-1 72 -2 135.5t-1.5 93.5t-0.5 33q0 59 4 59v37q0 62 -4 242q-1 38 -2 77.5t-1.5 60.5t-0.5 30zM127 1468q0 -3 4 -206q1 -40 1.5 -90.5t1 -83.5t1.5 -54l2 -90q8 5 47 47q29 36 70 117q37 78 37 158q0 130 -33 168q-37 34 -131 34zM139 76h2q21 0 92 22q63 22 95 58 q8 63 8 161q0 271 -103 404q-15 18 -94 70q0 -107 4 -218q0 -60 1 -151.5t1 -122.5q0 -167 -6 -223z" />
<glyph unicode="c" horiz-adv-x="485" d="M33 795v354q0 401 205 401q89 0 139 -80q53 -79 53 -159q0 -17 -4 -29q-3 -25 -33 -35h-4q-28 6 -37 25q-8 12 -22 61q-11 38 -39 84q-22 31 -58 31q-94 0 -94 -266l-4 -879q0 -156 17 -184q13 -29 94 -29q17 10 41 74q30 93 41 135q19 71 20 72q0 6 4 14l4 25 q1 2 5.5 9.5l7.5 12.5q5 10 16 21q8 8 25 8h12q33 0 33 -27q0 -4 -2 -6t-2 -6q-10 -23 -25 -109q-4 -21 -33 -153q-18 -64 -65 -123q-45 -57 -115 -57q-92 0 -143 69q-30 49 -33 193v84q0 151 -2 206t-2 263z" />
<glyph unicode="d" horiz-adv-x="585" d="M31 1114q0 381 14 430q9 31 45 31q39 0 180 -23q121 -21 170 -63q33 -26 52 -88q15 -58 18 -103q2 -31 2 -122v-154q0 -7 0.5 -35t1.5 -83.5t2 -112.5q4 -270 4 -291q0 -115 -16 -213q-14 -81 -37 -135q-24 -51 -57 -74q-36 -26 -58 -37q-29 -7 -61 -12l-197 -29 q-2 -2 -10 -2q-27 0 -33 37q-3 26 -12 401q-8 331 -8 678zM121 1137q0 -473 24 -1045q37 2 121 23q79 24 96 41v2l3 2q57 57 57 516v20q0 148 -4 248q0 58 -1 127t-1 80q0 58 2 78v41q2 8 2 14v8q0 66 -49 121q-16 19 -90 37q-69 20 -148 23q-12 -59 -12 -336z" />
<glyph unicode="e" horiz-adv-x="444" d="M27 1493q0 68 45 68q20 0 96 -9q45 -5 131 -10q98 -3 98 -55q0 -47 -78 -47q-41 0 -106 8q-63 8 -84 8v-29q0 -228 23 -548q16 0 43 -2q50 -4 59 -5q4 -1 13 -2t18 -2.5t18 -3.5q26 -6 43 -16q14 -11 14 -31l-2 -6q-4 -11 -6 -12q0 -5 -8 -13q-12 -8 -25 -10 q-16 -4 -34 -4q-46 0 -131 14v-16q4 -54 4 -68q0 -51 -2 -84q-4 -74 -4 -151q-2 -26 -7 -184l-4 -181l72 -4q110 -9 156 -20q51 -15 51 -49q0 -1 -1 -4t-1 -7q-4 -6 -4 -10q-4 -4 -6 -8q-2 -3 -11 -8q-10 0 -16 -2t-25 -2q-16 0 -104 6q-58 4 -178 8q-2 2 -17 14l-14 15v30 v35q6 153 6 637q0 200 -12 479z" />
<glyph unicode="f" horiz-adv-x="466" d="M27 410q0 438 8 766q9 369 18 378q18 18 49 21q40 4 107 4h43q180 0 180 -76q0 -22 -29 -45h-36q-6 0 -21.5 0.5t-45.5 1.5t-58 2l-113 4l2 -26q4 -94 4 -338v-252l70 2h33h8q90 0 90 -53q0 -17 -4 -29q-6 -13 -25 -16q-14 -5 -35 -9q-30 0 -59 -4q-5 0 -74 -6 q-1 -6 -4 -211q0 -227 -4 -331q0 -153 -10 -191q-3 -19 -27 -29h-8q-25 3 -35 23q-9 20 -18 115q-6 99 -6 299z" />
<glyph unicode="g" horiz-adv-x="528" d="M37 471q0 318 10 700v56q0 165 29 237q18 44 63 66q52 22 103 22q75 0 139 -43q63 -42 63 -98q0 -22 -12 -37q-11 -14 -31 -14q-30 0 -51 37q-41 65 -90 65q-39 0 -78 -26q-9 -6 -18 -27q-8 -27 -10 -53q-1 -11 -3.5 -32.5t-3.5 -27.5v-67q-1 -10 -2 -31t-2 -29 q0 -1 -4 -157q-6 -111 -6 -203q0 -43 -2 -68v-73q0 -81 10 -453v-16q0 -33 2 -47q1 -7 3.5 -18.5t3.5 -14.5q1 -2 3.5 -10t2.5 -11q6 -9 14 -12q6 -4 14 -8q0 -4 15 -4q8 -4 16 -4q21 -7 45 -7q39 0 64 31q22 28 28 58q4 32 4 51q0 26 -2 57q-1 17 -2 62t-2 67q-2 53 -2 176 q0 132 23 283q-5 1 -13.5 1.5t-20.5 1t-22 1.5q-9 1 -20.5 1.5t-18 1t-10.5 1.5q-9 0 -37 4q-19 6 -28 17q-8 5 -8 22q3 12 6 21q3 8 10 12q3 3 16 6q6 2 19 2q14 0 28 2h37h10q6 2 15 2h33q41 0 51 -2q20 -3 37 -20q16 -16 16 -50v-16q-2 -6 -2 -12l-6 -53q-7 -41 -14 -152 q-7 -119 -7 -236q0 -75 9 -137q6 -55 6 -94q0 -200 -234 -203h-12q-74 0 -115 35q-45 33 -51 82v2q-8 65 -8 383z" />
<glyph unicode="h" horiz-adv-x="524" d="M31 1065q0 381 22 455q9 30 37 30h6q21 -6 27 -26q9 -41 12 -563v-39h2l2 -2l80 -2q50 -2 119 -7v125q0 476 27 516q13 23 34 23t37 -31q10 -27 10 -57v-17q-14 -216 -14 -542q0 -121 2 -187q0 -119 2 -168q1 -23 2 -67t2 -64q2 -41 2 -94q2 -23 2 -37l-2 -4v-8v-88 q0 -93 -6 -152q-3 -24 -37 -24q-23 0 -37 14q-16 13 -16 37q0 139 -2 221q0 177 -2 277t-2 235q-109 8 -158 8l-47 -2v-125l-4 -594q2 -12 2 -57q0 -102 -49 -102q-31 3 -37 30q-14 55 -14 558v118v195q-2 39 -2 217z" />
<glyph unicode="i" horiz-adv-x="247" d="M31 215q0 260 14 547q14 293 14 424q0 104 -2 149q0 80 -2 105t-2 47q0 24 10 31q16 28 46 28h10q15 -3 24 -12q10 -10 13 -27q4 -24 4 -32q2 -12 2 -50q0 -43 2 -59q0 -86 2 -104t2 -50q0 -93 -16 -374q-15 -396 -15 -635q0 -35 2 -60q2 -29 2 -57q0 -92 -49 -92h-4 q-57 6 -57 221z" />
<glyph unicode="j" horiz-adv-x="503" d="M10 219q0 70 49 70q20 -3 27 -10q9 -3 25 -29v-8v-4q2 -4 2 -13q0 -29 -2 -43t-2 -26q0 -21 20 -54q29 -26 119 -26q57 0 69 30q14 36 23 164q3 54 6 80q0 42 6 174q4 176 4 230v53q-2 25 -2 57l-6 436v29q0 14 -4 80q-4 62 -4 68v14v8q0 51 43 51q31 -10 35 -14 q11 -8 20 -57q10 -60 13 -140v-268q0 -280 -11 -700q0 -9 2 -17v-20q0 -122 -20 -225v-5q0 -55 -62 -96q-58 -37 -131 -37q-58 0 -112 31q-58 34 -76 72q-22 36 -31 145z" />
<glyph unicode="k" horiz-adv-x="563" d="M25 1053q0 217 2 280q4 110 8 152q6 56 14 67q10 13 27 13h2q23 -10 28 -15q8 -5 17 -80q8 -63 8 -225q0 -203 -6 -338l22 35q25 39 150 293q129 261 164 301q11 14 31 14q36 0 36 -47q0 -58 -143 -329q-155 -281 -221 -363l14 -29q279 -630 283 -643q8 -16 8 -39 q0 -29 -18 -41q-28 -16 -52 11q-17 17 -172 381l-14 30l-41 88q-26 53 -41 88q5 -189 10 -280q9 -173 9 -230q0 -147 -44 -147q-34 9 -40 45q-9 38 -15 248q-1 19 -2 56t-2 52q-22 280 -22 652z" />
<glyph unicode="l" horiz-adv-x="468" d="M37 49q0 9 2 17q2 4 2 10v10q4 4 4 336l8 692q0 347 4 393q-1 1 0 2.5t4 6.5q2 2 8.5 7.5t8.5 8.5l12 6h14h2q29 -3 35 -29q10 -38 13 -424v-61v-119q0 -328 -2 -469v-219q0 -92 2 -119q66 -8 104 -8q37 -4 88 -4q31 -3 64 -6q26 -3 41 -14q14 -8 14 -31q-6 -39 -90 -39 h-35l-264 4l-21 8q-18 24 -18 41z" />
<glyph unicode="m" horiz-adv-x="802" d="M33 524v160q0 269 2 494t2 358q1 1 2 2.5l3 4.5t3 5q2 9 14 21q9 6 31 6l12 -2h21l65 -230q2 -10 41 -180l95 -399q17 -89 38 -162q23 -77 39 -170l17 82l8 29q1 4 4 13.5t4 16.5q4 8 21 74l34 156q17 72 58 276l84 434q12 43 49 43q22 0 41 -16q20 -14 20 -39v-18 l-32 -1385v-10v-6q0 -72 -45 -72q-14 0 -29 15q-12 18 -12 34q0 2 -1 6.5t-2 12.5l-2 16q-4 40 -4 51v29v215v82q1 13 2 39.5t2 40.5q4 65 7 186l10 348q-30 -145 -43 -229q-8 -58 -62 -260q-2 -9 -5.5 -23.5t-4.5 -19.5q-80 -311 -94 -340q-9 -12 -25 -12q-1 1 -5.5 2 t-6.5 2q-3 1 -6.5 2t-5 1.5t-2.5 0.5q-1 2 -4.5 7t-5.5 9q-10 10 -13 29q-6 23 -26 119l-23 114l-6.5 26t-5.5 23t-4 13q-21 82 -82 358q-54 258 -74 342q0 -6 2 -8t2 -6v-39q0 -13 -0.5 -38t-1.5 -72t-2 -87q-4 -204 -4 -233q0 -66 8 -225t8 -402v-51v-63q-4 -26 -8 -41 q-10 -19 -24 -25q-2 -2 -13 -2q-46 0 -49 74q0 2 -4 80q0 106 -4 186q0 83 -8 227z" />
<glyph unicode="n" horiz-adv-x="608" d="M25 1505v27q4 4 4 8q2 2 4 7t4 7q0 7 12 11q12 6 29 6l10 -2h8q29 -19 29 -43v-13q0 -59 51 -170q58 -124 103 -344q37 -206 45 -223q6 -13 41 -166q35 -147 59 -223q4 218 4 506v305q0 268 4 330q3 35 37 35q27 0 39 -35q16 -43 16 -299v-99v-389v-200v-183v-141 q2 -41 2 -98v-39q0 -11 2 -23v-22q0 -64 -41 -64h-4q-17 3 -28 17q-13 22 -13 24q-2 5 -6 41q-1 6 -1.5 14.5t-1 14t-1.5 8.5q-7 40 -22 84q-5 23 -29 92q-17 53 -29 82q-12 41 -16 45q-89 317 -119 438q-30 144 -45 222q-10 81 -51 247q0 -16 -2 -26v-27v-6q2 -4 2 -10 q3 -27 6 -285q6 -267 14 -342q9 -95 9 -350v-74q0 -124 -9 -151q-10 -29 -47 -29q-31 0 -37 25q-5 22 -8 165q-4 228 -8 334q-16 698 -16 981z" />
<glyph unicode="o" horiz-adv-x="499" d="M23 332v24q0 238 36 635q38 415 99 494q26 39 71 39q60 0 113 -62q49 -56 76 -305q31 -286 33 -424q6 -172 6 -276q0 -19 -2 -31v-20v-62q-1 -13 -2 -40.5t-2 -37.5q0 -17 -7 -78q-6 -50 -18 -77q-13 -29 -33 -62q-18 -29 -49 -45t-76 -16q-106 0 -174 102 q-68 101 -71 242zM117 436q0 -137 35 -243q30 -115 108 -115q32 0 51 16q17 21 29 90q14 66 14 211v13q0 144 -18 510q-17 353 -35 421q-30 103 -61 103q-16 0 -33 -33q-13 -44 -51 -446q-39 -376 -39 -527z" />
<glyph unicode="p" horiz-adv-x="471" d="M31 1135q0 357 14 409q3 18 21 29h10h10q6 2 12 2q46 0 131 -23q85 -18 129 -59q84 -75 84 -207q0 -156 -77 -358q-73 -206 -162 -289l-49 -41q-1 -1 -3 -1.5t-5 -1t-5 -1.5q-10 -3 -10 -31q0 -32 6 -176t6 -221q0 -140 -18 -158q-10 -10 -29 -10q-22 0 -35 29t-16 127 v34q-1 13 -2 44t-2 47q0 84 -2 135q-2 49 -2 164l-4 184v190q-2 66 -2 183zM127 1163q0 -210 10 -452q85 91 142 266q61 177 61 356q0 44 -25 80q-18 24 -69 49q-58 28 -103 31q-16 -75 -16 -330z" />
<glyph unicode="q" horiz-adv-x="575" d="M8 420q0 37 4 49l31 852v10q0 88 45 148q45 63 115 63q19 0 37 -6q45 -13 71 -29q25 -10 49 -30q5 -6 13.5 -15.5t11.5 -11.5q7 -9 14 -27l7 -14q35 -48 65 -289q27 -267 27 -475q0 -156 -15 -297q-17 -159 -28 -205q-12 -66 -21 -75l29 -37q0 -5 4 -11q0 -4 4 -12 q2 -6 2 -14t-6 -23q-9 -12 -25 -12q-27 0 -77 47q-65 -39 -150 -39q-138 0 -168 86q-10 24 -22 156q-17 127 -17 211zM111 465q0 -52 4 -166q0 -7 8 -135q6 -54 8 -58q15 -34 90 -34q34 0 72 10q-51 60 -51 90v10q5 10 12 17q13 10 31 10q23 0 73 -53q29 142 29 526v20 q0 715 -151 736q-13 0 -19 2t-14 2q-33 0 -49 -29q-14 -24 -23 -131l-20 -801v-16z" />
<glyph unicode="r" horiz-adv-x="479" d="M29 1229q0 259 12 274q4 15 35 21q25 10 47 10h2q42 0 88 -14q46 -13 98 -45q54 -38 86 -103q35 -72 35 -166q0 -233 -67 -379q-64 -147 -148 -206q-47 -35 -47 -48q0 -5 14 -22q45 -48 131 -248q81 -193 91 -203q20 -29 20 -47q0 -51 -47 -51q-26 6 -49 35 q-24 38 -39 74l-60 127q-12 31 -43 106q-20 54 -47 117q11 -86 11 -191v-139q0 -69 -11 -115q-9 -39 -41 -39l-10 3q-11 4 -14 10t-6 18q-14 80 -25 488q-16 383 -16 733zM127 1176q0 -245 10 -502l19 20q64 61 110 178q43 124 51 187q11 86 11 117v59q0 33 -2 45 q-2 9 -7 31q-1 4 -3 8.5t-3 7t-2 4.5q-7 14 -12 19q-4 8 -12 16q-69 96 -158 96q2 -6 2 -28v-25q0 -1 -4 -74v-159z" />
<glyph unicode="s" horiz-adv-x="557" d="M43 1282q0 104 94 205q39 45 117 45q93 0 160 -55t67 -97q0 -37 -35 -37q-19 0 -34 15q-103 74 -156 74q-18 0 -39 -9q-23 -10 -43 -43q-22 -39 -22 -96q0 -88 2 -100v-13q0 -10 2 -12q0 -8 2 -14q0 -2 2.5 -9.5t3.5 -9.5q2 -7 12 -24q6 -14 19 -31l28 -39q37 -44 39 -47 q2 -2 51 -57q46 -54 62 -78q28 -42 41 -68q4 -7 8 -13.5t5.5 -10t2.5 -4.5q12 -9 31 -58q20 -45 41 -143q18 -91 18 -195q0 -233 -45 -295q-36 -49 -96 -71q-64 -25 -123 -25q-138 0 -168 88q-20 59 -20 297q0 64 4 84q3 21 26 31l6 -2q54 0 54 -66v-30q0 -235 14 -263 q15 -34 90 -34q43 0 86 16q38 14 45 41q0 1 3 13l5 20q8 28 9 31q1 2 4 45q1 11 2 43.5t2 48.5v41q0 144 -51 272q-53 131 -95 184q-52 63 -69 76q-52 46 -82 76q-29 41 -53 113q-27 80 -27 190z" />
<glyph unicode="t" horiz-adv-x="477" d="M-8 1503q0 34 57 43q62 10 260 10h13q141 0 141 -57q-9 -28 -21 -31q-11 -5 -186 -20q16 -94 16 -227q0 -299 -14 -471q-11 -169 -14 -529q0 -51 2 -88t2 -74q0 -88 -39 -88h-2q-37 3 -55 70q-15 88 -15 252q0 229 15 469q14 230 14 498q0 14 -4 108l-4 78h-37 q-129 0 -129 57z" />
<glyph unicode="u" horiz-adv-x="509" d="M25 244v84q0 89 12 329q14 224 14 463q0 91 -6 199q-1 30 -2 60.5t-1.5 45.5t-0.5 19q0 31 4 39q13 22 33 22q23 0 35 -24q41 -77 41 -451q0 -186 -15 -428q-16 -175 -16 -342v-59q0 -105 33 -119q27 -10 118 -10q42 0 54 4q10 45 10 264q0 58 -2 115v139q0 820 18 881 q6 21 31 30h4q2 2 8 2q20 0 37 -26q21 -27 21 -58q0 -2 -4 -22q-6 -44 -21 -1157v-15q-2 -4 -2 -12q0 -28 2 -53t2 -55q0 -98 -61 -101q-44 -20 -158 -20q-59 0 -94 12q-33 17 -58 51q-33 44 -36 193z" />
<glyph unicode="v" horiz-adv-x="522" d="M2 1524q0 18 14 32q15 15 31 15q21 0 37 -29q29 -59 84 -457q60 -396 82 -616l20 135q0 3 12.5 81.5t20.5 143.5q21 143 33 213q10 59 24 162l23 144q5 28 18 102q13 55 29 74q13 22 39 22q16 0 31 -12q14 -11 14 -31q0 -17 -6 -35q-20 -62 -82 -495q-55 -424 -70 -451 q-10 -17 -37 -260q-30 -241 -40 -258q-14 -20 -35 -20q-24 8 -27 8q-7 7 -18 41q-14 45 -17 104t-24 203q-19 132 -29 262q-1 8 -4 44t-4 59q-3 59 -6 71q0 3 -1.5 13t-3.5 28.5t-4 36.5q-8 43 -20 137l-39 238q-45 267 -45 295z" />
<glyph unicode="w" horiz-adv-x="858" d="M0 1493q0 53 37 53q29 0 45 -22q17 -21 29 -72q9 -39 20 -100q2 -19 9 -69t10 -77q4 -34 11.5 -88.5t10.5 -75.5q1 -7 4 -30.5t9 -68.5t12 -91q25 -199 34 -248l35 -207q0 -8 2 -14t2 -16q35 241 41 284q21 176 54 357q20 127 41 170q12 26 36 26h9q7 0 12 -8 q6 -6 16 -29l117 -727l14 142q17 165 82 559q61 353 80 395q13 29 37 29q7 0 27 -13q14 -14 14 -36q0 -24 -19 -132q-28 -165 -53 -323q-38 -237 -63 -461q-9 -85 -27 -178q-5 -43 -22 -156q-9 -62 -9 -127q0 -153 -47 -153q-14 0 -24 10q-12 9 -15 18q-4 9 -43 260 q-28 227 -36 250q-2 2 -58 408q-15 -103 -37 -266q-11 -90 -57 -416q-27 -186 -49 -232q-12 -26 -35 -26h-6q-2 1 -5.5 2t-4.5 2l-4 3q-4 3 -5 5q-5 5 -8 14q-19 47 -108 719q-84 655 -111 733q-4 12 -4 23z" />
<glyph unicode="x" horiz-adv-x="485" d="M0 29q0 11 8 73q19 73 21 82l20 74q2 9 5 18.5t4 13.5t1 5q53 198 72 319q23 129 59 248l-112 471q-45 184 -45 195q0 18 12 33q15 12 33 12q8 0 16 -2q13 -7 25 -23q17 -24 20 -57v-2q0 -3 19 -84l47 -199q10 -48 25 -117t16 -73l102 370q47 162 53 175q11 34 35 34 q9 0 27 -12q14 -14 14 -37q0 -50 -39 -192q-67 -243 -86 -310q-14 -48 -26.5 -90t-18 -61t-6.5 -21l-10 -34q19 -76 82 -402q63 -309 63 -350q0 -24 -14 -45q-19 -16 -35 -16q-26 0 -35 28q-6 30 -6 49q0 9 -47 226q-47 211 -47 239l-12 78q-18 -85 -52 -207l-61 -237 q-29 -102 -29 -125l-16 -53q-21 -52 -47 -52q-15 0 -25 17t-10 41z" />
<glyph unicode="y" horiz-adv-x="548" d="M31 1348v82q0 67 8 88q9 24 35 24q4 0 6 -2q16 -3 22 -18q10 -12 19 -95q8 -71 8 -233v-227q0 -99 14 -105q32 -14 119 -14q70 0 103 10q2 8 2 41q0 9 -1 24.5t-2 39.5t-2 45q-4 102 -4 125q0 59 2 73q-2 51 -2 174v13q-2 23 -2 90q0 99 45 102h2q29 -3 41 -41 q13 -41 13 -147q0 -42 -2 -58v-32v-41q2 -16 2 -31v-6q14 -722 14 -846q0 -241 -12 -268q-17 -50 -90 -86q-78 -33 -150 -33q-42 0 -72 12q-23 6 -49 21q-13 10 -16 18q-47 71 -47 164q0 49 14 84q17 35 39 35q4 -4 18 -11q17 -9 17 -26q4 -14 4 -80q0 -125 100 -125 q80 0 133 53q17 39 17 244q0 197 -4 381q-38 -14 -119 -14q-100 0 -156 24q-53 24 -59 64q-8 41 -8 508z" />
<glyph unicode="z" horiz-adv-x="518" d="M18 8l7 78q6 64 30 143q24 85 27 88l14 68q6 23 13 41t10 29q0 2 5.5 26t10.5 47l35 174q6 34 94 297q86 251 94 304q8 32 27 71v8v4v3v4l4 12q-35 12 -129 18q-87 6 -166 19q-69 15 -69 49q0 6 2 12q5 10 14 17q12 12 35 12q45 0 215 -16q153 -15 194 -41q17 -10 17 -33 q-6 -24 -13 -31q-7 -12 -51 -192q-14 -52 -84 -244q-77 -217 -98 -359q-11 -69 -72 -284q-59 -210 -59 -234v-10l125 4h53q197 0 197 -51q0 -16 -8 -27q-35 -21 -254 -24l-187 -4q-29 0 -31 2q-3 3 -3 10q0 4 1 10z" />
<glyph unicode="{" horiz-adv-x="399" d="M-16 676q9 27 18 39l18 24q15 15 23 31q0 205 8 401v74q0 73 2 98q2 28 13 87q8 46 30 77q26 30 60 45q38 21 92 21h10q49 -37 49 -62l-4 -12q0 -9 -8 -14q-9 -6 -35 -12l-6 -9h-16q-56 0 -68 -30q-15 -42 -23 -172q-3 -48 -6 -74q-4 -242 -4 -445l-10 -20 q-26 -18 -33 -41v-2q1 -4 8 -18l17 -17q11 -8 22 -27l-2 -532v-8q0 -66 17 -105q17 -33 61 -39q29 -6 29 -22l-10 -23q-20 -51 -62 -51q-37 0 -74 37q-39 33 -51 137q-8 132 -8 383v72v125q-31 27 -57 84z" />
<glyph unicode="|" horiz-adv-x="233" d="M31 0q0 331 2 487q1 66 2 195.5t2 183.5q1 46 2 133.5t2 126.5q1 30 2 90.5t2 83.5q2 41 2 70q0 4 -1 22.5t-1 32.5q-4 23 -4 50q0 59 37 59q63 -15 63 -150v-159q0 -289 -2 -584t-2 -563v-109q-3 -157 -55 -157h-2q-27 3 -35 20q-11 14 -14 66v102z" />
<glyph unicode="}" horiz-adv-x="307" d="M-4 1509q0 27 49 64h10q55 0 92 -21q34 -15 60 -45q23 -33 31 -77q9 -50 12 -87q2 -25 2 -98v-74q8 -196 8 -401q11 -18 27 -37q15 -17 32 -57q-26 -57 -57 -84v-125v-145q0 -319 -26 -398q-27 -84 -148 -84h-14q-31 0 -31 21q0 16 18 43q21 27 27 30q45 6 59 39 q17 39 17 105v8l-2 532q6 9 18 21l21 25q10 8 10 16q0 6 -6 12q-3 4 -10 12t-11 13q-13 13 -18 26q0 203 -4 445q-14 198 -27 237q-14 39 -69 39h-17l-4 9q-49 12 -49 36z" />
<glyph unicode="~" horiz-adv-x="421" d="M-27 1516q0 23 23 61q24 37 72 37q64 0 141 -68q1 1 20 23q17 28 21 35q9 24 37 24q18 0 32 -14q17 -17 17 -39q0 -34 -41 -78q-38 -47 -88 -47q-41 0 -82 41l-33 33q-15 -15 -24 -21q-3 -2 -27 -22q-12 -6 -27 -6q-41 0 -41 41z" />
<glyph unicode="&#xa1;" horiz-adv-x="231" d="M25 1487q0 98 47 98q10 0 14 -4q9 0 27 -25q16 -26 16 -65v-12q0 -88 -49 -88q-27 0 -39 30q-16 27 -16 66zM29 1055v131q6 86 49 86q29 -6 45 -35q12 -30 12 -123v-113q0 -222 2 -421t2 -445v-166q-3 -153 -63 -153q-37 0 -37 53q0 1 1 13t1 22q4 18 4 78 q0 10 -0.5 30.5t-1.5 58.5t-2 72q-7 302 -8 367q-4 320 -4 545z" />
<glyph unicode="&#xa2;" horiz-adv-x="456" d="M14 649q0 103 27 223q34 154 137 201q0 84 49 84q5 0 11 -2q8 -4 10 -4l10 -10q8 -8 8 -21q1 -3 6 -37q62 -12 101 -63q35 -65 59 -146l2 -2v-8q2 -2 2 -12q0 -43 -43 -43q-47 0 -59 45q-34 116 -58 137v-28v-113q0 -109 3 -133v-152v-86q39 3 49 13q10 7 10 24v4 q0 53 55 53q22 0 33 -16q14 -11 14 -33v-2q-9 -60 -37 -88q-27 -27 -124 -45v-24q0 -93 -50 -93l-8 2q-10 4 -14 7q-2 2 -10 14q-9 13 -9 31q-4 14 -4 51v4q-170 15 -170 268zM115 575q0 -68 69 -94q0 50 -4 105q0 60 -4 162q-2 51 -2 131q0 18 2 26v25q-61 -137 -61 -355z " />
<glyph unicode="&#xa3;" horiz-adv-x="509" d="M-41 858q0 35 37 35h18q0 78 2 141q0 109 2 140v32q0 204 33 277q38 90 164 90q66 0 125 -35q11 -7 26 -17t19 -12q17 -10 37 -63q22 -52 22 -131q0 -28 -14 -45t-31 -17q-31 0 -55 37q-4 100 -8 148q-45 26 -131 26q-56 0 -68 -30q-13 -38 -22 -172q-3 -43 -6 -72 l-1 -42q-2 -43 -2 -85q-2 -41 -4 -104.5t-2 -75.5q16 -2 66 -2q11 -1 33 -2t30 -2q4 -1 21 -3.5t26 -3.5q27 -3 35 -14q13 -6 13 -22q0 -25 -23 -35q-23 -13 -39 -13h-41q-4 0 -65 5q-25 2 -58 2v-115l8 -461v-8q0 -69 5 -109q16 -2 118 -2q29 0 95 4q13 2 26 3.5t18.5 2.5 t6.5 1q49 0 49 -41q0 -44 -51 -56q-48 -11 -178 -14h-13q-18 -2 -73 -2q-91 0 -97 33q-4 20 -4 153v291v158q2 74 2 168q-51 12 -51 59z" />
<glyph unicode="&#xa4;" horiz-adv-x="626" d="M25 1122v21q0 10 8 26q13 13 22 13q27 0 54 -37q37 -47 84 -117q51 57 122 57q81 0 123 -51q33 56 41 74q4 9 9 19.5t8 16.5t4 9q1 4 4 11.5t4 11.5q10 10 16 14q17 10 25 10q18 0 26 -16q11 -15 11 -31q0 -67 -92 -227q26 -68 26 -230v-86q-2 -39 -2 -86v-2q-2 -2 -2 -8 q0 -8 -2 -10l51 -88q21 -40 21 -64q0 -28 -29 -41h-12q-5 1 -25 6q-2 1 -28 27q-22 25 -48 70q-50 -20 -114 -29l-37 -4h-8q-59 0 -101 25q-56 -95 -96 -95h-12q-29 16 -29 41q0 24 21 64l47 82q-23 61 -23 151q0 141 41 269l-22 32q-4 6 -8.5 13t-7.5 11.5t-5 8.5 q-7 13 -16 25q-13 22 -13 24q-2 2 -3.5 5t-4 7.5t-4.5 8.5q-3 4 -10 18q-2 4 -6 16t-4 19q-1 3 -2 8.5t-2 7.5zM193 575q0 -52 36 -75q39 -25 62 -25l35 2q96 3 96 66v14v33q2 16 2 45q0 309 -72 356q-14 10 -30 13h-3q-28 0 -55 -50q-27 -46 -51 -149q-20 -113 -20 -230z " />
<glyph unicode="&#xa5;" horiz-adv-x="368" d="M4 1499q0 51 41 51q4 0 6 -2h6q8 -4 9 -4q2 -2 5.5 -4.5t4.5 -3.5q6 -6 10 -12q8 -11 10 -21l80 -563q1 -7 8 -43q14 65 35 233q23 176 55 343l7 26q15 111 53 111q1 -1 4.5 -2t5.5 -2l8 -4q5 -2 8 -9q5 -10 7 -16q1 -3 2.5 -14t3.5 -19q0 -6 1 -23t1 -28 q-14 -90 -23 -129q-2 -18 -7.5 -48.5t-6.5 -35.5q-12 -72 -19 -129q-14 -107 -38 -229q-27 -134 -33 -191q73 -3 108 -12q33 -9 33 -35q0 -24 -22 -37q-23 -10 -39 -10q-64 0 -84 2v-8h57q86 0 86 -37q0 -43 -74 -43q-51 0 -69 -2q2 -14 2 -55q0 -5 -0.5 -18.5t-1.5 -38.5 t-2 -48q-6 -85 -6 -182v-45q-3 -152 -56 -152h-2q-27 3 -39 27t-12 94q0 50 10 217t10 189h-12l-31 -2h-4q-75 9 -75 55v8q1 1 2 4t2 4t3 4t3 4q5 9 10 9q2 2 8.5 4.5t9.5 3.5q4 0 14 1t15 1h14l37 -2q-3 10 -8 10l-31 -2h-6q-12 0 -20 2q-12 3 -33 18q-20 14 -20 43 q0 21 12 27q10 10 22 10l47 -2l23 -2q-7 42 -37 180l-29 129l-30 226q-8 65 -15.5 122.5t-10.5 81.5t-3 25z" />
<glyph unicode="&#xa6;" horiz-adv-x="231" d="M25 1436q0 98 47 98q2 0 7 -1t7 -1q13 -6 27 -29q16 -22 16 -63v-13q0 -141 2 -264q2 -121 2 -258q0 -155 -6 -192q-6 -29 -35 -29q-21 0 -39 12q-18 15 -18 33v4q0 4 -0.5 11.5t-0.5 17.5v24.5t-0.5 31t-0.5 38.5v45q0 1 -6 344q-2 119 -2 191zM31 473v131q0 17 2 21 q4 8 6 14q4 8 14 8q6 4 27 4h16l15 -4l12 -8q5 -5 8 -18q1 -4 1.5 -9t1 -12.5t1.5 -13.5q2 -12 2 -54l2 -563q0 -92 -49 -92l-8 2q-12 4 -14 6q-3 3 -11 15t-8 30q-4 14 -4 52q0 287 -8 352q-6 9 -6 139z" />
<glyph unicode="&#xa7;" horiz-adv-x="518" d="M-31 1210q0 137 54 179q68 51 213 51q128 0 163 -54q9 -14 15 -55q10 -41 10 -90q0 -100 -53 -100q-21 0 -35 14q-12 12 -12 33v16q0 109 -17 119q-27 12 -82 12q-112 0 -133 -24q0 -1 -3.5 -6t-4.5 -9l-6 -10q0 -6 -2 -12t-2 -21q0 -18 -2 -34v-23q0 -70 57 -133 q60 -66 100 -88q11 -5 26 -13t25 -12.5t17 -7.5q51 -28 98 -84q16 -16 43 -72q21 -58 21 -100q0 -73 -45 -115t-107 -51q174 -125 174 -309q0 -52 -16 -105q-15 -43 -37 -59q-68 -51 -213 -51q-129 0 -164 53q-9 13 -14 57q-10 36 -10 89q0 100 53 100q20 0 35 -12 q12 -15 12 -35v-17q0 -108 16 -118q29 -13 82 -13q111 0 133 25q1 1 4.5 6t4.5 8l6 11q0 6 2 12t2 20q0 19 2 35v23q0 69 -55 133q-61 65 -103 86q-53 29 -67 33q-117 57 -150 90t-33 108q0 121 49 158q44 35 152 47q-41 24 -111 94q-24 16 -59 82q-33 62 -33 139zM70 655 q0 -16 2 -18q63 -57 153 -57q4 0 8 2h13q34 0 69 12q35 15 35 45q0 44 -10 74q-9 28 -29 41q-30 13 -37 14q-16 4 -36 4h-9q-114 0 -135 -24q-24 -52 -24 -93z" />
<glyph unicode="&#xa8;" horiz-adv-x="724" d="M172 1540v16q0 19 10 39q11 18 31 27h6h6q47 0 47 -55v-11q-9 -75 -55 -75q-37 0 -43 49v2zM301 1530v2v16q0 78 45 78q31 0 43 -12q10 -13 10 -39v-10v-9q-9 -75 -55 -75q-37 0 -43 49z" />
<glyph unicode="&#xa9;" horiz-adv-x="782" d="M8 586q0 14 4 26l31 437v4q6 62 80 92q73 31 166 31h49q68 -6 108 -15q48 -10 95 -26q52 -18 82 -52q33 -43 57 -84q29 -59 39 -125q12 -76 12 -178q0 -220 -86 -303q-3 -1 -14 -6t-17 -8q-25 -9 -32 -14q-3 0 -7.5 -1.5t-12 -3.5t-13.5 -4q-36 -8 -53 -8q-9 -2 -33.5 -4 t-36.5 -4q-24 0 -102 -4h-17q-8 -2 -20 -2q-72 0 -90 2q-36 4 -74 14q-43 12 -64 39q-22 25 -34 74q-17 47 -17 123zM111 612q0 -126 28 -157q29 -29 133 -29h47q108 0 173 12q60 15 90 49q27 42 32 74q7 40 7 109v98q0 62 -7 113q-3 40 -24 90q-18 44 -62 71 q-45 26 -114 35q51 -15 80 -61q33 -47 59 -144q9 -27 18 -116q-37 -27 -57 -27q-30 0 -45 37q-3 62 -27 139q-27 74 -47 88q-15 11 -37 11q-8 0 -22 -7q-12 -5 -33 -26q-19 -25 -33 -58q-15 -37 -24 -102q-10 -75 -10 -156q0 -20 6 -41q7 -26 32 -45q27 -24 68 -24h4 q66 0 109 14q1 3 2 12.5t2 14.5l4 28q5 15 8 21q4 11 16 14q12 4 27 4q18 0 33 -12q14 -11 14 -35v-2q-9 -65 -31 -84q-21 -24 -79 -39q-67 -18 -123 -18q-82 0 -121 39q-72 69 -72 174q0 76 27 196q41 182 162 209h-35q-90 0 -111 -8q-25 -9 -33 -47z" />
<glyph unicode="&#xaa;" horiz-adv-x="471" d="M-41 1266v86q3 80 70 135q66 57 164 57q59 0 92 -20q3 9 10 16q8 6 16 10l8 2h3h6q4 -2 8 -2q2 0 4 -2l8 -4q4 0 6 -4q1 0 3 -2t3 -2q1 -2 2 -3.5t2 -2.5t1 -2q4 -4 4 -12q1 -2 2 -6.5t2 -6.5v-18v-164v-10q2 -6 2 -15q0 -30 -6 -122q-9 -92 -9 -115v-55v-11 q0 -80 -47 -80h-2q-39 0 -45 56q-30 -27 -96 -27h-14q-138 0 -168 53q-29 56 -29 271zM53 1165q0 -86 19 -108q20 -23 96 -23q38 0 72 64q34 61 34 151v33q-2 10 -2 18v5v22q-3 79 -18 103q-18 24 -68 24q-75 0 -104 -45q-29 -50 -29 -94v-150z" />
<glyph unicode="&#xab;" horiz-adv-x="763" d="M29 653q0 5 4 25q36 98 368 381q15 12 39 12q47 0 47 -29q0 -15 -12 -30q-17 -20 -29 -25l-307 -303q-6 -9 -6 -12q0 -10 68 -78l139 -127l68 -59l12 -13q14 -14 14 -18q5 -2 8 -21q7 -14 7 -30q0 -17 -39 -17q-28 0 -48 17q-22 22 -145 137q-141 134 -162 151 q-26 9 -26 39zM217 664q0 41 90 137q98 101 185 174l90 76q25 14 47 14q35 0 35 -29q-1 -1 -2.5 -5.5t-2.5 -6.5q0 -6 -4 -18q-17 -17 -96 -88l-166 -158q-80 -77 -80 -98l6 -7l275 -266q33 -33 33 -74l-4 -8q-15 -7 -17 -8q-6 -6 -18 -6q-19 0 -27 8q-96 82 -143 133 l-123 123l-70 74q-8 11 -8 33z" />
<glyph unicode="&#xac;" horiz-adv-x="485" d="M-76 625q0 2 1 7.5t1 8.5q6 9 25 25q22 14 61 14l338 4q28 4 47 4q16 4 37 4h15l8 2q55 0 55 -84v-4q1 -16 3 -46t3 -46q1 -13 2 -26.5t1.5 -20.5t0.5 -10q0 -49 -43 -49q-46 0 -57 34q-12 29 -21 142q-3 0 -9 -0.5t-17 -1.5t-21 -2l-338 -11q-92 6 -92 56z" />
<glyph unicode="&#xad;" horiz-adv-x="290" d="M-76 625q0 10 2 14q3 13 25 25q16 16 59 16l129 4q3 0 43 4t49 4q66 0 66 -45q0 -16 -2 -20q-3 -10 -6 -17t-13 -10q-3 -1 -7.5 -3.5t-6.5 -2.5q-3 -2 -22 -6q-10 -2 -27 -2q-3 -1 -7.5 -1.5t-12 -1t-13.5 -1.5q-27 0 -37 -2l-127 -11q-92 6 -92 56z" />
<glyph unicode="&#xae;" horiz-adv-x="782" d="M8 952q0 19 4 31l31 424v2q0 47 20 70q20 29 62 41q54 12 76 12q20 4 88 4h49q94 -10 139 -20q53 -9 74 -19q18 -9 33 -18q12 -8 18 -13q64 -28 94 -151q35 -115 35 -250q0 -217 -92 -303l-41 -19q-35 -14 -41 -14q-1 -1 -45 -12q-40 -8 -74 -8q-25 -3 -114 -7 q-9 0 -17 -2h-20q-150 0 -215 50q-64 49 -64 202zM111 983q3 -138 36 -162q31 -28 172 -28q169 0 234 45q65 47 65 102v16q0 8 2 30t3 34q6 47 6 67v19q0 24 -1 58t-1 44q-7 49 -19 90q-15 53 -43 78q-27 30 -82 49q-53 23 -133 23h-10q98 -14 164 -62q63 -45 63 -110 q0 -25 -10 -55q-11 -25 -33 -47q-15 -15 -43 -39q-24 -17 -49 -31q-9 -5 -45 -23q-7 -3 -20.5 -8.5t-18.5 -7.5l-18 -8q24 -14 110 -82q62 -54 80 -66q27 -15 27 -39q0 -41 -45 -41q-20 0 -29 9q-8 8 -20 18l-31 27l-90 61q-28 28 -56 49q-4 -54 -4 -67v-17v-4 q0 -88 -49 -88h-2q-35 3 -41 45q-10 36 -10 148v37q0 140 -12 260q0 8 -2 18v27q0 75 24 90q-35 -9 -35 -51v-9zM258 1245q0 -83 10 -131l37 19q158 77 158 139q0 15 -12 33q-11 16 -62 38q-50 21 -127 21q-4 -66 -4 -119z" />
<glyph unicode="&#xaf;" horiz-adv-x="366" d="M12 1559q4 17 6 20q1 1 4.5 5t6.5 7q8 8 24 11q10 2 45 2h103h4q69 0 69 -45q0 -48 -41 -48q-8 0 -28 5q-8 0 -26 1t-27 1q-36 0 -46 -2h-4q-90 0 -90 43z" />
<glyph unicode="&#xb0;" horiz-adv-x="292" d="M14 1427v33v4q6 43 39 66q38 27 58 29q32 4 47 4q116 0 116 -119v-4q0 -40 -20 -90q-23 -57 -53 -70q-27 -10 -56 -10h-8h-14q-96 0 -105 69q-4 46 -4 88zM109 1430q0 -54 24 -54q14 0 29 27q16 37 16 63q0 31 -24 31q-43 0 -43 -22v-9v-18q-2 -6 -2 -18z" />
<glyph unicode="&#xb1;" horiz-adv-x="372" d="M20 625q0 8 3 14q3 12 22 25q21 16 61 16l130 4q3 0 8 0.5t15.5 1.5t19.5 2q46 4 49 4q65 0 65 -45q0 -16 -2 -20q-3 -10 -6 -17q-4 -7 -12 -10q-1 0 -7 -3t-10 -3q-2 -2 -20 -6q-10 -2 -25 -2q-4 -1 -15.5 -2t-16.5 -2q-29 0 -39 -2l-127 -11q-93 6 -93 56zM20 885 q0 4 3 16q3 6 22 25q28 14 61 14l44 2l-5 53q6 95 56 95q9 0 16 -5q10 0 25 -24q14 -17 14 -60v-57q83 -3 113 -12q26 -10 26 -39q0 -51 -55 -51h-41h-37q0 -11 4 -23q0 -9 1 -21t1 -16q0 -65 -45 -65q-50 0 -59 47q-3 12 -6 70l-45 -5q-93 6 -93 56z" />
<glyph unicode="&#xb2;" horiz-adv-x="641" d="M-27 852v8q18 107 50 144q1 1 3 4.5t6.5 9t8.5 10.5q13 21 33 37q13 16 39 27q27 20 59 55q38 35 78 96q41 62 41 109q0 41 -33 67l-20 21q-15 18 -33 24q-12 6 -41 6q-51 0 -62 -8q-10 -10 -10 -47q0 -21 2 -41v-53q-9 -64 -47 -64q-1 0 -3 1t-7 2.5t-10 3.5l-11 10 q-1 1 -3 4t-3 4l-4 16q-2 8 -2 35v49q0 111 25 142q22 35 129 35q98 0 161 -48q62 -50 62 -151q0 -56 -25 -123q-28 -64 -53 -96l-18 -23h-4q-6 -4 -17 -14t-16 -14q-23 -23 -31 -33q-5 -5 -11 -10l-5 -5q-108 -82 -117 -147l70 2h53h26q53 0 74 -8q23 -10 23 -41 q0 -11 -6 -23l-21 -16q-1 -1 -4.5 -1.5t-12.5 -1.5t-18 -3q-10 0 -37.5 -2t-46.5 -2q-35 -4 -92 -4q-68 0 -84 8q-35 15 -35 49z" />
<glyph unicode="&#xb3;" horiz-adv-x="507" d="M27 963v2q0 23 14 34q12 15 35 15q57 -9 57 -47v-6q0 -14 6 -23q2 -5 33 -14q24 -9 80 -9q74 0 74 41v7q0 2 -2 4v4v73q0 97 -7 125h-14q-43 0 -63 2h-90q-25 0 -52 9q-22 13 -26 20q-6 6 -6 19q0 4 4 10q0 6 6 12t12 10q3 2 12 6t11 5q6 0 19 1t20 1q20 0 36 -2h35h27 h35q16 -2 26 -2q10 17 10 20v10l5 117q0 61 -99 61q-60 0 -90 -12q0 -76 -61 -76q-45 0 -45 47v3l10 47q40 73 158 73h6h12q109 -3 160 -26q47 -21 47 -86q0 -7 2 -17t2 -37q2 -12 2 -38q0 -105 -41 -117q31 -67 31 -88q0 -11 -2 -23t-2 -39q0 -13 4 -71q6 -43 6 -62 q0 -75 -49 -96q-52 -22 -160 -25h-12q-70 0 -111 23q-4 3 -11 8t-11 8q-13 13 -15 17q-2 2 -5.5 6.5t-4.5 5.5t-2 4t-2.5 6t-3.5 6q0 13 -4 17l-4 20q0 5 -1 11z" />
<glyph unicode="&#xb4;" horiz-adv-x="249" d="M-31 1384q0 7 2 9v6q6 25 74 121l35 53q20 20 41 20q47 0 47 -45q0 -8 -4 -24l-103 -160q-25 -25 -49 -25q-43 0 -43 45z" />
<glyph unicode="&#xb5;" horiz-adv-x="557" d="M-29 1069q4 4 4 8l5 8q4 8 4 9q4 0 8 4l12 4h21q6 2 26 2h10q16 4 21 4l2 -2h4q37 0 37 -35v-4q4 -24 4 -94q0 -109 -2 -152q2 -14 2 -71q0 -9 -0.5 -46.5t-1 -99t-0.5 -129.5q-4 -156 -4 -303v-49q35 -12 104 -12q89 0 123 18q8 11 8 244v438q0 141 11 256h-13 q-10 0 -12 2h-12h-13q-2 1 -6 2t-6 2l-12 4q-4 4 -8 4q-2 2 -4.5 5t-3.5 4l-5 10q-2 4 -2 12q3 17 11 25q3 7 24 10q24 6 72 6h20q38 0 47 -18q11 -22 11 -82v-95v-434q0 -424 -11 -481q-9 -37 -38 -37q-33 0 -48 27q-56 -15 -127 -15q-26 0 -49 -2q-20 -2 -43 -2 q-20 0 -24 2q0 -92 -11 -153q-9 -49 -40 -49l-9 2q-6 2 -14 6q-5 2 -14 18q-6 12 -9 33q-4 36 -4 156q0 2 15 805v6q0 12 2 30v45q0 87 2 103q-62 0 -62 37v8q0 4 -2 6z" />
<glyph unicode="&#xb6;" horiz-adv-x="688" d="M27 1014q0 14 2 22v15q0 75 4 149q2 50 16 123q11 58 37 98q19 30 66 70q40 30 102 45q52 13 147 16h25l121 -8l35 -8q9 -6 12 -6l6 -6l6 -4q0 -1 1.5 -4.5t2.5 -6.5q4 -12 4 -14q-3 -3 0 -18q2 -10 2 -27q0 -23 2 -39q0 -26 3 -47q0 -93 2 -109t2 -47q0 -58 -15 -405 q-14 -323 -14 -666q0 -36 2 -65t2 -60q0 -84 -39 -84h-6q-55 0 -55 43l14 1207q0 156 -8 295l-66 2q0 -21 -2 -39v-31q0 -30 0.5 -91.5t1.5 -176.5t2 -215q2 -107 3.5 -209.5t2.5 -149t1 -55.5v-86l2 -359q0 -129 -60 -129q-32 0 -39 33q-6 38 -6 174q-1 44 -2 128.5 t-2 121.5v117q-15 9 -33 27q-282 221 -282 479z" />
<glyph unicode="&#xb7;" horiz-adv-x="188" d="M-41 834q0 22 10 45q6 47 54 47q43 0 57 -33q8 -16 8 -55v-13q-3 -44 -20 -67q-21 -25 -31 -25q-6 -4 -21 -4q-17 3 -22 6q-8 4 -19 15q-9 12 -12 36q-1 10 -2 21.5t-1.5 17.5t-0.5 9z" />
<glyph unicode="&#xb8;" horiz-adv-x="630" d="M72 -137q0 23 14 37q11 14 35 14q10 0 18 -2q13 -4 25 -14q14 -11 14 -33q0 -2 2 -4v-8q0 -7 -2 -13q-3 -5 0 -8q6 0 12 -4q2 0 12.5 -1t18.5 -1h4q11 0 13 2q6 0 12 12q6 9 6 31v41q0 14 -2 16t-18 2h-29h-19q-33 0 -49 13q-17 11 -20 57v12q3 70 49 70q43 0 43 -49v-6 q82 -3 113 -31q30 -24 30 -84q0 -17 -2 -31v-31v-8q0 -58 -20 -75q-19 -22 -103 -31h-12q-30 0 -51 6q-15 2 -39 14q-3 2 -8 6.5t-9 7.5t-8 5q-2 4 -7 12t-7 12l-10 25l-4 20q-2 10 -2 17v2z" />
<glyph unicode="&#xb9;" horiz-adv-x="229" d="M-113 1352q0 6 2 8v6q6 25 74 121l35 53q21 21 41 21q22 -4 27 -9q8 0 22 -24q12 -24 12 -68v-82q0 -121 -2 -215q-2 -92 -2 -202v-56q0 -94 -57 -94q-3 1 -8.5 2t-7.5 2q-9 5 -11 8l-6 6l-4 11q-2 6 -2 12v16q-2 8 -2 21v63q0 58 -2 109v110q0 78 6 195l-22 -35 q-24 -24 -50 -24q-43 0 -43 45z" />
<glyph unicode="&#xba;" horiz-adv-x="471" d="M-41 1266v86q3 80 70 135q66 57 164 57q182 0 182 -233v-13q0 -112 -31 -188l-14 -39q-38 -129 -160 -129h-14q-138 0 -168 53q-29 56 -29 271zM53 1165q0 -86 19 -108q20 -23 96 -23q38 0 72 64q34 61 34 151v33q-2 10 -2 18v5v22q-3 79 -18 103q-18 24 -68 24 q-75 0 -104 -45q-29 -50 -29 -94v-150z" />
<glyph unicode="&#xbb;" horiz-adv-x="757" d="M31 1044q0 21 43 21q30 -3 37 -10q202 -180 295 -273q73 -79 73 -120q0 -14 -10 -31l-72 -74l-123 -123q-38 -40 -143 -133h-8h-12q-43 0 -43 23q0 32 30 67l279 264l6 7q-4 25 -80 96q-64 66 -164 153q-83 72 -100 93q-8 19 -8 40zM207 1051q0 20 43 20q22 0 37 -12 q370 -312 370 -397q0 -22 -6 -31q-6 -12 -12 -15l-6 -2q-34 -28 -166 -155q-144 -138 -156 -146q-12 -4 -26 -4q-3 0 -9.5 1t-9.5 1q-6 4 -18 8q-8 3 -8 9q0 16 2 22q1 3 3 8.5t3 8.5l6 12l4 5q3 4 8 9l15 15q274 247 274 264q0 4 -8 12l-305 299q-35 30 -35 68z" />
<glyph unicode="&#xbc;" horiz-adv-x="1140" d="M25 37q0 28 20 61l598 977q13 23 49 76l68 100l63 101q29 39 54 86q20 33 20 43v18q0 37 31 37q2 0 18 -4l6 2h13l10 -10l-8 6l6 -6q7 0 10 -13q4 -8 4 -24q0 -54 -41 -119l-82 -137l-635 -1030l-49 -86q-27 -56 -57 -82q-28 -35 -57 -35h-13q-28 16 -28 39zM129 1352 q0 6 2 8v6q7 24 76 121l33 53q21 21 41 21q20 -3 26 -9q9 0 23 -24q12 -24 12 -68v-82q0 -121 -2 -215q-2 -92 -2 -202v-56q0 -94 -57 -94q-3 1 -9 2t-8 2q-8 4 -10 8l-6 6l-4 11q-2 6 -2 12v16q-2 8 -2 21v63q0 58 -2 109v110q0 78 6 195l-23 -35q-24 -24 -49 -24 q-43 0 -43 45zM602 614q0 76 2 86q17 38 41 35q19 -4 21 -6q5 0 20 -49q14 -41 14 -135v-80v-8q0 -13 115 -13q77 0 105 7v8v8q0 4 -2 6v16q-1 4 -1.5 8.5t-1.5 11.5t-2 11v53v82v4q-2 16 -2 54v8q0 54 43 57h2q54 -9 54 -116q0 -97 6 -261q8 -141 8 -217q0 -184 -55 -184 q-7 0 -13 4q-10 0 -14 8q-5 5 -8 29q-6 24 -6 65q0 34 2 54v35q0 3 -4 167q-38 -14 -111 -14h-12q-155 0 -185 43l-8 17q-8 31 -8 206z" />
<glyph unicode="&#xbd;" horiz-adv-x="1075" d="M25 37q0 28 20 61l598 977q13 23 49 76l68 100l63 101q29 39 54 86q20 33 20 43q0 57 41 57q22 0 33 -14q16 -13 16 -37q0 -54 -41 -119l-82 -137l-635 -1030l-49 -86q-27 -56 -57 -82q-28 -35 -57 -35h-13q-28 16 -28 39zM129 1352q0 6 2 8v6q7 24 76 121l33 53 q21 21 41 21q20 -3 26 -9q9 0 23 -24q12 -24 12 -68v-82q0 -133 -2 -252q-2 -121 -2 -243v-56q0 -94 -57 -94q-3 1 -9 2t-8 2q-8 4 -10 8q-1 1 -3 3.5t-3 3.5t-4 10q-2 6 -2 12v17q-2 8 -2 20v63q0 62 -2 123v144q0 123 6 225l-23 -35q-24 -24 -49 -24q-43 0 -43 45zM571 51 v8q17 100 47 138l19 24q12 14 35 37q14 14 39 25q40 31 59 53q30 28 78 92q41 59 41 104q0 40 -33 66q-1 1 -4.5 5t-7.5 7.5t-8 7.5q-10 16 -25 23q-12 6 -37 6q-45 0 -61 -8q-11 -15 -11 -45q0 -9 3 -39v-53q0 -60 -60 -60q-4 0 -20 4q-1 1 -5 6t-6 7q-9 9 -12 20v35v47 q0 101 25 137q23 33 129 33q223 0 223 -190q0 -53 -25 -117q-26 -60 -53 -94l-18 -23h-6l-48 -43q-8 -8 -15 -14.5t-11 -9.5l-4 -4q-108 -79 -117 -142l70 2h53h35q37 0 47 -2q16 -3 28 -12q13 -13 13 -33q0 -10 -6 -22l-21 -17q-1 -1 -4.5 -1.5t-12.5 -1.5t-18 -3 q-10 0 -38 -2t-46 -2q-37 -4 -94 -4q-68 0 -84 8q-33 11 -33 47z" />
<glyph unicode="&#xbe;" horiz-adv-x="1075" d="M25 37q0 28 20 61l598 977l59 92l70 103l59 94q46 71 50 78q16 32 16 41q0 25 14 39t35 14q41 0 41 -49q0 -54 -41 -119l-82 -137l-635 -1030l-49 -86q-27 -56 -57 -82q-28 -35 -57 -35h-13q-28 16 -28 39zM98 963v2q0 22 15 34q15 15 34 15q58 -9 58 -47v-6q0 -11 4 -23 q3 -3 33 -14q30 -9 82 -9q73 0 73 41v7v4l-2 4v73q0 94 -8 125h-12q-44 0 -64 2h-14h-78q-39 0 -63 17q-19 10 -19 31q0 1 1 4t1 6q1 2 3 5l3 4.5t2 2.5q4 4 13 10t24 11q3 0 16 1t21 1q21 0 37 -2h35h26h37q12 -2 25 -2q10 17 10 20v10l4 117q0 61 -98 61q-80 0 -92 -12v-6 q0 -30 -8 -41q-16 -29 -52 -29q-45 0 -45 47v3l11 47q40 73 157 73h6h13q108 -3 159 -26q48 -22 48 -86q0 -185 -11 -211q4 -16 4 -21q0 -172 7 -223q2 -8 2 -37q0 -75 -50 -96q-52 -22 -159 -25h-13q-69 0 -110 23q-21 15 -21 16q-10 5 -16 17q-2 2 -5.5 6.5t-4.5 5.5 q-6 12 -6 16q-5 10 -5 17q-4 8 -4 20q-4 8 -4 17zM557 614q0 76 2 86q18 35 37 35h4q19 -4 21 -6q5 0 20 -49q14 -41 14 -135v-80v-8q0 -13 115 -13q76 0 104 7v8v8q0 4 -2 6v16q-1 4 -2 15t-2 16v53v82v4q-2 16 -2 54v8q0 54 43 57h2q54 -9 54 -116q0 -97 6 -261 q8 -141 8 -217q0 -184 -55 -184q-7 0 -13 4q-10 0 -14 8q-5 5 -8 29q-6 24 -6 65q0 34 2 54v35q0 3 -4 167q-43 -14 -111 -14h-12q-155 0 -185 43q-1 0 -8 17q-8 31 -8 206z" />
<glyph unicode="&#xbf;" horiz-adv-x="501" d="M18 279v45q0 386 132 550q75 90 108 150q27 62 27 125v129q12 78 53 78h6q2 -1 5 -2l4.5 -1.5t2.5 -0.5q2 -4 13 -11q7 -7 12 -22q6 -9 14 -35v-4q0 -23 -1 -61.5t-1 -53.5q-2 -19 -3.5 -44t-2.5 -31q-4 -37 -8 -52l-8 -30q-6 -12 -11 -17q-6 -12 -6 -14 q-20 -43 -178 -246q-49 -64 -49 -420v-32q0 -271 78 -312q74 -39 123 -39q26 0 30 4q0 15 -2 35v99q-2 47 -2 182v37q9 61 60 61q3 -3 12 -6l12 -6q2 -2 6 -17q11 -57 11 -182v-110v-54q2 -8 2 -20v-12v-15q0 -51 -33 -80q-36 -28 -70 -28q-3 0 -35 4q-1 0 -73 22 q-45 15 -86 43q-38 23 -78 72q-35 47 -47 106q-9 37 -12 103q-5 108 -5 113zM291 1479v12q6 94 57 94h6q2 -1 6 -2t5 -2t4.5 -3.5t5.5 -4.5q7 -3 10 -17q2 -6 6 -26q1 -10 2 -21t1.5 -17t0.5 -9q0 -22 -10 -45q-3 -20 -16 -33q-17 -14 -33 -14q-45 0 -45 88z" />
<glyph unicode="&#xc0;" horiz-adv-x="489" d="M0 59v23q3 16 6 53q1 11 4 40.5t4 47.5l19 228q24 276 45 475q20 220 28 266q2 24 7 59.5t6 48.5q4 54 4 72q5 42 16 86q11 52 25 76q13 22 33 22q17 0 32 -18q55 -74 76 -283q3 -29 49 -280q48 -262 56 -361q1 -17 16 -151q10 -94 14 -184q3 -85 15 -158q14 -69 14 -88 q0 -47 -41 -47q-47 0 -59 71q-16 64 -19 172q-3 102 -12 129q-68 -10 -154 -10h-63l-6 -72q-13 -139 -23 -221q-9 -41 -45 -41q-47 0 -47 45zM41 1806q0 45 47 45q21 0 41 -20l35 -53q76 -107 76 -138q0 -17 -13 -30t-30 -13q-25 0 -50 25l-102 160q-4 12 -4 24zM121 424h61 q68 0 146 10l-2 35q-12 167 -64 455q-43 256 -57 354q-24 -205 -37 -330l-31 -338l-12 -137z" />
<glyph unicode="&#xc1;" horiz-adv-x="489" d="M0 59v23q3 16 6 53q1 11 4 40.5t4 47.5l19 228q24 276 45 475q20 220 28 266q2 24 7 59.5t6 48.5q4 54 4 72q5 42 16 86q11 52 25 76q13 22 33 22q17 0 32 -18q55 -74 76 -283q3 -29 49 -280q48 -262 56 -361q1 -17 16 -151q10 -94 14 -184q3 -85 15 -158q14 -69 14 -88 q0 -47 -41 -47q-47 0 -59 71q-16 64 -19 172q-3 102 -12 129q-68 -10 -154 -10h-63l-6 -72q-13 -139 -23 -221q-9 -41 -45 -41q-47 0 -47 45zM121 424h61q68 0 146 10l-2 35q-12 167 -64 455q-43 256 -57 354q-24 -205 -37 -330l-31 -338l-12 -137zM154 1642q0 7 2 9v6 q6 27 73 121l35 53q20 20 41 20q47 0 47 -45q0 -8 -4 -24l-102 -160q-25 -25 -49 -25q-43 0 -43 45z" />
<glyph unicode="&#xc2;" horiz-adv-x="489" d="M0 59v23q3 16 6 53q1 11 4 40.5t4 47.5l19 228q24 276 45 475q20 220 28 266q2 24 7 59.5t6 48.5q4 54 4 72q5 42 16 86q11 52 25 76q13 22 33 22q17 0 32 -18q55 -74 76 -283q3 -29 49 -280q48 -262 56 -361q1 -17 16 -151q10 -94 14 -184q3 -85 15 -158q14 -69 14 -88 q0 -47 -41 -47q-47 0 -59 71q-16 64 -19 172q-3 102 -12 129q-68 -10 -154 -10h-63l-6 -72q-13 -139 -23 -221q-9 -41 -45 -41q-47 0 -47 45zM45 1638v19q2 8 21 43q5 8 16 24.5t16 24.5l10 14l7.5 10.5t3.5 4.5l37 53q20 20 41 20q22 0 36 -20l37 -53q78 -107 78 -138 q0 -43 -41 -43q-24 0 -49 25l-61 96l-62 -96q-28 -25 -49 -25q-41 0 -41 41zM121 424h61q68 0 146 10l-2 35q-12 167 -64 455q-43 256 -57 354q-24 -205 -37 -330l-31 -338l-12 -137z" />
<glyph unicode="&#xc3;" horiz-adv-x="489" d="M0 59v23q3 16 6 53q1 11 4 40.5t4 47.5l19 228q24 276 45 475q20 220 28 266q2 24 7 59.5t6 48.5q4 54 4 72q5 42 16 86q11 52 25 76q13 22 33 22q17 0 32 -18q55 -74 76 -283q3 -29 49 -280q48 -262 56 -361q1 -17 16 -151q10 -94 14 -184q3 -85 15 -158q14 -69 14 -88 q0 -47 -41 -47q-47 0 -59 71q-16 64 -19 172q-3 102 -12 129q-68 -10 -154 -10h-63l-6 -72q-13 -139 -23 -221q-9 -41 -45 -41q-47 0 -47 45zM16 1663q0 20 17 59q68 45 98 45q31 0 119 -73q9 4 20 24q16 19 21 33q16 25 37 25q17 0 32 -15q17 -17 17 -39q0 -33 -41 -77 q-39 -48 -86 -48q-41 0 -82 41q-21 21 -37 33l-49 -43q-12 -6 -25 -6q-41 0 -41 41zM121 424h61q68 0 146 10l-2 35q-12 167 -64 455q-43 256 -57 354q-24 -205 -37 -330l-31 -338l-12 -137z" />
<glyph unicode="&#xc4;" horiz-adv-x="489" d="M0 59v23q3 16 6 53q1 11 4 40.5t4 47.5l19 228q24 276 45 475q20 220 28 266q2 24 7 59.5t6 48.5q4 54 4 72q5 42 16 86q11 52 25 76q13 22 33 22q17 0 32 -18q55 -74 76 -283q3 -29 49 -280q48 -262 56 -361q1 -17 16 -151q10 -94 14 -184q3 -85 15 -158q14 -69 14 -88 q0 -47 -41 -47q-47 0 -59 71q-16 64 -19 172q-3 102 -12 129q-68 -10 -154 -10h-63l-6 -72q-13 -139 -23 -221q-9 -41 -45 -41q-47 0 -47 45zM82 1673q0 18 12 39q8 17 29 27h8h4q49 0 49 -56v-10q-9 -76 -57 -76q-41 0 -41 50v2q0 4 -2 10t-2 14zM121 424h61q68 0 146 10 l-2 35q-12 167 -64 455q-43 256 -57 354q-24 -205 -37 -330l-31 -338l-12 -137zM213 1647v2v16q0 78 45 78q53 0 53 -51v-11v-8q-9 -76 -57 -76q-41 0 -41 50z" />
<glyph unicode="&#xc5;" horiz-adv-x="489" d="M0 59v23q3 16 6 53q1 11 4 40.5t4 47.5l19 228q24 276 45 475q20 220 28 266q2 24 7 59.5t6 48.5q4 54 4 72q5 42 16 86q11 52 25 76q13 22 33 22q17 0 32 -18q55 -74 76 -283q3 -29 49 -280q48 -262 56 -361q1 -17 16 -151q10 -94 14 -184q3 -85 15 -158q14 -69 14 -88 q0 -47 -41 -47q-47 0 -59 71q-16 64 -19 172q-3 102 -12 129q-68 -10 -154 -10h-63l-6 -72q-13 -139 -23 -221q-9 -41 -45 -41q-47 0 -47 45zM66 1751v33v4q9 42 40 67q42 27 58 29q32 4 45 4q119 0 119 -119v-4q0 -43 -21 -90l-12 -18q-24 -62 -98 -62h-9q-81 0 -102 27 q-20 23 -20 129zM121 424h61q68 0 146 10l-2 35q-12 167 -64 455q-43 256 -57 354q-24 -205 -37 -330l-31 -338l-12 -137zM164 1694q2 -2 20 -2q24 0 29 8q3 6 6.5 17.5t5.5 15.5q0 7 1 14.5t1 9.5q0 8 2 10v7q0 16 -4 16q0 4 -20 4q-1 0 -21 -4q-20 -3 -20 -21v-18v-55v-2z " />
<glyph unicode="&#xc6;" horiz-adv-x="792" d="M-8 59v23q3 16 6 53q1 11 4 40.5t4 47.5l19 228q24 276 45 475q20 220 28 266q2 24 7 59.5t6 48.5q4 54 4 72q5 42 16 86q11 52 25 76q16 22 32 22t31 -18q20 -28 27 -51q13 -36 24 -86q3 -20 10 -57t9 -46l22 -139l27 -162q0 146 -2 236q-2 86 -2 164q0 111 10 153 q9 37 43 37q17 0 55 -14q44 -16 82 -19q142 -15 197 -30q57 -15 57 -45q0 -9 -8 -25q-3 -1 -7 -3.5t-7 -4t-6 -2.5l-9 -2h-8q-45 0 -149 8q-120 9 -154 20v-38q0 -103 2 -177q5 -177 6 -194v-29.5t0.5 -24t1 -17t0.5 -11.5v-4v-94l62 -4q164 -12 164 -64q0 -41 -54 -41 q-22 0 -84 6q-55 8 -82 8h-4q-6 -50 -6 -131q0 -181 19 -444l8 -100h121q86 0 143 -11q45 -9 45 -43l-2 -4q0 -8 -2 -12q0 -1 -2 -4t-4 -4q0 -5 -8 -13q-3 -1 -9.5 -3t-9.5 -3q-55 -18 -274 -18h-33q-5 1 -14 2t-13 2q-12 4 -18 8t-14 12q-8 16 -9 21q-4 16 -6 22 q-1 3 -2 14.5t-2 16.5q-2 16 -2 39q-1 6 -2 22.5t-2 24.5q0 42 -2 58q-9 108 -12 120q-68 -10 -154 -10h-65l-5 -72q-17 -181 -22 -221q-9 -41 -47 -41q-45 0 -45 45zM113 424h61q67 0 145 10l-2 35q-13 182 -63 457q-35 208 -57 352q-21 -168 -37 -348l-33 -328l-10 -129z " />
<glyph unicode="&#xc7;" horiz-adv-x="518" d="M-14 606q0 65 10 215q10 108 37 305q26 161 78 287q55 119 122 119q83 0 123 -98q44 -104 74 -314q12 -88 12 -143q0 -98 -53 -98q-4 0 -8 2q-10 0 -12 4q-3 0 -13 14q-6 12 -12 33q0 64 -29 285q-30 208 -82 208q-28 0 -77 -184q-53 -190 -62 -338l-8 -125 q-3 -62 -6 -86q-2 -18 -2 -41q0 -29 4 -43q0 -17 10 -92q13 -107 19 -176q18 -211 75 -248q8 -8 37 -8q63 0 107 29q10 87 32 131q24 47 50 47q24 0 24 -47v-15q-9 -107 -26 -139q-20 -36 -78 -70q-55 -33 -101 -36q15 -12 15 -39v-8q86 -3 114 -31q29 -26 29 -82v-31 q-2 -14 -2 -31v-8q0 -54 -18 -78q-22 -19 -103 -28h-14q-23 0 -51 4q-25 7 -37 16q-18 9 -25 19q-8 6 -16 22l-8 25q-3 2 -6 20l-3 17v4q0 21 13 37q14 14 37 14q10 0 16 -2q14 -3 27 -14q14 -11 14 -33v-4q2 -2 2 -9q0 -6 -2 -8v-6q0 -9 45 -12h2h14q9 9 11 12q6 12 6 33 v41q0 14 -2 16t-19 2h-26h-23q-17 0 -33 4q-10 2 -22 19q-9 18 -12 45v14q3 44 22 60q-73 15 -100 73q-23 56 -58 240q-32 168 -32 309z" />
<glyph unicode="&#xc8;" horiz-adv-x="491" d="M27 1309v100q0 114 10 143q6 35 41 35q17 0 57 -16q41 -18 82 -23q98 -9 152 -24q50 -14 69 -27q15 -15 15 -31q0 -13 -11 -24q-7 -7 -16 -10l-8 -2h-10q-59 0 -150 16q-80 9 -137 24v-40q0 -18 1 -77t1 -100q2 -42 4 -111t2 -81q2 -55 2 -86l2 -94l60 -4 q163 -12 163 -64q0 -41 -53 -41q-23 0 -84 6q-55 8 -82 8h-4q-6 -50 -6 -131q0 -195 18 -444l9 -100h120q87 0 144 -11q45 -9 45 -43v-4q-1 -2 -2 -6t-2 -6q-4 -4 -4 -8l-13 -13q-4 -2 -16 -6q-68 -18 -252 -18q-90 0 -104 14q-12 21 -15 56q-1 13 -2 47t-2 51 q-4 83 -10 125q-14 95 -14 1020zM49 1835q0 45 47 45q21 0 41 -20l35 -54q76 -107 76 -137q0 -19 -12 -31t-31 -12q-24 0 -49 25l-103 159q-4 12 -4 25z" />
<glyph unicode="&#xc9;" horiz-adv-x="491" d="M27 1309v100q0 114 10 143q6 35 41 35q17 0 57 -16q41 -18 82 -23q98 -9 152 -24q50 -14 69 -27q15 -15 15 -31q0 -13 -11 -24q-7 -7 -16 -10l-8 -2h-10q-59 0 -150 16q-80 9 -137 24v-40q0 -18 1 -77t1 -100q2 -42 4 -111t2 -81q2 -55 2 -86l2 -94l60 -4 q163 -12 163 -64q0 -41 -53 -41q-23 0 -84 6q-55 8 -82 8h-4q-6 -50 -6 -131q0 -195 18 -444l9 -100h120q87 0 144 -11q45 -9 45 -43v-4q-1 -2 -2 -6t-2 -6q-4 -4 -4 -8l-13 -13q-4 -2 -16 -6q-68 -18 -252 -18q-90 0 -104 14q-12 21 -15 56q-1 13 -2 47t-2 51 q-4 83 -10 125q-14 95 -14 1020zM225 1673v8q2 2 2 7q5 24 74 120l35 54q20 20 41 20q47 0 47 -45q0 -9 -4 -25l-103 -159q-25 -25 -49 -25q-43 0 -43 45z" />
<glyph unicode="&#xca;" horiz-adv-x="491" d="M27 1309v100q0 114 10 143q6 35 41 35q17 0 57 -16q41 -18 82 -23q98 -9 152 -24q50 -14 69 -27q15 -15 15 -31q0 -13 -11 -24q-7 -7 -16 -10l-8 -2h-10q-59 0 -150 16q-80 9 -137 24v-40q0 -18 1 -77t1 -100q2 -42 4 -111t2 -81q2 -55 2 -86l2 -94l60 -4 q163 -12 163 -64q0 -41 -53 -41q-23 0 -84 6q-55 8 -82 8h-4q-6 -50 -6 -131q0 -195 18 -444l9 -100h120q87 0 144 -11q45 -9 45 -43v-4q-1 -2 -2 -6t-2 -6q-4 -4 -4 -8l-13 -13q-4 -2 -16 -6q-68 -18 -252 -18q-90 0 -104 14q-12 21 -15 56q-1 13 -2 47t-2 51 q-4 83 -10 125q-14 95 -14 1020zM104 1669q0 15 2 19q5 24 74 120l35 54q20 20 41 20q19 0 39 -20l37 -54l22 -30q22 -30 23 -33l16 -25q13 -22 13 -28q4 -6 4 -21q0 -18 -13 -31q-12 -12 -30 -12q-25 0 -50 25l-61 96l-61 -96q-25 -25 -50 -25q-41 0 -41 41z" />
<glyph unicode="&#xcb;" horiz-adv-x="491" d="M27 1309v100q0 114 10 143q6 35 41 35q17 0 57 -16q41 -18 82 -23q98 -9 152 -24q50 -14 69 -27q15 -15 15 -31q0 -13 -11 -24q-7 -7 -16 -10l-8 -2h-10q-59 0 -150 16q-80 9 -137 24v-40q0 -18 1 -77t1 -100q2 -42 4 -111t2 -81q2 -55 2 -86l2 -94l60 -4 q163 -12 163 -64q0 -41 -53 -41q-23 0 -84 6q-55 8 -82 8h-4q-6 -50 -6 -131q0 -195 18 -444l9 -100h120q87 0 144 -11q45 -9 45 -43v-4q-1 -2 -2 -6t-2 -6q-4 -4 -4 -8l-13 -13q-4 -2 -16 -6q-68 -18 -252 -18q-90 0 -104 14q-12 21 -15 56q-1 13 -2 47t-2 51 q-4 83 -10 125q-14 95 -14 1020zM117 1704q0 19 10 39q10 17 31 26h6h6q47 0 47 -55v-10q-9 -76 -55 -76q-37 0 -43 49v2v9q-2 6 -2 16zM246 1677v2v17q0 78 45 78q31 0 41 -13q12 -12 12 -39v-10v-8q-9 -76 -55 -76q-37 0 -43 49z" />
<glyph unicode="&#xcc;" horiz-adv-x="243" d="M-84 1782q0 45 47 45q20 0 41 -21l35 -53q76 -107 76 -137q0 -18 -13 -31q-12 -12 -30 -12q-25 0 -49 24l-103 160q-4 12 -4 25zM27 82v127v362q0 383 6 580q1 58 2 111.5t1.5 79t0.5 30.5q0 36 -4 82l-4 35q0 9 8 22q16 23 31 23q63 -15 63 -150l-2 -159q0 -259 -2 -492 q-2 -236 -2 -473l2 -98v-10q-3 -78 -12 -115t-45 -37q-31 10 -33 20q-7 11 -10 62z" />
<glyph unicode="&#xcd;" horiz-adv-x="200" d="M37 1620v8q2 2 2 6q6 25 74 121l34 53q21 21 41 21q48 0 48 -45q0 -5 -5 -25l-102 -160q-24 -24 -49 -24q-43 0 -43 45zM39 82v127v362q0 383 6 580q1 58 2 111.5t1.5 79t0.5 30.5q0 36 -4 82l-4 35q0 9 8 22q16 23 31 23q63 -15 63 -150l-2 -159q0 -259 -2 -492 q-2 -236 -2 -473l2 -98v-10q-3 -78 -12 -115t-45 -37q-31 10 -33 20q-7 11 -10 62z" />
<glyph unicode="&#xce;" horiz-adv-x="202" d="M-84 1616q0 14 2 18q6 25 74 121l35 53q21 21 41 21q17 0 38 -21l37 -53l23 -31q20 -28 22 -32l17 -25q12 -20 12 -29q4 -6 4 -20q0 -19 -12 -31t-31 -12q-25 0 -49 24l-61 97l-62 -97q-24 -24 -49 -24q-41 0 -41 41zM27 82v127v362q0 383 6 580q1 58 2 111.5t1.5 79 t0.5 30.5q0 36 -4 82l-4 35q0 9 8 22q16 23 31 23q63 -15 63 -150l-2 -159q0 -259 -2 -492q-2 -236 -2 -473l2 -98v-10q-3 -78 -12 -115t-45 -37q-31 10 -33 20q-7 11 -10 62z" />
<glyph unicode="&#xcf;" horiz-adv-x="219" d="M-43 1651q0 19 10 39q10 17 31 26h6h6q47 0 47 -55v-10q-9 -76 -55 -76q-37 0 -43 49v2v8q-2 6 -2 17zM31 82v127v362q0 383 6 580q1 58 2 111.5t1.5 79t0.5 30.5q0 36 -4 82l-4 35q0 9 8 22q16 23 31 23q63 -15 63 -150l-2 -159q0 -259 -2 -492q-2 -236 -2 -473l2 -98 v-10q-3 -78 -12 -115t-45 -37q-31 10 -33 20q-7 11 -10 62zM86 1624v2v16q0 78 45 78q32 0 41 -12q12 -12 12 -39v-10v-8q-9 -76 -55 -76q-37 0 -43 49z" />
<glyph unicode="&#xd0;" horiz-adv-x="573" d="M-63 817l2 2v6q0 4 2 6t2 9q4 0 4 6q2 1 4.5 3.5t3.5 2.5q1 2 4.5 4t5.5 4q3 0 15 4l16 4q4 2 18 2q-1 70 -2 145.5t-1.5 115.5t-0.5 57q0 170 6 262q9 83 13 100q8 15 18 23h10h2q2 2 13 2q42 0 180 -23q123 -21 172 -63q70 -58 70 -295v-18v-154q0 -8 0.5 -28.5 t1.5 -60t2 -77.5q4 -180 4 -223q0 -387 -64 -500q-50 -89 -184 -113q-73 -12 -178 -20q-2 -2 -10 -2q-27 0 -33 37q-4 29 -13 354q-6 331 -6 389q-77 0 -77 39zM102 1137q0 -207 2 -260l50 2q85 10 110 10q19 0 23 -4q8 -4 8 -13q5 -10 14 -16q0 -17 -6 -29t-12 -18 q-11 -7 -25 -10q-24 -4 -30 -4q-4 -1 -9.5 -1.5t-14 -1t-15.5 -1.5q-26 0 -41 -3l-50 -4q9 -464 21 -698q43 3 119 33q77 30 100 53v2q57 57 57 502v20q0 25 -1 114t-1 153q-4 111 -4 223v76q1 8 1.5 17.5t1 15.5t1.5 10v14v14q0 62 -47 115q-15 18 -92 39q-69 17 -147 20 q-13 -63 -13 -370z" />
<glyph unicode="&#xd1;" horiz-adv-x="538" d="M23 66v6q0 13 6 96q6 51 16 299q8 196 8 563q0 86 -8 270q-10 115 -10 152q0 61 33 61q23 -3 32 -18q41 -50 105 -274q67 -222 82 -373q11 -94 71 -420q-10 257 -10 432v133v142q2 61 2 127q0 40 -2 71v64q0 114 47 114q1 -1 11 -4q8 0 12 -4q6 -6 12 -18q8 -16 8 -41 q4 -18 4 -74v-145q-2 -78 -2 -205q0 -304 11 -569q2 -82 4 -158.5t3 -113.5t1 -44q0 -80 -10 -110q-9 -31 -39 -31q-5 0 -9 2l-8 4q-4 0 -6 2q-1 1 -2.5 2t-2.5 2t-1 2l-8 12q-1 2 -4 9t-4 12l-4 9q-4 10 -5 16q-36 128 -65 270q-37 157 -37 194q0 28 -18 105 q-21 95 -29 164q-13 112 -60 323q3 -44 3 -182q0 -205 -11 -559q-12 -286 -33 -332l-4 -6q-4 -8 -8 -10q0 -4 -8 -8q-1 -1 -4.5 -4t-5.5 -5q-2 0 -7 -1t-8 -1h-10q-28 12 -28 52zM29 1636q0 22 18 60q68 45 96 45q30 0 119 -74q11 5 23 25q17 21 20 32q9 25 37 25 q19 0 35 -16q14 -14 14 -37q0 -30 -39 -78q-44 -47 -90 -47q-41 0 -82 41q-9 9 -21 20t-14 13l-49 -43q-14 -7 -26 -7q-41 0 -41 41z" />
<glyph unicode="&#xd2;" horiz-adv-x="532" d="M16 641q0 203 37 391q35 195 68 283q41 103 51 117l33 55l8 10q8 12 10 14q2 5 15 13q12 4 20 4q61 -9 111 -98q42 -86 96 -293q18 -73 18 -516q0 -252 -10 -379q-9 -113 -31 -156q-23 -41 -75 -66q-63 -38 -129 -38q-98 0 -127 75q-22 52 -62 260q-33 213 -33 324z M102 1778q0 45 48 45q19 0 40 -21l35 -53q76 -107 76 -137q0 -19 -12 -31t-31 -12q-25 0 -49 24l-103 160q-4 12 -4 25zM113 684q0 -6 1 -22t1 -27q6 -23 12 -103q6 -38 18 -180q18 -219 76 -256q11 -8 35 -8q70 0 88 27q32 43 35 311v133v350q0 197 -14 252 q-56 240 -107 240q-37 0 -78 -152q-42 -160 -51 -309l-8 -125q-3 -61 -6 -88q-2 -18 -2 -43z" />
<glyph unicode="&#xd3;" horiz-adv-x="532" d="M16 641q0 203 37 391q35 195 68 283q41 103 51 117l33 55l8 10q8 12 10 14q2 5 15 13q12 4 20 4q61 -9 111 -98q42 -86 96 -293q18 -73 18 -516q0 -252 -10 -379q-9 -113 -31 -156q-23 -41 -75 -66q-63 -38 -129 -38q-98 0 -127 75q-22 52 -62 260q-33 213 -33 324z M113 684q0 -6 1 -22t1 -27q6 -23 12 -103q6 -38 18 -180q18 -219 76 -256q11 -8 35 -8q70 0 88 27q32 43 35 311v133v350q0 197 -14 252q-56 240 -107 240q-37 0 -78 -152q-42 -160 -51 -309l-8 -125q-3 -61 -6 -88q-2 -18 -2 -43zM215 1614q0 6 2 8v6q6 25 74 121l35 53 q21 21 41 21q47 0 47 -45q0 -9 -4 -25l-103 -160q-24 -24 -49 -24q-43 0 -43 45z" />
<glyph unicode="&#xd4;" horiz-adv-x="532" d="M16 641q0 203 37 391q35 195 68 283q41 103 51 117l33 55l8 10q8 12 10 14q2 5 15 13q12 4 20 4q61 -9 111 -98q42 -86 96 -293q18 -73 18 -516q0 -252 -10 -379q-9 -113 -31 -156q-23 -41 -75 -66q-63 -38 -129 -38q-98 0 -127 75q-22 52 -62 260q-33 213 -33 324z M104 1610q0 14 2 18q6 25 74 121l35 53q21 21 41 21q18 0 39 -21l37 -53l22 -31q17 -24 23 -30l16 -27q13 -22 13 -27q4 -8 4 -22q0 -18 -13 -31q-12 -12 -30 -12q-26 0 -50 24l-61 97l-61 -97q-24 -24 -50 -24q-41 0 -41 41zM113 684q0 -6 1 -22t1 -27q6 -23 12 -103 q6 -38 18 -180q18 -219 76 -256q11 -8 35 -8q70 0 88 27q32 43 35 311v133v350q0 197 -14 252q-56 240 -107 240q-37 0 -78 -152q-42 -160 -51 -309l-8 -125q-3 -61 -6 -88q-2 -18 -2 -43z" />
<glyph unicode="&#xd5;" horiz-adv-x="532" d="M16 641q0 203 37 391q35 195 68 283q41 103 51 117l33 55l8 10q8 12 10 14q2 5 15 13q12 4 20 4q61 -9 111 -98q42 -86 96 -293q18 -73 18 -516q0 -252 -10 -379q-9 -113 -31 -156q-23 -41 -75 -66q-63 -38 -129 -38q-98 0 -127 75q-22 52 -62 260q-33 213 -33 324z M76 1634q0 22 18 60q68 45 96 45q30 0 119 -74q7 3 23 23q19 31 20 34q9 25 37 25q19 0 33 -14q16 -16 16 -39q0 -34 -41 -78q-38 -47 -88 -47q-41 0 -82 41q-9 9 -20.5 19.5t-13.5 12.5l-50 -43q-12 -6 -26 -6q-41 0 -41 41zM113 684q0 -6 1 -22t1 -27q6 -23 12 -103 q6 -38 18 -180q18 -219 76 -256q11 -8 35 -8q70 0 88 27q32 43 35 311v133v350q0 197 -14 252q-56 240 -107 240q-37 0 -78 -152q-42 -160 -51 -309l-8 -125q-3 -61 -6 -88q-2 -18 -2 -43z" />
<glyph unicode="&#xd6;" horiz-adv-x="532" d="M16 641q0 203 37 391q35 195 68 283q41 103 51 117l33 55l8 10q8 12 10 14q2 5 15 13q12 4 20 4q61 -9 111 -98q42 -86 96 -293q18 -73 18 -516q0 -252 -10 -379q-9 -113 -31 -156q-23 -41 -75 -66q-63 -38 -129 -38q-98 0 -127 75q-22 52 -62 260q-33 213 -33 324z M113 684q0 -6 1 -22t1 -27q6 -23 12 -103q6 -38 18 -180q18 -219 76 -256q11 -8 35 -8q70 0 88 27q32 43 35 311v133v350q0 197 -14 252q-56 240 -107 240q-37 0 -78 -152q-42 -160 -51 -309l-8 -125q-3 -61 -6 -88q-2 -18 -2 -43zM143 1630v15q0 16 11 38q11 19 30 27h6h7 q47 0 47 -55v-10q-9 -76 -56 -76q-37 0 -43 49v2q0 4 -2 10zM272 1618v2v16q0 78 45 78q31 0 43 -12q11 -15 11 -39v-10v-8q-9 -76 -56 -76q-37 0 -43 49z" />
<glyph unicode="&#xd7;" horiz-adv-x="673" d="M-29 532q3 15 9 27t18 27q8 10 18 20l25 25l25 22l51 62l-109 110q-37 40 -37 72q0 15 13 31q14 14 30 14q39 -6 66 -41l110 -119l107 121q33 39 68 39q43 0 43 -47q0 -11 -7 -29q-6 -11 -30 -41l-105 -108l53 -58q86 -86 89 -127v-4q0 -39 -37 -39q-45 0 -127 99l-54 53 l-55 -55q-101 -88 -131 -88q-3 0 -16 16q-17 14 -17 18z" />
<glyph unicode="&#xd8;" horiz-adv-x="567" d="M16 37q0 13 7 41l55 201q-41 228 -41 362q0 203 37 391q36 200 67 283q40 99 52 117l32 55l8 10q6 9 11 14q3 5 14 13q12 4 21 4q71 -9 124 -129l41 131q20 20 29 20h6q1 0 3.5 -1t4.5 -1q2 -2 5 -3.5t4 -2.5t3.5 -2.5t4.5 -3.5l6 -6q1 -1 2 -4.5t2 -5.5q2 -4 2 -17 q2 -4 2 -18q0 -46 -20 -113q-21 -68 -21 -69v-5l-18 -63l26 -98q19 -78 19 -516q0 -252 -10 -379q-9 -113 -31 -156q-22 -40 -76 -66q-63 -38 -129 -38q-98 0 -133 96q-11 -40 -14 -49q-2 -11 -17 -33q-18 -14 -33 -14q-6 0 -12 2q-9 0 -20 14q-13 16 -13 39zM133 655 q0 -16 12 -139l160 586l47 160q-48 154 -73 186q-35 -50 -78 -221q-42 -165 -51 -316l-9 -125q-3 -61 -6 -88q-2 -18 -2 -43zM174 272q24 -149 68 -176q11 -8 34 -8q51 0 107 29q16 226 16 792q0 129 -2 154z" />
<glyph unicode="&#xd9;" horiz-adv-x="538" d="M33 1182q0 240 4 276q0 18 16 31q15 12 33 12l12 -6q3 -1 13 -6l4 -16q20 -109 20 -916q0 -233 2 -274q2 -37 2 -115v-35v-14q25 -18 82 -29q65 -12 111 -12h10q4 2 10 2q17 139 17 842q0 201 -4 233v51v154q0 151 45 151h4q29 -3 41 -45q12 -40 12 -166v-73 q-9 -236 -21 -1004q-1 -5 -1.5 -13t-1 -21t-1.5 -23v-64q-4 -27 -14 -45q-11 -22 -35 -32q-44 -23 -135 -23q-101 0 -160 27q-54 31 -57 61q-8 76 -8 1092zM123 1729q0 45 45 45q26 0 41 -21l37 -53q73 -110 73 -137q0 -43 -40 -43q-26 0 -50 24l-102 160q-4 12 -4 25z" />
<glyph unicode="&#xda;" horiz-adv-x="538" d="M33 1182q0 240 4 276q0 18 16 31q15 12 33 12l12 -6q3 -1 13 -6l4 -16q20 -109 20 -916q0 -233 2 -274q2 -37 2 -115v-35v-14q25 -18 82 -29q65 -12 111 -12h10q4 2 10 2q17 139 17 842q0 201 -4 233v51v154q0 151 45 151h4q29 -3 41 -45q12 -40 12 -166v-73 q-9 -236 -21 -1004q-1 -5 -1.5 -13t-1 -21t-1.5 -23v-64q-4 -27 -14 -45q-11 -22 -35 -32q-44 -23 -135 -23q-101 0 -160 27q-54 31 -57 61q-8 76 -8 1092zM229 1614v14q2 8 21 43q5 8 16.5 24.5t16.5 24.5q5 7 9.5 14t7 10.5t3.5 4.5l37 53q21 21 41 21q45 0 45 -45 q0 -9 -4 -25l-103 -160q-21 -24 -49 -24q-41 0 -41 45zM356 111h4h-4z" />
<glyph unicode="&#xdb;" horiz-adv-x="538" d="M33 1182q0 240 4 276q0 18 16 31q15 12 33 12l12 -6q3 -1 13 -6l4 -16q20 -109 20 -916q0 -233 2 -274q2 -37 2 -115v-35v-14q25 -18 82 -29q65 -12 111 -12h10q4 2 10 2q17 139 17 842q0 201 -4 233v51v154q0 151 45 151h4q29 -3 41 -45q12 -40 12 -166v-73 q-9 -236 -21 -1004q-1 -5 -1.5 -13t-1 -21t-1.5 -23v-64q-4 -27 -14 -45q-11 -22 -35 -32q-44 -23 -135 -23q-101 0 -160 27q-54 31 -57 61q-8 76 -8 1092zM94 1610q0 10 4 18q12 47 74 121l33 53q21 21 41 21q17 0 41 -21l37 -53q2 -3 10.5 -15.5t15.5 -21.5q24 -36 27 -41 t8.5 -15t7.5 -14q8 -16 8 -30q0 -19 -12 -31q-15 -12 -33 -12q-25 0 -49 24l-61 97l-62 -97q-21 -24 -49 -24q-41 0 -41 41zM356 111h4h-4z" />
<glyph unicode="&#xdc;" horiz-adv-x="538" d="M33 1182q0 240 4 276q0 18 16 31q15 12 33 12l12 -6q3 -1 13 -6l4 -16q20 -109 20 -916q0 -233 2 -274q2 -37 2 -115v-35v-14q25 -18 82 -29q65 -12 111 -12h10q4 2 10 2q17 139 17 842q0 201 -4 233v51v154q0 151 45 151h4q29 -3 41 -45q12 -40 12 -166v-73 q-9 -236 -21 -1004q-1 -5 -1.5 -13t-1 -21t-1.5 -23v-64q-4 -27 -14 -45q-11 -22 -35 -32q-44 -23 -135 -23q-101 0 -160 27q-54 31 -57 61q-8 76 -8 1092zM135 1618v2v25q0 25 8 38q9 15 33 27h4h8q45 0 45 -55v-10q-3 -76 -53 -76q-10 0 -16 4q-2 0 -5.5 2t-4.5 2 q-1 1 -4.5 5t-4.5 7q-4 8 -6 8q0 7 -2 13zM262 1618v2v16q0 78 45 78q33 0 43 -10q10 -13 10 -41v-10v-8q-3 -76 -53 -76q-10 0 -16 4q-2 0 -5.5 2t-4.5 2q-1 1 -4.5 5t-4.5 7q-4 8 -6 8q0 7 -2 13zM356 111h4h-4z" />
<glyph unicode="&#xdd;" horiz-adv-x="393" d="M4 1499q0 51 41 51q4 0 6 -2h6q8 -4 9 -4q2 -2 5.5 -4.5t4.5 -3.5q6 -6 10 -12q8 -11 10 -21l80 -563q5 -30 10 -45q13 56 35 233q17 164 53 345l7 26q15 111 53 111q4 -4 14 -4q3 -2 9 -4.5t8 -4.5q5 0 8 -16q6 -12 6 -37q0 -3 -0.5 -9.5t-1.5 -18.5t-2 -23 q-51 -314 -53 -342q-13 -100 -46 -258q-32 -152 -32 -248q0 -70 -2 -84q4 -36 4 -67q0 -5 -0.5 -20.5t-1.5 -46t-2 -60.5q-6 -108 -6 -205v-45q-3 -154 -56 -154h-2q-51 3 -51 123q0 56 10 258t10 203q0 80 -16 186q-12 78 -41 193q-27 117 -27 118l-30 226 q-8 65 -15.5 122.5t-10.5 81.5t-3 25zM131 1696v8q2 2 2 6q6 25 74 121l35 53q21 21 41 21q47 0 47 -45q0 -9 -4 -25l-103 -160q-24 -24 -49 -24q-43 0 -43 45z" />
<glyph unicode="&#xde;" horiz-adv-x="454" d="M20 428q0 73 13 393q12 295 12 649v37q-2 14 -2 33q0 59 55 59h11h4q5 -1 10 -2.5t8 -2.5t4 -1q8 -8 8 -12q4 -8 4 -35v-26q0 -50 5 -99q0 -22 1 -50.5t1 -33.5v-39q63 -11 120 -28q38 -11 84 -39q32 -19 52 -43q17 -20 26 -58q6 -23 10 -63q3 -27 3 -78q0 -6 2 -14v-23 q0 -52 -9 -104q-11 -61 -28 -103q-17 -49 -31 -81q-9 -20 -41 -86l-35 -72v4q-2 2 -2 4q-33 -64 -72 -117q-43 -72 -71 -94q-12 -12 -33 -24q-2 -59 -2 -205q-3 -124 -4 -127q-3 -22 -14 -27h-3q-16 -4 -24 -4q-18 0 -35 10q-16 22 -16 64l-2 10v16q0 74 -4 230q-1 28 -3 93 t-2 89zM131 406q41 53 70 104q30 45 51 86q24 46 35 80q19 46 24 61q10 26 17 58q10 41 12 43v10q1 3 2 11.5t2 12.5v37v43q2 16 2 47q0 116 -16 138q-20 24 -62 41q-44 18 -73 24q-30 6 -37 6q-11 -159 -15 -202q0 -120 -6 -338t-6 -262z" />
<glyph unicode="&#xdf;" horiz-adv-x="600" d="M14 203q0 194 4 506q1 69 2.5 138.5t3.5 133.5t3 92q1 37 2 75.5t1.5 58.5t0.5 28q0 168 51 248q52 82 188 82h4q248 0 248 -193q0 -184 -8 -217q-9 -39 -61 -88l-19 -18q-45 -39 -45 -70q0 -17 14 -23q3 -3 19 -6q26 -9 35 -14q35 -21 39 -23q27 -27 36 -45 q19 -25 31 -63q4 -12 4 -21v-100v-266q0 -41 2 -64t2 -170q0 -191 -260 -194h-12q-55 0 -76 6q-24 10 -47 33q-6 15 -6 28q0 41 55 41q4 0 11 -0.5t20.5 -1.5t24.5 -2q58 -4 69 -4q54 0 84 41q35 38 35 78v12v17q-8 156 -8 364l2 154q0 44 -29 73t-65 35q-41 14 -64 37 q-29 26 -29 70q0 73 66 139q19 19 31 29q14 10 24 20q10 20 13 27q4 15 8 49v86q0 93 -25 121q-22 25 -108 28h-39q-42 0 -66 -12q-21 -18 -33 -74q-14 -55 -14 -180q0 -258 -2 -483q-2 -221 -2 -459v-112q-3 -160 -59 -160h-2q-49 3 -52 86z" />
<glyph unicode="&#xe0;" d="M0 47v2l166 1409q18 62 57 62q15 0 31 -13q14 -11 14 -30q4 -67 54 -375l40 -260l15 -72l22 -123q11 -56 29 -172l23 -147l20 -111l12 -78q2 -11 6 -28t5 -21q4 -21 6 -31q1 -3 2 -9.5t2 -8.5q2 -2 2 -8v-10q-7 -7 -14 -19q-14 -14 -35 -14h-8q-38 3 -52 71 q-6 36 -20 140q-9 72 -33 75q-2 0 -8 3h-8q-2 0 -7 -1t-17.5 -2.5t-22.5 -3.5q-29 -4 -101 -8l-53 -2l-8 -65q-2 -15 -5 -35.5t-3 -22.5q-7 -39 -7 -43q-3 -23 -10 -37q-2 -8 -10 -24q-7 -15 -14 -17q-12 -4 -21 -4q-2 0 -22 4q-27 9 -27 29zM68 1774q0 45 47 45 q20 0 41 -21l34 -53q76 -107 76 -137q0 -19 -12 -31t-31 -12q-25 0 -49 24l-102 160q-4 12 -4 25zM131 350h8q79 0 205 33q-74 414 -121 758q0 -1 -35 -322q-35 -326 -55 -442q-2 -6 -2 -23v-4z" />
<glyph unicode="&#xe1;" d="M0 47v2l166 1409q18 62 57 62q15 0 31 -13q14 -11 14 -30q4 -67 54 -375l40 -260l15 -72l22 -123q11 -56 29 -172l23 -147l20 -111l12 -78q2 -11 6 -28t5 -21q4 -21 6 -31q1 -3 2 -9.5t2 -8.5q2 -2 2 -8v-10q-7 -7 -14 -19q-14 -14 -35 -14h-8q-38 3 -52 71 q-6 36 -20 140q-9 72 -33 75q-2 0 -8 3h-8q-2 0 -7 -1t-17.5 -2.5t-22.5 -3.5q-29 -4 -101 -8l-53 -2l-8 -65q-2 -15 -5 -35.5t-3 -22.5q-7 -39 -7 -43q-3 -23 -10 -37q-2 -8 -10 -24q-7 -15 -14 -17q-12 -4 -21 -4q-2 0 -22 4q-27 9 -27 29zM131 350h8q79 0 205 33 q-74 414 -121 758q0 -1 -35 -322q-35 -326 -55 -442q-2 -6 -2 -23v-4zM180 1610v8q2 2 2 6q6 25 74 121l35 53q21 21 41 21q47 0 47 -45q0 -9 -4 -25l-103 -160q-24 -24 -49 -24q-43 0 -43 45z" />
<glyph unicode="&#xe2;" d="M0 47v2l166 1409q18 62 57 62q15 0 31 -13q14 -11 14 -30q4 -67 54 -375l40 -260l15 -72l22 -123q11 -56 29 -172l23 -147l20 -111l12 -78q2 -11 6 -28t5 -21q4 -21 6 -31q1 -3 2 -9.5t2 -8.5q2 -2 2 -8v-10q-7 -7 -14 -19q-14 -14 -35 -14h-8q-38 3 -52 71 q-6 36 -20 140q-9 72 -33 75q-2 0 -8 3h-8q-2 0 -7 -1t-17.5 -2.5t-22.5 -3.5q-29 -4 -101 -8l-53 -2l-8 -65q-2 -15 -5 -35.5t-3 -22.5q-7 -39 -7 -43q-3 -23 -10 -37q-2 -8 -10 -24q-7 -15 -14 -17q-12 -4 -21 -4q-2 0 -22 4q-27 9 -27 29zM70 1606q0 10 4 18 q13 49 73 121l33 53q21 21 41 21q17 0 41 -21l37 -53q2 -3 11 -15.5t16 -21.5q14 -21 26 -41q4 -5 10 -16t7 -13q8 -16 8 -30q0 -19 -12 -31q-15 -12 -33 -12q-25 0 -49 24l-62 97l-61 -97q-21 -24 -49 -24q-41 0 -41 41zM131 350h8q79 0 205 33q-74 414 -121 758 q0 -1 -35 -322q-35 -326 -55 -442q-2 -6 -2 -23v-4z" />
<glyph unicode="&#xe3;" d="M0 47v2l166 1409q18 62 57 62q15 0 31 -13q14 -11 14 -30q4 -67 54 -375l40 -260l15 -72l22 -123q11 -56 29 -172l23 -147l20 -111l12 -78q2 -11 6 -28t5 -21q4 -21 6 -31q1 -3 2 -9.5t2 -8.5q2 -2 2 -8v-10q-7 -7 -14 -19q-14 -14 -35 -14h-8q-38 3 -52 71 q-6 36 -20 140q-9 72 -33 75q-2 0 -8 3h-8q-2 0 -7 -1t-17.5 -2.5t-22.5 -3.5q-29 -4 -101 -8l-53 -2l-8 -65q-2 -15 -5 -35.5t-3 -22.5q-7 -39 -7 -43q-3 -23 -10 -37q-2 -8 -10 -24q-7 -15 -14 -17q-12 -4 -21 -4q-2 0 -22 4q-27 9 -27 29zM41 1630q0 21 20 60 q68 45 95 45q29 0 118 -74q14 3 45 57q0 3 9 17q11 8 28 8q16 0 33 -14q17 -20 17 -39q0 -31 -41 -78t-91 -47q-40 0 -81 41l-33 32l-49 -43q-12 -6 -29 -6q-16 0 -29 13q-12 9 -12 28zM131 350h8q79 0 205 33q-74 414 -121 758q0 -1 -35 -322q-35 -326 -55 -442 q-2 -6 -2 -23v-4z" />
<glyph unicode="&#xe4;" d="M0 47v2l166 1409q18 62 57 62q15 0 31 -13q14 -11 14 -30q4 -67 54 -375l40 -260l15 -72l22 -123q11 -56 29 -172l23 -147l20 -111l12 -78q2 -11 6 -28t5 -21q4 -21 6 -31q1 -3 2 -9.5t2 -8.5q2 -2 2 -8v-10q-7 -7 -14 -19q-14 -14 -35 -14h-8q-38 3 -52 71 q-6 36 -20 140q-9 72 -33 75q-2 0 -8 3h-8q-2 0 -7 -1t-17.5 -2.5t-22.5 -3.5q-29 -4 -101 -8l-53 -2l-8 -65q-2 -15 -5 -35.5t-3 -22.5q-7 -39 -7 -43q-3 -23 -10 -37q-2 -8 -10 -24q-7 -15 -14 -17q-12 -4 -21 -4q-2 0 -22 4q-27 9 -27 29zM111 1614v2v24q0 26 8 39 q9 15 33 27h4h8q45 0 45 -55v-11q-3 -75 -53 -75q-11 0 -17 4q-2 0 -5.5 2t-4.5 2q-1 1 -4 5t-4 7q-4 8 -6 8q0 7 -2 13zM131 350h8q79 0 205 33q-74 414 -121 758q0 -1 -35 -322q-35 -326 -55 -442q-2 -6 -2 -23v-4zM238 1614v2v16q0 78 45 78q33 0 43 -10q10 -13 10 -41 v-10v-9q-3 -75 -53 -75q-11 0 -17 4q-2 0 -5.5 2t-4.5 2q-1 1 -4 5t-4 7q-4 8 -6 8q0 7 -2 13z" />
<glyph unicode="&#xe5;" d="M0 47v2l166 1409q18 62 57 62q15 0 31 -13q14 -11 14 -30q4 -67 54 -375l40 -260l15 -72l22 -123q11 -56 29 -172l23 -147l20 -111l12 -78q2 -11 6 -28t5 -21q4 -21 6 -31q1 -3 2 -9.5t2 -8.5q2 -2 2 -8v-10q-7 -7 -14 -19q-14 -14 -35 -14h-8q-38 3 -52 71 q-6 36 -20 140q-9 72 -33 75q-2 0 -8 3h-8q-2 0 -7 -1t-17.5 -2.5t-22.5 -3.5q-29 -4 -101 -8l-53 -2l-8 -65q-2 -15 -5 -35.5t-3 -22.5q-7 -39 -7 -43q-3 -23 -10 -37q-2 -8 -10 -24q-7 -15 -14 -17q-12 -4 -21 -4q-2 0 -22 4q-27 9 -27 29zM94 1690v32v4q6 45 39 68 q38 27 57 29q32 4 48 4q114 0 114 -119v-4q0 -57 -20 -90l-8 -19q-34 -61 -99 -61h-8q-84 0 -102 27q-21 24 -21 129zM131 350h8q79 0 205 33q-74 414 -121 758q0 -1 -35 -322q-35 -326 -55 -442q-2 -6 -2 -23v-4zM188 1632q6 -2 25 -2q25 0 25 8q16 37 16 68v6v6v8 q0 3 -2 5t-6 2h-13l-24 -4q-16 -6 -16 -21v-18q0 -17 -3 -35q-2 -12 -2 -21v-2z" />
<glyph unicode="&#xe6;" horiz-adv-x="808" d="M-8 59v23q3 16 6 53q1 11 4 40.5t4 47.5l19 228q24 276 45 475q20 220 28 266q2 24 7 59.5t6 48.5q4 54 4 72q5 42 16 86q11 52 25 76q13 22 30 22q18 0 33 -18q20 -28 27 -51q13 -36 24 -86q3 -20 10 -57t9 -46l22 -139l27 -162q0 133 -2 213t-2 154q0 107 10 141 q6 39 33 39l10 -2q37 0 139 -10q66 -4 97 -8q19 0 43 -1t30 -1q19 0 47 -4q21 -3 31 -13q6 -9 6 -24q-3 -28 -16 -41t-51 -13q-3 0 -15 1t-37.5 2.5t-50.5 3.5q-43 2 -180 6v-54q0 -97 2 -165q5 -157 6 -172v-26.5t0.5 -21t1 -15t0.5 -10.5v-3v-92h72q27 2 55 2 q101 0 101 -33q0 -35 -54 -47q-58 -14 -172 -17q-6 -50 -6 -131q0 -181 19 -444l8 -100h121q86 0 143 -11q45 -9 45 -43l-2 -4q0 -8 -2 -12q0 -1 -2 -4t-4 -4q0 -5 -8 -13q-3 -1 -9.5 -3t-9.5 -3q-55 -18 -274 -18h-33q-5 1 -14 2t-13 2q-12 4 -18 8t-14 12q-8 16 -9 21 q-4 16 -6 22q-1 3 -2 14.5t-2 16.5q-2 16 -2 39q-1 6 -2 22.5t-2 24.5q0 42 -2 58q-12 177 -16 190q-78 -10 -148 -10h-63l-9 -142q-11 -145 -22 -221q-9 -41 -47 -41q-45 0 -45 45zM119 494h57q48 0 68 2q8 1 24.5 2t22.5 2q12 2 22 2q0 8 -16 96q-31 171 -45 266 q-32 215 -55 412q-26 -199 -29 -246q-3 -18 -12 -112q0 -8 -1.5 -27t-3.5 -51t-4 -62q-4 -38 -13 -134t-15 -150z" />
<glyph unicode="&#xe7;" horiz-adv-x="485" d="M33 795v354q0 401 205 401q89 0 139 -80q53 -79 53 -159q0 -17 -4 -29q-3 -25 -33 -35h-4q-28 6 -37 25q-8 12 -22 61q-11 38 -39 84q-22 31 -58 31q-94 0 -94 -266l-4 -879q0 -156 17 -184q13 -29 94 -29q17 10 41 74q30 93 41 135q19 71 20 72q0 6 4 14l4 25 q1 2 5.5 9.5l7.5 12.5q5 10 16 21q8 8 25 8h12q33 0 33 -27q0 -4 -2 -6t-2 -6q-7 -17 -29 -135q-22 -120 -57 -197q-41 -83 -107 -104v-6v-9q82 -3 113 -28q30 -30 30 -84q0 -17 -2 -31t-2 -31v-8q0 -59 -20 -76q-15 -21 -98 -30h-17q-8 0 -20 1t-17 1q-6 2 -30 8 q-15 4 -23 12q-8 4 -20 12q-5 5 -13 17t-8 16q-1 0 -6 17l-2 16l-4 12v10v5q0 21 12 36q15 15 37 15q10 0 16 -2q12 -3 27 -15q14 -11 14 -32v-13q0 -6 -2 -12q-3 -5 0 -8q7 0 13 -4q2 0 12 -1t18 -1h4h9q4 0 8 2q8 4 8 6q3 1 6 14q2 4 2 23v41q0 14 -2 16t-18 2h-29h-25 q-14 0 -30 4q-14 4 -23 21q-8 11 -12 43v14q0 6 2 12t2 13q-60 15 -98 65q-30 49 -33 193v84q0 151 -2 206t-2 263z" />
<glyph unicode="&#xe8;" horiz-adv-x="436" d="M14 1520q0 6 2 12q4 8 17 16q16 13 39 13q20 0 96 -9q45 -5 131 -10q98 -3 98 -55q0 -47 -78 -47q-42 0 -102 8q-65 8 -84 8v-29q0 -295 19 -548q16 0 43 -2q50 -4 59 -5q4 -1 13 -2t18 -2.5t18 -3.5q26 -6 43 -16q14 -11 14 -31l-2 -6q-4 -11 -6 -12q0 -5 -8 -13 q-12 -8 -25 -10q-16 -4 -34 -4q-46 0 -131 14v-16q4 -54 4 -68q0 -51 -2 -84q-4 -74 -4 -151q-2 -26 -7 -184l-4 -181l72 -4q110 -9 156 -20q51 -15 51 -49q0 -1 -1 -4t-1 -7q-4 -6 -4 -10q-4 -4 -6 -8q-2 -3 -11 -8q-10 0 -16 -2t-25 -2q-16 0 -104 6q-58 4 -178 8 q-2 2 -17 14l-14 15v30v35q6 153 6 637q0 664 -22 760q-13 13 -13 27zM43 1808q0 45 47 45q21 0 41 -20l35 -53q76 -107 76 -138q0 -17 -13 -30t-30 -13q-24 0 -49 25l-103 160q-4 12 -4 24z" />
<glyph unicode="&#xe9;" horiz-adv-x="436" d="M14 1520q0 6 2 12q4 8 17 16q16 13 39 13q20 0 96 -9q45 -5 131 -10q98 -3 98 -55q0 -47 -78 -47q-42 0 -102 8q-65 8 -84 8v-29q0 -295 19 -548q16 0 43 -2q50 -4 59 -5q4 -1 13 -2t18 -2.5t18 -3.5q26 -6 43 -16q14 -11 14 -31l-2 -6q-4 -11 -6 -12q0 -5 -8 -13 q-12 -8 -25 -10q-16 -4 -34 -4q-46 0 -131 14v-16q4 -54 4 -68q0 -51 -2 -84q-4 -74 -4 -151q-2 -26 -7 -184l-4 -181l72 -4q110 -9 156 -20q51 -15 51 -49q0 -1 -1 -4t-1 -7q-4 -6 -4 -10q-4 -4 -6 -8q-2 -3 -11 -8q-10 0 -16 -2t-25 -2q-16 0 -104 6q-58 4 -178 8 q-2 2 -17 14l-14 15v30v35q6 153 6 637q0 664 -22 760q-13 13 -13 27zM121 1647q0 6 2 8v6q6 25 74 121l34 53q20 20 41 20q47 0 47 -45q0 -8 -4 -24l-102 -160q-24 -24 -49 -24q-43 0 -43 45z" />
<glyph unicode="&#xea;" horiz-adv-x="436" d="M14 1520q0 6 2 12q4 8 17 16q16 13 39 13q20 0 96 -9q45 -5 131 -10q98 -3 98 -55q0 -47 -78 -47q-42 0 -102 8q-65 8 -84 8v-29q0 -295 19 -548q16 0 43 -2q50 -4 59 -5q4 -1 13 -2t18 -2.5t18 -3.5q26 -6 43 -16q14 -11 14 -31l-2 -6q-4 -11 -6 -12q0 -5 -8 -13 q-12 -8 -25 -10q-16 -4 -34 -4q-46 0 -131 14v-16q4 -54 4 -68q0 -51 -2 -84q-4 -74 -4 -151q-2 -26 -7 -184l-4 -181l72 -4q110 -9 156 -20q51 -15 51 -49q0 -1 -1 -4t-1 -7q-4 -6 -4 -10q-4 -4 -6 -8q-2 -3 -11 -8q-10 0 -16 -2t-25 -2q-16 0 -104 6q-58 4 -178 8 q-2 2 -17 14l-14 15v30v35q6 153 6 637q0 664 -22 760q-13 13 -13 27zM31 1642q0 15 2 19q6 27 73 121l35 53q20 20 41 20q19 0 39 -20l37 -53l23 -31q4 -5 9 -12.5l8 -12t5 -6.5l16 -26q13 -22 13 -27q4 -8 4 -22q0 -19 -12 -31t-31 -12q-25 0 -49 24l-62 96l-61 -96 q-24 -24 -49 -24q-41 0 -41 40z" />
<glyph unicode="&#xeb;" horiz-adv-x="436" d="M14 1520q0 6 2 12q4 8 17 16q16 13 39 13q20 0 96 -9q45 -5 131 -10q98 -3 98 -55q0 -47 -78 -47q-42 0 -102 8q-65 8 -84 8v-29q0 -295 19 -548q16 0 43 -2q50 -4 59 -5q4 -1 13 -2t18 -2.5t18 -3.5q26 -6 43 -16q14 -11 14 -31l-2 -6q-4 -11 -6 -12q0 -5 -8 -13 q-12 -8 -25 -10q-16 -4 -34 -4q-46 0 -131 14v-16q4 -54 4 -68q0 -51 -2 -84q-4 -74 -4 -151q-2 -26 -7 -184l-4 -181l72 -4q110 -9 156 -20q51 -15 51 -49q0 -1 -1 -4t-1 -7q-4 -6 -4 -10q-4 -4 -6 -8q-2 -3 -11 -8q-10 0 -16 -2t-25 -2q-16 0 -104 6q-58 4 -178 8 q-2 2 -17 14l-14 15v30v35q6 153 6 637q0 664 -22 760q-13 13 -13 27zM86 1663v14q0 19 10 39q11 18 31 27h6h6q47 0 47 -55v-11q-9 -75 -55 -75q-37 0 -43 49v2q0 4 -2 10zM215 1651v2v16q0 78 45 78q31 0 43 -12q10 -13 10 -39v-10v-9q-9 -75 -55 -75q-37 0 -43 49z" />
<glyph unicode="&#xec;" horiz-adv-x="204" d="M-76 1802q0 45 47 45q21 0 41 -20l35 -53q76 -107 76 -138q0 -18 -12 -30q-13 -13 -31 -13q-24 0 -49 25l-103 160q-4 12 -4 24zM12 238q0 195 17 540q16 325 16 416q0 119 -2 166q-4 93 -6 106q0 9 -0.5 17.5t-1 14.5t-0.5 7q0 14 10 21q16 28 45 28h10q14 -5 19 -8 q8 -5 12 -14q8 -16 8 -21q4 -6 4 -26q1 -5 2 -15.5t2 -15.5v-37q0 -25 3 -43q0 -86 2 -104q2 -16 2 -49q0 -43 -19 -371q-20 -296 -20 -627q0 -38 2 -67q2 -27 2 -58q0 -82 -45 -82h-4q-58 9 -58 222z" />
<glyph unicode="&#xed;" horiz-adv-x="159" d="M20 238q0 195 17 540q16 325 16 416q0 119 -2 166q-4 93 -6 106q0 9 -0.5 17.5t-1 14.5t-0.5 7q0 14 10 21q16 28 45 28h11q12 -4 18 -8q7 -5 12 -14q8 -16 8 -21q5 -7 5 -26q1 -5 2 -15.5t2 -15.5v-37q0 -31 2 -43q0 -86 2 -104q2 -16 2 -49q0 -43 -19 -371 q-20 -296 -20 -627q0 -38 2 -67q2 -27 2 -58q0 -82 -45 -82h-4q-58 9 -58 222zM59 1640q0 7 2 9v6q6 25 74 121l35 53q20 20 41 20q47 0 47 -45q0 -8 -4 -24l-102 -160q-25 -25 -50 -25q-43 0 -43 45z" />
<glyph unicode="&#xee;" horiz-adv-x="159" d="M-57 1636q0 11 4 19q13 49 73 121l33 53q20 20 41 20q18 0 41 -20l37 -53q9 -12 27 -39q7 -9 15.5 -21.5t10.5 -15.5q3 -5 17 -33q8 -13 8 -29q0 -18 -12 -30q-16 -13 -33 -13q-24 0 -49 25l-62 96l-61 -96q-22 -25 -49 -25q-41 0 -41 41zM12 238q0 195 17 540 q16 325 16 416q0 119 -2 166q-1 18 -2 55t-2 51q-2 20 -2 39q0 18 8 21q16 28 45 28h12q20 -4 25 -14q10 -5 14 -27q2 -12 6 -32v-49q1 -8 2 -21t1.5 -22t1.5 -15q0 -86 2 -104q2 -16 2 -49q0 -61 -21 -371q-20 -296 -20 -627q0 -38 2 -67q2 -27 2 -58q0 -82 -45 -82h-4 q-58 9 -58 222z" />
<glyph unicode="&#xef;" horiz-adv-x="178" d="M-14 1671q0 19 10 39q11 18 31 27h6h6q47 0 47 -56v-10q-9 -76 -55 -76q-37 0 -43 50v2v8q-2 6 -2 16zM16 238q0 195 17 540q16 325 16 416q0 119 -2 166q-4 93 -6 106q0 9 -0.5 17.5t-1 14.5t-0.5 7q0 14 10 21q16 28 45 28h10q14 -5 19 -8q7 -5 12 -14q8 -16 8 -21 q4 -6 4 -26q1 -5 2.5 -15.5t2.5 -15.5v-37q0 -31 2 -43q0 -86 2 -104q2 -16 2 -49q0 -43 -19 -371q-20 -296 -20 -627q0 -38 2 -67q2 -27 2 -58q0 -82 -45 -82h-4q-58 9 -58 222zM115 1645v2v16q0 78 45 78q32 0 41 -12q12 -12 12 -39v-11v-8q-9 -76 -55 -76q-37 0 -43 50z " />
<glyph unicode="&#xf0;" horiz-adv-x="581" d="M-47 817l2 2v6q0 4 2 6t2 9q4 0 4 6q2 1 4.5 3.5t3.5 2.5q1 2 5 4t6 4q2 0 14 4l16 4q4 2 19 2q-2 84 -2 310q0 156 4 270q6 89 12 98q3 13 18 25h11h2q2 2 12 2q42 0 180 -23q123 -21 172 -63q70 -58 70 -295v-18v-154q0 -8 0.5 -28.5t1.5 -60t2 -77.5q4 -180 4 -223 q0 -389 -63 -500q-50 -89 -185 -113q-73 -12 -178 -20q-2 -2 -10 -2q-27 0 -33 37q-3 18 -18 743q-78 0 -78 39zM119 1137q0 -207 2 -260l49 2q85 10 111 10q18 0 22 -4q8 -4 8 -13q5 -9 15 -16q0 -15 -7 -29q-6 -12 -12 -18q-11 -7 -24 -10q-24 -4 -31 -4q-4 -1 -9.5 -1.5 t-14 -1t-15.5 -1.5q-26 0 -41 -3l-49 -4q10 -488 20 -692q49 3 121 23q76 21 98 43v2q58 58 58 516v20q0 25 -1 114t-1 153q-4 111 -4 223v76q1 8 1.5 17.5t1 15.5t1.5 10v14v14q0 62 -47 115q-15 18 -92 39q-68 17 -148 20q-12 -59 -12 -370z" />
<glyph unicode="&#xf1;" horiz-adv-x="620" d="M25 1505v27q4 4 4 8q2 2 4 7t4 7q0 7 12 11q12 6 29 6l10 -2h8q29 -19 29 -43v-13q0 -59 51 -170q58 -124 103 -344q37 -206 45 -223q6 -13 41 -166q35 -147 59 -223q4 430 4 506v305q0 268 4 330q3 35 37 35q27 0 39 -35q16 -50 16 -299v-99v-389v-200v-183v-141 q2 -41 2 -98v-39q0 -11 2 -23v-22q0 -64 -41 -64h-4q-17 3 -28 17q-13 22 -13 24q-2 5 -6 41q-1 6 -1.5 14.5t-1 14t-1.5 8.5q-7 40 -22 84q-5 23 -29 92q-17 53 -29 82q-12 41 -16 45q-89 317 -119 438q-30 144 -45 222q-10 81 -51 247q0 -16 -2 -26v-27v-6q2 -4 2 -10 q3 -27 6 -285q6 -267 14 -342q9 -95 9 -350v-74q0 -121 -9 -151q-10 -29 -47 -29q-31 0 -37 25q-5 22 -8 165q-4 228 -8 334q-16 698 -16 981zM96 1679q0 20 19 60q68 45 96 45q30 0 119 -74q5 2 22 23q21 33 21 34q9 25 37 25q18 0 32 -14q17 -17 17 -39q0 -34 -41 -78 q-38 -47 -88 -47q-41 0 -82 41q-9 9 -21 20t-14 13l-49 -43q-14 -7 -27 -7q-41 0 -41 41z" />
<glyph unicode="&#xf2;" horiz-adv-x="499" d="M23 332v24q0 238 36 635q38 415 99 494q26 39 71 39q60 0 113 -62q49 -56 76 -305q31 -286 33 -424q6 -172 6 -276q0 -19 -2 -31v-20v-62q-1 -13 -2 -40.5t-2 -37.5q0 -17 -7 -78q-6 -50 -18 -77q-13 -29 -33 -62q-18 -29 -49 -45t-76 -16q-106 0 -174 102 q-68 101 -71 242zM74 1774q0 45 47 45q20 0 41 -21l35 -53q75 -106 75 -137q0 -19 -12 -31t-31 -12q-25 0 -49 24l-102 160q-4 12 -4 25zM117 436q0 -137 35 -243q30 -115 108 -115q32 0 51 16q17 21 29 90q14 66 14 211v13q0 144 -18 510q-17 353 -35 421q-30 103 -61 103 q-16 0 -33 -33q-13 -44 -51 -446q-39 -376 -39 -527z" />
<glyph unicode="&#xf3;" horiz-adv-x="499" d="M23 332v24q0 238 36 635q38 415 99 494q26 39 71 39q60 0 113 -62q49 -56 76 -305q31 -286 33 -424q6 -172 6 -276q0 -19 -2 -31v-20v-62q-1 -13 -2 -40.5t-2 -37.5q0 -17 -7 -78q-6 -50 -18 -77q-13 -29 -33 -62q-18 -29 -49 -45t-76 -16q-106 0 -174 102 q-68 101 -71 242zM117 436q0 -137 35 -243q30 -115 108 -115q32 0 51 16q17 21 29 90q14 66 14 211v13q0 144 -18 510q-17 353 -35 421q-30 103 -61 103q-16 0 -33 -33q-13 -44 -51 -446q-39 -376 -39 -527zM186 1610q0 6 2 8v6q6 25 74 121l35 53q21 21 41 21q47 0 47 -45 q0 -9 -4 -25l-102 -160q-24 -24 -50 -24q-43 0 -43 45z" />
<glyph unicode="&#xf4;" horiz-adv-x="499" d="M23 332v24q0 238 36 635q38 415 99 494q26 39 71 39q60 0 113 -62q49 -56 76 -305q31 -286 33 -424q6 -172 6 -276q0 -19 -2 -31v-20v-62q-1 -13 -2 -40.5t-2 -37.5q0 -17 -7 -78q-6 -50 -18 -77q-13 -29 -33 -62q-18 -29 -49 -45t-76 -16q-106 0 -174 102 q-68 101 -71 242zM78 1606v18q2 11 20 43q5 8 16.5 24.5t16.5 24.5l10 14l7.5 10.5t3.5 4.5l36 53q21 21 41 21q22 0 37 -21l37 -53q78 -107 78 -137q0 -43 -41 -43q-25 0 -49 24l-62 97l-61 -97q-27 -24 -49 -24q-41 0 -41 41zM117 436q0 -137 35 -243q30 -115 108 -115 q32 0 51 16q17 21 29 90q14 66 14 211v13q0 144 -18 510q-17 353 -35 421q-30 103 -61 103q-16 0 -33 -33q-13 -44 -51 -446q-39 -376 -39 -527z" />
<glyph unicode="&#xf5;" horiz-adv-x="499" d="M23 332v24q0 238 36 635q38 415 99 494q26 39 71 39q60 0 113 -62q49 -56 76 -305q31 -286 33 -424q6 -172 6 -276q0 -19 -2 -31v-20v-62q-1 -13 -2 -40.5t-2 -37.5q0 -17 -7 -78q-6 -50 -18 -77q-13 -29 -33 -62q-18 -29 -49 -45t-76 -16q-106 0 -174 102 q-68 101 -71 242zM49 1630q0 21 17 60q68 45 98 45t119 -74q8 4 20 25q17 20 21 32q16 25 36 25q19 0 33 -14q17 -17 17 -39q0 -34 -41 -78q-38 -47 -86 -47q-41 0 -82 41q-17 17 -37 32l-49 -43q-12 -6 -25 -6q-41 0 -41 41zM117 436q0 -137 35 -243q30 -115 108 -115 q32 0 51 16q17 21 29 90q14 66 14 211v13q0 144 -18 510q-17 353 -35 421q-30 103 -61 103q-16 0 -33 -33q-13 -44 -51 -446q-39 -376 -39 -527z" />
<glyph unicode="&#xf6;" horiz-adv-x="499" d="M23 332v24q0 238 36 635q38 415 99 494q26 39 71 39q60 0 113 -62q49 -56 76 -305q31 -286 33 -424q6 -172 6 -276q0 -19 -2 -31v-20v-62q-1 -13 -2 -40.5t-2 -37.5q0 -17 -7 -78q-6 -50 -18 -77q-13 -29 -33 -62q-18 -29 -49 -45t-76 -16q-106 0 -174 102 q-68 101 -71 242zM115 1640q0 18 12 39q8 17 29 27h8h4q49 0 49 -55v-11q-9 -75 -57 -75q-41 0 -41 49v2q0 4 -2 10t-2 14zM117 436q0 -137 35 -243q30 -115 108 -115q32 0 51 16q17 21 29 90q14 66 14 211v13q0 144 -18 510q-17 353 -35 421q-30 103 -61 103q-16 0 -33 -33 q-13 -44 -51 -446q-39 -376 -39 -527zM246 1614v2v16q0 78 45 78q53 0 53 -51v-10v-9q-9 -75 -57 -75q-41 0 -41 49z" />
<glyph unicode="&#xf7;" horiz-adv-x="290" d="M-76 625q0 10 2 14q3 13 25 25q16 16 59 16l129 4q3 0 43 4t49 4q66 0 66 -45q0 -16 -2 -20q-3 -10 -6 -17t-13 -10q-3 -1 -7.5 -3.5t-6.5 -2.5q-3 -2 -22 -6q-10 -2 -27 -2q-3 -1 -7.5 -1.5t-12 -1t-13.5 -1.5q-27 0 -37 -2l-127 -11q-92 6 -92 56zM51 471q0 25 8 41 q6 47 54 47q45 0 57 -39q4 -20 4 -49v-12q-3 -52 -22 -74q-23 -23 -46 -23q-12 3 -16 3l-12 8q-11 8 -17 16q-3 10 -6 31q-1 13 -2 25.5t-1.5 18t-0.5 7.5zM63 840q0 23 9 41q6 47 53 47q43 0 57 -33q11 -26 11 -55v-13q-3 -44 -21 -65q-15 -19 -29 -29q-4 0 -11.5 -1 t-10.5 -1q-18 4 -23 6q-8 4 -16 15q-11 11 -14 36q-1 13 -2 25.5t-2 19t-1 7.5z" />
<glyph unicode="&#xf8;" horiz-adv-x="567" d="M16 37q0 13 7 41l55 201q-41 228 -41 362q0 203 37 391q36 200 67 283q40 99 52 117l32 55l8 10q6 9 11 14q3 5 14 13q12 4 21 4q71 -9 124 -129l41 131q20 20 29 20h6q1 0 3.5 -1t4.5 -1q2 -2 5 -3.5t4 -2.5t3.5 -2.5t4.5 -3.5l6 -6q1 -1 2 -4.5t2 -5.5q2 -4 2 -17 q2 -4 2 -18q0 -46 -20 -113q-21 -68 -21 -69v-5l-18 -63l26 -98q19 -78 19 -516q0 -252 -10 -379q-9 -113 -31 -156q-22 -40 -76 -66q-63 -38 -129 -38q-98 0 -133 96q-11 -40 -14 -49q-2 -11 -17 -33q-18 -14 -33 -14q-6 0 -12 2q-9 0 -20 14q-13 16 -13 39zM133 655 q0 -16 12 -139l160 586l47 160q-48 154 -73 186q-35 -50 -78 -221q-42 -165 -51 -316l-9 -125q-3 -61 -6 -88q-2 -18 -2 -43zM174 272q24 -149 68 -176q11 -8 34 -8q51 0 107 29q16 226 16 792q0 129 -2 154z" />
<glyph unicode="&#xf9;" horiz-adv-x="509" d="M25 244v84q0 89 12 329q14 224 14 463q0 91 -6 199q-1 30 -2 60.5t-1.5 45.5t-0.5 19q0 31 4 39q13 22 33 22q23 0 35 -24q41 -77 41 -451q0 -186 -15 -428q-16 -175 -16 -342v-59q0 -105 33 -119q27 -10 118 -10q42 0 54 4q10 45 10 264q0 58 -2 115v139q0 820 18 881 q6 21 31 30h4q2 2 8 2q20 0 37 -26q21 -27 21 -58q0 -2 -4 -22q-6 -44 -21 -1157v-15q-2 -4 -2 -12q0 -28 2 -53t2 -55q0 -98 -61 -101q-44 -20 -158 -20q-59 0 -94 12q-33 17 -58 51q-33 44 -36 193zM80 1772q0 45 47 45q20 0 41 -21l35 -53q76 -107 76 -137q0 -18 -13 -31 q-12 -12 -30 -12q-26 0 -50 24l-102 160q-4 12 -4 25z" />
<glyph unicode="&#xfa;" horiz-adv-x="509" d="M25 244v84q0 89 12 329q14 224 14 463q0 91 -6 199q-1 30 -2 60.5t-1.5 45.5t-0.5 19q0 31 4 39q13 22 33 22q23 0 35 -24q41 -77 41 -451q0 -186 -15 -428q-16 -175 -16 -342v-59q0 -105 33 -119q27 -10 118 -10q42 0 54 4q10 45 10 264q0 58 -2 115v139q0 820 18 881 q6 21 31 30h4q2 2 8 2q20 0 37 -26q21 -27 21 -58q0 -2 -4 -22q-6 -44 -21 -1157v-15q-2 -4 -2 -12q0 -28 2 -53t2 -55q0 -98 -61 -101q-44 -20 -158 -20q-59 0 -94 12q-33 17 -58 51q-33 44 -36 193zM201 1610v8q2 2 2 6q6 27 73 121l35 53q21 21 41 21q47 0 47 -45 q0 -9 -4 -25l-102 -160q-24 -24 -49 -24q-43 0 -43 45z" />
<glyph unicode="&#xfb;" horiz-adv-x="509" d="M25 244v84q0 89 12 329q14 224 14 463q0 91 -6 199q-1 30 -2 60.5t-1.5 45.5t-0.5 19q0 31 4 39q13 22 33 22q23 0 35 -24q41 -77 41 -451q0 -186 -15 -428q-16 -175 -16 -342v-59q0 -105 33 -119q27 -10 118 -10q42 0 54 4q10 45 10 264q0 58 -2 115v139q0 820 18 881 q6 21 31 30h4q2 2 8 2q20 0 37 -26q21 -27 21 -58q0 -2 -4 -22q-6 -44 -21 -1157v-15q-2 -4 -2 -12q0 -28 2 -53t2 -55q0 -98 -61 -101q-44 -20 -158 -20q-59 0 -94 12q-33 17 -58 51q-33 44 -36 193zM86 1606q0 14 2 18q6 25 74 121l35 53q21 21 41 21q17 0 38 -21l37 -53 l23 -31q4 -5 9 -12.5l8 -12t5 -6.5l17 -26q3 -5 7.5 -14.5t6.5 -12.5q0 -4 1 -11.5t1 -10.5q0 -19 -12 -31t-31 -12q-25 0 -49 24l-61 97l-62 -97q-24 -24 -49 -24q-41 0 -41 41z" />
<glyph unicode="&#xfc;" horiz-adv-x="509" d="M25 244v84q0 89 12 329q14 224 14 463q0 91 -6 199q-1 30 -2 60.5t-1.5 45.5t-0.5 19q0 31 4 39q13 22 33 22q23 0 35 -24q41 -77 41 -451q0 -186 -15 -428q-16 -175 -16 -342v-59q0 -105 33 -119q27 -10 118 -10q42 0 54 4q10 45 10 264q0 58 -2 115v139q0 820 18 881 q6 21 31 30h4q2 2 8 2q20 0 37 -26q21 -27 21 -58q0 -2 -4 -22q-6 -44 -21 -1157v-15q-2 -4 -2 -12q0 -28 2 -53t2 -55q0 -98 -61 -101q-44 -20 -158 -20q-59 0 -94 12q-33 17 -58 51q-33 44 -36 193zM143 1626v14q0 17 11 39q11 19 30 27h6h7q47 0 47 -55v-11 q-9 -75 -56 -75q-37 0 -43 49v2q0 4 -2 10zM272 1614v2v16q0 78 45 78q31 0 43 -12q11 -15 11 -39v-10v-9q-9 -75 -56 -75q-37 0 -43 49z" />
<glyph unicode="&#xfd;" horiz-adv-x="552" d="M25 1348v82q0 67 8 88q9 24 35 24q4 0 6 -2q11 -2 24 -18q9 -22 17 -95q8 -71 8 -233v-227q0 -99 14 -105q32 -14 117 -14q71 0 104 10q2 8 2 41q0 7 -4 109t-4 125q0 59 2 73q-2 51 -2 174v13q-1 18 -2 39.5t-1.5 33t-0.5 17.5q0 96 47 102h2q29 -3 41 -41 q13 -41 13 -147v-58q-2 -20 -2 -32q0 -25 2 -41v-31v-6q14 -722 14 -846q0 -233 -12 -268q-17 -50 -91 -86q-78 -33 -149 -33q-37 0 -74 12q-28 8 -45 21q-15 9 -18 18q-47 71 -47 164q0 57 16 84q11 35 37 35q1 -1 3 -2.5t6 -3.5t7 -5q15 -5 21 -26q0 -4 1 -30.5t1 -49.5 q0 -125 100 -125q80 0 133 53q17 39 17 244q0 197 -4 381q-38 -14 -119 -14q-102 0 -154 24q-55 24 -61 64q-8 41 -8 508zM158 1628q0 6 2 8v6q6 27 73 121l35 54q20 20 41 20q47 0 47 -45q0 -9 -4 -25l-102 -159q-25 -25 -49 -25q-43 0 -43 45z" />
<glyph unicode="&#xfe;" horiz-adv-x="464" d="M20 469q0 146 19 496q4 430 4 458v82q0 26 10 49q16 29 45 29h11q25 -6 34 -47q11 -53 11 -174v-25q72 -13 153 -39q56 -27 86 -73q37 -56 45 -127q11 -93 11 -213q0 -7 2 -13v-22q0 -91 -37 -184q-44 -102 -97 -166q-76 -91 -94 -111q-27 -30 -61 -59q-18 -18 -33 -27 q-2 -51 -2 -180q-1 -27 -2 -57.5t-1.5 -46.5t-0.5 -23q-7 -27 -17 -37t-26 -10q-17 0 -33 22q-16 26 -16 76l-2 10v15q0 67 -4 223q-1 28 -2 66t-2 64t-1 44zM131 410q73 73 145 208q70 128 70 277q0 36 -1 81.5t-1 55.5q-11 79 -12 84q-6 42 -29 55q-18 13 -53 29 q-49 15 -92 21q-3 -67 -8.5 -143t-6.5 -87q0 -125 -6 -327q-6 -209 -6 -248v-6z" />
<glyph unicode="&#xff;" horiz-adv-x="552" d="M25 1348v82q0 67 8 88q9 24 35 24q4 0 6 -2q11 -2 24 -18q9 -22 17 -95q8 -71 8 -233v-227q0 -99 14 -105q32 -14 117 -14q71 0 104 10q2 8 2 41q0 7 -4 109t-4 125q0 59 2 73q-2 51 -2 174v13q-1 18 -2 39.5t-1.5 33t-0.5 17.5q0 96 47 102h2q29 -3 41 -41 q13 -41 13 -147v-58q-2 -20 -2 -32q0 -25 2 -41v-31v-6q14 -722 14 -846q0 -233 -12 -268q-17 -50 -91 -86q-78 -33 -149 -33q-37 0 -74 12q-28 8 -45 21q-15 9 -18 18q-47 71 -47 164q0 57 16 84q11 35 37 35q1 -1 3 -2.5t6 -3.5t7 -5q15 -5 21 -26q0 -4 1 -30.5t1 -49.5 q0 -125 100 -125q80 0 133 53q17 39 17 244q0 197 -4 381q-38 -14 -119 -14q-102 0 -154 24q-55 24 -61 64q-8 41 -8 508zM111 1651v14q0 19 10 39q11 18 31 27h6h6q47 0 47 -56v-10q-9 -76 -55 -76q-37 0 -43 49v2q0 5 -2 11zM240 1638v2v17q0 78 45 78q30 0 43 -13 q10 -13 10 -39v-10v-8q-9 -76 -55 -76q-37 0 -43 49z" />
<glyph unicode="&#x152;" horiz-adv-x="860" d="M27 641q0 203 34 391q39 200 70 283q41 103 51 117l33 55l6 10l12 14q2 5 15 13q12 4 20 4q70 -9 119 -119q3 134 16 152q9 18 35 18q18 0 58 -16q41 -18 82 -23q102 -11 163 -27q57 -15 74 -26q14 -14 14 -31t-10 -22q-5 -9 -16 -13l-8 -2h-11q-35 0 -149 15 q-121 16 -154 26v-41q0 -18 1 -76t1 -98q2 -43 4 -112t2 -82q3 -82 3 -86l2 -95l59 -4q164 -12 164 -63q0 -41 -53 -41q-29 0 -84 8t-82 8q-4 0 -4 -6v-151q0 -62 -2 -93v-63q0 -98 14 -262l8 -101h121q91 0 143 -10q45 -9 45 -43v-4q-1 -2 -2 -6t-2 -6q0 -6 -4 -8 q0 -5 -8 -13q-3 -1 -9.5 -3t-9.5 -3q-68 -18 -253 -18q-91 0 -105 14q-12 30 -12 45q-77 -65 -170 -65q-98 0 -127 75q-31 75 -60 260q-34 175 -34 324zM123 684q0 -31 4 -49l10 -103q13 -112 19 -180q18 -220 75 -256q11 -8 35 -8q53 0 109 29q14 172 14 792q0 203 -12 252 q-48 198 -107 269q-35 -49 -80 -201q-41 -143 -51 -289l-8 -125q-3 -61 -6 -88q-2 -18 -2 -43z" />
<glyph unicode="&#x153;" horiz-adv-x="749" d="M37 332v24q0 227 37 635q38 416 98 494q26 39 72 39q40 0 86 -37q0 6 -6 12q-9 12 -9 21q0 6 2 12q4 8 17 16q16 13 39 13q19 0 98 -9q43 -5 129 -10q98 -3 98 -55q0 -47 -77 -47q-40 0 -103 8t-84 8v-37q0 -135 8 -356q6 -63 15 -184q105 -6 157 -19q48 -9 48 -43l-3 -6 l-4 -12q-1 -1 -4.5 -6t-7.5 -7q-7 -7 -20 -10q-24 -4 -37 -4q-52 0 -125 12q0 -27 2 -47v-45q0 -80 -2 -135q-2 -53 -2 -100q0 -53 -8 -178q-9 -138 -9 -152v-25l72 -4q110 -9 156 -20q51 -15 51 -49q0 -5 -4 -11q0 -6 -4 -10l-4 -8q-2 -3 -11 -8q-10 0 -16 -2t-25 -2 t-108 6q-53 4 -174 8l-8 8q-36 -22 -84 -22q-107 0 -177 102q-66 103 -69 242zM131 436q0 -118 33 -243q38 -115 110 -115q49 0 70 59q6 289 6 574v243q-16 276 -28 349q-16 98 -54 131q-6 6 -12 6q-7 0 -18 -8q-2 -3 -7 -8t-6 -7q-6 -8 -4 -10q-11 -38 -53 -444 q-37 -385 -37 -527zM221 1378z" />
<glyph unicode="&#x178;" horiz-adv-x="393" d="M4 1499q0 51 41 51q4 0 6 -2h6q8 -4 9 -4q2 -2 5.5 -4.5t4.5 -3.5q6 -6 10 -12q8 -11 10 -21l80 -563q5 -30 10 -45q13 56 35 233q17 164 53 345l7 26q15 111 53 111q4 -4 14 -4q3 -2 9 -4.5t8 -4.5q5 0 8 -16q6 -12 6 -37q0 -3 -0.5 -9.5t-1.5 -18.5t-2 -23 q-51 -314 -53 -342q-13 -100 -46 -258q-32 -152 -32 -248q0 -70 -2 -84q4 -36 4 -67q0 -5 -0.5 -20.5t-1.5 -46t-2 -60.5q-6 -108 -6 -205v-45q-3 -154 -56 -154h-2q-51 3 -51 123q0 56 10 258t10 203q0 80 -16 186q-12 78 -41 193q-27 117 -27 118l-30 226 q-8 65 -15.5 122.5t-10.5 81.5t-3 25zM63 1702q0 17 11 39q11 18 30 26h7h6q47 0 47 -55v-10q-9 -76 -55 -76q-37 0 -43 49v2v11q-3 9 -3 14zM193 1675v2v17q0 78 45 78q31 0 41 -13q12 -12 12 -39v-10v-8q-9 -76 -55 -76q-37 0 -43 49z" />
<glyph unicode="&#x2c6;" horiz-adv-x="385" d="M-8 1430q0 14 2 18q6 25 74 121l34 53q20 20 41 20q19 0 39 -20l37 -53l23 -31q4 -5 9 -12.5l8 -12t5 -6.5l17 -26q3 -5 7.5 -14.5t6.5 -12.5q0 -4 1 -11.5t1 -10.5q0 -19 -12 -31t-31 -12q-25 0 -49 24l-62 96l-61 -96q-24 -24 -49 -24q-41 0 -41 41z" />
<glyph unicode="&#x2dc;" horiz-adv-x="409" d="M20 1501q0 20 19 60q68 45 96 45q30 0 119 -74q10 5 22 24q18 22 21 33q9 25 37 25q18 0 35 -17q14 -14 14 -36q0 -30 -39 -78q-44 -47 -90 -47q-41 0 -82 41q-9 9 -21 19.5t-14 12.5l-49 -43q-12 -6 -27 -6q-41 0 -41 41z" />
<glyph unicode="&#x2000;" horiz-adv-x="952" />
<glyph unicode="&#x2001;" horiz-adv-x="1905" />
<glyph unicode="&#x2002;" horiz-adv-x="952" />
<glyph unicode="&#x2003;" horiz-adv-x="1905" />
<glyph unicode="&#x2004;" horiz-adv-x="635" />
<glyph unicode="&#x2005;" horiz-adv-x="476" />
<glyph unicode="&#x2006;" horiz-adv-x="317" />
<glyph unicode="&#x2007;" horiz-adv-x="317" />
<glyph unicode="&#x2008;" horiz-adv-x="238" />
<glyph unicode="&#x2009;" horiz-adv-x="381" />
<glyph unicode="&#x200a;" horiz-adv-x="105" />
<glyph unicode="&#x2010;" horiz-adv-x="401" d="M4 625v6l4 8v6q1 1 2 3t2 3l4 4q2 2 5 4t4 3t4.5 2t5.5 2q4 2 14 2q3 1 9.5 2t9.5 2h22l129 4q28 4 47 4q16 4 37 4h19q55 0 55 -33q0 -18 -2 -24q-4 -15 -10 -21q-7 -7 -13 -10q-12 -4 -24 -6q-4 -1 -13 -2t-12 -2q-21 0 -37 -2q-7 -1 -22 -2t-21 -2l-127 -11 q-92 6 -92 56z" />
<glyph unicode="&#x2011;" horiz-adv-x="401" d="M4 625v6l4 8v6q1 1 2 3t2 3l4 4q2 2 5 4t4 3t4.5 2t5.5 2q4 2 14 2q3 1 9.5 2t9.5 2h22l129 4q28 4 47 4q16 4 37 4h19q55 0 55 -33q0 -18 -2 -24q-4 -15 -10 -21q-7 -7 -13 -10q-12 -4 -24 -6q-4 -1 -13 -2t-12 -2q-21 0 -37 -2q-7 -1 -22 -2t-21 -2l-127 -11 q-92 6 -92 56z" />
<glyph unicode="&#x2012;" horiz-adv-x="401" d="M4 625v6l4 8v6q1 1 2 3t2 3l4 4q2 2 5 4t4 3t4.5 2t5.5 2q4 2 14 2q3 1 9.5 2t9.5 2h22l129 4q28 4 47 4q16 4 37 4h19q55 0 55 -33q0 -18 -2 -24q-4 -15 -10 -21q-7 -7 -13 -10q-12 -4 -24 -6q-4 -1 -13 -2t-12 -2q-21 0 -37 -2q-7 -1 -22 -2t-21 -2l-127 -11 q-92 6 -92 56z" />
<glyph unicode="&#x2013;" horiz-adv-x="872" d="M31 629q0 2 1 7.5t1 8.5q7 11 24 25q22 14 62 14l569 4q1 0 41 4q46 4 49 4q68 0 68 -45q0 -16 -2 -20q-2 -10 -6 -17q-3 -7 -13 -10q-3 -1 -7.5 -3.5t-6.5 -2.5q-4 -2 -25 -6q-8 -2 -24 -2q-4 -1 -16 -2t-17 -2q-29 0 -39 -2l-567 -11q-92 6 -92 56z" />
<glyph unicode="&#x2014;" horiz-adv-x="1343" d="M33 625q0 10 4 18q0 8 24 23q17 14 60 14l1030 4q1 0 41 4q46 4 49 4q68 0 68 -45q0 -16 -2 -20q-1 -6 -7 -17q-4 -7 -12 -10q-3 -1 -7.5 -3.5t-6.5 -2.5q-4 -2 -25 -6q-8 -2 -24 -2q-4 -1 -16 -2t-17 -2q-29 0 -39 -2l-1028 -11q-92 6 -92 56z" />
<glyph unicode="&#x2018;" horiz-adv-x="135" d="M-41 1507q6 36 33 54h10h4q24 0 47 -33l17 -66l16 -53l10.5 -42t7.5 -32q9 -30 9 -49q0 -24 -21 -45q-13 -8 -26 -8q-5 0 -17 4q-8 5 -14 18l-12 27q-6 12 -15 39l-12 49l-16 64q-3 14 -10.5 38.5t-10.5 34.5z" />
<glyph unicode="&#x2019;" horiz-adv-x="135" d="M-39 1286q0 24 12 76q0 2 5.5 18t9.5 31l16 51l14 66q20 33 45 33h7h12q30 -15 33 -54l-33 -112q-10 -35 -14 -64q-2 -23 -13 -47q0 -6 -14 -27q-17 -20 -39 -20q-8 0 -35 10v8q-6 9 -6 31z" />
<glyph unicode="&#x201a;" horiz-adv-x="135" d="M-39 41q0 23 12 76q0 2 5.5 18t9.5 31l16 51l14 66q19 32 45 32h7h12q30 -15 33 -53l-33 -112q-9 -30 -12 -64q-7 -33 -15 -47q0 -6 -14 -27q-17 -20 -39 -20q-8 0 -35 10v8q-6 9 -6 31z" />
<glyph unicode="&#x201c;" horiz-adv-x="284" d="M-33 1491v4q0 28 23 51h14h6q24 0 47 -33l15 -65l14 -53q4 -14 10.5 -38t9.5 -34q9 -37 9 -51q0 -24 -21 -45q-12 -6 -20 -6q-25 0 -39 20q-19 27 -21 41l-6 33q-10 75 -41 176zM98 1522q6 35 33 53h12h4q25 0 48 -33l14 -65l16 -54q7 -30 19 -71q8 -33 8 -52 q0 -24 -21 -45q-12 -6 -22 -6q-52 0 -64 94q-3 33 -47 179z" />
<glyph unicode="&#x201d;" horiz-adv-x="309" d="M-37 1300q0 23 12 76l31 103l17 63q15 46 53 35q39 -14 39 -53v-4q-5 -23 -11 -44.5t-11 -41t-7 -25.5q-12 -35 -18 -68l-2 -8q0 -8 -3 -14q-1 -1 -2.5 -7t-3.5 -9q0 -1 -6 -19q-1 -2 -10 -16q-7 -11 -16 -13q-8 -4 -21 -4h-2l-6 2h-12q-1 1 -3 2.5t-3.5 3t-2.5 3.5 q-8 4 -8 14q-4 6 -4 24zM127 1272q0 18 8 51q3 10 10 34.5t11 37.5l14 53l16 65q34 46 64 31q28 -18 31 -51q-34 -120 -35 -123q-13 -54 -13 -61q-1 -4 -2 -11t-2 -10l-6 -18v-2q-20 -45 -55 -45q-41 0 -41 49z" />
<glyph unicode="&#x201e;" horiz-adv-x="274" d="M-37 82q0 15 12 76l31 102l14 62l9 12q16 22 39 22h4h12q31 -19 31 -51v-4q-4 -19 -29 -102q-13 -43 -18 -76q-21 -90 -66 -90h-6l-25 2v16q-8 13 -8 31zM94 49q0 20 8 51q3 10 6 22t7.5 28t7.5 26q5 15 9.5 31.5t4.5 17.5l15 62l6 14q16 23 39 23h6h12q30 -15 33 -54 q-42 -151 -47 -182q-1 -2 -2 -7.5t-2 -8.5q0 -13 -2 -17l-7 -2v-6q-24 -49 -55 -49q-2 0 -4 2h-4l-25 4v14q-6 9 -6 31z" />
<glyph unicode="&#x2022;" horiz-adv-x="350" d="M29 678q0 56 8 108q10 64 24 125q18 63 54 109q33 45 82 45q68 0 98 -59q35 -55 35 -222v-63q0 -61 -4 -131q-3 -44 -19 -111q-15 -63 -49 -92q-39 -31 -92 -31q-44 0 -74 37q-32 37 -43 94q-13 62 -16 103q-4 58 -4 88z" />
<glyph unicode="&#x2026;" horiz-adv-x="489" d="M20 86q0 19 11 45q3 23 18 33q11 14 31 14q45 0 45 -88v-12q-6 -94 -57 -94h-7q-2 1 -5.5 2t-4.5 2t-4.5 3.5t-5.5 4.5q-7 3 -10 16q-1 4 -6 27q-1 11 -2 21.5t-2 17t-1 8.5zM166 94q0 22 10 45q3 19 17 33q17 14 32 14q45 0 45 -88v-12q-6 -94 -57 -94h-6q-2 1 -5.5 2 t-4.5 2t-5 3.5t-6 4.5q-7 3 -10 16q-2 4 -6 27q-1 10 -2 21t-1.5 17t-0.5 9zM340 86q0 22 10 45q3 22 19 33q11 14 30 14q45 0 45 -88v-12q-6 -94 -57 -94h-6q-2 1 -5.5 2t-4.5 2t-5 3.5t-6 4.5q-7 3 -10 16q-2 4 -6 27q-1 10 -2 21t-1.5 17t-0.5 9z" />
<glyph unicode="&#x202f;" horiz-adv-x="381" />
<glyph unicode="&#x2039;" horiz-adv-x="843" d="M-76 662q0 26 21 53q81 23 104 26q36 11 92 17q75 13 88 16q47 8 230 66q181 53 246 59q18 6 43 6q57 0 57 -43q-4 -10 -10 -22q-4 -6 -9 -11q-1 -1 -14 -4q-16 -4 -22 -6l-129 -35l-275 -71l-178 -47q232 -51 432 -91q117 -22 129 -28q22 -9 25 -33v-2q-14 -39 -66 -39 q-9 0 -49 4q-5 1 -59 10l-109 21l-158 29q-75 17 -100 24l-137 35l-107 29q-45 3 -45 37z" />
<glyph unicode="&#x203a;" horiz-adv-x="792" d="M-61 797q4 6 10 18q3 12 6 12q1 1 12 9q5 0 37 8h4q18 0 62 -13q29 -12 116 -28q355 -60 570 -109q41 -21 41 -45q0 -18 -23 -41q-424 -127 -516 -149q-58 -15 -102 -27q-46 -13 -62 -18q-6 -3 -16.5 -8t-14.5 -7l-16 -8q-2 -2 -10 -2q-5 0 -21 8q-12 12 -12 31 q0 25 14 39q19 19 29 25q27 11 47 16q9 3 17.5 6t15 5t8.5 3h2q66 11 424 121l-211 41l-223 43q-92 18 -102 18q-86 9 -86 52z" />
<glyph unicode="&#x205f;" horiz-adv-x="476" />
<glyph unicode="&#x20ac;" horiz-adv-x="366" d="M-113 629q3 18 7 22q6 6 20 13q13 8 51 8q2 10 2 53q2 23 2 51q-61 9 -61 51l2 9q4 12 6 12q2 4 10 12q5 5 21 8q4 1 14.5 2t15.5 2q17 216 72 418q52 188 119 230q18 12 43 12q31 0 72 -27q39 -26 39 -57q0 -32 -46 -53l-20 -11l-14 21q-14 20 -31 20q-31 0 -80 -184 q-50 -190 -59 -336l-2 -31h53q40 6 45 7q10 0 23 1t16 1h24q50 0 50 -33q0 -19 -2 -25q-4 -11 -11 -16q-2 -2 -7 -5.5t-7 -4.5t-10 -3.5t-13 -4.5q-11 0 -26 -5h-37q-7 -1 -21.5 -2t-19.5 -2l-64 -4q0 -3 -2 -24t-4 -35q0 -14 -1 -28t-1 -15h47q28 4 45 4q18 4 39 4h23 q8 2 14 2q39 0 39 -39q0 -37 -41 -49q-9 -3 -115 -12l-45 -2l13 -121q4 -26 16 -139q7 -47 21 -121q11 -61 30 -97q17 -32 43 -32q9 0 64 12q62 10 67 10q6 0 17 -14q16 -13 16 -16l-4 -13l-4 -8q-2 -4 -8 -10q-18 -12 -23 -15q-63 -38 -129 -38q-98 0 -127 75 q-20 50 -57 236q-30 175 -33 285q-76 6 -76 51z" />
<glyph unicode="&#x2122;" horiz-adv-x="948" d="M25 1487v12q-4 8 0 8v9l4 8q2 0 10 4t14 4q15 0 25 2q8 2 33 2q14 2 45 2h55q149 0 192 -6t52 -33v-10q-3 -18 -9 -31q-8 -8 -40 -16q-33 -8 -109 -8l-6 -357q0 -41 -41 -41q-26 0 -51 19q-15 12 -15 102v152v125h-61q-62 3 -80 12t-18 41zM475 1407v98v27l4 8q4 8 4 12 q9 9 17 13q12 6 30 6t33 -12l72 -211q37 -76 51 -129l109 383q8 38 47 38q20 0 41 -14q18 -18 18 -39v-20q0 -144 -8 -537q-4 -4 -4 -10l-4 -8l-4 -8q-2 -2 -3 -4t-2 -3.5t-2 -1.5q-2 -4 -6 -8q-4 -2 -4 -4l-8 -4h-8h-2q-19 4 -27 12q-9 9 -20 41q1 49 2 102t1.5 81.5 t0.5 41.5l-53 -157q-8 -18 -33 -47q-23 -23 -41 -23q-21 6 -29 14q-16 16 -24 35q-1 3 -8 17.5t-9 21.5q-1 7 -6 29t-8 37q-4 18 -23 84q3 -51 9 -97q6 -49 6 -63q0 -68 -62 -68q-28 0 -35 23q-12 38 -12 344z" />
<glyph unicode="&#xe000;" horiz-adv-x="1597" d="M0 0v1597h1597v-1597h-1597z" />
</font>
</defs>
</svg>
