<?xml version="1.0" standalone="no"?>
<!DOCTYPE svg PUBLIC "-//W3C//DTD SVG 1.1//EN" "http://www.w3.org/Graphics/SVG/1.1/DTD/svg11.dtd" >
<svg xmlns="http://www.w3.org/2000/svg">
<metadata></metadata>
<defs>
<font id="amarelinhamedium" horiz-adv-x="458" >
<font-face units-per-em="2048" ascent="1638" descent="-410" />
<missing-glyph horiz-adv-x="438" />
<glyph horiz-adv-x="2048" />
<glyph horiz-adv-x="2048" />
<glyph unicode="&#xd;" horiz-adv-x="681" />
<glyph unicode=" "  horiz-adv-x="438" />
<glyph unicode="&#x09;" horiz-adv-x="438" />
<glyph unicode="&#xa0;" horiz-adv-x="438" />
<glyph unicode="!" horiz-adv-x="186" d="M51 -115q0 17 2 25q1 2 2 6.5t2 5.5q2 2 2 6q0 25 19 25q20 0 20 -59v-13q0 -21 -8 -45q-11 -20 -20 -20q-12 0 -15 30q-1 10 -2 19l-1.5 13.5t-0.5 6.5zM55 111v131q0 458 11 891q6 203 6 264t-6 96q-3 27 2 35q3 6 6 6q6 0 16 -14q6 -18 12 -45q7 -35 7 -66v-166 q0 -147 -3 -485q-2 -225 -2 -463v-102v-11q0 -129 -28 -129q-18 0 -21 58z" />
<glyph unicode="&#x22;" horiz-adv-x="251" d="M25 1325v8v17q2 6 2 14q4 46 4 72q0 20 -2 45v65q3 16 16 19h4q14 0 17 -15l2 -8l-2 -61v-49q2 -25 2 -58q0 -81 -17 -84l-2 -2q-16 0 -22 31q0 4 -2 6zM137 1319q-3 18 0 45q4 46 4 72q0 20 -2 45v65q3 16 17 19h4q13 0 16 -15l2 -8l-2 -61v-49q2 -25 2 -58 q0 -81 -16 -84l-2 -2q-17 0 -23 31z" />
<glyph unicode="#" horiz-adv-x="798" d="M-10 674q0 14 30 20l3 2h2q16 0 94 -10q6 0 12 -2h29h35h10l45 195q-238 3 -258 8q-3 8 6 14q8 5 22 8q6 2 54 2h20h7q7 0 20.5 -0.5t32 -1t45.5 -1t57 -1.5l102 430q9 15 19 15h2q16 0 16 -21v-8l-43 -133l-10 -43l-25 -109q-14 -69 -30 -131q39 -2 180 -2l98 377 q8 14 21 14q16 -3 16 -16q0 -6 -18 -70l-13 -47l-30 -114l-37 -144q63 -2 227 -2q19 -3 19 -18q0 -16 -17 -19l-6 -2l-61 2q-16 8 -168 11l-49 -191q84 0 141 2h117h22q19 -6 19 -16q4 -18 -15 -21l-8 -2q-47 2 -287 2q-138 -532 -155 -532q-18 0 -15 35q2 15 13 43 q6 16 120 454h-172q-120 -520 -135 -520q-16 0 -16 29q0 11 14 49q8 28 105 444q-207 0 -207 21zM238 684q131 0 172 2l49 191h-86q-41 2 -92 2z" />
<glyph unicode="$" horiz-adv-x="536" d="M47 1333q0 95 86 195q35 35 96 35h2q0 12 -2 18v16q0 33 2 35q3 6 7 6q17 0 26 -79q92 -16 144 -80q20 -20 20 -39q0 -8 -8 -8q-9 0 -17 8q-88 64 -133 73v-24v-166v-205q-2 -104 -2 -250l11 -10q37 -44 61 -82q25 -41 41 -69q12 -27 16 -31q28 -21 49 -162 q13 -76 13 -170q0 -230 -41 -289q-50 -71 -156 -86q-3 -55 -24 -55q-18 0 -21 53q-110 3 -135 70q-19 55 -19 287q0 80 7 84q3 3 10 0q7 -4 10 -15q6 -6 6 -22v-31q0 -233 17 -272q19 -51 104 -54v88q0 36 4 756q-104 116 -133 213q-9 27 -18 92q-2 12 -8.5 55.5t-8.5 63.5z M98 1339q0 -41 8 -106q9 -161 117 -305q0 81 2 149q0 112 2 135q6 202 6 265v43h-2q-40 0 -81 -35q-52 -43 -52 -146zM266 16q108 15 123 80q0 2 3 14.5t5 20.5q2 7 5 18.5t4 14.5l4 49q1 14 2 47.5t2 50.5v43q0 166 -37 267q-42 105 -109 184q-2 -166 -2 -649v-103v-10v-27 z" />
<glyph unicode="%" horiz-adv-x="872" d="M27 10q0 17 16 49l66 113l391 864l98 199l88 174q32 65 41 92q7 17 14 26t13.5 9.5t11.5 -6.5q4 -8 4 -14q0 -42 -37 -109l-76 -143l-479 -1069l-51 -91l-4 -8q-58 -98 -84 -98h-4h-2q-6 3 -6 12zM74 1212v19q0 36 4 90q3 44 8 63q0 21 16 50q13 26 19 32q5 10 26 37 l29 37q15 21 35 21h4q74 -15 117 -109q41 -96 41 -180q-3 -146 -8 -174q0 -29 -21 -76q-14 -35 -37 -55q-22 -19 -61 -19q-71 0 -121 78q-48 74 -51 186zM109 1282q0 -101 22 -184q25 -76 59 -97q15 -12 50 -12q26 0 39 8q53 30 53 320q0 73 -39 129q-40 61 -72 61h-4 q-29 -3 -70 -65q-38 -61 -38 -160zM430 276q0 76 12 138q16 60 33 94q19 32 41 57q27 27 37 33q13 8 20 8h13q42 0 78 -31q31 -31 45 -81q13 -59 16 -93q6 -41 6 -84q-6 -196 -26 -249q-27 -74 -101 -74q-65 0 -119 72q-55 67 -55 210zM473 328q0 -112 23 -185 q18 -74 53 -96q15 -12 49 -12q26 0 39 8q53 30 53 319q0 81 -26 134q-26 59 -68 59q-19 0 -21 -2q-33 -14 -67 -72q-35 -59 -35 -153z" />
<glyph unicode="&#x26;" horiz-adv-x="710" d="M39 344q0 112 12 170q26 120 45 162q17 39 117 184l-55 184l-39 123q-20 66 -21 74q-11 33 -14 64q-10 58 -10 88q0 184 202 184q62 0 97 -35q86 -100 86 -194l-8 -43q-5 -29 -9 -41q0 -13 -8 -37q-8 -34 -12 -43q-11 -21 -21 -51q-25 -57 -32 -72l-41 -86l-58 -115 l269 -596q2 27 22 137q22 123 25 150q4 17 8 22q2 9 8 15q7 3 10 0q11 -7 11 -39q0 -49 -58 -348l27 -68l65 -115q17 -34 17 -47q0 -9 -6 -12q-2 -2 -6 -2q-13 0 -70 100l-4 9l-41 69q-64 -168 -273 -168q-138 0 -188 86q-47 83 -47 291zM84 311q1 -18 1.5 -41t1 -37.5 t1.5 -23.5q1 -15 10 -78q12 -48 29 -65q14 -17 53 -37q43 -15 88 -15q209 0 256 170l-282 627q-2 -2 -43 -61q-45 -65 -58 -91q-19 -48 -37 -118q-20 -79 -20 -187v-43zM115 1368q0 -22 8 -55q17 -73 117 -404q27 60 67 135q45 86 53 109q12 26 27 80q15 52 21 121v18 q0 81 -52 127q-41 35 -82 35q-70 0 -114 -47q-45 -45 -45 -119z" />
<glyph unicode="'" horiz-adv-x="120" d="M37 1325v8v17q2 6 2 14q4 46 4 72q0 20 -2 45v65q3 16 16 19h4q14 0 17 -15l2 -8l-2 -61v-49q2 -25 2 -58q0 -81 -17 -84l-2 -2q-16 0 -22 31q0 4 -2 6z" />
<glyph unicode="(" horiz-adv-x="335" d="M53 459q0 327 10 727v35v43q0 60 3 98q4 51 12 84q6 41 24 70q16 22 50 40q39 17 79 17q31 -22 31 -33q0 -7 -20 -10q-16 -3 -21 -8q-44 0 -65 -15q-18 -11 -27 -32q-10 -23 -16 -58q-7 -42 -9 -65q-1 -7 -1.5 -18.5t-1 -28t-1.5 -29.5q-1 -12 -1.5 -28t-1 -25.5 t-1.5 -14.5q-2 -51 -2 -260q0 -200 2 -274l-2 -611v-8q0 -74 21 -125q23 -44 80 -53q12 -2 22 -12q0 -13 -4 -17q-8 -8 -14 -8q-70 0 -97 27q-35 30 -41 139q-8 96 -8 453z" />
<glyph unicode=")" horiz-adv-x="313" d="M25 1540q0 12 30 33q41 0 80 -17q33 -17 49 -40q20 -32 25 -70q8 -33 12 -84q2 -25 2 -98v-43v-35q10 -400 10 -727q0 -357 -8 -453q-6 -109 -41 -139q-27 -27 -96 -27q-6 0 -14 8q-4 4 -4 17q10 10 22 12q57 9 80 53q21 51 21 125v8l-3 611q3 111 3 274q0 184 -3 260 q-1 5 -1.5 14.5t-1 25.5t-1.5 28q-1 13 -1.5 29.5t-1 28t-1.5 18.5q-4 40 -8 65q-6 35 -16 58q-9 21 -27 32q-21 15 -65 15q-5 5 -21 8q-20 3 -20 10z" />
<glyph unicode="*" horiz-adv-x="368" d="M20 1448q0 18 35 18l60 -8h2q2 -2 4 -2q-60 72 -60 80v2q4 4 9 4q23 0 67 -78q0 19 -2 39q-2 23 -2 45q3 16 17 19h4q13 0 16 -15l2 -4v-4l-6 -84l12 13l37 49q18 9 25 2q16 -10 2 -27q0 -2 -2 -2l-2 -4l-52 -39q17 0 35 2t43 2q6 -2 19 -2h12q0 -1 1 -3.5t1 -4.5 q0 -16 -16 -19l-7 -2l-61 5h-12q-9 -3 -15 -3l60 -67q9 -18 2 -25q-10 -16 -27 -2q0 2 -2 2t-4 2l-49 70l-4 4q0 -21 2 -39v-39q0 -38 -8 -41h-2q-17 0 -23 29q-3 18 0 45q0 6 4 14q0 9 4 21q2 6 2 16l-32 -33q-5 -4 -13 -11t-13 -11.5t-9 -7.5q-15 -11 -21 -11q-1 0 -4 3 q-15 9 6 36q4 4 8 8.5t8.5 8.5t6.5 6q4 4 20 12q19 11 27 19h-66q-39 0 -39 12z" />
<glyph unicode="+" horiz-adv-x="299" d="M-41 618q0 5 2 7t8 2l13 4h18q6 2 18 2l86 8l-10 92q0 64 23 64q12 0 18 -60l10 -88h2h33q4 0 14 1t15 1q10 4 20 4h23q22 3 22 -8q0 -21 -12 -24q-17 -8 -59 -11q-10 -1 -29 -2t-27 -2l5 -47q4 -16 4 -35v-14q0 -31 -11 -31q-8 0 -10 2h-8q0 4 -4 4q-1 2 -2 4.5t-2 4.5 v8q-2 4 -2 12t-2 16v19v24q-1 5 -2 14.5t-2 14.5l-88 -6q-64 0 -64 20z" />
<glyph unicode="," horiz-adv-x="151" d="M8 -141q0 14 8 45q17 56 41 209q10 16 19 16q18 0 18 -18v-9l-12 -59q-1 -3 -8 -43l-8 -57q-1 -13 -11 -56q-8 -34 -14 -45q-6 -16 -14 -16q-19 0 -19 33z" />
<glyph unicode="-" horiz-adv-x="366" d="M-6 625q0 18 59 18l129 4l47 4q16 4 35 4h23q22 3 22 -8q0 -21 -12 -24q-17 -8 -59 -11q-10 -1 -29 -2t-27 -2l-125 -10q-63 0 -63 27z" />
<glyph unicode="." horiz-adv-x="129" d="M16 53q0 17 2 25q1 1 2.5 6t2.5 6q2 2 2 6q0 25 18 25q20 0 20 -60v-12q0 -30 -10 -45q-6 -20 -18 -20t-15 30q-1 10 -2 19l-1.5 13.5t-0.5 6.5z" />
<glyph unicode="/" horiz-adv-x="612" d="M61 -66q0 12 5 37l34 125l281 1008l45 141l49 158l27 88q15 65 18 94q0 15 12 33l3 4q0 2 2 2l4 -2q5 0 8 -14q2 -6 2 -37q0 -33 -10 -78l-43 -160l-336 -1198l-27 -100v-8q-27 -107 -57 -117h-2l-2 -2h-2q-6 0 -9 10q-2 2 -2 16z" />
<glyph unicode="0" horiz-adv-x="550" d="M37 418q0 31 4 35l31 888v11q0 82 39 135q40 55 92 55q8 0 28 -4q52 -17 78 -35q34 -20 41 -30q15 -21 19 -33q3 -6 6 -11.5t4 -8t2 -3.5q33 -51 59 -282q29 -255 29 -496q0 -163 -18 -332q-21 -166 -52 -246q-1 -1 -2.5 -3l-4.5 -6t-5 -7l-10 -16q-5 -9 -10 -13 q-3 -4 -5.5 -6t-4.5 -3.5t-3 -2.5t-6 -3.5t-8 -4.5q-7 -4 -21 -8q-6 -3 -24 -6q-18 -4 -33 -7q-5 -1 -19 -2t-20 -2h-10q-6 -2 -10 -2q-42 0 -82 19q-38 18 -47 49q-8 23 -23 168q-14 134 -14 213zM82 453q0 -117 8 -232q6 -134 14 -153q22 -54 117 -54q62 0 103 35 q43 34 61 92q20 64 25 105q6 50 6 102l-2 64v125q2 59 2 141q0 793 -176 817q-36 4 -37 4q-52 0 -72 -41q-20 -35 -29 -153l-20 -834v-18z" />
<glyph unicode="1" horiz-adv-x="190" d="M57 57v131q0 512 11 945q6 203 6 264t-6 96q-3 27 2 35q3 6 6 6q7 0 14 -14t14 -45q7 -35 7 -66v-166q0 -268 -2 -512q-3 -366 -3 -489v-103v-10q0 -129 -28 -129q-18 0 -21 57z" />
<glyph unicode="2" horiz-adv-x="505" d="M37 49v10q23 288 41 347q14 46 53 110q35 60 68 90l22 25q8 7 55 71q42 57 68 117q32 66 55 160q25 103 25 201v43q-1 17 -2 50.5t-2 47.5q-4 46 -4 47q0 2 -3 14.5t-5 20.5q-2 7 -9 35q-9 38 -55 59q-54 23 -104 23q-95 0 -117 -54q-17 -39 -17 -272v-31q0 -8 -4 -24 q-1 -1 -5.5 -6.5t-6.5 -6.5q-7 -3 -10 0q-6 3 -6 84q0 234 18 287q24 70 141 70q53 0 111 -23q57 -25 84 -65q41 -59 41 -289q0 -100 -12 -170q-9 -52 -33 -129t-37 -90q-2 -2 -18 -31q-11 -25 -39 -70q-21 -34 -62 -82q-166 -187 -172 -364v-10q-8 -65 -8 -199q0 -4 -2 -6 v-6l137 4h53q125 0 125 -25q0 -1 -0.5 -2t-1.5 -3.5t-2 -4.5q-6 -9 -186 -12h-18q-25 0 -41 -2h-41q-74 0 -74 61z" />
<glyph unicode="3" horiz-adv-x="448" d="M43 1518q0 10 2 12q5 8 27 8q55 0 215 -10q20 -2 69 -2h27q39 0 39 -19q0 -34 -49 -188l-123 -389l-14 -53q78 -9 116 -62q34 -49 31 -115q-4 -86 -4 -135q0 -79 2 -114v-82q0 -43 2 -68t2 -176q0 -94 -37 -131q-36 -36 -141 -39h-12q-70 0 -97 27q-33 30 -41 63l-10 117 q0 45 21 45q11 0 22 -14q8 -17 6 -31q0 -32 4 -60q3 -21 17 -53q12 -28 43 -43q32 -14 84 -14q102 0 102 149v13q0 6 -2 10v8q-6 92 -6 283v75v43q0 143 -10 195q-9 48 -62 63q-7 1 -22.5 3.5t-22.5 3.5q-28 3 -39 8q-4 2 23 96q168 508 168 549q0 4 -8 4q-9 3 -29 0 q-12 -2 -31 -2q-4 0 -29.5 1t-46.5 1q-35 4 -77 4q-109 0 -109 19z" />
<glyph unicode="4" horiz-adv-x="493" d="M33 1370q0 142 2 156q0 16 12 16q27 0 27 -319v-117v-57v-72q0 -59 18 -74q27 -24 137 -24q107 0 131 18q9 6 9 61q0 9 -4 95l-5 108q0 58 2 72q-2 51 -2 176v12q-2 27 -2 95q0 66 19 69q24 0 24 -166v-59q-2 -20 -2 -33q0 -25 2 -45v-31v-6q15 -803 15 -981 q0 -235 -10 -252q-9 -53 -17 -53q-12 0 -12 150v102q2 41 2 68q0 351 -6 591l-23 -10q-34 -18 -123 -18q-100 0 -139 20q-37 19 -47 45q-8 21 -8 463z" />
<glyph unicode="5" horiz-adv-x="456" d="M47 162q0 45 21 45q11 0 22 -14q8 -17 6 -31q0 -32 4 -60q3 -21 17 -53q12 -28 43 -43q32 -14 84 -14q102 0 102 149v13q0 6 -2 10v8q-6 172 -6 363q0 312 -10 315q-33 -8 -97 -8l-122 -2q-37 -3 -43 6q0 697 6 706q7 11 145 11q105 0 152 -9q28 -6 28 -22t-143 -16 t-150 -17q-4 -16 -4 -53q0 -33 2 -70v-90q0 -164 2 -217l-2 -178l129 4q20 2 64 2h18q30 0 45 -18q16 -19 19 -31q2 -10 2 -25v-57v-27v-94q0 -94 2 -153v-123q0 -43 2 -68t2 -176q0 -94 -37 -131q-36 -36 -141 -39h-12q-70 0 -97 27q-33 30 -41 63zM47 162z" />
<glyph unicode="6" horiz-adv-x="468" d="M51 1225q0 115 12 186q3 22 15 49q30 74 139 74q57 0 111 -31q63 -40 63 -82q0 -22 -14 -22t-27 22q-41 80 -114 80q-81 0 -107 -57q-35 -72 -41 -418q0 -7 -4 -293q3 7 18 37q2 2 11.5 13t15.5 16q18 22 21 26q21 27 49 27q14 0 32 -6q21 -7 50 -33q33 -30 55 -72 q27 -49 41 -131q18 -85 18 -202q-6 -230 -18 -271q-2 -9 -17 -43q-20 -44 -41 -65q-19 -19 -57 -25q-6 -2 -24 -2q-94 0 -136 51q-40 55 -43 183l-4 122q-4 234 -4 867zM92 424q0 -321 74 -371q27 -18 63 -18q31 0 52 12q68 36 71 334v12v64q-4 36 -4 55q-2 12 -3.5 26.5 t-2.5 18.5q-1 2 -2 9.5t-3 15.5t-5 16q-7 31 -8 33q0 2 -1.5 6.5t-3.5 13.5t-4 17q-3 9 -6 18.5t-4 13.5t-2 5q-11 40 -29 65q-20 27 -32 29q-16 4 -31 4q-27 0 -61 -49q-42 -61 -48 -119q-10 -54 -10 -211z" />
<glyph unicode="7" horiz-adv-x="448" d="M41 16q0 23 2 33q0 18 10 66l31 135q24 101 37 178q246 1029 246 1063q0 12 -60 12q-39 0 -76 -2t-79 -2q-91 0 -91 25q0 10 2 12q5 8 27 8q19 0 33 -2l70 -6l94 -8q20 -2 69 -2h27q4 0 8.5 -0.5t7.5 -1t4 -0.5q5 -10 5 -17q0 -10 -35 -188q-137 -682 -168 -780 q-10 -31 -23 -93l-43 -188l-39 -182q-11 -32 -24 -56q-14 -26 -27 -26q-8 0 -8 22z" />
<glyph unicode="8" horiz-adv-x="563" d="M41 1278q0 13 4 45q0 51 39 113q42 68 82 84q29 16 86 16q221 0 221 -221q0 -67 -18 -156q-12 -57 -49 -129q-42 -77 -66 -98q-4 -4 -6 -10q-1 -1 -4.5 -8.5t-5.5 -12.5q-10 -19 -17 -29q9 -12 17 -28l10 -23q2 -6 6 -10q14 -15 49 -82q33 -67 39 -113q0 -1 3 -13 t11.5 -43.5t16.5 -63.5q28 -118 28 -152q0 -205 -47 -291t-188 -86h-8h-6q-33 0 -72 17q-107 58 -107 321q0 51 11 201q4 42 12 63q3 16 29 70q32 58 36 66l54 81l55 86q-11 18 -51 74q-31 38 -39 45l-14 15q-111 156 -111 272zM86 1313q0 -151 135 -320q13 -16 28 -35.5 t22 -29t10 -13.5q15 25 38 48q21 33 37 49q1 4 10 22t15 35q21 43 29 94q9 55 18 135v13v43q0 31 -6 55q-4 23 -21 43q-13 22 -49 35q-42 10 -94 10q-82 0 -127 -51q-45 -48 -45 -133zM100 270q0 -256 158 -256h16q42 10 82 31q35 24 50 37q15 18 24 61q8 39 8 70 q1 8 1.5 21.5t1 36t1.5 40.5v43q0 173 -161 473q-39 -56 -60 -77q-41 -44 -61 -91q-25 -51 -29 -73q-4 -16 -12 -66q-3 -40 -6 -53q0 -3 -1 -12t-2.5 -29.5t-3.5 -40.5q-6 -67 -6 -115z" />
<glyph unicode="9" horiz-adv-x="473" d="M49 1128q6 227 19 271q3 13 16 43q19 41 39 65q23 20 59 25q6 2 25 2q93 0 135 -51q40 -55 43 -183l4 -122q4 -234 4 -867q0 -116 -12 -186q-4 -26 -14 -49q-30 -74 -140 -74q-56 0 -110 31q-64 40 -64 82q0 22 15 22q13 0 26 -22q41 -77 115 -80h6q84 0 113 69 q26 76 26 242q0 15 -0.5 44t-1.5 82t-2 97q-4 230 -4 295v103q-40 -118 -100 -140q-19 -8 -49 -8q-145 0 -148 309zM92 1143q0 -20 1 -51t1 -43q5 -31 12 -82q12 -49 33 -70q25 -25 60 -25q14 0 34 5q24 7 70 94q46 84 49 141q2 18 2 76q0 244 -75 295q-27 18 -64 18 q-30 0 -51 -12q-69 -37 -72 -334v-12z" />
<glyph unicode=":" horiz-adv-x="129" d="M16 53q0 17 2 25q1 1 2.5 6t2.5 6q2 2 2 6q0 25 18 25q20 0 20 -60v-12q0 -30 -10 -45q-6 -20 -18 -20t-15 30q-1 10 -2 19l-1.5 13.5t-0.5 6.5zM16 602q0 17 2 25q1 1 2.5 6t2.5 6q2 2 2 6q0 25 18 25h4q16 0 16 -41v-19v-12q0 -45 -20 -45l-6 -2q-9 -3 -12 2 q-5 0 -5 10q-1 10 -2 19l-1.5 13.5t-0.5 6.5z" />
<glyph unicode=";" horiz-adv-x="163" d="M16 -158q0 10 9 45q3 10 32 179q10 16 19 16q18 0 18 -19v-8l-12 -59q-3 -10 -6 -41l-6 -49q-6 -24 -9 -45q-7 -26 -12 -37q-6 -14 -14 -14q-19 0 -19 32zM51 602q0 17 2 25q1 2 2 6.5t2 5.5q2 2 2 6q0 25 19 25h4q16 0 16 -41v-19v-12q0 -45 -20 -45l-8 -2q-8 -4 -11 2 q-4 0 -4 10q-1 10 -2 19l-1.5 13.5t-0.5 6.5z" />
<glyph unicode="&#x3c;" horiz-adv-x="882" d="M12 666q0 6 11 24q2 1 15 4t40.5 10t56.5 15q2 0 25 4t41 6q3 0 94 16q32 5 233 66q181 53 244 59q17 7 35 7q29 0 29 -15q0 -6 -5 -6q0 -1 -12 -4q-4 0 -16 -4q-553 -151 -586 -156q-75 -9 -131 -24l645 -138q2 -2 19 -2q20 0 24 -4q10 0 10 -8q-6 -14 -36 -14 q-23 0 -369 63q-7 0 -346 88q-21 0 -21 13z" />
<glyph unicode="=" horiz-adv-x="462" d="M-35 283q0 26 60 26q42 0 73 -2h58h94l45 4q12 4 20 4q5 2 13.5 4.5t9.5 2.5q45 0 45 -17q0 -20 -12 -26q-28 -7 -60 -9q-10 -1 -28.5 -2t-26.5 -2l-227 -10q-64 0 -64 27zM-23 616q0 13 23 23q27 10 55 10l201 6l47 4q20 5 35 5q45 0 45 -17q0 -21 -12 -24 q-16 -8 -60 -11q-10 -1 -28.5 -2t-26.5 -2l-227 -10q-52 0 -52 18z" />
<glyph unicode="&#x3e;" horiz-adv-x="837" d="M10 797q0 7 10 10q3 1 10.5 3t10.5 3l10 2q19 0 60 -14q41 -15 114 -27q351 -57 563 -106q23 -13 23 -21q0 -6 -8 -14q-1 -1 -3.5 -1.5t-6.5 -1.5t-7 -3q-8 0 -16 -4q-43 -11 -225 -66q-239 -67 -250 -70q-48 -11 -92 -24q-33 -7 -64 -19q-5 -3 -11.5 -5.5t-13.5 -5 t-10 -3.5q-17 -7 -18 -8l-6 -4q-4 0 -4 10q0 33 49 45q5 1 19 5t20 5q16 6 16 9l8 4l9 2l20 4q33 7 514 149q-65 8 -350 66q-307 57 -311 57q-60 9 -60 23z" />
<glyph unicode="?" horiz-adv-x="479" d="M45 1458v21v12v14q0 42 31 64q22 16 43 16q9 0 71 -16q193 -59 220 -209q12 -64 12 -137q4 -62 4 -117q0 -381 -125 -533q-91 -109 -113 -157q-28 -61 -28 -135v-19q2 -8 2 -20q-2 -33 -2 -88q-9 -52 -25 -52q-14 0 -29 48q0 232 23 262q13 23 14 24q3 26 176 244 q56 71 56 438l-2 111q0 211 -92 258q-82 43 -136 43q-18 0 -22 -2q-24 -3 -33 -12q-7 -10 -4 -27q4 -70 4 -307v-37q0 -14 -12 -23q-13 -10 -19 -10q-12 0 -12 182v111q0 47 -2 53zM106 -115q0 13 3 25q1 2 2 6.5t2 5.5q2 2 2 6q0 25 18 25q21 0 21 -59v-13q0 -29 -11 -45 q-6 -20 -18 -20q-11 0 -14 30q-1 10 -2 19t-2 14t-1 6z" />
<glyph unicode="@" horiz-adv-x="743" d="M37 418l35 923v11q0 81 63 135q64 55 154 55q11 0 47 -4q86 -16 133 -35q57 -19 70 -30q20 -16 30 -31l10 -12l7.5 -9t3.5 -4q46 -43 80 -272q32 -214 32 -506q0 -14 3 -41v-45q0 -73 -9 -119q-6 -47 -37 -86q-33 -41 -92 -41h-2q-86 0 -86 109v94q-24 -88 -49 -104 q-42 -33 -86 -33q-170 0 -170 469q0 42 2 71v48v10q3 73 62 123q54 51 143 51q21 0 31 -2q20 -4 22 -4q4 -2 10.5 -5.5t10.5 -5.5l14 -10q7 -3 10 -10q8 -8 8 -10q5 0 9 -8l2 -7q2 10 2 37v13q0 20 8 20q24 0 24 -76v-135v-12q3 -6 3 -15q0 -8 -3 -38q0 -61 -2 -127 q-2 -63 -2 -269v-51v-29q0 -20 4 -32q7 -10 27 -19q12 -4 27 -4q22 0 41 16q13 16 16 33l4 17v125q2 59 2 141q0 236 -14 373q-12 142 -37 239q-20 85 -70 135q-48 45 -100 60q-49 14 -139 14q-88 0 -123 -41q-37 -37 -49 -153l-35 -834v-18q0 -100 12 -232t27 -153 q35 -54 198 -54q143 0 211 45q71 47 95 131q1 1 4 3.5t4 3.5q2 4 8 10q4 4 6 4q6 0 12 -33q-12 -70 -36 -117q-6 -6 -21 -18l-18 -14q-3 -7 -19 -13q-8 -8 -20 -12q-2 -1 -10 -3.5t-13 -4.5q-7 -3 -33 -8q-14 -3 -43 -6q-6 -1 -24.5 -3.5t-28.5 -3.5q-11 -1 -34 -2t-35 -2 h-19q-8 -2 -18 -2q-72 0 -137 19q-60 18 -76 49q-8 23 -23 168q-14 134 -14 213zM213 928q0 -287 29 -400q26 -106 114 -106q44 0 82 53q35 56 41 187q10 263 10 286q-3 92 -24 129q-21 35 -90 35q-86 0 -125 -59q-37 -55 -37 -125z" />
<glyph unicode="A" d="M20 33q0 9 3 24q1 5 2.5 24.5t3.5 33.5q0 17 3 48.5t3 37.5l18 235q25 299 45 494q18 213 29 278q2 22 6.5 60t5.5 53q4 58 4 74q0 10 17 90q15 71 28 71t27 -38q23 -62 31 -107q15 -56 22 -139q4 -47 51 -297q47 -279 54 -369q2 -33 16 -160q10 -93 14 -186 q3 -100 19 -182q10 -62 10 -72q0 -20 -12 -20q-8 0 -10 2q-24 9 -39 223q-4 70 -11 125q-6 22 -26 22q-19 0 -25 -2q-44 -8 -133 -8h-90l-8 -98q-10 -120 -10 -121q-2 -20 -13 -98q-3 -14 -12 -17t-14 2q-9 6 -9 17zM82 395h92q89 0 133 8l43 7l-4 61q-11 151 -63 471 q-54 287 -64 393q0 15 -14 84q-6 41 -15 41q-8 0 -8 -33q0 -64 -22 -210q-28 -249 -31 -289q-4 -50 -12 -137.5t-11 -126.5q-12 -107 -18 -189z" />
<glyph unicode="B" horiz-adv-x="475" d="M57 1176v155v129v15q2 6 2 10q0 68 27 71h16q30 0 64 -6q21 -4 78 -22q45 -18 73 -62q29 -44 29 -102q0 -71 -33 -147q-30 -77 -80 -144q-49 -73 -88 -76q-5 0 -18 -8l3 -2q2 -2 3 -4q2 0 8 -6q26 -23 68 -90q45 -64 72 -123l4 -10q5 -15 12 -29q3 -6 9 -18.5t9 -18.5 q107 -192 107 -362v-23q-2 -8 -2 -14q0 -100 -10 -142q-8 -35 -45 -79q-32 -37 -129 -68q-104 -27 -158 -29h-2q-17 0 -8 52q2 6 2 96q0 8 -4 418q-1 40 -2 99t-1.5 102t-1.5 77v152q-2 25 -2 47v88q0 29 -2 74zM92 1511q2 -20 2 -79v-132q1 -27 2 -79t2 -78l2 -133l2 -2 q39 14 68 47q99 117 121 196q12 43 12 107q0 54 -24 94q-22 42 -62 45q-2 0 -17.5 3t-29.5 7q-35 6 -49 6q-25 0 -29 -2zM102 895q0 -7 7 -287q6 -240 6 -364q0 -172 -11 -232h35q2 0 5.5 0.5t10 1.5t11.5 2q141 27 188 95q21 30 21 172q0 148 -6 166q-27 89 -45 141 q-15 51 -25 65q-14 28 -20 37q-18 30 -25 47q-20 44 -66 113q-48 84 -61 92q-6 5 -12 5t-11 -5q-2 -2 -2 -49z" />
<glyph unicode="C" horiz-adv-x="483" d="M25 600q0 312 51 551q49 224 84 295q41 86 84 86q22 0 51 -19q74 -53 117 -368q8 -45 14 -184q-19 -25 -27 -25q-6 0 -16 29q-3 108 -14 174q-38 262 -72 311q-23 33 -53 33q-16 0 -31 -15q-41 -52 -84 -231q-44 -188 -53 -324l-8 -125q-2 -45 -7 -88q-2 -18 -2 -45 q0 -7 1 -25t1 -28q7 -29 13 -100q6 -38 18 -180q21 -233 88 -279q18 -12 51 -12q41 0 88 18q44 14 48 29q4 50 8 153q13 19 24 19q19 0 19 -39q-9 -107 -25 -133q-12 -35 -65 -62q-64 -34 -115 -34q-76 0 -100 61q-28 64 -52 213q-24 148 -30 213q-6 53 -6 131z" />
<glyph unicode="D" horiz-adv-x="497" d="M59 1343q0 29 2 56v55v64v14q6 16 37 16h6q2 -2 7 -2q79 -6 133 -16q39 -8 90 -39q43 -27 59 -82q17 -63 17 -145v-23q8 -448 8 -762q0 -307 -10 -340q-23 -81 -52 -106q-32 -21 -90 -21h-12h-8q-51 0 -78 -4q-16 0 -33.5 -1t-19.5 -1q-33 0 -41 14q-4 16 -4 43v27 q6 176 6 600q0 326 -15 615q-2 6 -2 38zM90 1505q7 -26 16 -354q9 -316 9 -629q0 -190 -2 -260q-1 -26 -1.5 -59t-1 -53.5t-1.5 -34.5q-3 -46 -3 -56q0 -8 54 -8q69 0 110 8q107 15 107 203v10l-8 426q4 222 4 322v121q-2 53 -2 153q0 211 -238 211h-37h-6z" />
<glyph unicode="E" horiz-adv-x="479" d="M53 1176v153v150q4 66 4 73q7 30 9 31q0 4 10 4q12 0 49 -16q41 -18 86 -23q211 -21 211 -55q0 -4 -4 -8h-12q-26 0 -148 14q-107 17 -133 27q-6 2 -14 6q-3 1 -13 6q0 2 -4 2t-4 -84q0 -106 2 -182q3 -115 6 -205l2 -88l2 -125l86 -6q138 -9 138 -37q0 -6 -4 -10t-21 -4 q-25 0 -80 8q-57 8 -86 8q-20 0 -26 -6q-13 -13 -13 -160q0 -189 19 -465l10 -131h135h12q160 0 160 -24q0 -5 -10 -15q-9 -6 -103 -12q-91 -6 -165 -6q-60 0 -66 6q-3 3 -6 45q0 19 -4 109q-2 55 -10 118q-10 62 -13 695q0 127 -2 207z" />
<glyph unicode="F" horiz-adv-x="438" d="M57 35q0 92 4 233q0 75 1 197.5t1 169.5q0 908 9 917q7 11 145 11q105 0 152 -9q28 -6 28 -22t-143 -16t-150 -17q-8 -16 -8 -213q0 -164 2 -217l4 -178l129 4q23 2 82 2q45 0 45 -16q0 -22 -12 -25q-14 -7 -59 -10q-10 -1 -29 -2t-27 -2l-125 -11l-4 -192 q-9 -612 -18 -639q-3 -6 -6 -6q-13 0 -19 6q-2 8 -2 35z" />
<glyph unicode="G" horiz-adv-x="491" d="M51 459q0 327 10 727v35q0 155 15 229q3 30 8 35q4 8 6 14q30 74 139 74q57 0 111 -31q53 -27 66 -59q15 -28 24 -135q0 -39 -18 -39q-13 0 -25 18q-6 109 -10 154q-3 11 -55 26t-103 15q-44 0 -65 -15q-18 -11 -27 -32q-10 -23 -16 -58q-7 -42 -9 -65q-1 -7 -1.5 -18.5 t-1 -28t-1.5 -29.5q-1 -12 -1.5 -28t-1 -25.5t-1.5 -14.5q0 -4 -0.5 -23.5t-1.5 -59t-2 -81.5q-6 -150 -6 -266v-104l8 -481v-9q0 -81 23 -123q18 -38 78 -47q10 -2 53 -2q123 0 123 21v2q-21 43 -21 301q0 305 25 461h-58h-8q-19 0 -33 -2t-30 -2h-8q-46 0 -46 18 q0 19 105 25q102 6 117 6q8 0 8 -11q0 -1 1 -4t1 -6q5 -7 0 -12t-16 -8v-17q-3 -12 -3 -18q-18 -302 -18 -399q3 -241 16 -291q5 -21 5 -37t-5 -27q-21 -40 -192 -43h-12q-70 0 -97 27q-33 30 -41 63q-8 31 -8 400z" />
<glyph unicode="H" horiz-adv-x="501" d="M51 61q0 25 2 45v52v28v86q0 119 4 181q19 260 19 718q0 211 -6 279q-7 82 -7 117q0 19 3 22q3 6 8 6q17 0 35 -110q12 -79 12 -426q0 -92 -2 -225v-228l125 4q31 2 102 2q29 0 33 -2q4 274 4 553q0 76 -2 90l-6 117q-2 33 -5 70.5t-4 53t-1 19.5q0 61 20 78q2 2 6 2 q29 0 29 -262v-12v-19q0 -114 2 -235v-244v-47q-6 -449 -6 -665v-33q0 -9 2 -15v-12q0 -49 -15 -49h-2q-20 3 -20 137q0 177 -4 230q0 31 -1 66t-1 40q0 69 2 100q-9 -6 -21 -6t-30 2t-58 2l-159 -10q-6 -192 -27 -559q0 -25 -8 -25q-4 0 -8 11q-9 13 -11 30q-4 28 -4 43z " />
<glyph unicode="I" horiz-adv-x="190" d="M63 57v131v377q0 358 5 568q6 203 6 264t-6 96q-3 27 2 35q3 6 6 6q7 0 14 -14t14 -45q7 -35 7 -66l-2 -166q0 -146 -3 -512q-2 -244 -2 -489l2 -103v-10q0 -129 -28 -129q-12 0 -15 57z" />
<glyph unicode="J" horiz-adv-x="448" d="M0 182q0 15 4 47q3 19 10 33q7 10 11 10q6 0 6 -18q0 -4 2 -8q2 -6 2 -62q0 -161 117 -161q58 0 170 47q16 29 16 336q0 196 -6 559q-8 323 -8 403v12q-2 27 -2 95q0 63 18 69h2q15 0 27 -178q14 -200 14 -981q0 -29 -1 -84.5t-1 -81.5q-2 -31 -5 -73.5t-3 -47.5 q-3 -38 -6 -41q-3 -22 -68 -43q-59 -20 -127 -20q-88 0 -129 41q-43 67 -43 147z" />
<glyph unicode="K" horiz-adv-x="505" d="M53 1214q0 340 25 340h2q24 0 24 -286q0 -346 -12 -437q6 0 19 13q18 18 36 41q14 18 29 33q148 158 230 520q9 30 16 30q20 0 20 -69q0 -23 -6 -41q-130 -406 -239 -481l-74 -64l31 -41q28 -61 49 -117l129 -336q99 -264 102 -282q6 -21 6 -33q0 -10 -6 -10 q-15 0 -49 55q-8 10 -20 41q-13 34 -17 49q-8 19 -8 25q0 8 -84 217q-3 8 -12 30.5t-26 68.5t-34 89q-57 168 -57 172q0 11 -12 11q-8 0 -11 -17v-28q0 -342 11 -406q8 -44 8 -137q0 -164 -14 -164h-9q-12 0 -18 18q0 4 -1 19t-2.5 41t-2.5 53q-23 1012 -23 1083z" />
<glyph unicode="L" horiz-adv-x="479" d="M61 346v533q2 246 2 487v135q0 18 7 39q2 12 8 31q7 10 10 10h2l4 2q10 0 10 -295q0 -5 1 -66t1 -118q5 -120 5 -250v-74l-2 -747l110 4h45q191 0 191 -35q0 -4 -2 -6q-4 -4 -39 -4q-9 0 -115 4q-80 6 -111 6q-16 0 -26 -2h-23h-24q-46 0 -49 6q-5 15 -5 340z" />
<glyph unicode="M" horiz-adv-x="778" d="M51 1534v27q0 8 15 8q15 5 20 0l61 -209q64 -140 99 -340q46 -220 49 -225q5 -18 6 -21q2 -8 2 -20q2 -5 8 -45q2 -22 13 -78q28 -161 51 -252q0 -1 22 -96q2 -20 7 -47.5t6 -34.5q3 -31 6 -31v6q2 5 6 33q0 12 4 78q3 48 12 92l228 1225q3 18 20 18q13 0 21 -8 q10 -10 10 -19v-20q0 -47 -23 -1059q-6 -240 -6 -252q-4 -88 -4 -196q-3 -65 -4 -66v-16q0 -54 -14 -54q-15 0 -15 31v25q2 10 2 37q0 53 2 110v217q0 85 4 221q8 123 11 400q3 310 6 334q8 117 8 155v8q-2 0 -51 -229q-48 -263 -64 -410l-86 -458q-9 -31 -20 -146 q-7 -47 -14.5 -99.5t-8.5 -61.5q-9 -48 -14 -48l-12 35q-17 67 -45 191q-24 120 -27 129q-101 419 -104 458q-18 127 -80 379q-62 215 -72 215q-2 0 -2 -32q0 -105 6 -191q2 -16 8 -284q3 -246 13 -345q8 -81 8 -348q0 -213 -8 -221l-15 -4q-12 0 -14 2q-1 1 -4 66 q0 108 -4 196q0 12 -6 252q-17 763 -17 1018z" />
<glyph unicode="N" horiz-adv-x="499" d="M49 45q0 43 10 148q6 64 9 200q2 70 2 163t-2 208q-2 154 -2 276q0 145 -3 166q-2 31 -2 279q0 28 5 28q29 0 102 -241q74 -256 88 -398q3 -27 51 -309q54 -278 68 -329l22 -78l-6 166q-3 88 -6 180q-3 52 -8 172q-2 51 -2 213v133q0 82 2 141v127v88v49q-2 10 -2 17 q0 67 18 67q3 0 10 -10q9 -15 9 -106q0 -70 -2 -150v-215q0 -450 18 -837q2 -16 2 -68q0 -131 -22 -131q-12 0 -27 51q-34 120 -74 313q-35 171 -55 299l-19 117q-16 147 -61 336q-47 197 -61 197q-7 0 -7 -7l-4 -4q-4 -4 -4 -8q0 -103 2 -119q8 -99 8 -260q0 -824 -28 -878 q-10 -17 -19 -17h-4q-6 3 -6 31z" />
<glyph unicode="O" horiz-adv-x="507" d="M43 637q0 252 41 442q60 284 111 365l32 57q18 27 29 27q4 0 35 -17q66 -46 143 -366q19 -78 19 -531q0 -266 -9 -368q-9 -129 -26 -164q-12 -34 -68 -66q-64 -34 -114 -34q-77 0 -101 61q-27 61 -51 213q-26 164 -31 213q-10 85 -10 168zM82 655q0 -33 4 -53 q0 -26 12 -100q2 -22 8 -82t9 -98q21 -233 88 -279q18 -12 51 -12q42 0 88 18q43 14 47 29q8 101 14 547q3 108 3 256q0 193 -15 258q-59 251 -100 309q-23 33 -35 33q-10 0 -20 -13q-40 -52 -84 -231q-46 -194 -54 -324l-8 -125q-3 -61 -6 -88q-2 -18 -2 -45z" />
<glyph unicode="P" horiz-adv-x="450" d="M57 53v15v137v168q2 53 2 82v86q0 22 2 47v151q1 34 1.5 77.5t1.5 102.5t2 99q4 410 4 420q0 88 -2 94q-9 53 8 53h2q54 -2 158 -29q99 -31 129 -67q37 -43 45 -80q10 -45 10 -143q0 -9 2 -17v-20q0 -171 -107 -363q-15 -30 -18 -35q-8 -16 -12 -28l-4 -10 q-27 -59 -72 -123q-42 -67 -68 -90q-21 -21 -41 -33l-2 -135q-1 -33 -2 -105.5t-2 -109.5v-172q-3 -49 -8 -54q-2 -2 -4 -2q-23 0 -23 72q0 4 -2 12zM102 662q0 -50 2 -52q5 -3 10 -3q6 0 13 5q12 8 61 93q48 71 66 112q6 17 29 51q18 32 34 74q14 39 52 164q6 18 6 166 q0 144 -21 174q-46 67 -188 94q-19 3 -30 3q-5 0 -9 -1q-20 -3 -23 0q11 -60 11 -229q0 -125 -6 -365q-7 -280 -7 -286z" />
<glyph unicode="Q" horiz-adv-x="505" d="M45 909v183q2 72 2 129q3 135 64 233q66 96 153 96q19 0 25 -2q37 -6 59 -24q19 -23 39 -66q22 -49 25 -82q6 -64 8 -180q2 -23 2 -51q4 -118 4 -285q0 -735 -76 -823l-8 -8l23 -23q32 -32 32 -59q0 -12 -8 -15h-4q-20 0 -72 76q-65 -39 -137 -39q-46 0 -61 21 q-70 94 -70 919zM84 1130q0 -194 10 -659q12 -413 35 -436q31 -31 84 -31q42 0 82 29q-1 2 -5.5 8.5t-11.5 16t-14 20.5l-37 47q-14 14 0 22q13 7 31 -8l61 -82q23 30 37 78q23 84 23 854v182q-3 183 -12 250q-9 66 -43 84q-23 13 -60 13q-42 0 -71 -19q-43 -28 -78 -131 q-31 -102 -31 -238z" />
<glyph unicode="R" horiz-adv-x="460" d="M57 1511v23v14l2 6q2 2 11 2h16q6 -2 12 -2q43 0 111 -45q75 -49 108 -96q40 -52 52 -102q14 -49 14 -154q0 -85 -6 -129q-6 -35 -31 -100l-24 -56q-11 -27 -68 -104q-53 -72 -100 -100q-16 -10 14 -50q35 -49 119 -299q94 -264 116 -313q17 -39 17 -63q0 -19 -8 -19 q-5 0 -15 10q-27 30 -131 320q-113 300 -127 319l-22 29l-2 -125q-3 -338 -6 -403q-3 -63 -13 -66q-8 -4 -14 2q-10 5 -10 19q-11 207 -11 1015q0 172 -2 281t-2 186zM96 1411q0 -34 4 -272l6 -310q6 -134 7 -135q2 -2 6 -2q25 0 78 62q95 112 122 219q21 83 21 153 q0 156 -27 203q-48 92 -139 152q-39 26 -57 26q-12 0 -19 -10q-2 -2 -2 -86z" />
<glyph unicode="S" horiz-adv-x="534" d="M45 1311q0 196 35 237q30 37 100 37q66 0 131 -24q68 -27 68 -52q0 -24 -25 -24q-15 0 -28 10q-65 47 -164 47h-4q-70 -3 -70 -242v-65q13 -59 39 -105q13 -25 113 -147q59 -72 106 -147q39 -64 51 -103q15 -49 21 -90q10 -45 22 -86q29 -102 29 -217q0 -72 -12 -137 q-9 -39 -49 -94q-40 -54 -97 -93q-53 -35 -106 -41h-4q-50 0 -86 70q-37 70 -37 223q0 53 8 92q7 51 14 68q10 23 13 23q5 0 20 -11q13 -10 10 -22l-8 -35q-19 -88 -19 -160q0 -82 25 -143q27 -63 75 -62q46 0 112 58q92 71 92 258q0 140 -37 276q-7 29 -10 45q-8 40 -8 41 q-7 11 -13 37q-3 5 -10 20t-10 21q-10 19 -29 45q-12 19 -45 62q-173 218 -176 239q-1 4 -14 25q-23 30 -23 166z" />
<glyph unicode="T" horiz-adv-x="468" d="M16 1516v2v4q0 2 2 4t9 2q2 1 8.5 2t9.5 2q17 0 27 2q136 4 141 4q212 0 215 -14v-6q0 -27 -135 -27q-20 3 -23 0q-4 -4 -4 -191v-331q2 -162 2 -351v-122q-3 -482 -10 -500q-4 -4 -8 -4h-2q-19 0 -19 4v16q0 15 -0.5 47t-1 74t-1 106.5t-1.5 133.5q-4 494 -8 745 q0 369 -4 373h-8h-37h-43q-109 3 -109 25z" />
<glyph unicode="U" horiz-adv-x="503" d="M59 1198q0 273 2 287q0 7 9 10q6 6 12 6q7 0 16 -313q6 -310 6 -602q0 -220 -4 -310q-2 -35 -2 -110v-35q0 -22 13 -35q24 -20 90 -35q71 -18 121 -18q35 0 43 8q9 6 12 275q3 231 6 551q3 282 6 303q4 28 4 98q1 26 2 75.5t2 73.5q0 68 4 76q5 8 11 8q24 0 24 -188v-78 q-14 -377 -22 -1042l-2 -166l-35 -17q-35 -18 -123 -18q-98 0 -139 21t-47 43q-9 24 -9 1132z" />
<glyph unicode="V" horiz-adv-x="505" d="M27 1468q0 15 8 15q26 0 37 -33q10 -26 20 -82q12 -70 19 -139q14 -103 26 -162q7 -31 29 -203q21 -156 33 -235l34 -207q3 -27 9 -55q0 -24 4 -48l4 -14q6 0 41 299q26 237 43 322q3 17 17.5 95t23.5 132q11 56 23 119.5t19 101t11 56.5q15 69 29 69q10 0 10 -18 q0 -15 -45 -301l-37 -238q-5 -25 -10 -56t-8 -47t-5 -24q-8 -35 -10 -61q-8 -40 -8 -58l-12 -98q-6 -52 -25 -182q-11 -77 -20 -166q-8 -60 -8 -135q0 -131 -17 -131q-5 0 -10 8q-10 14 -39 262q-38 259 -45 274q-6 9 -33 213q-27 234 -57 430q-29 214 -47 273q-4 12 -4 24z " />
<glyph unicode="W" horiz-adv-x="847" d="M47 102v109q0 116 14 360q14 240 17 609v47q0 105 -2 164t-2 104q0 51 6 66q6 18 22 18h2q15 0 15 -596q0 -270 -8 -317q-18 -124 -21 -347q0 -75 -2 -106l-2 -74q-2 -14 -2 -30t10 -29q46 -64 199 -64q85 0 104 19q5 5 17 149v62q1 8 2 23t2 22q0 41 2 82q1 21 2 71 t2 76q3 170 22 170q8 0 17 -26q8 -21 8 -37l-25 -484q6 -83 19 -96t80 -22q70 -13 121 -13q36 0 49 8q20 9 20 121q0 31 -2 64v84q-3 260 -10 295q-4 28 -4 239v402q0 176 -4 188q-4 16 -4 35q0 31 2 47q1 8 2 24t2 23q3 19 4 19q30 0 33 -338q3 -281 12 -609 q10 -362 10 -434q0 -32 -2 -59v-60q0 -21 -8 -32q-7 -15 -14 -19q-12 -8 -33 -16q-51 -23 -111 -23q-81 0 -143 33q-19 11 -29 37q-9 -41 -41 -57q-27 -15 -71 -15q-107 0 -224 54q-35 15 -43 28q-7 11 -10 51z" />
<glyph unicode="X" horiz-adv-x="503" d="M33 1507q0 4 10 4q41 0 53 -49q1 -6 5 -19.5t5 -19.5l9 -18q1 0 2 -2t2 -2l2 -10q1 -2 1.5 -5t1 -7.5t1.5 -8.5q25 -120 141 -514q8 67 66 348q57 310 57 314q9 59 23 59q7 0 10 -10q1 -3 3 -10.5t3 -10.5l2 -10q0 -1 -3 -19t-10.5 -62t-15.5 -93q-52 -317 -110 -563 q9 -23 12 -49q7 -29 10 -48q3 -21 6 -30q4 -4 31 -160q4 -18 8.5 -37.5t10 -41t8.5 -32.5q5 -15 9 -29t6 -22t3 -10l19 -70l20 -65q2 -8 11 -37.5t12 -44.5q12 -58 14 -88q6 -15 6 -35q0 -29 -12 -29q-10 0 -21 33l-12 43q0 27 -65 246q-68 228 -78 297q-8 68 -25 131 q-7 -34 -22 -90q-3 -12 -7 -25.5t-6.5 -22t-3.5 -12.5q-4 -20 -4 -32q0 -22 -47 -236t-47 -227q-2 -2 -2 -19q0 -7 -1 -15t-1 -9q-5 -10 -10 -10q-21 9 -21 36q0 21 6 64q7 28 27 131q18 92 33 174q11 63 84 346l-13 43q-15 61 -61 223q-14 54 -30 113.5t-24.5 91.5 t-11.5 47q-11 48 -24 92q-10 43 -19 62q-12 32 -14 37l-8 20z" />
<glyph unicode="Y" horiz-adv-x="387" d="M33 1528q0 22 12 22q13 0 25 -26l47 -326l33 -233q4 -38 10 -60q16 -52 16 -53q7 -21 10 -21q25 0 66 345q17 148 51 319l6 27q9 88 25 88q9 0 12 -86q-34 -206 -53 -355q-4 -37 -43 -268q-35 -161 -35 -260q0 -74 -2 -88q4 -36 4 -70q0 -4 -0.5 -19.5t-1.5 -47t-2 -64.5 q-6 -111 -6 -213v-37v-10q0 -129 -29 -129q-22 0 -22 98q0 62 18 416q2 14 2 62v34v25q-2 8 -2 12q-3 57 -22 164q-14 84 -37 182q-13 54 -23 105q-59 461 -59 467z" />
<glyph unicode="Z" horiz-adv-x="430" d="M51 51q0 27 8 66q3 13 7 32.5t9.5 48.5t10.5 52q16 70 35 178q10 56 35 147l47 179q20 73 20 92q0 20 66 305q65 281 65 291q0 15 -149 18q-150 3 -150 31q0 10 2 12q5 8 27 8q19 0 35 -2l69 -6l93 -8q85 -6 100 -12q14 -3 14 -25q0 -1 -3 -18.5t-10 -61.5t-15 -92 q-37 -217 -64 -344q-25 -125 -49 -213q-18 -61 -33 -102l-20 -56q-6 -15 -6 -32q0 -16 -48 -234q-47 -214 -47 -229q0 -13 115 -13q117 0 117 -18q0 -16 -113 -25q-16 -2 -72 -2q-51 0 -61 5q-35 15 -35 28z" />
<glyph unicode="[" horiz-adv-x="483" d="M61 47v221q0 397 2 508q-2 111 -2 381v219q5 122 5 123q8 56 8 57q3 13 12 13q28 -4 47 -4q35 0 72 2q33 2 78 2q127 0 127 -37q0 -2 -4 -4q0 -1 -1.5 -1.5l-3 -1t-2.5 -1.5q-4 0 -6 -2h-26q-27 0 -37 -2h-33q-21 0 -193 6l5 -60v-10q0 -3 -1 -17t-2 -41.5t-2 -58.5 q-4 -140 -4 -182q0 -20 2 -43v-98v-137v-103q0 -75 2 -184t2 -250v-68v-194q0 -106 3 -121l8 -59l131 6q20 2 78 2q84 0 84 -14q0 -9 -4 -13q-3 -7 -13 -10l-18 -6q-2 -2 -29 -6q-12 -2 -35 -2q-20 -4 -45 -4q-11 -2 -31 -5l-20 -2q-57 -8 -80 -8q-49 0 -61 39 q-13 41 -13 170z" />
<glyph unicode="\" horiz-adv-x="993" d="M14 1516q0 13 6 16l3 2q2 0 6 -4q12 -9 18 -29q12 -28 43 -86q6 -14 47 -78l88 -139l80 -125l533 -901l65 -113q17 -34 17 -49q0 -8 -7 -12h-2h-4q-24 0 -82 98l-6 8l-51 91l-633 1069l-82 143q-39 62 -39 109z" />
<glyph unicode="]" horiz-adv-x="450" d="M20 -106q0 14 84 14q58 0 78 -2l131 -6l9 59q2 10 2 121v194v33q-2 14 -2 35q0 23 1 106t1 144q4 109 4 184v103v137v98q2 23 2 43q0 42 -4 182q-1 30 -2 58l-1.5 42t-0.5 17v10l4 60q-172 -6 -195 -6h-33q-8 2 -35 2h-26q-2 2 -6 2q-1 1 -3 2q-3 1 -3 2q-5 2 -5 4 q0 37 125 37q45 0 80 -2t72 -2q19 0 47 4q9 0 12 -13q3 -10 9 -57q0 -25 4 -123v-219q0 -13 -0.5 -59t-1.5 -137.5t-2 -184.5q4 -442 4 -508v-221q0 -129 -13 -170q-12 -39 -61 -39q-23 0 -80 8l-20 2q-20 3 -31 5q-25 0 -45 4q-23 0 -35 2q-27 4 -29 6l-18 6q-8 3 -12 10 q-5 5 -5 13z" />
<glyph unicode="^" horiz-adv-x="339" d="M20 1460q0 17 72 121l33 51l6 6q4 4 12 4q9 0 13 -4l6 -6l35 -51q71 -103 71 -121q0 -6 -4 -10t-10 -4q-13 0 -27 14l-84 131l-84 -131q-14 -14 -26 -14q-6 0 -10 4q-3 3 -3 10z" />
<glyph unicode="_" horiz-adv-x="690" d="M-35 -63q0 26 60 26h77q35 -2 74 -2q333 0 416 14q45 0 45 -16q0 -22 -12 -25q-14 -7 -60 -10q-10 -1 -28.5 -2t-26.5 -2l-481 -10q-64 0 -64 27z" />
<glyph unicode="`" horiz-adv-x="210" d="M0 1577q0 8 4 12t14 4q9 0 13 -4l6 -6l33 -51q71 -103 71 -121q0 -6 -4 -10t-10 -4q-13 0 -27 14l-98 154q-2 4 -2 12z" />
<glyph unicode="a" horiz-adv-x="491" d="M18 20l166 1461q4 19 13 26q7 13 16 13q2 0 10 -4q6 -6 6 -13q3 -77 54 -393l41 -270l22 -123q34 -201 43 -258l21 -125l16 -101l12 -75q8 -46 8 -56q6 -26 9 -41l6 -28q2 -4 2 -17q1 -2 2 -5.5t2 -4.5v-6v-6q0 -4 -29 -4q-15 0 -30 102q-12 91 -27 150q-12 31 -41 34 q-9 3 -23 3q-2 0 -49 -7q-31 -5 -98 -8l-78 -2l-6 -39q-4 -30 -8 -45q0 -19 -4 -43q-4 -28 -4 -41l-7 -33q-1 -3 -1.5 -7.5t-1.5 -8.5t-3 -8q0 -9 -8 -17q-3 -6 -8 -6q-23 0 -23 6zM92 326q0 -24 8 -29q8 -4 33 -4q51 0 139 18q97 22 97 29q0 4 -2 6q-4 6 -11 31l-12 102 q-7 47 -31 180q-32 184 -84 580q-12 84 -18 84t-27 -178q-1 -6 -5 -47t-13 -125t-19 -178q-40 -366 -53 -443q-2 -6 -2 -26z" />
<glyph unicode="b" horiz-adv-x="464" d="M59 1485q0 61 33 61q6 0 8 -2q50 4 52 4q206 0 206 -235q0 -89 -24 -168q-73 -187 -182 -258l-9 -2q-2 -1 -5.5 -2t-4.5 -2l14 -15q1 -1 8 -5.5t21 -12.5t29 -17q52 -34 76 -61q125 -143 125 -451q0 -198 -41 -245q-33 -39 -129 -66q-87 -28 -158 -31h-2q-17 0 -8 52 q2 6 2 96q0 8 -4 418v162q-4 109 -5 122v66v473zM94 1518q1 -9 1.5 -23.5t1 -39.5t1.5 -44q0 -114 2 -192q1 -32 2 -96t2 -89l2 -135l3 -2q37 14 67 47q108 126 135 236q6 30 6 86q0 238 -100 247q-9 0 -33 3q-6 1 -18.5 2t-18.5 2h-26q-23 0 -27 -2zM104 18h35q2 0 5.5 1 t9.5 2l12 2q142 27 188 94q8 65 8 172q0 315 -108 456q-9 12 -29 29q-1 1 -15.5 11t-21.5 14l-36 22l-19 13q-7 5 -13 5q-5 0 -9 -3q-2 -2 -2 -60q0 -2 1 -76.5t1 -146.5q4 -121 4 -283q0 -184 -11 -252z" />
<glyph unicode="c" horiz-adv-x="468" d="M59 795v368q0 372 160 387h14q77 0 121 -71q43 -73 43 -142q0 -29 -10 -32h-2q-13 0 -25 51q-14 47 -45 98q-34 51 -84 51q-16 0 -22 -2q-100 -21 -103 -303l-4 -913q0 -152 9 -176q16 -48 34 -56q27 -18 99 -18q29 0 59 74q33 94 47 155q17 76 23 82q9 74 35 74 q7 0 10 -10q-3 -6 -6 -23q0 -1 -4.5 -15.5t-6.5 -25.5l-8 -45q-47 -323 -182 -323q-22 0 -68 14q-25 6 -51 45q-28 39 -31 184v86v215q-2 57 -2 271z" />
<glyph unicode="d" horiz-adv-x="555" d="M57 1124q0 432 17 449h4q4 2 10 2q50 0 178 -23q117 -21 154 -55q39 -33 51 -108q10 -78 10 -197v-105v-55q0 -9 0.5 -30.5t1.5 -62.5t2 -79q4 -184 4 -231q0 -440 -69 -518q-28 -35 -139 -95l-191 -16q-2 -2 -6 -2q-9 0 -12 133q-15 507 -15 993zM90 1161q0 -199 6 -475 q4 -186 13 -457q6 -180 8 -182q4 -4 24 -4q51 0 138 37q92 39 106 61q64 64 64 555q0 25 -1.5 114t-1.5 153q-4 111 -4 223q0 82 2 100q0 11 2 17v16v33q-2 12 -6 28q-3 12 -6 21q-4 12 -8 20q-4 4 -7 9l-3 6q-2 2 -10 14q-5 5 -9 10l-4 4q-21 30 -119 52q-90 20 -161 20 q-23 0 -23 -375z" />
<glyph unicode="e" horiz-adv-x="430" d="M41 1548q0 4 2 6q3 7 27 7q18 0 98 -9q43 -5 129 -10q70 -3 70 -26q0 -4 -7 -11q-8 -8 -43 -8q-40 0 -108 8q-65 8 -90 8q-13 0 -15 -2t-2 -63q0 -125 9 -356q9 -233 12 -236l53 -4q70 -4 103 -8q51 -9 51 -25q0 -18 -47 -18q-41 0 -109 10l-51 8v-51q4 -46 4 -68 q0 -51 -2 -88q-1 -13 -2.5 -64.5t-3.5 -90.5q0 -71 -4 -193l-4 -215l98 -6q180 -9 180 -43q0 -12 -35 -12q-12 0 -104 6q-58 4 -178 8q-2 0 -2 33v35q6 166 6 612q0 848 -29 858q-6 3 -6 8z" />
<glyph unicode="f" horiz-adv-x="442" d="M53 395q0 235 6 656q9 505 17 518q7 10 131 10q134 0 164 -12q30 -15 30 -35q0 -9 -10 -16h-26q-6 0 -21.5 0.5t-45.5 1.5t-58 2l-144 6l4 -60q4 -86 4 -350v-291l99 2h33h40q14 -4 21 -8q8 -8 8 -24q0 -11 -16 -17q-4 0 -14.5 -1t-27.5 -2.5t-34 -2.5q-99 -9 -102 -12 t-9 -393q0 -391 -16 -394h-2q-31 0 -31 422z" />
<glyph unicode="g" horiz-adv-x="489" d="M51 459q0 327 10 727v57q0 111 13 187q4 26 14 49q30 73 139 73q59 0 111 -30q44 -27 59 -62q4 -16 4 -20q0 -23 -14 -23t-27 23q-41 80 -114 80q-47 0 -94 -33q-21 -14 -29 -49q-10 -32 -14 -70q-1 -6 -5 -94q-1 -15 -1.5 -34t-1 -31.5t-1.5 -20.5q0 -41 -6 -164 q-4 -156 -4 -213v-70q-2 -27 -2 -77q0 -86 10 -471v-17q0 -78 21 -115q17 -38 74 -47q24 -8 53 -8q51 0 78 35q28 32 38 70q9 35 9 67q0 48 6 150q5 80 5 161q0 35 -1 70q-1 16 -1 37q0 51 5 135q1 30 2 62.5t1.5 49.5t0.5 25h-2h-10q-2 1 -8 2t-9 2q-1 0 -34 5q-34 0 -54 2 q-65 3 -65 18l2 8q4 4 12 4q4 2 15 2q14 0 26 2h33h12q6 2 12 2h33q56 0 66 -10q10 -17 10 -35q0 -10 -2 -14v-14v-99q-4 -43 -8 -129q0 -84 2 -131q2 -45 2 -90v-57v-43l-2 -17q0 -188 -41 -247q-39 -57 -170 -60h-12q-70 0 -97 27q-33 30 -41 63q-8 31 -8 400z" />
<glyph unicode="h" horiz-adv-x="487" d="M57 1059q0 491 31 491h2q11 -3 14 -659q5 0 11 2h10q2 -2 49 -2q14 0 50.5 -1t58.5 -1q72 -7 84 -12q0 34 -2 61v59q0 529 22 568q5 8 10 8q19 0 19 -57v-17q-15 -237 -15 -563v-195q1 -22 2.5 -83.5t2.5 -90.5q1 -24 2 -69.5t2 -67.5q1 -17 2 -50.5t2 -47.5v-37v-4 q-2 -2 -2 -8v-93q0 -94 -6 -153q-3 -14 -23 6q-10 10 -10 18q-1 40 -1.5 102t-1 158t-1.5 171q-2 193 -2 362q-5 0 -7 -2h-8q-32 0 -69 4q-41 0 -103 4l-55 -4q-5 0 -21 4v-162l-4 -616q2 -18 2 -76q0 -59 -20 -59q-4 0 -6 2q-17 10 -17 700v203q-2 59 -2 207z" />
<glyph unicode="i" horiz-adv-x="196" d="M47 190q0 263 14 558q15 316 15 432q0 131 -2 180q0 79 -2 102q-2 20 -2 41q0 43 26 43h6q10 -3 13 -18q3 -16 0 -49q0 -53 2 -90q0 -91 2 -111q2 -16 2 -49q0 -61 -12 -389q-13 -356 -13 -660q0 -79 2 -102t2 -45q0 -39 -20 -39h-2q-15 4 -21 63q-10 54 -10 133z" />
<glyph unicode="j" horiz-adv-x="444" d="M0 193q0 38 20 38q11 0 23 -18q0 -6 2 -8v-8q0 -27 -2 -41t-2 -29q0 -29 27 -72q9 -13 51 -24q50 -13 90 -13q46 0 67 15q17 10 27 33q10 24 16 57q7 42 9 65q1 7 1.5 18.5t1 28t1.5 29.5q1 12 1.5 28t1 25.5t1.5 14.5l4 180q6 135 6 240q0 30 -2 57v59l-6 453v31 q0 20 -4 86q-4 62 -4 67q6 42 14 45q4 0 12 -4q1 -1 2.5 -3t3 -5.5t3.5 -5.5q0 -8 4 -16q1 -2 1.5 -5t1 -7.5t1.5 -8.5q2 -8 2 -14q8 -31 8 -398q0 -327 -10 -727v-18q2 -8 2 -19q0 -121 -21 -229q-3 -34 -12 -49q-19 -31 -59 -49q-43 -21 -93 -21q-52 0 -98 27 q-53 30 -67 63q-16 32 -25 132z" />
<glyph unicode="k" horiz-adv-x="538" d="M51 1063q0 260 2 334q6 168 21 168h2q24 0 24 -291q0 -352 -12 -443q2 0 18 23l33 55q20 34 29 45q32 52 127 244q93 193 168 322q18 30 26 30q9 0 9 -18q0 -24 -23 -82q-66 -148 -170 -346q-110 -209 -176 -287l21 -45q28 -61 49 -117q30 -75 69 -163l109 -254 q47 -107 53 -132q6 -21 6 -34q0 -17 -8 -17q-15 0 -39 64q-49 113 -49 121q-6 11 -21 51l-40 96l-27 64q0 1 -3.5 8.5t-13 27.5t-18.5 41l-70 150q-32 68 -32 82q0 7 -9 10q-3 3 -6 -4q-2 -2 -2 -12v-23q0 -363 13 -430q8 -44 8 -137q0 -164 -15 -164q-8 0 -14 25 q0 3 -3 29.5t-5 45.5q0 35 -4 93q-1 15 -2 51.5t-2 54.5v90q-23 299 -23 674z" />
<glyph unicode="l" horiz-adv-x="442" d="M49 23q0 6 2 12t2 14q4 4 4 371q6 368 9 739q1 70 1.5 134.5t1 106.5t1 73.5t0.5 46.5v16q0 2 18 2h2q11 0 14 -59q0 -9 1 -63t2 -159.5t2 -222.5v-123q0 -107 -3 -350v-332q0 -175 5 -180q10 -10 172 -16q137 -3 137 -27q0 -4 -2 -6q0 -4 -94 -4l-265 4q-10 10 -10 23z " />
<glyph unicode="m" horiz-adv-x="772" d="M59 516v164q0 651 4 885q0 10 25 10q4 0 6 -2h4l62 -209q8 -29 41 -184q55 -242 94 -394q7 -43 16 -90q3 -12 9.5 -32.5t9.5 -32.5q12 -40 16 -56q17 -65 23 -110q11 -62 18 -109q6 -41 8 -41v4q8 8 49 218q3 17 11 41q27 43 202 960q3 18 21 18q12 0 20 -8 q11 -11 11 -18v-19q0 -20 -2.5 -126t-8.5 -363.5t-12 -505.5q-2 -100 -6 -233q-2 -76 -2 -158q0 -45 -2 -47v-17q0 -51 -14 -51q-15 0 -15 21q0 16 -4 39q0 11 -1 27t-1 20v12v16q0 37 -2 88v127q0 43 4 175q1 17 16 395q1 57 2.5 109.5t2.5 87t2 60.5t1.5 39.5t0.5 14.5 q8 117 8 156v8l-49 -229q-1 -7 -4 -21.5t-8 -38.5t-9 -47l-28 -149q-10 -47 -17 -89l-72 -301q-77 -303 -79 -309q-3 -15 -7.5 -20t-10 1t-11.5 21q0 8 -2 10q-26 102 -41 179q-19 98 -25 116q-15 57 -75 328l-86 406q-41 168 -54 168q-2 0 -2 -33q0 -105 6 -191v-39 q0 -12 -0.5 -36.5t-1.5 -71.5t-2 -88q-4 -204 -4 -234q0 -93 4 -143q15 -153 15 -483q0 -135 -7 -142q-3 -12 -12 -12q-17 0 -20 45q-1 1 -4 66q0 108 -4 196q0 52 -3.5 145.5t-3.5 106.5z" />
<glyph unicode="n" horiz-adv-x="575" d="M51 1534v27q0 10 25 10q4 0 6 -2h4q8 -5 8 -15v-12q0 -61 53 -182q64 -140 99 -340q46 -220 49 -225l8 -21q0 -8 4 -20q0 -14 8 -45q2 -13 19 -78q56 -217 69 -252l19 -57q12 -27 12 -39q6 -13 8 -13q11 0 11 637q0 649 6 652q4 4 8 4q17 0 20 -90q7 -103 7 -328v-297 v-109v-209q0 -133 2 -186v-147v-103v-41v-20q2 -8 2 -17q0 -45 -13 -45h-2q-11 4 -14 13q-3 13 -6 41q-1 7 -2 21.5t-2 19.5q-17 101 -99 307q-119 420 -122 458q-3 28 -41 216q-43 196 -52 233q-5 20 -22 66q-18 40 -23 40q-3 0 -6 -63q-6 -67 -6 -104q0 -7 2 -11v-6 q2 -16 8 -284q3 -246 13 -345q8 -81 8 -348q0 -213 -8 -221l-15 -4q-12 0 -14 2q-1 1 -4 66q0 108 -4 196q0 12 -6 252q-17 763 -17 1018z" />
<glyph unicode="o" d="M35 317v25q0 271 39 670q38 415 90 485q21 27 49 27q45 0 90 -54q55 -64 82 -409q27 -349 27 -617q0 -16 -2 -28v-23q-6 -226 -19 -270q-3 -13 -16 -43q-21 -46 -39 -64q-20 -20 -60 -26q-6 -2 -24 -2q-90 0 -154 98q-60 92 -63 231zM72 408q0 -138 30 -240 q35 -101 78 -129q28 -19 64 -19q28 0 51 13q69 37 72 334v12q0 138 -19 534q-18 373 -37 439q-35 123 -86 123q-40 0 -61 -50q-12 -28 -53 -462q-39 -409 -39 -555z" />
<glyph unicode="p" horiz-adv-x="450" d="M57 1124q0 432 17 449h10q6 2 12 2q42 0 125 -21q83 -22 117 -53q74 -68 74 -194q0 -79 -27 -193q-35 -149 -90 -274q-64 -134 -115 -185l-47 -43q-6 -6 -16 -12q-13 -8 -17 -27v-18q0 -13 9 -219q0 -18 2 -45q2 -25 2 -66q0 -218 -11 -225q-2 -2 -6 -2q-21 0 -24 133 q-15 507 -15 993zM96 1163q0 -36 1 -113.5t1 -119.5q2 -48 3.5 -114.5t2.5 -82.5q3 -74 5 -76t4 -2q12 0 45 39q80 86 137 252q61 171 70 336q2 18 2 66q0 54 -31 96q-29 37 -94 63q-69 29 -117 29q-29 0 -29 -373z" />
<glyph unicode="q" horiz-adv-x="550" d="M37 418q0 31 4 35l31 888v11q0 82 39 135q40 55 92 55q8 0 28 -4q52 -17 78 -35q34 -20 41 -30q15 -21 19 -33q3 -6 6 -11.5t4 -8t2 -3.5q33 -51 59 -282q29 -255 29 -496q0 -351 -59 -584q-9 -12 -13 -16l41 -51q6 -18 6 -23q0 -6 -6 -6q-14 0 -65 51l-4 4 q-65 -47 -154 -47q-117 0 -141 70q-8 23 -23 168q-14 134 -14 213zM82 453q0 -117 8 -232q6 -134 14 -153q22 -54 117 -54q71 0 119 31h-2q-68 83 -68 102q0 7 2 9t13 2q17 0 86 -84q10 20 10 22q30 141 33 316v125q2 59 2 141q0 793 -176 817q-36 4 -37 4q-52 0 -72 -41 q-20 -35 -29 -153l-20 -834v-18z" />
<glyph unicode="r" horiz-adv-x="456" d="M53 1303q0 205 8 213q12 18 62 18q136 0 219 -109q59 -77 59 -202q0 -80 -18 -215q-14 -107 -68 -217q-53 -108 -116 -154q-60 -48 -60 -72q0 -11 23 -41q38 -38 125 -250q85 -209 96 -219q12 -12 12 -28q0 -25 -18 -25t-62 92l-59 127q-2 5 -17 43.5t-30 71.5 q-26 78 -57 131q-21 43 -43 43q-13 0 -7 -33q19 -100 19 -235v-103v-37q0 -125 -23 -125q-13 0 -28 494q-17 564 -17 832zM96 1176q0 -568 17 -568l61 66q72 69 117 190q47 125 53 193q10 61 10 119v59q0 35 -2 49q-4 27 -8 35q-6 18 -8 22q0 1 -4 8.5t-8 14.5q-5 5 -11 12 l-6 6q-77 109 -180 109q-31 0 -31 -12q0 -1 0.5 -3.5t1 -7.5t0.5 -10q5 -19 2 -35q-4 -54 -4 -247z" />
<glyph unicode="s" horiz-adv-x="532" d="M45 1343q0 104 57 164q54 66 125 66q110 0 179 -84q20 -20 20 -39q0 -8 -8 -8q-9 0 -17 8q-112 80 -172 80q-41 0 -82 -35q-51 -42 -51 -145q0 -161 37 -236q40 -84 143 -199q148 -161 189 -401q12 -70 12 -170q0 -230 -41 -289q-28 -42 -84 -63q-55 -25 -110 -25 q-118 0 -142 70q-18 52 -18 287q0 81 6 84q3 3 10 0q7 -4 13 -15q4 -8 4 -22v-31q0 -235 16 -272q22 -54 117 -54q50 0 104 23q47 21 56 59q0 2 3 14.5t5 20.5q2 7 4.5 18.5t3.5 14.5l4 49q1 14 2 47.5t2 50.5v43q0 100 -22 199q-23 96 -58 164q-58 103 -65 114 q-37 53 -58 74l-22 23q-41 35 -76 92q-33 58 -47 106q-18 63 -25 99q-10 52 -10 82q-4 23 -4 36z" />
<glyph unicode="t" horiz-adv-x="444" d="M16 1534q0 14 170 20q33 2 119 2q103 0 119 -16q6 -6 6 -12q0 -10 -106 -19q-102 -9 -103 -10q-2 0 -2 -2q0 -4 2 -10q4 -8 4 -25q2 -5 4 -19.5t4 -21.5q0 -8 1 -19t2 -26.5t2 -27.5q2 -33 2 -109q0 -293 -15 -489q-11 -172 -14 -549q0 -62 2 -97t2 -65q0 -68 -12 -68 q-41 0 -41 303v35q0 241 14 465q14 218 14 506q0 17 -4 115l-6 108h-63q-101 0 -101 31z" />
<glyph unicode="u" horiz-adv-x="483" d="M51 225v86q0 119 4 181q23 330 23 643q0 157 -6 225q-6 70 -6 117q0 20 2 22q3 6 8 6q17 0 35 -110q12 -80 12 -336q0 -319 -21 -494q-10 -92 -10 -276q0 -155 8 -176q15 -47 35 -60q19 -11 96 -14q13 0 23 -2h20q57 0 72 12q19 16 19 320v114q-3 83 -3 140q0 74 3 221 q2 100 2 192q0 463 20 469q2 0 2 2h2q10 0 23 -16q8 -24 8 -39q0 -14 -2 -18q-9 -21 -21 -1211v-198l-43 -19q-41 -18 -145 -18q-45 0 -78 8q-25 6 -51 45q-28 39 -31 184z" />
<glyph unicode="v" horiz-adv-x="514" d="M31 1552q0 19 16 19q17 0 41 -137q33 -192 78 -508q28 -179 43 -322q2 -22 20 -207q2 -25 4 -54.5t3.5 -47t1.5 -27.5l6 -32q1 0 4 24l6 64q0 13 6 61l39 244q26 172 33 223q23 157 33 215q4 22 13 81t15 97q5 41 14 100.5t11 71.5q13 67 24 96q11 33 27 33t16 -14 q0 -13 -4 -25q-18 -61 -51 -290q-44 -307 -63 -459q-27 -217 -35 -230q-12 -24 -41 -274q-30 -251 -37 -262q-5 -8 -10 -8q-27 0 -33 131q-3 56 -25 213q-17 119 -28 270q-1 11 -4 48t-4 59q-3 54 -7 75q0 25 -8 80q-17 126 -20 148l-39 243q-45 286 -45 301z" />
<glyph unicode="w" horiz-adv-x="847" d="M20 1534q0 12 9 12q23 0 34 -33q15 -38 23 -96q22 -149 25 -172q20 -148 24 -178l25 -195q24 -185 35 -243l34 -207q0 -1 4 -28.5t5 -45.5q8 -66 8 -84q2 -9 3 -18.5t1.5 -13t1.5 -3.5h2q15 0 82 488q67 487 98 487q4 0 10 -16l121 -764l10 -78q8 -59 11 -76q0 -26 4 -26 q1 0 41 362q25 224 43 320l39 221l32 184l21 125q14 68 20 84q9 25 15 25q12 0 12 -21q0 -15 -45 -301q-66 -415 -90 -645q-9 -84 -27 -184q-6 -48 -22 -164q-8 -57 -8 -135q0 -129 -19 -129q-5 0 -10 8q-10 15 -39 252q-39 255 -43 262q-3 10 -18 110l-33 250 q-19 151 -33 226l-27 -176q-2 -10 -6 -41.5t-14 -102.5t-19 -135q-26 -213 -61 -446q-35 -201 -51 -201q-10 0 -31 123q-30 206 -37 264q-15 141 -18 149q-1 2 -29 230q-11 89 -33 259.5t-26 203.5q-39 246 -51 286q-3 3 -3 27z" />
<glyph unicode="x" horiz-adv-x="466" d="M25 0q0 23 4 35q0 2 12 88q4 11 12 39.5t13 44.5q16 48 18 63q8 31 47 199q22 119 23 125q3 20 26 143q7 35 35 127l-113 498q-13 59 -26 108q-11 37 -17 66q-2 6 -2 20q0 17 17 17q10 0 20 -17q9 -14 12 -38q0 -10 62 -279q62 -271 68 -317q102 344 147 532q2 4 2 10 q1 1 2 5t2 6q1 1 8 22q3 9 15 49q12 49 20 49q12 0 12 -20q0 -40 -38 -199q-4 -18 -72 -260q-16 -58 -32.5 -115.5t-24 -84t-9.5 -33.5q-1 -2 -2.5 -9.5t-3.5 -13.5q0 -12 -4 -20q35 -129 82 -412q63 -346 63 -369q0 -25 -20 -36q-5 0 -8 10q-2 4 -2 22q0 17 -2 21 q0 13 -47 227q-48 218 -48 236q0 15 -18 114q-16 89 -20 133q-17 -63 -25 -131q-12 -76 -80 -327q-67 -250 -67 -281l-15 -43q-11 -33 -18 -33q-8 0 -8 29z" />
<glyph unicode="y" horiz-adv-x="507" d="M51 1370q0 142 2 156q0 16 13 16q26 0 26 -319v-117v-57v-84q0 -107 19 -123q28 -25 137 -25q106 0 131 19q8 5 8 61q0 9 -0.5 25t-1.5 46t-2 54q-4 126 -4 139q0 58 2 72q-2 51 -2 176v12q-2 27 -2 95q0 66 18 69q25 0 25 -166q0 -43 -2 -59v-33v-45q2 -16 2 -31v-6 q14 -749 14 -891q0 -235 -10 -252q-15 -44 -80 -73q-59 -33 -133 -33t-113 39q-43 67 -43 147q0 15 4 47q3 17 11 33q7 10 10 10q6 0 6 -18q0 -4 2 -8q2 -6 2 -62q0 -153 129 -153q45 0 88 18q45 17 64 43q26 20 26 277q0 200 -6 440l-22 -10q-36 -19 -123 -19 q-100 0 -140 21q-41 21 -47 45q-8 21 -8 524z" />
<glyph unicode="z" horiz-adv-x="479" d="M27 -14l6 73q6 67 30 146q23 82 27 90l14 70q0 1 2 7t6.5 20.5t8.5 29.5q19 66 26 115q9 53 21 98q4 31 10 61q5 32 92 308q84 241 97 315q3 19 10 37q4 12 12 28q4 8 4 11l8 2q-4 0 -4 4q-4 0 -4 8q0 6 2 10q6 9 6 17q0 19 -43 28q-60 12 -176 23q-114 9 -114 33 q0 4 2 6q3 6 20 6q3 0 17 -1t48 -4t68 -5q35 -2 142 -19q75 -19 84 -26q4 -4 4 -11t-7 -14q-17 -24 -57 -211q-8 -49 -67 -213q-57 -156 -64 -186q-1 -4 -5 -18.5t-7 -26.5q-2 -6 -9.5 -32.5t-11.5 -43.5q-10 -50 -18 -107q-10 -67 -72 -297q-59 -219 -59 -245v-39l153 4h54 q125 0 125 -25q0 -1 -2 -4t-3 -6q-6 -9 -186 -12z" />
<glyph unicode="{" horiz-adv-x="354" d="M16 676q6 17 29 47q24 31 29 41q1 149 8 422v35v43q0 73 2 98q0 4 10 84q13 48 27 70q16 23 49 40q39 17 80 17q31 -22 31 -33q0 -7 -19 -10q-16 -2 -22 -8q-45 0 -66 -15q-18 -11 -27 -32q-10 -23 -16 -58q-4 -25 -8 -65q-1 -7 -1.5 -18.5t-1 -28t-1.5 -29.5 q-1 -12 -1.5 -28t-1 -25.5t-1.5 -14.5l-4 -463q-45 -33 -45 -67q3 -19 24 -47l25 -25l-2 -543v-8q0 -85 22 -125q17 -44 78 -53q20 -3 20 -12q5 -11 -4 -17q-5 -8 -12 -8q-69 0 -96 27q-34 29 -43 139q-6 108 -6 453v141q-43 43 -56 76z" />
<glyph unicode="|" horiz-adv-x="188" d="M57 0q0 700 11 1133q6 203 6 264t-6 96q-3 27 2 35q3 6 6 6q7 0 14 -14t14 -45q7 -35 7 -66v-166q0 -301 -2 -606q-3 -457 -3 -584v-102v-10q0 -129 -28 -129q-18 0 -21 57v131z" />
<glyph unicode="}" horiz-adv-x="315" d="M25 1540q0 12 30 33q41 0 80 -17q33 -17 49 -40q20 -32 25 -70q8 -33 12 -84q2 -25 2 -98v-43v-35l8 -422q5 -10 29 -41q23 -30 29 -47q-13 -33 -56 -76v-141q0 -357 -8 -453q-6 -109 -41 -139q-27 -27 -96 -27q-6 0 -14 8q-4 4 -4 17q10 10 22 12q57 9 80 53 q21 51 21 125v8l-3 543q11 11 23 25q24 24 27 47q0 13 -11 31q-13 20 -24 28l-10 8q-4 407 -5 463q-1 5 -1.5 14.5t-1 25.5t-1.5 28q-1 13 -1.5 29.5t-1 28t-1.5 18.5q-4 40 -8 65q-6 35 -16 58q-9 21 -27 32q-21 15 -65 15q-5 5 -21 8q-20 3 -20 10z" />
<glyph unicode="~" horiz-adv-x="380" d="M4 1544q0 18 12 39q58 37 74 37q22 0 100 -66q8 -8 19 -8q17 0 33 19q20 24 28 39l9 18q3 6 10 6q5 0 14 -6q6 -9 6 -18t-2 -11q-43 -88 -100 -88q-31 0 -60 33q-42 45 -55 45q-5 0 -33 -22q-5 -4 -15.5 -13t-16.5 -14q-2 -2 -13 -2q-10 0 -10 12z" />
<glyph unicode="&#xa1;" horiz-adv-x="186" d="M51 1464q0 2 0.5 6.5l1.5 13.5t2 19q3 31 15 31q8 0 20 -18q8 -28 8 -48v-12q0 -59 -20 -59q-19 0 -19 24q0 4 -2 6l-4 15q-2 4 -2 22zM55 1108v131q3 57 21 57q28 0 28 -129v-10v-102q0 -238 2 -463q3 -338 3 -486v-165q0 -33 -7 -64q-7 -35 -12 -45q-8 -16 -16 -16 q-3 0 -6 6q-5 8 -2 35q6 34 6 96q0 61 -6 264q-11 433 -11 891z" />
<glyph unicode="&#xa2;" horiz-adv-x="450" d="M41 649q0 97 27 217q35 160 137 187v18q0 57 20 57q16 0 19 -71q24 0 43 -8q69 -23 116 -185q3 -3 3 -12q0 -14 -15 -14q-11 0 -20 6q-11 11 -11 16q-43 139 -71 156q-20 13 -45 16q0 -19 2 -33v-36v-11v-102v-90v-35v-8q2 0 2 -8v-41v-103v-116q67 3 92 18q25 13 25 33 q-4 10 0 30q3 15 26 15q19 0 19 -21q-9 -52 -25 -65q-13 -16 -66 -31q-39 -9 -71 -14v-49q0 -64 -21 -64q-16 0 -16 76v35q-4 0 -6 -2q-69 0 -101 32q-63 57 -63 207zM84 575q0 -90 88 -120q21 -9 39 -9q0 8 -1 46t-1 69q-4 55 -4 115q-4 156 -4 203v59q1 13 2 42t2 44 q-45 -26 -84 -156q-37 -124 -37 -293z" />
<glyph unicode="&#xa3;" horiz-adv-x="481" d="M-8 856q0 8 6 8l47 -2q3 203 6 324v35q0 155 15 229q3 30 8 35q4 8 6 14q30 74 139 74q57 0 111 -31q46 -24 67 -59q15 -43 23 -135q0 -39 -19 -39q-12 0 -24 18q-6 109 -10 154q-3 11 -56 26t-102 15q-45 0 -66 -15q-17 -10 -26 -32q-12 -27 -17 -58q-4 -25 -8 -65 q-1 -7 -1.5 -18.5t-1 -28t-1.5 -29.5q-1 -12 -1.5 -28t-1 -25.5t-1.5 -14.5q0 -10 -0.5 -29t-1.5 -54t-2 -64q-3 -120 -6 -201l30 -2q195 -9 195 -22q0 -7 -4 -11q-10 -10 -29 -10q-5 0 -17.5 0.5t-36 1.5t-44.5 2t-43.5 2t-34.5 1.5t-16 0.5v-45v-104l8 -481v-9 q0 -94 4 -110q0 -26 14 -29q20 -4 133 -4q85 0 129 8h29q8 -5 6 -10q0 -8 -2 -10q-16 -28 -198 -31h-13q-25 -2 -73 -2q-65 0 -68 12q-2 6 -2 152v299q0 278 2 362h-6q-20 0 -33 10q-12 12 -12 25z" />
<glyph unicode="&#xa4;" horiz-adv-x="606" d="M51 1143q0 24 31 -14q1 -2 2 -3q50 -66 104 -149q50 80 125 80q31 0 52 -8q43 -15 73 -68q68 114 84 158q5 18 19 28q4 4 6 4l2 -2q6 -3 6 -16q0 -39 -18 -80q-11 -31 -76 -145q5 -16 9.5 -31t7 -23t3.5 -10q8 -65 8 -168q0 -47 -2 -86v-86l-6 -24l58 -99q16 -32 16 -49 q0 -9 -6 -12h-2h-4q-24 0 -82 98l-6 8l-2 5q-21 -13 -56 -23q-39 -9 -71 -14l-37 -4h-6q-69 0 -101 32l-6 7l-2 -3l-6 -8q-58 -98 -82 -98h-4h-2q-6 3 -6 12q0 17 16 49l55 95q-26 53 -26 153q0 101 26 217q3 15 17 56l-29 45l-27 37l-18 32q-13 19 -16 29l-11 25 q-4 12 -8 28q-2 8 -2 25zM162 575q0 -90 88 -120q21 -9 39 -9l37 3q123 3 123 94v6q0 6 2 12v19v26v29q0 324 -84 381q-20 13 -45 16h-5q-66 0 -112 -139q-43 -133 -43 -318z" />
<glyph unicode="&#xa5;" horiz-adv-x="382" d="M33 1528q0 22 12 22q13 0 25 -26l47 -326l33 -233q4 -38 10 -60q16 -52 16 -53q7 -21 10 -21q25 0 66 345q17 148 51 319l6 27q9 88 25 88q9 0 12 -86q-34 -206 -53 -355q-7 -52 -41 -247q-30 -165 -35 -220q143 -9 143 -20q0 -6 -4 -10q-10 -10 -28 -10q-6 0 -20.5 0.5 t-42 1.5t-50.5 2v-25v-43h76q67 0 67 -10q0 -6 -4 -10q-7 -7 -41 -7q-5 0 -17.5 -0.5t-36 -1.5t-46.5 -2v-14q4 -36 4 -70q0 -4 -0.5 -17.5t-1.5 -38.5l-2 -50q-6 -89 -6 -191v-36v-11q0 -129 -29 -129q-22 0 -22 99q0 14 18 368q2 14 2 62v26h-41l-31 -2h-4q-19 0 -30 8 q-17 9 -17 19q0 14 39 14h14l29 -2l31 -2h8v10q0 2 -1 13t-1 20q-4 12 -4 25h-16q-8 2 -17 2l-31 -2h-6q-20 0 -32 12q-13 10 -13 22q0 9 6 9l47 -2l29 -2l29 -2q-7 50 -41 215q-25 124 -31 141q-59 461 -59 467z" />
<glyph unicode="&#xa6;" horiz-adv-x="186" d="M51 1464q0 2 0.5 6.5l1.5 13.5t2 19q3 31 15 31q8 0 20 -18q8 -28 8 -48v-12v-74v-165q2 -68 2 -183q0 -293 -6 -293q-33 0 -33 17q0 59 -2 172q-1 38 -1.5 107.5t-1.5 127.5t-3 109q0 53 -0.5 97.5t-1 68t-0.5 24.5zM57 444v131q3 58 21 58q28 0 28 -129v-10v-103v-90 v-35v-8q3 0 3 -8v-41v-103v-165q0 -64 -21 -64q-16 0 -16 76q0 61 -6 264q-3 102 -7 102q-2 0 -2 125z" />
<glyph unicode="&#xa7;" horiz-adv-x="503" d="M0 1188q0 119 41 149q60 45 195 45q118 0 141 -39q18 -27 18 -155q0 -47 -22 -47q-19 0 -19 18v17q0 117 -16 133q-20 26 -109 26q-141 0 -159 -41q-5 -10 -9 -16q-2 -3 -3.5 -6t-2.5 -6t-2 -4q-1 -2 -1.5 -5.5t-1 -9t-1.5 -10.5q-1 -6 -2 -22.5t-2 -24.5v-23 q0 -50 25 -98q26 -50 61 -78q27 -27 70 -57q46 -30 61 -37l25 -10q47 -25 88 -76q19 -19 39 -63q18 -47 18 -91q0 -89 -86 -127q-24 -12 -70 -12q-25 0 -43 2t-32 2q-11 0 -13 -2q-4 -4 -2 -6q80 -27 84 -31q134 -82 172 -204q13 -41 13 -89q0 -119 -41 -149 q-60 -45 -195 -45q-118 0 -141 39q-19 28 -19 155q0 48 23 48q18 0 18 -19v-16q0 -116 17 -133q21 -27 108 -27q142 0 160 41l8 16l5 10l3 7q1 2 5 22q1 7 2 24t2 25v23q0 78 -62 149q-59 71 -119 99l-61 30q-118 61 -139 84q-27 24 -27 89q0 102 39 135q55 43 184 43 q9 0 45 -4q-65 45 -86 57q-5 4 -55 41l-37 37q-4 4 -7 7.5t-6 5.5l-3 3q-9 5 -35 45q-4 11 -15 34.5t-14 33.5q-12 38 -12 88zM43 655l8 -37q73 -67 176 -67q5 0 11 2h10q36 0 82 16q51 20 51 70q0 162 -141 162h-9q-142 0 -159 -39q-29 -69 -29 -107z" />
<glyph unicode="&#xa8;" horiz-adv-x="548" d="M184 1571v8q0 15 4 27q2 7 9 14l6 2h2l4 2q18 0 18 -29v-10q0 -22 -8 -33q-8 -14 -18 -14q-12 0 -15 23q0 6 -2 10zM295 1573v8q0 45 18 45q15 0 23 -4v-4q1 -4 1.5 -11t0.5 -14v-8q0 -22 -8 -33q-8 -14 -19 -14t-14 23q0 6 -2 12z" />
<glyph unicode="&#xa9;" horiz-adv-x="757" d="M37 586q0 18 4 18l31 445v4q0 42 63 65q62 29 154 29h47q64 -5 131 -17q50 -8 70 -16l32 -16l10 -6l7.5 -4.5t3.5 -2.5q45 -20 80 -137q32 -106 32 -252q0 -208 -73 -278l-11 -5q-10 -5 -20 -7q-20 -13 -29 -13q-5 -3 -32 -10q-12 -4 -48 -8q-6 -1 -28.5 -2.5t-38.5 -3.5 q-20 0 -98 -4h-19q-12 -3 -18 -3q-62 0 -86 3q-27 3 -66 12q-37 8 -55 33q-18 28 -31 67q-12 43 -12 109zM82 604q0 -139 41 -172q38 -35 149 -35h47q109 0 185 17q69 15 100 57q31 41 39 82q6 38 6 117v47v51q0 78 -6 125q-10 50 -35 102q-28 60 -92 86q-66 29 -166 29h-61 q-92 0 -127 -12q-33 -11 -45 -68l-35 -416v-10zM164 676q0 74 26 190q21 100 70 146q45 45 98 45q31 0 52 -8q72 -23 116 -185q9 -24 15 -94q-30 -21 -43 4q-3 48 -15 86q-43 139 -71 156q-22 16 -54 16q-17 0 -30 -8l-9 -4q-8 -4 -12 -8l-16 -13q-16 -16 -19 -20 q-9 -15 -18 -33q-7 -14 -18 -47q-9 -28 -15 -63q-7 -35 -10 -78q-4 -66 -4 -103q0 -48 26 -84q26 -37 62 -49q18 -6 51 -6q26 0 88 8q44 11 47 17q1 5 3 16t3 16v25q1 3 2.5 8t2.5 8q3 7 8 9q2 2 14 2q18 0 18 -19q-9 -55 -24 -65q-12 -17 -66 -33q-59 -16 -114 -16 q-71 0 -101 30q-63 57 -63 154z" />
<glyph unicode="&#xaa;" horiz-adv-x="425" d="M-8 1280v80v10q3 74 61 123q54 51 144 51q18 0 24 -2q37 -3 55 -18q17 -12 37 -41q3 38 2 41q-3 19 2 24q4 4 7 4h2q22 0 22 -39v-36v-86v-48v-2v-10q2 -8 2 -16q0 -28 -6 -127q-8 -84 -8 -123v-51v-6q0 -66 -21 -66q-17 0 -20 57l4 66v29q-21 -83 -53 -105 q-24 -18 -72 -18h-14q-122 0 -144 45q-24 50 -24 264zM29 1174q0 -102 24 -136q22 -32 119 -32q43 0 82 57q53 77 53 201v30q-2 10 -2 21v8v25q-3 83 -18 114q-13 34 -49 43q-21 6 -48 6q-40 0 -59 -8q-45 -17 -72 -61q-30 -44 -30 -109v-76v-83z" />
<glyph unicode="&#xab;" horiz-adv-x="681" d="M57 657q0 31 90 138q95 103 185 184l90 82q7 10 16 10q15 0 15 -20q0 -12 -13 -15q-12 -6 -16 -10l-307 -324q-15 -18 -15 -30q0 -13 13 -29q55 -68 272 -278q31 -22 31 -39q0 -1 -4 -13q-3 -1 -6 -3l-5 -1q-7 0 -22 15q-1 0 -74 73l-147 152q-77 80 -92 92q-11 0 -11 16 zM217 649q-10 13 0 35q8 27 98 123q101 104 174 172l84 78q5 8 17 8t12 -21q0 -5 -74 -73l-157 -156q-83 -83 -105 -119q-14 -20 -14 -34q0 -13 14 -27l277 -289q22 -16 22 -31q0 -14 -12 -14h-4q-71 65 -156 154q-73 77 -123 135q-49 55 -53 59z" />
<glyph unicode="&#xac;" horiz-adv-x="507" d="M-41 625q0 26 59 26l340 4l48 4q20 5 34 5h15q2 2 8 2q1 0 2 -0.5t3.5 -1.5t4.5 -2q3 0 6 -3q3 0 6 -12q4 -20 4 -41q1 -14 3.5 -45t3.5 -49q1 -14 2 -27.5t1.5 -19.5t0.5 -8q0 -21 -15 -21q-25 0 -32 23q-9 36 -17 143v12q-14 0 -30 -2q-8 -1 -24.5 -2t-23.5 -2 l-335 -10q-64 0 -64 27z" />
<glyph unicode="&#xad;" horiz-adv-x="299" d="M-41 625q0 26 59 26l129 4l46 4q25 5 36 5q45 0 45 -17q0 -21 -12 -24q-17 -8 -59 -11q-10 -1 -29 -2t-27 -2l-124 -10q-64 0 -64 27z" />
<glyph unicode="&#xae;" horiz-adv-x="757" d="M37 967q0 16 4 16l31 447v4q3 67 55 84q50 18 162 18h47q74 -6 131 -16q55 -12 70 -21q24 -12 32 -20q16 -8 21 -13q45 -20 80 -137q32 -106 32 -252q0 -92 -20 -168q-21 -86 -59 -121q-6 -1 -35 -14q-23 -13 -35 -16q-32 -8 -41 -10q-45 -9 -76 -11q-51 -3 -112 -6 q-11 0 -19 -2h-18q-146 0 -197 45q-53 44 -53 193zM82 983q0 -75 10 -123q8 -41 43 -65q38 -23 70 -25q37 -6 114 -6q110 0 177 20q74 22 102 54q34 43 39 59q10 27 10 49v17q0 1 4 63q6 46 6 74v20q0 25 -1 61.5t-1 47.5q-8 52 -20 100q-13 51 -45 92q-29 33 -92 58 q-59 26 -148 26q-19 0 -31 2h-30q-100 0 -133 -16q-39 -12 -39 -74v-8l-35 -416v-10zM184 1352q0 61 11 65q8 8 61 8q139 0 219 -53q64 -43 64 -96q0 -46 -54 -100q-47 -45 -143 -82q-59 -24 -59 -35q0 -8 22 -21q26 -13 117 -84q70 -64 84 -69q12 -6 12 -15q0 -12 -18 -12 q-7 0 -13 6l-20 19q-23 18 -29 22l-88 62q-45 39 -63 53q-18 12 -35 12l-8 -106v-17q0 -63 -23 -63q-17 0 -20 65q-4 86 -4 191q-3 138 -11 209q-2 10 -2 41zM229 1245q0 -44 4 -98q5 -37 13 -57q6 -15 10 -15l61 33q175 85 175 164q0 41 -52 78q-61 43 -180 43 q-31 0 -31 -4l4 -11q3 -9 0 -18q-4 -28 -4 -115z" />
<glyph unicode="&#xaf;" horiz-adv-x="321" d="M39 1587q0 17 59 17h101q45 0 45 -17q0 -18 -11 -18l-26 4q-18 2 -55 2q-38 0 -50 -2q-63 0 -63 14z" />
<glyph unicode="&#xb0;" horiz-adv-x="286" d="M41 1456v33v4q3 30 35 49q35 21 80 21h14q74 -6 74 -90v-5q0 -39 -19 -75l-8 -19q-14 -31 -33 -39q-13 -8 -41 -8h-8q-67 0 -82 21q-12 18 -12 108zM78 1399q0 -21 12 -27t51 -6q21 0 41 20q13 30 15 44q4 24 4 28l2 10v11q0 7 -1 16t-1 12q-3 3 -8 13q-3 0 -19 4 q-4 2 -22 2q-23 0 -29 -2q-43 -9 -43 -49q0 -5 2 -9v-10q0 -21 -2 -35q-2 -12 -2 -22z" />
<glyph unicode="&#xb1;" horiz-adv-x="299" d="M-41 625q0 26 59 26l129 4l46 4q25 5 36 5q45 0 45 -17q0 -21 -12 -24q-17 -8 -59 -11q-10 -1 -29 -2t-27 -2l-124 -10q-64 0 -64 27zM-41 858q0 27 59 27l72 2l-6 84q0 63 27 63q26 0 26 -59l2 -86h8h13q25 0 41 -4q9 0 19 -1t11 -1q45 0 45 -17q0 -22 -26 -22h-41 q-46 0 -62 -2h-6q0 -7 4 -43q1 -6 2 -14t2 -13t1 -8q0 -45 -17 -45q-24 0 -27 10q-5 22 -8 66q-1 7 -2 22t-2 21l-71 -7q-64 0 -64 27z" />
<glyph unicode="&#xb2;" horiz-adv-x="509" d="M4 881v6q15 97 41 127l5 6q6 7 11 12q9 18 19 25q9 12 22 20q14 14 27 19q18 15 55 49q33 30 86 106q52 70 52 129q0 53 -43 90l-17 17q-4 4 -12 10.5t-12 9.5q-7 7 -29 13q-16 8 -43 8q-62 0 -82 -17q-18 -18 -18 -67v-43q2 -20 2 -51q0 -13 -7 -27q-4 -8 -10 -8 q-4 2 -10 2q-6 3 -6 45v49q0 99 18 123q22 25 107 25q86 0 147 -46q47 -38 47 -124q0 -55 -24 -113t-47 -88l-11 -12q-6 0 -88 -82q-21 -16 -65 -54q-23 -23 -29 -32q-3 -3 -16 -29q-2 -5 -11 -23q-8 -13 -8 -55l-2 -2v-4l103 2h53q62 0 78 -4q16 -3 16 -16q0 -1 -1 -5 q-1 -1 -1.5 -2.5t-1.5 -3.5q-5 -5 -57 -8l-111 -6l-53 -2q-74 0 -74 31z" />
<glyph unicode="&#xb3;" horiz-adv-x="466" d="M53 971q0 22 21 22q14 0 20 -6q11 -8 8 -16q0 -17 4 -29q2 -5 17 -24q13 -13 45 -21q30 -6 82 -6q102 0 102 72v6v6l-2 2v76q0 62 -4 112q-3 36 -10 43q-4 4 -14 4h-3h-18q-43 0 -63 2h-15q-19 0 -35 -2h-36q-29 0 -43 7q-4 3 -8.5 6.5t-7 5t-3.5 2.5q0 3 14 14 q12 6 43 6h37q16 -2 35 -2h14h13q21 0 35 -2h26q19 0 31 8q8 11 8 41v11l4 121q0 92 -127 92q-70 0 -96 -11q-25 -13 -25 -32q0 -44 -26 -47q-10 -3 -15 2q-6 6 -6 18l8 41q15 26 41 41q32 16 97 16h12q106 -3 141 -20q37 -18 37 -68q0 -14 -1 -44t-1 -46q-4 -31 -4 -106 q0 -14 -12 -23q12 -9 12 -24q0 -200 4 -220q0 -10 1 -29t1 -28q0 -50 -37 -68q-35 -17 -141 -20h-12q-70 0 -97 18q-3 1 -8 4.5t-6 4.5l-10 10q-6 6 -8 10q-4 8 -6 10l-3 13l-2 12l-4 16q-1 3 -2 10t-2 9z" />
<glyph unicode="&#xb4;" horiz-adv-x="210" d="M0 1411q0 17 72 121l32 51l7 6q4 4 12 4q10 0 14 -4t4 -12t-2 -12l-98 -154q-14 -14 -27 -14q-6 0 -10 4t-4 10z" />
<glyph unicode="&#xb5;" horiz-adv-x="509" d="M2 1040q0 7 51 7h21q4 4 10 4q4 0 6 -2q8 0 8 -7v-8q4 -20 4 -90q0 -108 -2 -151q2 -14 2 -72q0 -13 -0.5 -50t-1.5 -108t-2 -141q-1 -74 -2 -143t-1.5 -102.5t-0.5 -41.5q0 -56 8 -61q25 -19 131 -19q110 0 138 25q11 11 14 39q4 184 4 225v438q0 205 14 285h-34 q-66 0 -66 16q0 13 78 13h20q27 0 27 -11q2 -14 2 -155v-434q0 -351 -4 -406q0 -84 -16 -84q-1 0 -5 1q-1 1 -2.5 1.5t-3.5 1.5q-10 5 -14 13q-2 6 -2 22q-2 0 -4 -2l-4 -4q-41 -21 -139 -21q-30 0 -50 -2t-41 -2q-20 0 -32 6q-9 9 -17 9q-6 -6 -6 -31q0 -184 -22 -184 q-14 0 -17 34q-4 36 -4 152q0 56 14 805v6v33q2 16 2 43q0 53 5 131h-27q-21 0 -27 2q-8 0 -10 2v8v4v2z" />
<glyph unicode="&#xb6;" horiz-adv-x="600" d="M53 1024v20q2 8 2 17q0 113 6 180q3 64 25 135q18 65 55 99q39 36 101 53q56 21 157 24h23l74 -8l32 -8q6 -3 9 -23q1 -3 2 -12.5t2 -13.5v-49q1 -8 2 -26.5t2 -25.5q0 -92 2 -108q2 -20 2 -51q0 -84 -14 -420q-15 -363 -15 -692q0 -80 2 -103t2 -45q0 -39 -16 -39h-2 q-11 3 -23 64q-8 86 -8 133q0 206 10 588q11 427 11 465q0 133 -2 178q-3 84 -7 102q0 14 -1 28t-1 15l-75 2q-2 -6 -2 -98q0 -10 4 -420q2 -109 2 -278q1 -28 1.5 -64.5t1 -56.5t1.5 -31v-47v-86v-82v-168q2 -61 2 -137q0 -11 -2 -15v-12q0 -74 -29 -74q-3 0 -8 5t-8 53 v172q-1 37 -2 109.5t-2 105.5l-2 135q-20 12 -41 33q-273 221 -273 477z" />
<glyph unicode="&#xb7;" horiz-adv-x="141" d="M-8 829q0 19 2 23q3 13 4 14q2 2 2 6q0 25 18 25q29 0 35 -12q10 -10 10 -47v-13q0 -30 -14 -47q-11 -20 -29 -20q-21 0 -24 33q-1 10 -2 19t-1.5 13t-0.5 6z" />
<glyph unicode="&#xb8;" horiz-adv-x="489" d="M94 -166q0 23 21 23q14 0 20 -9q11 -5 8 -14v-4q2 -2 2 -6q0 -6 -2 -12v-11q0 -29 72 -32h4q60 0 60 73v6v17v18q0 23 -9 37q-13 10 -41 10h-53q-12 -2 -24 9q-8 7 -11 32v13q0 41 21 41q14 0 14 -21q0 -35 10 -35q83 0 109 -20q24 -21 24 -66v-28q-2 -14 -2 -33v-8 q0 -47 -14 -58q-13 -11 -80 -20h-12q-7 0 -21 1t-20 1q-27 9 -31 12q-12 8 -16 12q-8 3 -12 17q-6 15 -9 18q-4 4 -4 19q-4 12 -4 18z" />
<glyph unicode="&#xb9;" horiz-adv-x="169" d="M-74 1378q0 17 72 121l33 51l6 6q5 5 12 5q33 0 33 -72v-82q0 -121 -2 -215q-2 -92 -2 -203v-51v-4q0 -66 -29 -66q-9 0 -12 50v63v109q-2 49 -2 110q0 36 4 154q2 35 5.5 85t4.5 66l-82 -127q-14 -14 -26 -14q-7 0 -11 4t-4 10z" />
<glyph unicode="&#xba;" horiz-adv-x="425" d="M-8 1280v80v10q3 74 61 123q54 51 144 51q18 0 24 -2q129 -15 129 -213v-14q0 -111 -28 -187l-17 -43q-18 -69 -59 -96q-24 -18 -72 -18h-14q-122 0 -144 45q-24 50 -24 264zM29 1174q0 -102 24 -136q22 -32 119 -32q43 0 82 57q53 77 53 201v30q-2 10 -2 21v8v25 q-3 83 -18 114q-13 34 -49 43q-21 6 -48 6q-40 0 -59 -8q-45 -17 -72 -61q-30 -44 -30 -109v-76v-83z" />
<glyph unicode="&#xbb;" horiz-adv-x="681" d="M57 1044q0 21 15 21q11 0 16 -8q332 -305 356 -373q10 -22 0 -35q-3 -4 -53 -59q-55 -65 -125 -135q-93 -97 -155 -154h-2q-15 0 -15 14q0 15 23 31l278 289q15 15 15 27q0 13 -15 34q-23 38 -104 119q-74 77 -160 156q-74 68 -74 73zM209 1051q0 20 14 20q10 0 17 -10 l39 -35l86 -84l110 -111q47 -47 88 -100q39 -51 39 -74q0 -16 -8 -16q-15 -12 -92 -92l-150 -152q-67 -73 -71 -73q-15 -15 -23 -15q-1 0 -2 0.5t-3.5 1.5t-4.5 2l-6 13q0 17 32 39q208 202 271 278q12 15 12 29q0 13 -14 30l-305 324q-3 3 -17 10q-12 3 -12 15z" />
<glyph unicode="&#xbc;" horiz-adv-x="1030" d="M51 10q0 15 17 49l65 113l533 901l79 125l89 139q41 64 47 78q31 58 43 86v19q0 12 2 14t18 -4q4 4 6 4l2 -2q4 -4 4 -16q0 -50 -36 -109l-82 -143l-635 -1069l-51 -91l-5 -8q-58 -98 -84 -98h-4h-2q-6 3 -6 12zM156 1378q0 18 71 121l33 51l6 6q5 5 13 5q32 0 32 -72 v-82q0 -121 -2 -215q-2 -92 -2 -203v-51v-4q0 -66 -28 -66q-10 0 -13 50v63v109q-2 49 -2 110q0 36 4 154q2 36 6 86t5 65l-82 -127q-14 -14 -27 -14q-6 0 -10 4t-4 10zM584 586q0 76 2 84q0 8 12 8q27 0 27 -162v-80v-8q0 -16 6 -22q10 -10 41 -13q30 -6 98 -6q88 0 109 6 q22 3 22 23v14l-4 25q-2 18 -2 172v6q-2 14 -2 51q0 34 16 37q25 0 25 -88q0 -116 8 -277q6 -181 6 -235q0 -82 -10 -92q-13 -29 -16 -29q-13 0 -13 78v53q2 23 2 35q0 90 -6 213l-20 -10q-35 -21 -117 -21h-12q-146 0 -164 35q-8 11 -8 203z" />
<glyph unicode="&#xbd;" horiz-adv-x="1030" d="M51 10q0 15 17 49l65 113l533 901l79 125l89 139q41 64 47 78q31 58 43 86v19q0 12 2 14t18 -4q4 4 6 4l2 -2q4 -4 4 -16q0 -50 -36 -109l-82 -143l-635 -1069l-51 -91l-5 -8q-58 -98 -84 -98h-4h-2q-6 3 -6 12zM156 1378q0 18 71 121l33 51l6 6q5 5 13 5q32 0 32 -72 v-82q0 -133 -2 -252q-2 -121 -2 -244v-51v-4q0 -65 -28 -65q-10 0 -13 49v63v123q-2 61 -2 143q0 67 4 185q2 36 6 86t5 65l-82 -127q-14 -14 -27 -14q-6 0 -10 4t-4 10zM598 25v6q15 97 41 127l5 6q6 7 11 12q9 18 19 25q9 12 22 20q14 14 27 19q18 15 55 49q33 30 86 106 q51 68 51 129q0 53 -43 90q-1 1 -3.5 4t-6.5 8t-8 9q-13 16 -33 29q-24 8 -49 8q-62 0 -82 -17q-18 -18 -18 -67v-43q2 -20 2 -51q0 -17 -10 -27q-8 -8 -17 -8q-6 2 -12 2q-6 3 -6 45v49q0 99 18 123q21 24 107 24q87 0 147 -45q47 -38 47 -125q0 -54 -24 -112t-47 -88 l-11 -13q-7 0 -88 -81q-21 -16 -65 -54q-23 -23 -29 -32q-3 -3 -16 -29q-2 -5 -11 -23q-8 -13 -8 -55l-2 -2v-4l103 2h53q62 0 78 -4q16 -3 16 -17q0 -1 -0.5 -2t-1.5 -3.5t-2 -4.5q-5 -5 -57 -8l-111 -6l-53 -2q-74 0 -74 31z" />
<glyph unicode="&#xbe;" horiz-adv-x="1030" d="M51 10q0 15 17 49l65 113l533 901l79 125l89 139q41 64 47 78q31 58 43 86q3 33 4 33q4 0 16 -4q4 4 6 4l2 -2q4 -4 4 -16q0 -50 -36 -109l-82 -143l-635 -1069l-51 -91l-5 -8q-58 -98 -84 -98h-4h-2q-6 3 -6 12zM125 971q0 22 20 22q11 0 23 -6q8 -11 6 -16q0 -17 4 -29 q2 -5 17 -24q12 -12 43 -21q35 -6 84 -6q102 0 102 72v6q0 4 -2 6v2v76q0 62 -4 112q-3 32 -8 43q-8 4 -17 4h-2h-18q-44 0 -64 2h-14q-21 0 -37 -2h-35q-29 0 -43 7q-16 13 -16 14q-2 2 12 14q12 6 43 6h35q16 -2 37 -2h14h12q21 0 35 -2h27q19 0 31 8q8 11 8 41v11l4 121 q0 92 -127 92q-69 0 -98 -11q-23 -13 -23 -32q0 -44 -27 -47q-7 -2 -16 2q-4 8 -4 18l8 41q15 26 41 41q32 16 96 16h13q106 -3 141 -20q37 -18 37 -68q0 -59 -4 -90q0 -14 -1 -50t-1 -56q0 -13 -13 -23q13 -10 13 -24q0 -55 0.5 -105t1 -80t0.5 -35q4 -20 4 -57 q0 -50 -37 -68q-35 -17 -141 -20h-13q-69 0 -96 18q-3 1 -8 4.5t-6 4.5l-10 10q-8 8 -9 10q-4 8 -4 10l-4 13l-4 12q0 8 -2 16q-1 3 -2 10t-2 9zM584 586q0 76 2 84q0 8 12 8q27 0 27 -162v-80v-8q0 -16 6 -22q10 -10 41 -13q30 -6 98 -6q88 0 109 6q22 3 22 23v14l-4 25 q-2 18 -2 172v6q-2 14 -2 51q0 34 16 37q25 0 25 -88q0 -116 8 -277q6 -181 6 -235q0 -82 -10 -92q-13 -29 -16 -29q-13 0 -13 78v53q2 23 2 35q0 90 -6 213l-20 -10q-35 -21 -117 -21h-12q-146 0 -164 35q-8 11 -8 203z" />
<glyph unicode="&#xbf;" horiz-adv-x="479" d="M45 295q0 380 125 532q90 108 113 158q28 61 28 135v19q-2 8 -2 20q2 33 2 88q9 51 25 51q14 0 29 -47q0 -232 -23 -262q-14 -22 -14 -24q-3 -26 -176 -244q-56 -71 -56 -438l2 -111q0 -211 92 -258q82 -43 136 -43q18 0 22 2q24 3 33 12q7 10 4 27q-4 70 -4 307v37 q0 14 12 23q13 10 19 10q12 0 12 -183v-110q0 -47 2 -53v-21v-12v-14q0 -42 -31 -64q-22 -16 -43 -16q-9 0 -71 16q-193 59 -220 209q-12 65 -12 137q-4 62 -4 117zM317 1507v13q0 28 11 45q6 20 18 20q11 0 14 -31q1 -10 2 -18.5t2 -13.5t1 -6q0 -13 -3 -25q-1 -2 -2 -6.5 t-2 -5.5q-2 -2 -2 -6q0 -25 -18 -25q-21 0 -21 59z" />
<glyph unicode="&#xc0;" d="M20 33q0 9 3 24q1 5 2.5 24.5t3.5 33.5q0 17 3 48.5t3 37.5l18 235q25 299 45 494q18 213 29 278q2 22 6.5 60t5.5 53q4 58 4 74q0 10 17 90q15 71 28 71t27 -38q23 -62 31 -107q15 -56 22 -139q4 -47 51 -297q47 -279 54 -369q2 -33 16 -160q10 -93 14 -186 q3 -100 19 -182q10 -62 10 -72q0 -20 -12 -20q-8 0 -10 2q-24 9 -39 223q-4 70 -11 125q-6 22 -26 22q-19 0 -25 -2q-44 -8 -133 -8h-90l-8 -98q-10 -120 -10 -121q-2 -20 -13 -98q-3 -14 -12 -17t-14 2q-9 6 -9 17zM57 1765v13q0 8 4 12t13 4q8 0 12 -4l8 -6l33 -51 q70 -101 70 -121q0 -6 -4 -10q0 -5 -9 -5q-13 0 -28 15zM82 395h92q89 0 133 8l43 7l-4 61q-11 151 -63 471q-54 287 -64 393q0 15 -14 84q-6 41 -15 41q-8 0 -8 -33q0 -64 -22 -210q-28 -249 -31 -289q-4 -50 -12 -137.5t-11 -126.5q-12 -107 -18 -189z" />
<glyph unicode="&#xc1;" d="M20 33q0 9 3 24q1 5 2.5 24.5t3.5 33.5q0 17 3 48.5t3 37.5l18 235q25 299 45 494q18 213 29 278q2 22 6.5 60t5.5 53q4 58 4 74q0 10 17 90q15 71 28 71t27 -38q23 -62 31 -107q15 -56 22 -139q4 -47 51 -297q47 -279 54 -369q2 -33 16 -160q10 -93 14 -186 q3 -100 19 -182q10 -62 10 -72q0 -20 -12 -20q-8 0 -10 2q-24 9 -39 223q-4 70 -11 125q-6 22 -26 22q-19 0 -25 -2q-44 -8 -133 -8h-90l-8 -98q-10 -120 -10 -121q-2 -20 -13 -98q-3 -14 -12 -17t-14 2q-9 6 -9 17zM82 395h92q89 0 133 8l43 7l-4 61q-11 151 -63 471 q-54 287 -64 393q0 15 -14 84q-6 41 -15 41q-8 0 -8 -33q0 -64 -22 -210q-28 -249 -31 -289q-4 -50 -12 -137.5t-11 -126.5q-12 -107 -18 -189zM180 1612q0 20 70 121l33 51l8 6q4 4 12 4t12 -4t4 -12v-13l-98 -153q-15 -15 -28 -15q-9 0 -9 5q-4 4 -4 10z" />
<glyph unicode="&#xc2;" d="M20 33q0 9 3 24q1 5 2.5 24.5t3.5 33.5q0 17 3 48.5t3 37.5l18 235q25 299 45 494q18 213 29 278q2 22 6.5 60t5.5 53q4 58 4 74q0 10 17 90q15 71 28 71t27 -38q23 -62 31 -107q15 -56 22 -139q4 -47 51 -297q47 -279 54 -369q2 -33 16 -160q10 -93 14 -186 q3 -100 19 -182q10 -62 10 -72q0 -20 -12 -20q-8 0 -10 2q-24 9 -39 223q-4 70 -11 125q-6 22 -26 22q-19 0 -25 -2q-44 -8 -133 -8h-90l-8 -98q-10 -120 -10 -121q-2 -20 -13 -98q-3 -14 -12 -17t-14 2q-9 6 -9 17zM66 1602v10q0 21 69 121l33 51l8 6q4 4 12 4q9 0 13 -4 l4 -6l37 -51q69 -100 69 -121q0 -6 -4 -10q0 -5 -8 -5q-14 0 -29 15l-82 131l-86 -131q-12 -15 -24 -15q-1 0 -2.5 1t-4.5 2t-5 2zM82 395h92q89 0 133 8l43 7l-4 61q-11 151 -63 471q-54 287 -64 393q0 15 -14 84q-6 41 -15 41q-8 0 -8 -33q0 -64 -22 -210 q-28 -249 -31 -289q-4 -50 -12 -137.5t-11 -126.5q-12 -107 -18 -189z" />
<glyph unicode="&#xc3;" d="M20 33q0 9 3 24q1 5 2.5 24.5t3.5 33.5q0 17 3 48.5t3 37.5l18 235q25 299 45 494q18 213 29 278q2 22 6.5 60t5.5 53q4 58 4 74q0 10 17 90q15 71 28 71t27 -38q23 -62 31 -107q15 -56 22 -139q4 -47 51 -297q47 -279 54 -369q2 -33 16 -160q10 -93 14 -186 q3 -100 19 -182q10 -62 10 -72q0 -20 -12 -20q-8 0 -10 2q-24 9 -39 223q-4 70 -11 125q-6 22 -26 22q-19 0 -25 -2q-44 -8 -133 -8h-90l-8 -98q-10 -120 -10 -121q-2 -20 -13 -98q-3 -14 -12 -17t-14 2q-9 6 -9 17zM37 1636q0 18 12 39q52 37 74 37q21 0 98 -65q9 -9 21 -9 q13 0 32 19q21 25 27 39l10 18q0 6 8 6t13 -8q8 -5 8 -16v-10q-47 -89 -102 -89q-29 0 -58 33q-45 45 -57 45q-2 0 -33 -22q-3 -3 -33 -27q-2 -2 -12 -2q-8 0 -8 12zM82 395h92q89 0 133 8l43 7l-4 61q-11 151 -63 471q-54 287 -64 393q0 15 -14 84q-6 41 -15 41 q-8 0 -8 -33q0 -64 -22 -210q-28 -249 -31 -289q-4 -50 -12 -137.5t-11 -126.5q-12 -107 -18 -189z" />
<glyph unicode="&#xc4;" d="M20 33q0 9 3 24q1 5 2.5 24.5t3.5 33.5q0 17 3 48.5t3 37.5l18 235q25 299 45 494q18 213 29 278q2 22 6.5 60t5.5 53q4 58 4 74q0 10 17 90q15 71 28 71t27 -38q23 -62 31 -107q15 -56 22 -139q4 -47 51 -297q47 -279 54 -369q2 -33 16 -160q10 -93 14 -186 q3 -100 19 -182q10 -62 10 -72q0 -20 -12 -20q-8 0 -10 2q-24 9 -39 223q-4 70 -11 125q-6 22 -26 22q-19 0 -25 -2q-44 -8 -133 -8h-90l-8 -98q-10 -120 -10 -121q-2 -20 -13 -98q-3 -14 -12 -17t-14 2q-9 6 -9 17zM82 395h92q89 0 133 8l43 7l-4 61q-11 151 -63 471 q-54 287 -64 393q0 15 -14 84q-6 41 -15 41q-8 0 -8 -33q0 -64 -22 -210q-28 -249 -31 -289q-4 -50 -12 -137.5t-11 -126.5q-12 -107 -18 -189zM111 1630v8q0 13 4 29q2 6 8 12l6 2q4 0 6 2q19 0 19 -28v-10q0 -20 -9 -35q-10 -13 -18 -13q-11 0 -14 23q0 6 -2 10zM221 1630 v10q0 46 19 46q12 0 22 -5v-4q1 -4 1.5 -10.5t0.5 -13.5v-8q0 -22 -8 -35q-10 -13 -18 -13q-12 0 -15 23q0 6 -2 10z" />
<glyph unicode="&#xc5;" horiz-adv-x="505" d="M20 33q0 9 3 24q1 5 2.5 24.5t3.5 33.5q0 17 3 48.5t3 37.5l18 235q25 299 45 494q18 213 29 278q2 22 6.5 60t5.5 53q4 58 4 74q0 8 13 71q15 60 24 82q-66 0 -78 21q-14 17 -14 108v33v4q3 30 35 49q34 21 80 21h14q74 -6 74 -90v-4q0 -40 -19 -76l-8 -19 q-10 -29 -33 -39q-19 -8 -32 -8q48 -65 69 -276q4 -47 51 -297q47 -279 54 -369q2 -33 16 -160q10 -93 14 -186q3 -100 19 -182q10 -62 10 -72q0 -20 -12 -20q-8 0 -10 2q-24 9 -39 223q-4 70 -11 125q-6 22 -26 22q-19 0 -25 -2q-44 -8 -133 -8h-90l-8 -98 q-10 -120 -10 -121q-2 -20 -13 -98q-3 -14 -12 -17t-14 2q-9 6 -9 17zM82 395h92q89 0 133 8l43 7l-4 61q-11 151 -63 471q-54 287 -64 393q0 15 -14 84q-6 41 -15 41q-8 0 -8 -33q0 -64 -22 -210q-28 -249 -31 -289q-4 -43 -12 -128.5t-11 -125.5q-12 -115 -18 -199z M125 1620q0 -21 12 -27t51 -6q20 0 41 21q13 31 15 43l6 28v11v10q0 21 -4 29q0 4 -8 12q-1 0 -17 4q-4 2 -22 2q-23 0 -29 -2q-43 -9 -43 -49v-8q2 -2 2 -11q0 -21 -2 -35q-2 -12 -2 -22z" />
<glyph unicode="&#xc6;" horiz-adv-x="786" d="M20 33q0 9 3 24q1 5 2.5 24.5t3.5 33.5q0 17 3 48.5t3 37.5l18 235q25 299 45 494q18 213 29 278q2 22 6.5 60t5.5 53q4 58 4 74q0 10 17 90q15 71 28 71t27 -38q23 -62 31 -107q15 -56 22 -139q3 -34 47 -277q46 -278 54 -354q-2 68 -2 328q0 127 -2 207v153v150 q4 66 4 73q7 30 8 31q0 4 10 4q17 0 49 -14q39 -14 86 -19q228 -24 228 -49q0 -3 -5 -8h-12q-67 0 -162 10q-103 5 -135 19q-6 2 -14 6l-12 6q0 2 -4 2q-5 0 -5 -84q0 -106 2 -182q1 -35 2 -71t2.5 -75.5t2.5 -58.5l2 -88l2 -125l86 -6q137 -9 137 -37q0 -6 -4 -10t-21 -4 q-25 0 -80 8q-57 8 -86 8q-20 0 -26 -6q-12 -12 -12 -160q0 -204 18 -465l10 -131h135h13q159 0 159 -24q0 -5 -10 -15q-9 -6 -102 -12q-91 -6 -166 -6q-62 0 -72 16q-12 18 -18 119q-1 14 -2 41.5t-2 38.5q-4 70 -11 125q-6 22 -26 22q-19 0 -25 -2q-44 -8 -133 -8h-90 l-8 -98q-10 -120 -10 -121q-2 -20 -13 -98q-3 -14 -12 -17t-14 2q-9 6 -9 17zM82 395h92q89 0 133 8l43 7l-4 61q-11 151 -63 471q-54 287 -64 393q0 15 -14 84q-6 41 -15 41q-8 0 -8 -33q0 -64 -22 -210q-28 -249 -31 -289q-4 -43 -12 -128.5t-11 -125.5q-12 -115 -18 -199 z" />
<glyph unicode="&#xc7;" horiz-adv-x="483" d="M16 600q0 307 52 551q49 224 84 295q41 86 84 86q22 0 51 -19q73 -52 116 -368q9 -53 15 -184q-19 -25 -27 -25q-6 0 -16 29q-3 100 -15 174q-38 263 -71 311q-23 33 -53 33q-16 0 -31 -15q-41 -52 -84 -231q-44 -188 -53 -324l-9 -125q-3 -61 -6 -88q-2 -18 -2 -45 q0 -8 1 -25t1 -26l13 -102q9 -81 18 -180q21 -233 88 -279q18 -12 51 -12q41 0 88 18q43 14 47 29q6 70 9 153q13 19 24 19q19 0 19 -39q-9 -107 -25 -133q-12 -34 -66 -62q-61 -31 -106 -34q0 -21 10 -21q83 0 109 -20q24 -21 24 -66v-29q-2 -14 -2 -32v-9q0 -46 -14 -57 q-13 -11 -80 -20h-12q-7 0 -21 1t-20 1q-27 9 -31 12q-12 8 -16 12q-10 3 -13 17q-7 17 -8 18q-4 4 -4 18q-4 12 -4 19q0 22 21 22q15 0 20 -8q11 -5 8 -14v-4q2 -2 2 -6q0 -7 -2 -13v-10q0 -30 72 -33h4q59 0 59 74v6v17v18q0 25 -8 37q-13 10 -41 10h-53q-14 -3 -25 8 q-6 6 -10 33v12v9q-56 9 -74 59q-27 61 -51 213q-24 148 -30 213q-7 61 -7 131z" />
<glyph unicode="&#xc8;" horiz-adv-x="479" d="M53 1176v153v150q4 66 4 73q7 30 9 31q0 4 10 4q12 0 49 -16q41 -18 86 -23q211 -21 211 -55q0 -4 -4 -8h-12q-26 0 -148 14q-107 17 -133 27q-6 2 -14 6q-3 1 -13 6q0 2 -4 2t-4 -84q0 -106 2 -182q3 -115 6 -205l2 -88l2 -125l86 -6q138 -9 138 -37q0 -6 -4 -10t-21 -4 q-25 0 -80 8q-57 8 -86 8q-20 0 -26 -6q-13 -13 -13 -160q0 -189 19 -465l10 -131h135h12q160 0 160 -24q0 -5 -10 -15q-9 -6 -103 -12q-91 -6 -165 -6q-60 0 -66 6q-3 3 -6 45q0 19 -4 109q-2 55 -10 118q-10 62 -13 695q0 127 -2 207zM147 1796v12q0 8 5 13q4 4 12 4 t12 -4l8 -6l33 -52q70 -101 70 -121q0 -6 -4 -10q0 -4 -9 -4q-14 0 -28 14z" />
<glyph unicode="&#xc9;" horiz-adv-x="479" d="M53 1176v153v150q4 66 4 73q7 30 9 31q0 4 10 4q12 0 49 -16q41 -18 86 -23q211 -21 211 -55q0 -4 -4 -8h-12q-26 0 -148 14q-107 17 -133 27q-6 2 -14 6q-3 1 -13 6q0 2 -4 2t-4 -84q0 -106 2 -182q3 -115 6 -205l2 -88l2 -125l86 -6q138 -9 138 -37q0 -6 -4 -10t-21 -4 q-25 0 -80 8q-57 8 -86 8q-20 0 -26 -6q-13 -13 -13 -160q0 -189 19 -465l10 -131h135h12q160 0 160 -24q0 -5 -10 -15q-9 -6 -103 -12q-91 -6 -165 -6q-60 0 -66 6q-3 3 -6 45q0 19 -4 109q-2 55 -10 118q-10 62 -13 695q0 127 -2 207zM197 1642q0 21 69 121l33 52l8 6 q4 4 12 4q9 0 13 -4t4 -13v-12l-98 -154q-14 -14 -29 -14q-8 0 -8 4q-4 4 -4 10z" />
<glyph unicode="&#xca;" horiz-adv-x="479" d="M53 1176v153v150q4 66 4 73q7 30 9 31q0 4 10 4q12 0 49 -16q41 -18 86 -23q211 -21 211 -55q0 -4 -4 -8h-12q-26 0 -148 14q-107 17 -133 27q-6 2 -14 6q-3 1 -13 6q0 2 -4 2t-4 -84q0 -106 2 -182q3 -115 6 -205l2 -88l2 -125l86 -6q138 -9 138 -37q0 -6 -4 -10t-21 -4 q-25 0 -80 8q-57 8 -86 8q-20 0 -26 -6q-13 -13 -13 -160q0 -189 19 -465l10 -131h135h12q160 0 160 -24q0 -5 -10 -15q-9 -6 -103 -12q-91 -6 -165 -6q-60 0 -66 6q-3 3 -6 45q0 19 -4 109q-2 55 -10 118q-10 62 -13 695q0 127 -2 207zM106 1632v10q0 20 70 121l33 52l8 6 q4 4 12 4q9 0 13 -4l4 -6l37 -52q69 -100 69 -121q0 -6 -4 -10q0 -4 -8 -4q-15 0 -29 14l-82 132l-86 -132q-11 -14 -24 -14q-1 0 -13 4z" />
<glyph unicode="&#xcb;" horiz-adv-x="479" d="M53 1176v153v150q4 66 4 73q7 30 9 31q0 4 10 4q12 0 49 -16q41 -18 86 -23q211 -21 211 -55q0 -4 -4 -8h-12q-26 0 -148 14q-107 17 -133 27q-6 2 -14 6q-3 1 -13 6q0 2 -4 2t-4 -84q0 -106 2 -182q3 -115 6 -205l2 -88l2 -125l86 -6q138 -9 138 -37q0 -6 -4 -10t-21 -4 q-25 0 -80 8q-57 8 -86 8q-20 0 -26 -6q-13 -13 -13 -160q0 -189 19 -465l10 -131h135h12q160 0 160 -24q0 -5 -10 -15q-9 -6 -103 -12q-91 -6 -165 -6q-60 0 -66 6q-3 3 -6 45q0 19 -4 109q-2 55 -10 118q-10 62 -13 695q0 127 -2 207zM176 1661v8q0 15 4 27q2 8 8 14l7 2 h2l4 2q18 0 18 -28v-11q0 -22 -8 -33q-8 -14 -18 -14q-12 0 -15 23q0 6 -2 10zM287 1663v8q0 45 18 45q15 0 23 -4v-4q1 -4 1.5 -11t0.5 -14v-8q0 -22 -8 -33q-8 -14 -19 -14t-14 23q0 6 -2 12z" />
<glyph unicode="&#xcc;" horiz-adv-x="190" d="M-57 1755q0 4 2 6l2 6q5 5 16 5q7 0 12 -5l5 -6l32 -51l23 -31l26 -37q2 -4 8 -13t9 -15q8 -11 8 -25q0 -4 -2 -6l-2 -4q-2 -1 -5 -2l-4.5 -1.5t-2.5 -0.5q-14 0 -25 14l-98 154q-4 8 -4 12zM63 57v131v377q0 358 5 568q6 203 6 264t-6 96q-3 27 2 35q3 6 6 6q7 0 14 -14 t14 -45q7 -35 7 -66l-2 -166q0 -146 -3 -512q-2 -244 -2 -489l2 -103v-10q0 -129 -28 -129q-12 0 -15 57z" />
<glyph unicode="&#xcd;" horiz-adv-x="190" d="M63 57v131v377q0 358 5 568q6 203 6 264t-6 96q-3 27 2 35q3 6 6 6q7 0 14 -14t14 -45q7 -35 7 -66l-2 -166q0 -146 -3 -512q-2 -244 -2 -489l2 -103v-10q0 -129 -28 -129q-12 0 -15 57zM66 1589q0 14 8 25q3 7 8.5 16t7.5 12l27 37l22 31l33 51l4 6q5 5 12 5q12 0 17 -5 l2 -6q2 -2 2 -6t-4 -12l-99 -154q-11 -14 -24 -14l-12 4l-2 4q-2 2 -2 6z" />
<glyph unicode="&#xce;" horiz-adv-x="190" d="M-49 1589q0 14 8 25q10 20 16 28l27 37l23 31l32 51l4 6q5 5 13 5q7 0 12 -5l8 -6l33 -51l23 -31l26 -37q2 -4 8 -13t9 -15q8 -11 8 -25q0 -4 -2 -6l-2 -4q-12 -4 -13 -4q-13 0 -24 14l-86 131l-82 -131q-14 -14 -29 -14q-8 0 -8 4q-4 4 -4 10zM63 57v131v377 q0 358 5 568q6 203 6 264t-6 96q-3 27 2 35q3 6 6 6q7 0 14 -14t14 -45q7 -35 7 -66l-2 -166q0 -146 -3 -512q-2 -244 -2 -489l2 -103v-10q0 -129 -28 -129q-12 0 -15 57z" />
<glyph unicode="&#xcf;" horiz-adv-x="190" d="M-2 1616q0 17 6 26q2 9 8 15l4 2h2q2 2 5 2q18 0 18 -29v-10q0 -22 -8 -33q-8 -14 -19 -14t-14 22v11q-2 4 -2 8zM63 57v131v377q0 358 5 568q6 203 6 264t-6 96q-3 27 2 35q3 6 6 6q7 0 14 -14t14 -45q7 -35 7 -66l-2 -166q0 -146 -3 -512q-2 -244 -2 -489l2 -103v-10 q0 -129 -28 -129q-12 0 -15 57zM109 1618q0 45 18 45q20 0 20 -4q5 -3 5 -29v-8q0 -21 -9 -33q-8 -14 -18 -14q-11 0 -14 22v13q-2 4 -2 8z" />
<glyph unicode="&#xd0;" horiz-adv-x="542" d="M-29 819q0 27 56 27h4h18q-2 63 -2 278q0 433 16 449h7q2 2 8 2q50 0 178 -23q117 -21 154 -55q40 -34 49 -108q12 -71 12 -197v-105v-55q0 -9 0.5 -30.5t1.5 -62.5t2 -79q4 -184 4 -231q0 -440 -69 -518q-27 -34 -140 -95l-190 -16q-2 -2 -6 -2q-10 0 -13 133 q-9 546 -12 678l-14 -2q-64 0 -64 12zM80 1161q0 -241 2 -313l78 2l45 6q62 4 65 4q17 0 17 -4q0 -22 -13 -25q-14 -7 -59 -10q-10 -1 -28.5 -2t-26.5 -2l-76 -6q12 -754 22 -764q4 -4 25 -4q50 0 137 37q94 40 107 61q63 63 63 555q0 152 -4 267q0 65 -1 139.5t-1 83.5 q0 82 2 100v17q2 8 2 16q0 25 -2 33q0 12 -4 28q-3 12 -6 21q-4 12 -10 20q-2 3 -4.5 8.5t-3.5 6.5t-2.5 3t-4 5t-6.5 6q-4 8 -10 14q-21 30 -119 52q-90 20 -162 20q-22 0 -22 -375z" />
<glyph unicode="&#xd1;" horiz-adv-x="499" d="M49 45q0 43 10 148q21 203 21 847q0 152 -2 166q0 20 -8 121q-9 117 -9 158q0 28 5 28q29 0 102 -241q74 -256 88 -398q3 -27 51 -309q54 -278 68 -329l22 -78l-6 166q-3 88 -6 180q-3 52 -8 172q-2 51 -2 213v133q0 82 2 141v127v88v49q-2 10 -2 17q0 67 18 67 q3 0 10 -10q9 -15 9 -106q0 -70 -2 -150v-215q0 -450 18 -837q2 -16 2 -68q0 -131 -22 -131q-12 0 -27 51q-42 161 -66 270q-34 151 -34 187q0 25 -19 106q-21 91 -29 166q-16 147 -61 336q-47 197 -61 197q-7 0 -7 -7l2 -4v-8q0 -33 7 -119q8 -99 8 -260q0 -267 -15 -559 q-12 -290 -28 -319q-10 -17 -19 -17h-4q-6 3 -6 31zM74 1608q0 18 12 39q50 36 74 36q21 0 98 -65q8 -8 21 -8q14 0 32 18q21 25 27 39l10 19q0 6 8 6q7 0 13 -9q8 -5 8 -16v-10q-46 -88 -103 -88q-28 0 -57 33q-45 45 -57 45l-33 -23q-3 -3 -33 -27q-2 -2 -12 -2 q-8 0 -8 13z" />
<glyph unicode="&#xd2;" horiz-adv-x="507" d="M43 637q0 252 41 442q60 284 111 365l32 57q18 27 29 27q4 0 35 -17q66 -46 143 -366q19 -78 19 -531q0 -266 -9 -368q-9 -129 -26 -164q-12 -34 -68 -66q-64 -34 -114 -34q-77 0 -101 61q-27 61 -51 213q-26 164 -31 213q-10 85 -10 168zM82 655q0 -33 4 -53 q0 -26 12 -100q2 -22 8 -82t9 -98q21 -233 88 -279q18 -12 51 -12q42 0 88 18q43 14 47 29q8 101 14 547q3 108 3 256q0 193 -15 258q-59 251 -100 309q-23 33 -35 33q-10 0 -20 -13q-40 -52 -84 -231q-46 -194 -54 -324l-8 -125q-3 -61 -6 -88q-2 -18 -2 -45zM123 1749 q0 4 2 8l2 4q4 4 16 4q9 0 13 -4l4 -6l33 -51l22 -31l27 -35q6 -14 16 -28q8 -16 8 -27q0 -4 -2 -6l-2 -4q-2 -1 -5 -2l-4.5 -1.5t-2.5 -0.5q-14 0 -25 14l-98 154q-4 8 -4 12z" />
<glyph unicode="&#xd3;" horiz-adv-x="507" d="M43 637q0 252 41 442q60 284 111 365l32 57q18 27 29 27q4 0 35 -17q66 -46 143 -366q19 -78 19 -531q0 -266 -9 -368q-9 -129 -26 -164q-12 -34 -68 -66q-64 -34 -114 -34q-77 0 -101 61q-27 61 -51 213q-26 164 -31 213q-10 85 -10 168zM82 655q0 -33 4 -53 q0 -26 12 -100q2 -22 8 -82t9 -98q21 -233 88 -279q18 -12 51 -12q42 0 88 18q43 14 47 29q8 101 14 547q3 108 3 256q0 193 -15 258q-59 251 -100 309q-23 33 -35 33q-10 0 -20 -13q-40 -52 -84 -231q-46 -194 -54 -324l-8 -125q-3 -61 -6 -88q-2 -18 -2 -45zM246 1583 q0 11 8 27q10 14 16 28l27 35l22 31l33 51l4 6q4 4 13 4q12 0 16 -4l2 -4q2 -4 2 -8t-4 -12l-98 -154q-11 -14 -25 -14l-12 4l-2 4q-2 2 -2 6z" />
<glyph unicode="&#xd4;" horiz-adv-x="507" d="M43 637q0 252 41 442q60 284 111 365l32 57q18 27 29 27q4 0 35 -17q66 -46 143 -366q19 -78 19 -531q0 -266 -9 -368q-9 -129 -26 -164q-12 -34 -68 -66q-64 -34 -114 -34q-77 0 -101 61q-27 61 -51 213q-26 164 -31 213q-10 85 -10 168zM82 655q0 -33 4 -53 q0 -26 12 -100q2 -22 8 -82t9 -98q21 -233 88 -279q18 -12 51 -12q42 0 88 18q43 14 47 29q8 101 14 547q3 108 3 256q0 193 -15 258q-59 251 -100 309q-23 33 -35 33q-10 0 -20 -13q-40 -52 -84 -231q-46 -194 -54 -324l-8 -125q-3 -61 -6 -88q-2 -18 -2 -45zM131 1583 q0 11 8 27q12 17 17 28l26 35l23 31l33 51l4 6q4 4 12 4t12 -4l8 -6l33 -51l23 -31l26 -35q5 -11 17 -28q8 -16 8 -27q0 -4 -2 -6l-2 -4l-12 -4q-14 0 -25 14l-86 131l-82 -131q-14 -14 -29 -14q-8 0 -8 4q-4 4 -4 10z" />
<glyph unicode="&#xd5;" horiz-adv-x="507" d="M43 637q0 252 41 442q60 284 111 365l32 57q18 27 29 27q4 0 35 -17q66 -46 143 -366q19 -78 19 -531q0 -266 -9 -368q-9 -129 -26 -164q-12 -34 -68 -66q-64 -34 -114 -34q-77 0 -101 61q-27 61 -51 213q-26 164 -31 213q-10 85 -10 168zM82 655q0 -33 4 -53 q0 -26 12 -100q2 -22 8 -82t9 -98q21 -233 88 -279q18 -12 51 -12q42 0 88 18q43 14 47 29q8 101 14 547q3 108 3 256q0 193 -15 258q-59 251 -100 309q-23 33 -35 33q-10 0 -20 -13q-40 -52 -84 -231q-46 -194 -54 -324l-8 -125q-3 -61 -6 -88q-2 -18 -2 -45zM102 1608 q0 16 13 39q56 36 73 36q26 0 103 -65q5 -8 16 -8q18 0 33 18q21 22 29 39l8 19q3 6 12 6q6 0 12 -9q9 -6 9 -16q0 -6 -4 -10q-2 -7 -13 -25q-10 -17 -35 -39q-27 -24 -51 -24q-32 0 -61 33q-39 45 -53 45q-10 0 -33 -23q-21 -15 -33 -27l-12 -2q-13 0 -13 13z" />
<glyph unicode="&#xd6;" horiz-adv-x="507" d="M43 637q0 252 41 442q60 284 111 365l32 57q18 27 29 27q4 0 35 -17q66 -46 143 -366q19 -78 19 -531q0 -266 -9 -368q-9 -129 -26 -164q-12 -34 -68 -66q-64 -34 -114 -34q-77 0 -101 61q-27 61 -51 213q-26 164 -31 213q-10 85 -10 168zM82 655q0 -33 4 -53 q0 -26 12 -100q2 -22 8 -82t9 -98q21 -233 88 -279q18 -12 51 -12q42 0 88 18q43 14 47 29q8 101 14 547q3 108 3 256q0 193 -15 258q-59 251 -100 309q-23 33 -35 33q-10 0 -20 -13q-40 -52 -84 -231q-46 -194 -54 -324l-8 -125q-3 -61 -6 -88q-2 -18 -2 -45zM178 1610 q0 16 6 28q2 6 9 13l4 2l2 2h4q18 0 18 -29v-10q0 -22 -8 -35q-9 -12 -18 -12q-12 0 -15 22v11q-2 4 -2 8zM289 1612q0 45 18 45q21 0 21 -4q4 -2 4 -29v-8q0 -22 -8 -35q-9 -12 -19 -12q-11 0 -14 22v11q-2 6 -2 10z" />
<glyph unicode="&#xd7;" horiz-adv-x="540" d="M2 532q0 4 6 13q0 11 80 88l70 84l-127 129q-29 32 -29 51q0 6 6 12q4 4 8 4q19 0 43 -30l134 -144l129 146q24 30 43 30q6 0 12 -6q4 -4 4 -12q0 -19 -29 -51l-125 -129l74 -78q76 -70 76 -94q4 -8 4 -17q0 -10 -8 -10q-37 0 -107 88l-73 76l-76 -76q-89 -80 -111 -80 q-4 0 -4 6z" />
<glyph unicode="&#xd8;" horiz-adv-x="542" d="M43 10q0 15 4 35l57 213q-7 36 -14 94q-9 53 -12 82q-1 10 -2 18.5t-1.5 12t-0.5 4.5q-11 94 -11 168q0 252 41 442q60 284 111 365l33 57q18 27 28 27q4 0 35 -17q44 -29 92 -176l64 209l2 4q0 2 2 2l4 -2q12 -3 12 -35q0 -11 -4 -43q-2 -20 -10 -51q-2 -8 -6 -23.5 t-6 -23.5l-10 -35l-5 -14l-18 -70q5 -15 10 -49q1 -4 17 -59q18 -73 18 -531q0 -277 -8 -368q-9 -127 -27 -164q-12 -35 -67 -66q-64 -34 -115 -34q-76 0 -100 61q-22 53 -35 125l-10 -43q-7 -28 -9 -35q-8 -32 -8 -41q-2 -5 -5 -16.5t-5 -16.5q-5 -16 -12 -26q-5 -8 -13 -8 q-4 0 -6 2q-5 0 -8 10q-2 2 -2 16zM102 655q0 -25 2 -41q0 -1 2.5 -18t4.5 -27q0 -8 8 -82q8 -82 12 -129l199 736l51 168q-44 153 -70 186q-23 33 -35 33q-10 0 -20 -13q-40 -52 -84 -231q-44 -188 -53 -324l-8 -125q-2 -45 -7 -88q-2 -18 -2 -45zM143 246q27 -168 80 -203 q18 -12 51 -12q42 0 88 18q44 14 48 29q5 63 14 547q2 72 2 256q0 198 -14 258l-9 32z" />
<glyph unicode="&#xd9;" horiz-adv-x="503" d="M59 1198q0 273 2 287q0 7 9 10q6 6 12 6q7 0 16 -313q6 -310 6 -602q0 -220 -4 -310q-2 -35 -2 -110v-35q0 -22 13 -35q24 -20 90 -35q71 -18 121 -18q35 0 43 8q9 6 12 275q3 231 6 551q3 282 6 303q4 28 4 98q1 26 2 75.5t2 73.5q0 68 4 76q5 8 11 8q24 0 24 -188v-78 q-14 -377 -22 -1042l-2 -166l-35 -17q-35 -18 -123 -18q-98 0 -139 21t-47 43q-9 24 -9 1132zM131 1749q0 8 4 12t15 4q8 0 12 -4l6 -6l33 -51q71 -103 71 -121q0 -6 -4 -10t-10 -4q-13 0 -27 14l-98 154q-2 4 -2 12z" />
<glyph unicode="&#xda;" horiz-adv-x="503" d="M59 1198q0 273 2 287q0 7 9 10q6 6 12 6q7 0 16 -313q6 -310 6 -602q0 -220 -4 -310q-2 -35 -2 -110v-35q0 -22 13 -35q24 -20 90 -35q71 -18 121 -18q35 0 43 8q9 6 12 275q3 231 6 551q3 282 6 303q4 28 4 98q1 26 2 75.5t2 73.5q0 68 4 76q5 8 11 8q24 0 24 -188v-78 q-14 -377 -22 -1042l-2 -166l-35 -17q-35 -18 -123 -18q-98 0 -139 21t-47 43q-9 24 -9 1132zM199 1583q0 18 71 121l33 51l6 6q4 4 13 4q10 0 14 -4t4 -12t-2 -12l-98 -154q-14 -14 -27 -14q-6 0 -10 4t-4 10z" />
<glyph unicode="&#xdb;" horiz-adv-x="503" d="M59 1198q0 273 2 287q0 7 9 10q6 6 12 6q7 0 16 -313q6 -310 6 -602q0 -220 -4 -310q-2 -35 -2 -110v-35q0 -22 13 -35q24 -20 90 -35q71 -18 121 -18q35 0 43 8q9 6 12 275q3 231 6 551q3 282 6 303q4 28 4 98q1 26 2 75.5t2 73.5q0 68 4 76q5 8 11 8q24 0 24 -188v-78 q-14 -377 -22 -1042l-2 -166l-35 -17q-35 -18 -123 -18q-98 0 -139 21t-47 43q-9 24 -9 1132zM127 1583q0 17 72 121l32 51l7 6q4 4 12 4t12 -4l6 -6l35 -51q72 -104 72 -121q0 -6 -4 -10t-11 -4q-12 0 -26 14l-84 131l-84 -131q-14 -14 -27 -14q-6 0 -10 4q-2 2 -2 10z" />
<glyph unicode="&#xdc;" horiz-adv-x="503" d="M59 1198q0 273 2 287q0 7 9 10q6 6 12 6q7 0 16 -313q6 -310 6 -602q0 -220 -4 -310q-2 -35 -2 -110v-35q0 -22 13 -35q24 -20 90 -35q71 -18 121 -18q35 0 43 8q9 6 12 275q3 231 6 551q3 282 6 303q4 28 4 98q1 26 2 75.5t2 73.5q0 68 4 76q5 8 11 8q24 0 24 -188v-78 q-14 -377 -22 -1042l-2 -166l-35 -17q-35 -18 -123 -18q-98 0 -139 21t-47 43q-9 24 -9 1132zM143 1602v8q0 12 4 28q2 6 9 13l6 2q4 0 6 2q18 0 18 -29v-10q0 -22 -8 -35q-9 -12 -18 -12q-12 0 -15 22q0 7 -2 11zM254 1602v10q0 45 18 45q15 0 23 -4l1 -4q0 -4 0.5 -11 t0.5 -14v-8q0 -22 -8 -35q-9 -12 -19 -12q-11 0 -14 22q0 7 -2 11z" />
<glyph unicode="&#xdd;" horiz-adv-x="387" d="M33 1528q0 22 12 22q13 0 25 -26l47 -326l33 -233q4 -38 10 -60q16 -52 16 -53q7 -21 10 -21q25 0 66 345q17 148 51 319l6 27q9 88 25 88q9 0 12 -86q-34 -206 -53 -355q-4 -37 -43 -268q-35 -161 -35 -260q0 -74 -2 -88q4 -36 4 -70q0 -4 -0.5 -19.5t-1.5 -47t-2 -64.5 q-6 -111 -6 -213v-37v-10q0 -129 -29 -129q-22 0 -22 98q0 62 18 416q2 14 2 62v34v25q-2 8 -2 12q-3 57 -22 164q-14 84 -37 182q-13 54 -23 105q-59 461 -59 467zM164 1665q0 17 72 121l32 51l6 6q4 4 13 4q10 0 14 -4t4 -12t-2 -12l-98 -154q-14 -14 -27 -14q-6 0 -10 4 t-4 10z" />
<glyph unicode="&#xde;" horiz-adv-x="454" d="M47 428q0 151 19 514q6 513 6 528q0 38 -2 46v40q0 43 26 43h6q15 -3 15 -53v-26q0 -58 2 -78q0 -22 2 -45t2 -60v-16q-2 -8 -2 -18q180 -27 241 -91q38 -45 46 -79q10 -45 10 -144v-14q2 -8 2 -23q0 -170 -107 -362q-3 -6 -9 -18.5t-9 -18.5q-7 -11 -12 -27l-4 -10 q-17 -37 -70 -123q-53 -75 -70 -90q-21 -21 -41 -33q-6 -336 -10 -344q0 -2 -4 -6q-2 -2 -4 -2q-23 0 -23 72v10q-2 8 -2 16q0 72 -4 232t-4 180zM100 385q0 -49 2 -51t9 -2q2 0 14 4q4 3 63 90q55 96 64 115q3 7 27 51q18 28 36 76q15 39 52 161q6 18 6 166q0 144 -21 174 q-47 68 -188 95q-5 1 -11.5 2t-10 1.5t-5.5 0.5t-4 -2h-4q-1 -13 -3.5 -54.5t-4.5 -72.5q-2 -33 -5 -79.5t-3 -53.5q0 -85 -7 -351q-6 -228 -6 -270z" />
<glyph unicode="&#xdf;" horiz-adv-x="567" d="M45 47v131q0 492 10 885q1 48 2 94t1.5 68.5t0.5 27.5q0 171 50 242q49 70 163 70q116 -3 162 -41q53 -36 53 -127q0 -188 -8 -246q-14 -43 -69 -98q-17 -17 -29 -35q-16 -24 -23 -43q-10 -27 2 -45q12 -24 50 -33q62 -18 92 -53q30 -38 30 -60v-104v-156q3 -88 3 -121 q0 -42 2 -67t2 -176q0 -167 -230 -170h-12q-70 0 -96 26q-2 2 -2 9q0 10 24 10q1 0 20 -1t36 -1l67 -6q69 0 111 51q43 52 43 98v12v11q-2 4 -2 8q-6 172 -6 362v154q0 58 -25 86t-74 49q-47 19 -69 37q-24 15 -15 68q8 49 53 94q56 56 70 100q14 43 14 186q0 110 -32 142 q-31 36 -131 39q-66 0 -105 -25q-34 -19 -59 -100q-21 -89 -21 -225q0 -261 -2 -482q-2 -225 -2 -461v-102v-10q0 -129 -28 -129q-18 0 -21 57z" />
<glyph unicode="&#xe0;" horiz-adv-x="487" d="M16 20l166 1461q3 14 11 26q13 13 18 13q2 0 10 -4q6 -6 6 -13q3 -77 54 -393l41 -270l22 -123q34 -201 43 -258l19 -125l16 -101l14 -75q9 -54 10 -56q0 -7 1 -14.5t3 -15t3 -11.5l6 -28q1 -2 2 -8t2 -9v-10q2 -2 2 -6v-6q0 -4 -29 -4q-15 0 -30 102q-14 106 -29 150 q-9 31 -39 34q-9 3 -23 3q-2 0 -49 -7q-31 -5 -98 -8l-78 -2l-6 -39q-6 -42 -6 -45q-2 -9 -4 -24.5t-2 -18.5q-6 -40 -6 -41l-5 -33q-4 -16 -4 -24q-2 -4 -5 -11l-3 -6q-6 -6 -10 -6q-23 0 -23 6zM78 1745q0 4 2 8l2 4q4 4 16 4q9 0 13 -4l4 -6l32 -51l23 -31l27 -35 q6 -14 16 -28q8 -16 8 -27q0 -4 -2 -6l-2 -4q-2 -1 -5 -2l-4.5 -1.5t-2.5 -0.5q-14 0 -25 14l-98 154q-4 8 -4 12zM90 326q0 -24 8 -29q8 -4 33 -4q51 0 139 18q97 22 97 29q0 4 -2 6q-9 13 -9 31l-16 102q-6 51 -29 180q-32 184 -84 580q-12 84 -18 84t-27 -178 q-1 -6 -5 -47t-13 -125t-19 -178q-40 -366 -53 -443q-2 -6 -2 -26z" />
<glyph unicode="&#xe1;" horiz-adv-x="487" d="M16 20l166 1461q3 14 11 26q13 13 18 13q2 0 10 -4q6 -6 6 -13q3 -77 54 -393l41 -270l22 -123q34 -201 43 -258l19 -125l16 -101l14 -75q9 -54 10 -56q0 -7 1 -14.5t3 -15t3 -11.5l6 -28q1 -2 2 -8t2 -9v-10q2 -2 2 -6v-6q0 -4 -29 -4q-15 0 -30 102q-14 106 -29 150 q-9 31 -39 34q-9 3 -23 3q-2 0 -49 -7q-31 -5 -98 -8l-78 -2l-6 -39q-6 -42 -6 -45q-2 -9 -4 -24.5t-2 -18.5q-6 -40 -6 -41l-5 -33q-4 -16 -4 -24q-2 -4 -5 -11l-3 -6q-6 -6 -10 -6q-23 0 -23 6zM90 326q0 -24 8 -29q8 -4 33 -4q51 0 139 18q97 22 97 29q0 4 -2 6 q-9 13 -9 31l-16 102q-6 51 -29 180q-32 184 -84 580q-12 84 -18 84t-27 -178q-1 -6 -5 -47t-13 -125t-19 -178q-40 -366 -53 -443q-2 -6 -2 -26zM201 1579q0 11 8 27q10 14 16 28l27 35l22 31l33 51l4 6q4 4 13 4q12 0 16 -4l2 -4q2 -4 2 -8t-4 -12l-98 -154 q-11 -14 -25 -14l-12 4l-2 4q-2 2 -2 6z" />
<glyph unicode="&#xe2;" horiz-adv-x="487" d="M16 20l166 1461q3 14 11 26q13 13 18 13q2 0 10 -4q6 -6 6 -13q3 -77 54 -393l41 -270l22 -123q34 -201 43 -258l19 -125l16 -101l14 -75q9 -54 10 -56q0 -7 1 -14.5t3 -15t3 -11.5l6 -28q1 -2 2 -8t2 -9v-10q2 -2 2 -6v-6q0 -4 -29 -4q-15 0 -30 102q-14 106 -29 150 q-9 31 -39 34q-9 3 -23 3q-2 0 -49 -7q-31 -5 -98 -8l-78 -2l-6 -39q-6 -42 -6 -45q-2 -9 -4 -24.5t-2 -18.5q-6 -40 -6 -41l-5 -33q-4 -16 -4 -24q-2 -4 -5 -11l-3 -6q-6 -6 -10 -6q-23 0 -23 6zM86 1579q0 11 8 27q12 17 17 28l26 35l23 31l33 51l4 6q4 4 12 4t12 -4l8 -6 l33 -51l23 -31l26 -35q5 -11 17 -28q8 -16 8 -27q0 -4 -2 -6l-2 -4q-12 -4 -13 -4q-13 0 -24 14l-86 131l-82 -131q-14 -14 -29 -14q-8 0 -8 4q-4 4 -4 10zM90 326q0 -24 8 -29q8 -4 33 -4q51 0 139 18q97 22 97 29q0 4 -2 6q-9 13 -9 31l-16 102q-6 51 -29 180 q-32 184 -84 580q-12 84 -18 84t-27 -178q-1 -6 -5 -47t-13 -125t-19 -178q-40 -366 -53 -443q-2 -6 -2 -26z" />
<glyph unicode="&#xe3;" horiz-adv-x="487" d="M16 20l166 1461q3 14 11 26q13 13 18 13q2 0 10 -4q6 -6 6 -13q3 -77 54 -393l41 -270l22 -123q34 -201 43 -258l19 -125l16 -101l14 -75q9 -54 10 -56q0 -7 1 -14.5t3 -15t3 -11.5l6 -28q1 -2 2 -8t2 -9v-10q2 -2 2 -6v-6q0 -4 -29 -4q-15 0 -30 102q-14 106 -29 150 q-9 31 -39 34q-9 3 -23 3q-2 0 -49 -7q-31 -5 -98 -8l-78 -2l-6 -39q-6 -42 -6 -45q-2 -9 -4 -24.5t-2 -18.5q-6 -40 -6 -41l-5 -33q-4 -16 -4 -24q-2 -4 -5 -11l-3 -6q-6 -6 -10 -6q-23 0 -23 6zM57 1604q0 15 13 38q58 37 73 37q26 0 103 -65q5 -8 16 -8q18 0 33 18 q21 22 29 39l8 18q4 7 12 7q6 0 12 -9q9 -6 9 -16q0 -5 -5 -10q-4 -11 -12 -25q-10 -17 -35 -39q-27 -24 -51 -24q-33 0 -61 32q-39 45 -54 45q-10 0 -32 -22q-21 -15 -33 -27l-12 -2q-13 0 -13 13zM90 326q0 -24 8 -29q8 -4 33 -4q51 0 139 18q97 22 97 29q0 4 -2 6 q-9 13 -9 31l-16 102q-6 51 -29 180q-32 184 -84 580q-12 84 -18 84t-27 -178q-1 -6 -5 -47t-13 -125t-19 -178q-40 -366 -53 -443q-2 -6 -2 -26z" />
<glyph unicode="&#xe4;" horiz-adv-x="487" d="M16 20l166 1461q3 14 11 26q13 13 18 13q2 0 10 -4q6 -6 6 -13q3 -77 54 -393l41 -270l22 -123q34 -201 43 -258l19 -125l16 -101l14 -75q9 -54 10 -56q0 -7 1 -14.5t3 -15t3 -11.5l6 -28q1 -2 2 -8t2 -9v-10q2 -2 2 -6v-6q0 -4 -29 -4q-15 0 -30 102q-14 106 -29 150 q-9 31 -39 34q-9 3 -23 3q-2 0 -49 -7q-31 -5 -98 -8l-78 -2l-6 -39q-6 -42 -6 -45q-2 -9 -4 -24.5t-2 -18.5q-6 -40 -6 -41l-5 -33q-4 -16 -4 -24q-2 -4 -5 -11l-3 -6q-6 -6 -10 -6q-23 0 -23 6zM90 326q0 -24 8 -29q8 -4 33 -4q51 0 139 18q97 22 97 29q0 4 -2 6 q-9 13 -9 31l-16 102q-6 51 -29 180q-32 184 -84 580q-12 84 -18 84t-27 -178q-1 -6 -5 -47t-13 -125t-19 -178q-40 -366 -53 -443q-2 -6 -2 -26zM133 1606q0 16 6 28q3 8 8 13l5 2l2 2h4q18 0 18 -29v-10q0 -22 -8 -35q-9 -12 -18 -12q-12 0 -15 22v10q-2 4 -2 9zM244 1608 q0 45 18 45q21 0 21 -4q4 -2 4 -29v-8q0 -22 -8 -35q-9 -12 -19 -12q-11 0 -14 22v10q-2 6 -2 11z" />
<glyph unicode="&#xe5;" horiz-adv-x="483" d="M12 20l166 1461q3 16 10 26q13 13 19 13q2 0 10 -4q6 -6 6 -13q3 -85 53 -393l41 -270q0 -1 2.5 -14t8.5 -44t12 -65q34 -201 43 -258l18 -125l17 -101l14 -75q9 -54 10 -56q0 -7 1 -14.5t3 -15t3 -11.5l6 -28q1 -2 2 -8t2 -9v-10q2 -2 2 -6v-6q0 -4 -29 -4 q-16 0 -31 102q-14 110 -28 150q-9 31 -39 34q-9 3 -23 3q-2 0 -49 -7q-31 -5 -98 -8l-78 -2l-6 -39q-6 -42 -6 -45q-2 -9 -4 -24.5t-2 -18.5q-1 -7 -3.5 -20.5t-3.5 -20.5l-4 -33q-4 -16 -4 -24q-2 -4 -5 -11l-3 -6q-6 -6 -10 -6q-23 0 -23 6zM86 326q0 -24 8 -29 q8 -4 33 -4q51 0 139 18q96 21 96 29q0 4 -2 6q-8 12 -8 31l-16 102q-6 51 -29 180q-32 184 -84 580q-12 84 -18 84t-27 -178q-1 -6 -5 -47t-13 -125t-19 -178q-40 -366 -53 -443q-2 -6 -2 -26zM113 1692v32v5q4 33 34 49q32 22 80 22h15q73 -6 73 -90v-4q0 -47 -16 -76 l-10 -18q-10 -29 -33 -39q-13 -8 -41 -8h-8q-68 0 -80 18q-14 17 -14 109zM152 1636q0 -20 12 -26q9 -6 49 -6q21 0 41 20q12 28 14 43l6 29v10v8q0 27 -4 35q-6 9 -24 12q-4 2 -23 2q-8 0 -28 -4q-41 -9 -41 -49v-18q0 -21 -2 -33v-23z" />
<glyph unicode="&#xe6;" horiz-adv-x="796" d="M20 33q0 9 3 24q1 5 2.5 24.5t3.5 33.5q0 17 3 48.5t3 37.5l18 235q25 299 45 494q18 213 29 278q2 22 6.5 60t5.5 53q4 58 4 74q0 10 17 90q15 71 28 71t27 -38q23 -62 31 -107q15 -56 22 -139q3 -34 47 -277q46 -278 54 -354q-2 68 -2 328q0 127 -2 207v153 q0 215 12 215h4q2 -2 6 -2q35 0 137 -10q41 -4 123 -8q15 -1 35 -1.5t31 -1t16 -1.5q23 -3 23 -11q0 -26 -39 -26q-3 0 -105 6t-202 6q-5 0 -5 -84q0 -102 2 -172q0 -13 7 -182l2 -76l2 -125h75q31 2 60 2q90 0 90 -8q0 -14 -49 -23q-30 -6 -94 -10l-50 -2q-20 0 -26 -6 q-12 -12 -12 -160q0 -204 18 -465l10 -131h135h13q159 0 159 -24q0 -5 -10 -15q-9 -6 -102 -12q-91 -6 -166 -6q-62 0 -72 16q-12 18 -18 119q-1 14 -2 41.5t-2 38.5q-2 14 -2 51q-1 8 -2 24t-2 21q0 17 -3 41q-1 5 -2 17t-2 16q-5 23 -6 25q0 10 -6 16q-3 6 -10 6 q-19 0 -25 -2q-44 -8 -133 -8h-90l-10 -168q-10 -120 -10 -121q-2 -20 -13 -98q-3 -14 -12 -17t-14 2q-9 6 -9 17zM88 465h88q89 0 133 8q10 2 19 2q8 4 10 8q4 4 4 15q0 7 -14 96q-1 4 -49 278q-40 271 -60 463q0 15 -14 84q-6 41 -15 41q-8 0 -8 -33q0 -64 -22 -210 q-28 -249 -31 -289l-20 -232l-15 -166q-6 -52 -6 -55v-10z" />
<glyph unicode="&#xe7;" horiz-adv-x="446" d="M33 223v86q0 118 4 180q1 25 7.5 141t12.5 210q16 268 23 323q19 139 22 164q17 73 29 111q14 58 43 84q28 25 66 28h14q77 0 121 -71q43 -73 43 -142q0 -29 -10 -32h-2q-13 0 -25 51q-14 47 -45 98q-34 51 -84 51q-17 0 -23 -2q-41 -9 -63 -78q-20 -70 -35 -190 q-1 -6 -1.5 -14t-1 -13t-1.5 -8q-6 -54 -18 -299q-10 -207 -23 -338q-12 -99 -12 -276q0 -155 8 -176q15 -48 35 -56q27 -18 98 -18q29 0 59 74q36 102 48 155q18 78 22 82q9 74 35 74q7 0 10 -10q-3 -6 -6 -23q-8 -32 -10 -41l-8 -45q-47 -308 -170 -323l2 -5v-6 q0 -35 10 -35q82 0 108 -20q25 -22 25 -66v-28q-2 -14 -2 -33v-8q0 -47 -14 -58q-14 -14 -80 -20h-13q-29 0 -41 4q-14 0 -30 8q-9 9 -17 13q-9 6 -12 20l-8 16q-4 4 -4 21q-4 8 -4 16q0 23 20 23q15 0 21 -6q11 -8 8 -17v-4q2 -2 2 -6q0 -6 -2 -10v-12q0 -30 72 -33h4 q59 0 59 73v7v16v18q0 25 -8 37q-15 11 -41 11h-53q-14 -3 -25 8q-6 6 -10 33v12q0 22 6 31q-34 6 -53 14q-26 7 -52 45q-27 38 -30 184z" />
<glyph unicode="&#xe8;" horiz-adv-x="430" d="M41 1548q0 4 2 6q3 7 27 7q18 0 98 -9q43 -5 129 -10q70 -3 70 -26q0 -4 -7 -11q-8 -8 -43 -8q-40 0 -108 8q-65 8 -90 8q-13 0 -15 -2t-2 -63q0 -125 9 -356q9 -233 12 -236l53 -4q70 -4 103 -8q51 -9 51 -25q0 -18 -47 -18q-41 0 -109 10l-51 8v-51q4 -46 4 -68 q0 -51 -2 -88q-1 -13 -2.5 -64.5t-3.5 -90.5q0 -71 -4 -193l-4 -215l98 -6q180 -9 180 -43q0 -12 -35 -12q-12 0 -104 6q-58 4 -178 8q-2 0 -2 33v35q6 166 6 612q0 848 -29 858q-6 3 -6 8zM98 1769v13q0 8 4 12t13 4q8 0 12 -4l8 -6l33 -51q70 -101 70 -121q0 -5 -5 -10 q0 -4 -8 -4q-14 0 -28 14z" />
<glyph unicode="&#xe9;" horiz-adv-x="430" d="M41 1548q0 4 2 6q3 7 27 7q18 0 98 -9q43 -5 129 -10q70 -3 70 -26q0 -4 -7 -11q-8 -8 -43 -8q-40 0 -108 8q-65 8 -90 8q-13 0 -15 -2t-2 -63q0 -125 9 -356q9 -233 12 -236l53 -4q70 -4 103 -8q51 -9 51 -25q0 -18 -47 -18q-41 0 -109 10l-51 8v-51q4 -46 4 -68 q0 -51 -2 -88q-1 -13 -2.5 -64.5t-3.5 -90.5q0 -71 -4 -193l-4 -215l98 -6q180 -9 180 -43q0 -12 -35 -12q-12 0 -104 6q-58 4 -178 8q-2 0 -2 33v35q6 166 6 612q0 848 -29 858q-6 3 -6 8zM188 1616q0 8 9 26q9 13 16 29l27 35l22 31l33 51l4 6q4 4 12 4q13 0 17 -4l2 -4 q2 -4 2 -8q0 -5 -4 -13l-99 -153q-11 -14 -24 -14l-12 4l-3 4q-2 2 -2 6z" />
<glyph unicode="&#xea;" horiz-adv-x="430" d="M41 1548q0 4 2 6q3 7 27 7q18 0 98 -9q43 -5 129 -10q70 -3 70 -26q0 -4 -7 -11q-8 -8 -43 -8q-40 0 -108 8q-65 8 -90 8q-13 0 -15 -2t-2 -63q0 -125 9 -356q9 -233 12 -236l53 -4q70 -4 103 -8q51 -9 51 -25q0 -18 -47 -18q-41 0 -109 10l-51 8v-51q4 -46 4 -68 q0 -51 -2 -88q-1 -13 -2.5 -64.5t-3.5 -90.5q0 -71 -4 -193l-4 -215l98 -6q180 -9 180 -43q0 -12 -35 -12q-12 0 -104 6q-58 4 -178 8q-2 0 -2 33v35q6 166 6 612q0 848 -29 858q-6 3 -6 8zM70 1606v10q0 21 69 121l33 51l8 6q4 4 13 4q8 0 12 -4l4 -6l37 -51 q69 -100 69 -121q0 -6 -4 -10q0 -4 -8 -4q-15 0 -29 14l-81 131l-87 -131q-11 -14 -24 -14z" />
<glyph unicode="&#xeb;" horiz-adv-x="430" d="M41 1548q0 4 2 6q3 7 27 7q18 0 98 -9q43 -5 129 -10q70 -3 70 -26q0 -4 -7 -11q-8 -8 -43 -8q-40 0 -108 8q-65 8 -90 8q-13 0 -15 -2t-2 -63q0 -125 9 -356q9 -233 12 -236l53 -4q70 -4 103 -8q51 -9 51 -25q0 -18 -47 -18q-41 0 -109 10l-51 8v-51q4 -46 4 -68 q0 -51 -2 -88q-1 -13 -2.5 -64.5t-3.5 -90.5q0 -71 -4 -193l-4 -215l98 -6q180 -9 180 -43q0 -12 -35 -12q-12 0 -104 6q-58 4 -178 8q-2 0 -2 33v35q6 166 6 612q0 848 -29 858q-6 3 -6 8zM139 1634v8q0 13 4 29q1 4 9 12l6 3q4 0 6 2q18 0 18 -29v-10q0 -22 -8 -35 q-9 -12 -18 -12q-12 0 -15 22q0 6 -2 10zM250 1634v11q0 45 18 45q15 0 23 -4l1 -4q0 -4 0.5 -11t0.5 -14v-8q0 -22 -8 -35q-9 -12 -19 -12q-11 0 -14 22q0 6 -2 10z" />
<glyph unicode="&#xec;" horiz-adv-x="182" d="M-8 1763v13q0 8 4 12t12 4t12 -4l9 -6l32 -51q70 -101 70 -121q0 -7 -4 -11q0 -4 -8 -4q-14 0 -29 15zM47 213q0 221 16 549q17 352 17 426q0 39 -1 98.5t-1 81.5q-2 25 -3.5 59.5t-2.5 42.5q-2 20 -2 41q0 43 26 43h6q20 -3 23 -98q0 -45 2 -59q0 -91 2 -111 q2 -16 2 -49q0 -77 -20 -381q-19 -344 -19 -653q0 -78 2 -101t2 -47q0 -39 -16 -39h-2q-15 4 -21 66q-10 51 -10 131z" />
<glyph unicode="&#xed;" horiz-adv-x="182" d="M47 213q0 221 16 549q17 352 17 426q0 39 -1 98.5t-1 81.5q-2 25 -3.5 59.5t-2.5 42.5q-2 20 -2 41q0 43 26 43h6q20 -3 23 -98q0 -45 2 -59q0 -91 2 -111q2 -16 2 -49q0 -77 -20 -381q-19 -344 -19 -653q0 -78 2 -101t2 -47q0 -39 -16 -39h-2q-15 4 -21 66 q-10 51 -10 131zM57 1610q0 12 9 24q3 6 8.5 16t7.5 13l27 37l22 31l33 51l4 6q4 4 12 4q13 0 17 -4l2 -6q2 -2 2 -6q0 -5 -4 -13l-99 -153q-12 -15 -24 -15q-1 0 -13 4l-2 5q-2 2 -2 6z" />
<glyph unicode="&#xee;" horiz-adv-x="182" d="M-33 1610q0 13 8 24q3 6 9 15.5t8 13.5l26 37l23 31l33 51l4 6q4 4 12 4t12 -4l9 -6l32 -51l23 -31l27 -37q2 -3 7.5 -13t8.5 -16q8 -11 8 -24q0 -4 -2 -6l-2 -5l-12 -4q-13 0 -25 15l-86 131l-82 -131q-15 -15 -28 -15q-9 0 -9 4q-4 4 -4 11zM47 213q0 221 16 549 q17 352 17 426q0 39 -1 98.5t-1 81.5q-2 25 -3.5 59.5t-2.5 42.5q-2 20 -2 41q0 43 26 43h6q20 -3 23 -98q0 -45 2 -59q0 -91 2 -111q2 -16 2 -49q0 -77 -20 -381q-19 -344 -19 -653q0 -78 2 -101t2 -47q0 -39 -16 -39h-2q-15 4 -21 66q-10 51 -10 131z" />
<glyph unicode="&#xef;" horiz-adv-x="182" d="M20 1628v8q0 12 5 27q2 8 8 14l6 2h2l4 2q18 0 18 -28v-11q0 -21 -8 -32q-9 -15 -18 -15q-11 0 -14 23q0 4 -3 10zM47 213q0 221 16 549q17 352 17 426q0 39 -1 98.5t-1 81.5q-2 25 -3.5 59.5t-2.5 42.5q-2 20 -2 41q0 43 26 43h6q20 -3 23 -98q0 -45 2 -59q0 -91 2 -111 q2 -16 2 -49q0 -77 -20 -381q-19 -344 -19 -653q0 -78 2 -101t2 -47q0 -39 -16 -39h-2q-15 4 -21 66q-10 51 -10 131zM131 1630v8q0 45 19 45q14 0 22 -4v-4q1 -4 1.5 -10.5t0.5 -13.5v-9q0 -21 -8 -32q-9 -15 -19 -15q-11 0 -14 23q0 6 -2 12z" />
<glyph unicode="&#xf0;" horiz-adv-x="552" d="M-14 819q0 27 55 27h4h18q-2 66 -2 278q0 432 17 449h4q4 2 10 2q50 0 178 -23q117 -21 154 -55q39 -33 51 -108q10 -78 10 -197v-105v-55q0 -9 0.5 -30.5t1.5 -62.5t2 -79q5 -230 5 -231q0 -439 -70 -518q-28 -35 -139 -95l-191 -16q-2 -2 -6 -2q-9 0 -12 133 q-6 231 -13 678l-14 -2q-63 0 -63 12zM94 1161q0 -23 4 -313l76 2l47 6q62 4 64 4q16 0 16 -4q0 -22 -12 -25q-14 -7 -60 -10q-10 -1 -28.5 -2t-26.5 -2l-76 -6q12 -753 23 -764q4 -4 24 -4q51 0 138 37q92 39 106 61q64 64 64 555q0 25 -1 114t-1 153q-5 139 -5 223 q0 73 3 100q0 11 2 17v16v33l-7 28q-3 12 -6 21q-4 12 -8 20q-4 4 -7 9l-3 6q-2 2 -10 14q-5 5 -9 10l-4 4q-21 31 -118 52q-90 20 -162 20q-23 0 -23 -375z" />
<glyph unicode="&#xf1;" horiz-adv-x="575" d="M51 1534v27q0 10 25 10q4 0 6 -2h4q8 -5 8 -15v-12q0 -61 53 -182q64 -140 99 -340q46 -220 49 -225l8 -21q0 -8 4 -20q0 -14 8 -45q2 -13 19 -78q56 -217 69 -252l19 -57q12 -27 12 -39q6 -13 8 -13q11 0 11 637q0 649 6 652q4 4 8 4q17 0 20 -90q7 -103 7 -328v-297 v-109v-209q0 -133 2 -186v-147v-103v-41v-20q2 -8 2 -17q0 -45 -13 -45h-2q-11 4 -14 13q-3 13 -6 41q-1 7 -2 21.5t-2 19.5q-17 101 -99 307q-119 420 -122 458q-3 28 -41 216q-43 196 -52 233q-5 20 -22 66q-18 40 -23 40q-3 0 -6 -63q-6 -67 -6 -104q0 -7 2 -11v-6 q2 -16 8 -284q3 -246 13 -345q8 -81 8 -348q0 -213 -8 -221l-15 -4q-12 0 -14 2q-1 1 -4 66q0 108 -4 196q0 12 -6 252q-17 763 -17 1018zM123 1651q0 18 12 39q56 36 74 36q23 0 100 -65q8 -8 19 -8q17 0 32 18q23 27 29 39l8 19q3 6 11 6q5 0 14 -6q6 -9 6 -19 q0 -8 -2 -10q-43 -88 -100 -88q-31 0 -60 33q-42 45 -55 45q-3 0 -33 -23q-18 -15 -33 -27q-2 -2 -12 -2t-10 13z" />
<glyph unicode="&#xf2;" d="M35 317v25q0 271 39 670q38 415 90 485q21 27 49 27q45 0 90 -54q55 -64 82 -409q27 -349 27 -617q0 -16 -2 -28v-23q-6 -226 -19 -270q-3 -13 -16 -43q-21 -46 -39 -64q-20 -20 -60 -26q-6 -2 -24 -2q-90 0 -154 98q-60 92 -63 231zM72 408q0 -138 30 -240 q35 -101 78 -129q28 -19 64 -19q28 0 51 13q69 37 72 334v12q0 138 -19 534q-18 373 -37 439q-35 123 -86 123q-40 0 -61 -50q-12 -28 -53 -462q-39 -409 -39 -555zM82 1733v12q0 8 4 12t12 4q9 0 13 -4l8 -6l33 -51q69 -100 69 -121q0 -6 -4 -10q0 -4 -8 -4q-15 0 -29 14z " />
<glyph unicode="&#xf3;" d="M35 317v25q0 271 39 670q38 415 90 485q21 27 49 27q45 0 90 -54q55 -64 82 -409q27 -349 27 -617q0 -16 -2 -28v-23q-6 -226 -19 -270q-3 -13 -16 -43q-21 -46 -39 -64q-20 -20 -60 -26q-6 -2 -24 -2q-90 0 -154 98q-60 92 -63 231zM72 408q0 -138 30 -240 q35 -101 78 -129q28 -19 64 -19q28 0 51 13q69 37 72 334v12q0 138 -19 534q-18 373 -37 439q-35 123 -86 123q-40 0 -61 -50q-12 -28 -53 -462q-39 -409 -39 -555zM205 1579q0 21 69 121l33 51l8 6q4 4 13 4q8 0 12 -4t4 -12v-12l-98 -154q-14 -14 -29 -14q-8 0 -8 4 q-4 4 -4 10z" />
<glyph unicode="&#xf4;" d="M35 317v25q0 271 39 670q38 415 90 485q21 27 49 27q45 0 90 -54q55 -64 82 -409q27 -349 27 -617q0 -16 -2 -28v-23q-6 -226 -19 -270q-3 -13 -16 -43q-21 -46 -39 -64q-20 -20 -60 -26q-6 -2 -24 -2q-90 0 -154 98q-60 92 -63 231zM72 408q0 -138 30 -240 q35 -101 78 -129q28 -19 64 -19q28 0 51 13q69 37 72 334v12q0 138 -19 534q-18 373 -37 439q-35 123 -86 123q-40 0 -61 -50q-12 -28 -53 -462q-39 -409 -39 -555zM90 1569v10q0 20 70 121l33 51l8 6q4 4 12 4t12 -4l4 -6l37 -51q70 -101 70 -121q0 -6 -4 -10q0 -4 -8 -4 q-15 0 -29 14l-82 131l-86 -131q-11 -14 -25 -14z" />
<glyph unicode="&#xf5;" d="M35 317v25q0 271 39 670q38 415 90 485q21 27 49 27q45 0 90 -54q55 -64 82 -409q27 -349 27 -617q0 -16 -2 -28v-23q-6 -226 -19 -270q-3 -13 -16 -43q-21 -46 -39 -64q-20 -20 -60 -26q-6 -2 -24 -2q-90 0 -154 98q-60 92 -63 231zM61 1604q0 15 13 38q52 37 73 37 q22 0 99 -65q8 -8 20 -8q15 0 33 18q21 25 27 39l10 18q0 7 8 7q6 0 12 -9q9 -6 9 -16v-10q-46 -88 -103 -88q-29 0 -57 32q-45 45 -58 45q-1 0 -32 -22q-3 -3 -33 -27q-2 -2 -12 -2q-9 0 -9 13zM72 408q0 -138 30 -240q35 -101 78 -129q28 -19 64 -19q28 0 51 13 q69 37 72 334v12q0 138 -19 534q-18 373 -37 439q-35 123 -86 123q-40 0 -61 -50q-12 -28 -53 -462q-39 -409 -39 -555z" />
<glyph unicode="&#xf6;" d="M35 317v25q0 271 39 670q38 415 90 485q21 27 49 27q45 0 90 -54q55 -64 82 -409q27 -349 27 -617q0 -16 -2 -28v-23q-6 -226 -19 -270q-3 -13 -16 -43q-21 -46 -39 -64q-20 -20 -60 -26q-6 -2 -24 -2q-90 0 -154 98q-60 92 -63 231zM72 408q0 -138 30 -240 q35 -101 78 -129q28 -19 64 -19q28 0 51 13q69 37 72 334v12q0 138 -19 534q-18 373 -37 439q-35 123 -86 123q-40 0 -61 -50q-12 -28 -53 -462q-39 -409 -39 -555zM135 1597v9q0 12 4 28q3 8 8 13l7 2q4 0 6 2q18 0 18 -29v-10q0 -22 -8 -35q-9 -12 -18 -12q-12 0 -15 22 q0 6 -2 10zM246 1597v11q0 45 18 45q15 0 23 -4l1 -4q0 -4 0.5 -11t0.5 -14v-8q0 -22 -8 -35q-9 -12 -19 -12q-11 0 -14 22q0 6 -2 10z" />
<glyph unicode="&#xf7;" horiz-adv-x="299" d="M-41 625q0 26 59 26l129 4l46 4q25 5 36 5q45 0 45 -17q0 -21 -12 -24q-17 -8 -59 -11q-10 -1 -29 -2t-27 -2l-124 -10q-64 0 -64 27zM86 463q0 16 2 24q1 2 2 7t2 6q2 2 2 6q0 24 19 24q25 0 32 -10q7 -14 7 -49v-12q0 -26 -13 -49q-13 -19 -26 -19q-20 0 -23 33 q-1 10 -2 19l-1.5 13.5t-0.5 6.5zM98 831q0 17 2 25q1 2 2 6.5t2 5.5q2 2 2 6q0 25 19 25q29 0 35 -12q10 -10 10 -47v-13q0 -29 -14 -49q-12 -18 -29 -18q-22 0 -25 33q-1 10 -2 19t-1.5 13t-0.5 6z" />
<glyph unicode="&#xf8;" horiz-adv-x="542" d="M43 10q0 15 4 35l57 213q-7 36 -14 94q-9 53 -12 82q-1 10 -2 18.5t-1.5 12t-0.5 4.5q-11 94 -11 168q0 252 41 442q60 284 111 365l33 57q18 27 28 27q4 0 35 -17q44 -29 92 -176l64 209l2 4q0 2 2 2l4 -2q12 -3 12 -35q0 -11 -4 -43q-2 -20 -10 -51q-2 -8 -6 -23.5 t-6 -23.5l-10 -35l-5 -14l-18 -70q5 -15 10 -49q1 -4 17 -59q18 -73 18 -531q0 -277 -8 -368q-9 -127 -27 -164q-12 -35 -67 -66q-64 -34 -115 -34q-76 0 -100 61q-22 53 -35 125l-10 -43q-7 -28 -9 -35q-8 -32 -8 -41q-2 -5 -5 -16.5t-5 -16.5q-5 -16 -12 -26q-5 -8 -13 -8 q-4 0 -6 2q-5 0 -8 10q-2 2 -2 16zM102 655q0 -25 2 -41q0 -1 2.5 -18t4.5 -27q0 -8 8 -82q8 -82 12 -129l199 736l51 168q-44 153 -70 186q-23 33 -35 33q-10 0 -20 -13q-40 -52 -84 -231q-44 -188 -53 -324l-8 -125q-2 -45 -7 -88q-2 -18 -2 -45zM143 246q27 -168 80 -203 q18 -12 51 -12q42 0 88 18q44 14 48 29q5 63 14 547q2 72 2 256q0 198 -14 258l-9 32z" />
<glyph unicode="&#xf9;" horiz-adv-x="483" d="M51 225v86q0 119 4 181q23 330 23 643q0 157 -6 225q-6 70 -6 117q0 20 2 22q3 6 8 6q17 0 35 -110q12 -80 12 -336q0 -319 -21 -494q-10 -92 -10 -276q0 -155 8 -176q15 -47 35 -60q19 -11 96 -14q13 0 23 -2h20q57 0 72 12q19 16 19 320v114q-3 83 -3 140q0 74 3 221 q2 100 2 192q0 463 20 469q2 0 2 2h2q10 0 23 -16q8 -24 8 -39q0 -14 -2 -18q-9 -21 -21 -1211v-198l-43 -19q-41 -18 -145 -18q-45 0 -78 8q-25 6 -51 45q-28 39 -31 184zM113 1745q0 8 4 12t14 4q8 0 12 -4l7 -6l32 -51q72 -104 72 -121q0 -6 -4 -10t-10 -4q-13 0 -27 14 l-98 154q-2 4 -2 12z" />
<glyph unicode="&#xfa;" horiz-adv-x="483" d="M51 225v86q0 119 4 181q23 330 23 643q0 157 -6 225q-6 70 -6 117q0 20 2 22q3 6 8 6q17 0 35 -110q12 -80 12 -336q0 -319 -21 -494q-10 -92 -10 -276q0 -155 8 -176q15 -47 35 -60q19 -11 96 -14q13 0 23 -2h20q57 0 72 12q19 16 19 320v114q-3 83 -3 140q0 74 3 221 q2 100 2 192q0 463 20 469q2 0 2 2h2q10 0 23 -16q8 -24 8 -39q0 -14 -2 -18q-9 -21 -21 -1211v-198l-43 -19q-41 -18 -145 -18q-45 0 -78 8q-25 6 -51 45q-28 39 -31 184zM168 1579q0 17 72 121l32 51l7 6q4 4 12 4q10 0 14 -4t4 -12t-2 -12l-98 -154q-14 -14 -27 -14 q-6 0 -10 4t-4 10z" />
<glyph unicode="&#xfb;" horiz-adv-x="483" d="M51 225v86q0 119 4 181q23 330 23 643q0 157 -6 225q-6 70 -6 117q0 20 2 22q3 6 8 6q17 0 35 -110q12 -80 12 -336q0 -319 -21 -494q-10 -92 -10 -276q0 -155 8 -176q15 -47 35 -60q19 -11 96 -14q13 0 23 -2h20q57 0 72 12q19 16 19 320v114q-3 83 -3 140q0 74 3 221 q2 100 2 192q0 463 20 469q2 0 2 2h2q10 0 23 -16q8 -24 8 -39q0 -14 -2 -18q-9 -21 -21 -1211v-198l-43 -19q-41 -18 -145 -18q-45 0 -78 8q-25 6 -51 45q-28 39 -31 184zM121 1579q0 17 72 121l32 51l6 6q4 4 13 4q8 0 12 -4l6 -6l35 -51q72 -104 72 -121q0 -6 -4 -10 t-11 -4q-12 0 -26 14l-84 131l-84 -131q-14 -14 -27 -14q-6 0 -10 4q-2 2 -2 10z" />
<glyph unicode="&#xfc;" horiz-adv-x="483" d="M51 225v86q0 119 4 181q23 330 23 643q0 157 -6 225q-6 70 -6 117q0 20 2 22q3 6 8 6q17 0 35 -110q12 -80 12 -336q0 -319 -21 -494q-10 -92 -10 -276q0 -155 8 -176q15 -47 35 -60q19 -11 96 -14q13 0 23 -2h20q57 0 72 12q19 16 19 320v114q-3 83 -3 140q0 74 3 221 q2 100 2 192q0 463 20 469q2 0 2 2h2q10 0 23 -16q8 -24 8 -39q0 -14 -2 -18q-9 -21 -21 -1211v-198l-43 -19q-41 -18 -145 -18q-45 0 -78 8q-25 6 -51 45q-28 39 -31 184zM168 1597v9q0 12 4 28q2 8 8 13l6 2q5 0 7 2q18 0 18 -29v-10q0 -22 -8 -35q-9 -12 -19 -12 q-11 0 -14 22q0 6 -2 10zM279 1597v11q0 45 18 45q14 0 22 -4l1 -4q0 -4 1 -11t1 -14v-8q0 -20 -9 -35q-9 -12 -18 -12q-11 0 -14 22q0 6 -2 10z" />
<glyph unicode="&#xfd;" horiz-adv-x="507" d="M51 1370q0 142 2 156q0 16 13 16q26 0 26 -319v-117v-57v-84q0 -107 19 -123q28 -25 137 -25q106 0 131 19q8 5 8 61q0 9 -0.5 25t-1.5 46t-2 54q-4 126 -4 139q0 58 2 72q-2 51 -2 176v12q-2 27 -2 95q0 66 18 69q25 0 25 -166q0 -43 -2 -59v-33v-45q2 -16 2 -31v-6 q14 -749 14 -891q0 -235 -10 -252q-15 -44 -80 -73q-59 -33 -133 -33t-113 39q-43 67 -43 147q0 15 4 47q3 17 11 33q7 10 10 10q6 0 6 -18q0 -4 2 -8q2 -6 2 -62q0 -153 129 -153q45 0 88 18q45 17 64 43q26 20 26 277q0 200 -6 440l-22 -10q-36 -19 -123 -19 q-100 0 -140 21q-41 21 -47 45q-8 21 -8 524zM172 1640q0 20 70 121l32 51l9 7q4 4 12 4t12 -4t4 -13v-12l-98 -154q-14 -14 -29 -14q-8 0 -8 4q-4 4 -4 10z" />
<glyph unicode="&#xfe;" d="M47 459q0 151 19 514q1 45 2 133t2 131v176q2 29 2 66q0 24 -2 28v33q0 43 26 43h6q21 -6 21 -199l-2 -51q181 -27 241 -90q56 -65 56 -354v-17q2 -8 2 -20q0 -118 -68 -242q-66 -126 -123 -186q-57 -64 -90 -90q-21 -21 -41 -33q-6 -336 -10 -344q0 -2 -4 -6 q-2 -2 -4 -2q-23 0 -23 71v13q-2 4 -2 14q0 72 -4 232t-4 180zM100 416q0 -49 2 -51q3 -3 9 -3q2 0 4 1t5 2t5 2l11 9q10 10 16 17q12 12 59 72q28 36 76 113q31 55 59 147q27 85 27 170q0 275 -21 305q-46 67 -188 94q-5 1 -11.5 2t-10 1.5t-5.5 0.5h-4q-2 -2 -4 -2 q-1 -12 -3.5 -53t-4.5 -72q-2 -34 -4.5 -80t-3.5 -55q0 -84 -7 -350q-6 -228 -6 -270z" />
<glyph unicode="&#xff;" horiz-adv-x="507" d="M51 1370q0 142 2 156q0 16 13 16q26 0 26 -319v-117v-57v-84q0 -107 19 -123q28 -25 137 -25q106 0 131 19q8 5 8 61q0 9 -0.5 25t-1.5 46t-2 54q-4 126 -4 139q0 58 2 72q-2 51 -2 176v12q-2 27 -2 95q0 66 18 69q25 0 25 -166q0 -43 -2 -59v-33v-45q2 -16 2 -31v-6 q14 -749 14 -891q0 -235 -10 -252q-15 -44 -80 -73q-59 -33 -133 -33t-113 39q-43 67 -43 147q0 15 4 47q3 17 11 33q7 10 10 10q6 0 6 -18q0 -4 2 -8q2 -6 2 -62q0 -153 129 -153q45 0 88 18q45 17 64 43q26 20 26 277q0 200 -6 440l-22 -10q-36 -19 -123 -19 q-100 0 -140 21q-41 21 -47 45q-8 21 -8 524zM164 1659v8q0 13 4 29q2 6 8 12l6 2q4 0 6 2q19 0 19 -29v-10q0 -22 -8 -35q-9 -12 -19 -12q-11 0 -14 23q0 6 -2 10zM274 1659v10q0 45 19 45q14 0 22 -4l1 -4q0 -4 0.5 -11t0.5 -14v-8q0 -22 -8 -35q-9 -12 -18 -12 q-12 0 -15 23q0 6 -2 10z" />
<glyph unicode="&#x152;" horiz-adv-x="806" d="M14 637q0 252 41 442q60 284 111 365l33 57q18 27 28 27q4 0 35 -17q55 -40 113 -245v55q0 114 2 149q0 58 4 74q0 8 1 15t2 11l1 5q8 4 12 4q12 0 49 -16q41 -18 86 -23q228 -24 228 -55q0 -4 -4 -8h-13q-24 0 -157 14q-117 19 -140 27q-3 1 -8 3t-8 3q-8 4 -8 6 q-4 2 -6 2q-4 0 -4 -84q0 -19 1 -79.5t1 -102.5q2 -46 4 -119t2 -86l2 -88l2 -125l86 -6q137 -9 137 -37q0 -6 -4 -10t-20 -4q-25 0 -82 8q-55 8 -84 8q-21 0 -27 -6q-3 -3 -6 -27v-160q0 -53 -2 -98v-92q4 -107 14 -248l10 -131h136h12q160 0 160 -25q0 -3 -11 -14 q-9 -6 -100 -12q-95 -6 -168 -6q-59 0 -65 6l-9 127q-9 -43 -24 -64q-17 -20 -55 -41q-64 -34 -115 -34q-77 0 -101 61q-27 61 -51 213q-24 148 -30 213q-11 93 -11 168zM53 655q0 -33 4 -51l11 -102q9 -81 18 -180q21 -233 88 -279q18 -12 51 -12q41 0 88 18q43 14 47 29 q6 82 15 547q2 72 2 256q0 193 -15 258q-59 251 -100 309q-23 33 -35 33q-10 0 -20 -13q-41 -52 -84 -231q-44 -188 -53 -324l-9 -125q-3 -61 -6 -88q-2 -18 -2 -45z" />
<glyph unicode="&#x153;" horiz-adv-x="694" d="M23 317v25q0 282 38 670q37 413 91 485q21 27 49 27q45 0 90 -54q21 -25 35 -84q-6 151 -19 154q-6 3 -6 8q0 4 2 6q3 7 27 7q20 0 96 -9q45 -5 131 -10q70 -3 70 -26q0 -5 -6 -11q-8 -8 -43 -8q-42 0 -107 8q-68 8 -92 8q-12 0 -14 -2q-3 -3 -3 -63q0 -114 9 -375 q14 -157 16 -217q22 0 59 -4q55 0 103 -10q41 -9 41 -23q0 -18 -47 -18q-41 0 -109 10l-45 8q2 -31 2 -131q0 -82 -2 -137t-2 -107q0 -16 -2 -28v-23q-1 -34 -2.5 -68t-3 -67.5t-2.5 -48.5q-6 -71 -6 -107v-53l98 -6q180 -9 180 -43q0 -12 -35 -12q-14 0 -102 6 q-60 4 -180 8q-2 0 -2 21q-24 -27 -66 -33q-6 -2 -24 -2q-90 0 -154 98q-60 92 -63 231zM59 408q0 -135 31 -240q35 -101 78 -129q28 -19 63 -19q29 0 52 13q30 17 47 71q6 282 6 578v244q-18 357 -37 426q-35 123 -86 123q-40 0 -61 -50q-13 -31 -54 -462 q-39 -409 -39 -555z" />
<glyph unicode="&#x178;" horiz-adv-x="387" d="M33 1528q0 22 12 22q13 0 25 -26l47 -326l33 -233q4 -38 10 -60q16 -52 16 -53q7 -21 10 -21q25 0 66 345q17 148 51 319l6 27q9 88 25 88q9 0 12 -86q-34 -206 -53 -355q-4 -37 -43 -268q-35 -161 -35 -260q0 -74 -2 -88q4 -36 4 -70q0 -4 -0.5 -19.5t-1.5 -47t-2 -64.5 q-6 -111 -6 -213v-37v-10q0 -129 -29 -129q-22 0 -22 98q0 62 18 416q2 14 2 62v34v25q-2 8 -2 12q-3 57 -22 164q-14 84 -37 182q-13 54 -23 105q-59 461 -59 467zM90 1683v9q0 12 4 28q2 8 8 13l7 2q4 0 6 2q18 0 18 -29v-10q0 -22 -8 -35q-9 -12 -19 -12q-11 0 -14 22 q0 6 -2 10zM201 1683v11q0 45 18 45q15 0 23 -4v-4q1 -4 1.5 -11t0.5 -14v-8q0 -22 -8 -35q-9 -12 -19 -12q-11 0 -14 22q0 6 -2 10z" />
<glyph unicode="&#x2c6;" horiz-adv-x="339" d="M20 1460q0 17 72 121l33 51l6 6q4 4 12 4q9 0 13 -4l6 -6l35 -51q71 -103 71 -121q0 -6 -4 -10t-10 -4q-13 0 -27 14l-84 131l-84 -131q-14 -14 -26 -14q-6 0 -10 4q-3 3 -3 10z" />
<glyph unicode="&#x2dc;" horiz-adv-x="397" d="M47 1530q0 18 12 39q58 37 74 37q22 0 100 -66q8 -8 19 -8q17 0 35 18q15 18 24 39l11 19q3 6 10 6t12 -8q8 -5 8 -17q0 -8 -2 -10q-43 -88 -100 -88q-31 0 -60 33q-42 45 -55 45q-3 0 -33 -23q-12 -10 -32 -26q-2 -2 -13 -2q-10 0 -10 12z" />
<glyph unicode="&#x2000;" horiz-adv-x="923" />
<glyph unicode="&#x2001;" horiz-adv-x="1847" />
<glyph unicode="&#x2002;" horiz-adv-x="923" />
<glyph unicode="&#x2003;" horiz-adv-x="1847" />
<glyph unicode="&#x2004;" horiz-adv-x="615" />
<glyph unicode="&#x2005;" horiz-adv-x="461" />
<glyph unicode="&#x2006;" horiz-adv-x="307" />
<glyph unicode="&#x2007;" horiz-adv-x="307" />
<glyph unicode="&#x2008;" horiz-adv-x="230" />
<glyph unicode="&#x2009;" horiz-adv-x="369" />
<glyph unicode="&#x200a;" horiz-adv-x="102" />
<glyph unicode="&#x2010;" horiz-adv-x="366" d="M-6 625q0 18 59 18l129 4l47 4q16 4 35 4h23q22 3 22 -8q0 -21 -12 -24q-17 -8 -59 -11q-10 -1 -29 -2t-27 -2l-125 -10q-63 0 -63 27z" />
<glyph unicode="&#x2011;" horiz-adv-x="366" d="M-6 625q0 18 59 18l129 4l47 4q16 4 35 4h23q22 3 22 -8q0 -21 -12 -24q-17 -8 -59 -11q-10 -1 -29 -2t-27 -2l-125 -10q-63 0 -63 27z" />
<glyph unicode="&#x2012;" horiz-adv-x="366" d="M-6 625q0 18 59 18l129 4l47 4q16 4 35 4h23q22 3 22 -8q0 -21 -12 -24q-17 -8 -59 -11q-10 -1 -29 -2t-27 -2l-125 -10q-63 0 -63 27z" />
<glyph unicode="&#x2013;" horiz-adv-x="741" d="M-41 625q0 26 59 26l572 4l45 4q25 5 37 5q45 0 45 -17q0 -21 -12 -24q-16 -8 -60 -11q-10 -1 -28.5 -2t-26.5 -2l-567 -10q-64 0 -64 27z" />
<glyph unicode="&#x2014;" horiz-adv-x="1202" d="M-41 625q0 26 59 26l1033 4l47 4q20 5 35 5q45 0 45 -17q0 -21 -13 -24q-17 -8 -59 -11q-10 -1 -28.5 -2t-26.5 -2l-1028 -10q-64 0 -64 27z" />
<glyph unicode="&#x2018;" horiz-adv-x="153" d="M18 1538q3 17 13 23h2q14 3 20 -11l4 -6l15 -59q6 -24 14 -47q2 -10 7.5 -29.5t6.5 -26.5q15 -52 15 -67q0 -16 -9 -19l-2 -2q-12 -5 -28 23q-2 6 -6 14l-2 12q-4 18 -5 19q-2 14 -14 70q-2 10 -31 106z" />
<glyph unicode="&#x2019;" horiz-adv-x="149" d="M37 1315q0 9 12 67q1 3 2.5 8.5t5 17t6.5 22.5t7 23.5t6.5 20t3.5 11.5l14 59l4 6q7 14 19 11h4q9 -6 12 -23q-29 -96 -31 -106q-11 -34 -14 -70l-6 -31q0 -4 -4 -8q0 -1 -1 -3t-1 -3q-16 -29 -31 -23v2q-8 3 -8 19z" />
<glyph unicode="&#x201a;" horiz-adv-x="129" d="M-6 12q0 16 10 68q1 2 14 47q3 11 7 23.5t6.5 20t3.5 11.5l14 60l4 6q7 13 19 10h4q9 -6 12 -22q-21 -77 -31 -107q-11 -34 -14 -70l-6 -30q0 -5 -4 -9q0 -1 -1 -3t-1 -3q-16 -28 -31 -22v2q-6 3 -6 18z" />
<glyph unicode="&#x201c;" horiz-adv-x="241" d="M-4 1524q0 12 10 22h4q16 3 21 -10l4 -6l14 -60q6 -24 12 -49q16 -45 17 -53q12 -58 12 -68q0 -15 -6 -18l-2 -2q-13 -5 -29 23q-2 6 -6 14l-6 31q-1 12 -14 69q-10 30 -31 107zM102 1552q3 17 13 23h4q13 3 18 -10l4 -6l15 -60q6 -24 12 -49q14 -40 16 -53 q13 -63 13 -68q0 -15 -7 -18l-2 -2q-13 -5 -28 22q-10 21 -13 45q-2 14 -14 70q-2 10 -31 106z" />
<glyph unicode="&#x201d;" horiz-adv-x="278" d="M33 1329q0 9 12 68l31 102l14 60l4 6q7 13 19 10h4q10 -7 10 -23q-1 -4 -4.5 -17t-11 -39.5t-13.5 -49.5q-8 -20 -8 -29q-4 -10 -4 -24q-1 -3 -2 -9t-2 -8q-5 -32 -10 -45q-19 -28 -31 -22v2q-8 3 -8 18zM139 1300q0 18 15 68q1 5 3 13t5.5 19.5t5.5 20.5q8 25 14 49 l15 60l4 6q6 13 18 10h4q10 -7 13 -22q-21 -77 -31 -107q-15 -66 -15 -69l-6 -31q0 -4 -4 -6q0 -2 -1 -4.5t-1 -3.5q-16 -29 -31 -23v2q-8 3 -8 18z" />
<glyph unicode="&#x201e;" horiz-adv-x="241" d="M-4 53q0 15 12 68l31 102l14 60l4 8q11 11 19 8h4q10 -7 10 -23q-2 -8 -4.5 -17.5t-6 -22.5t-5.5 -21q-7 -28 -13 -45q-8 -20 -8 -31q-4 -8 -4 -22q-1 -3 -2 -9t-2 -8q-3 -21 -10 -43q-15 -27 -31 -24v2q-8 3 -8 18zM102 25q0 21 15 67q1 7 6 25.5t8 29.5q7 20 14 48 l15 59l4 8q11 10 18 8h4q10 -7 13 -22q-21 -77 -31 -107q-13 -57 -14 -69l-7 -31l-4 -8l-2 -4q-12 -28 -30 -25v2q-9 3 -9 19z" />
<glyph unicode="&#x2022;" horiz-adv-x="342" d="M55 678q0 9 4 63q6 45 7 62q9 50 20 94q15 59 43 98q25 41 66 41q33 0 51 -12q23 -16 37 -74q16 -59 16 -166v-63q0 -61 -4 -131q-3 -44 -16 -103q-11 -50 -41 -77q-28 -25 -74 -25h-10q-48 3 -72 94q-27 85 -27 199z" />
<glyph unicode="&#x2026;" horiz-adv-x="337" d="M25 53q0 17 2 25q1 2 2 6.5t2 5.5q2 2 2 6q0 25 18 25q21 0 21 -60v-12q0 -29 -11 -45q-6 -20 -18 -20q-11 0 -14 30q-1 10 -2 19l-1.5 13.5t-0.5 6.5zM145 41v10q0 10 7 35q10 23 20 23q21 0 21 -50v-12q0 -65 -27 -65h-2q-19 3 -19 59zM276 57v19q0 49 27 49 q29 0 29 -62v-12q0 -23 -13 -43q-14 -20 -24 -20q-11 0 -14 30q-1 10 -2 19t-2 14t-1 6z" />
<glyph unicode="&#x202f;" horiz-adv-x="369" />
<glyph unicode="&#x2039;" horiz-adv-x="829" d="M-41 666q0 7 10 24q2 1 15.5 4t41 10t56.5 15q2 0 24.5 4t40.5 6q9 1 95 16q32 5 233 66q181 53 244 59q17 7 35 7q28 0 28 -15q0 -6 -4 -6q0 -1 -12 -4q-4 0 -16 -4q-553 -151 -586 -156q-75 -9 -131 -24l645 -138q2 -2 18 -2q21 0 25 -4q10 0 10 -8q-6 -14 -37 -14 q-22 0 -368 63q-7 0 -346 88q-21 0 -21 13z" />
<glyph unicode="&#x203a;" horiz-adv-x="800" d="M-27 797q0 6 11 10q3 1 10 3t10 3l10 2q19 0 60 -14q40 -15 114 -27q354 -57 564 -106q22 -13 22 -21q0 -6 -8 -14q-1 -1 -3 -1.5l-6 -1.5t-7 -3q-9 0 -17 -4q-43 -11 -225 -66q-239 -67 -250 -70q-48 -11 -92 -24q-41 -9 -64 -19q-4 -2 -34 -14q-18 -7 -19 -8l-6 -4 q-4 0 -4 10q0 33 49 45q6 1 19.5 5t19.5 5q16 6 16 9q2 1 4.5 2t4.5 2l8 2l20 4q33 7 514 149q-65 8 -350 66q-307 57 -311 57q-60 9 -60 23z" />
<glyph unicode="&#x205f;" horiz-adv-x="461" />
<glyph unicode="&#x20ac;" horiz-adv-x="364" d="M-74 625q0 16 60 16h16q1 42 8 162q-63 0 -63 26q0 19 59 19h8q12 179 39 303q49 224 84 295q41 86 84 86q22 0 51 -19q61 -36 2 -63q-23 33 -53 33q-16 0 -31 -15q-40 -52 -84 -231q-44 -188 -53 -324l-4 -63l86 2l45 4q20 4 37 4h23q22 3 22 -8q0 -22 -12 -25 q-14 -7 -60 -10q-10 -1 -28.5 -2t-26.5 -2l-88 -8l-10 -160v-2l78 2l45 6q12 0 24 1t13 1q45 -3 45 -6q0 -21 -13 -24q-17 -8 -59 -11q-10 -1 -28.5 -2t-26.5 -2l-76 -6q3 -8 6 -45q1 -13 4.5 -45.5t5.5 -48.5l15 -141q24 -306 125 -306h8l55 11l45 10q6 0 14 1t9 1l4 -2 q0 -5 -25 -21q-64 -34 -115 -34q-76 0 -100 61q-27 61 -51 213q-26 164 -31 213q-6 53 -6 129h-12q-64 0 -64 27z" />
<glyph unicode="&#x2122;" horiz-adv-x="927" d="M16 1516v2v4q0 2 2 4t9 2q2 1 8.5 2t9.5 2q17 0 27 2q136 4 141 4q212 0 215 -14v-6q0 -27 -135 -27q-23 7 -23 0l-6 -385q0 -18 -22 -12q-25 9 -25 12v100q-2 63 -2 191q0 92 -2 94h-8h-37h-43q-109 3 -109 25zM506 1534v27q0 8 14 8q16 5 21 0l69 -203q52 -121 76 -227 l137 485q3 18 21 18q12 0 20 -8q10 -10 10 -18v-21q0 -134 -8 -530q-13 -32 -18 -29q-10 4 -19 29q0 65 2 106v103q3 37 3 53q8 117 8 156v8l-119 -354q-30 -50 -45 -50q-10 0 -23 23q-9 13 -16 33q-65 282 -98 282q-2 0 -2 -32q0 -88 10 -176l8 -80q0 -21 -14 -35l-15 -4 q-12 0 -14 2q-8 8 -8 434z" />
<glyph unicode="&#xe000;" horiz-adv-x="1597" d="M0 0v1597h1597v-1597h-1597z" />
</font>
</defs>
</svg>
